<svg xmlns="http://www.w3.org/2000/svg" viewBox="0 0 400 400" fill="none">
  <path d="M152.6,41.1 L165.0,35.7 L176.5,31.0 L218.4,20.0 L245.9,27.9 L256.9,38.9 L264.9,58.4 L265.4,75.9 L263.4,109.2 L261.3,127.1 L242.2,143.8 L232.4,125.7 L233.4,110.4 L234.1,89.2 L229.6,73.6 L215.2,60.2 L189.9,60.4 L131.8,82.2 L112.3,92.6 L98.7,125.7 L108.1,137.2 L124.7,144.4 L140.1,148.2 L168.1,155.8 L181.9,160.4 L195.0,165.7 L211.5,173.3 L220.0,177.6 L228.8,182.1 L242.5,189.1 L250.9,193.5 L304.8,222.0 L314.5,227.1 L329.4,235.2 L344.0,246.9 L355.3,276.5 L342.4,321.1 L338.8,329.9 L335.2,338.8 L325.0,361.7 L315.6,371.6 L287.0,380.0 L253.5,373.6 L232.4,365.4 L194.4,332.2 L188.6,318.9 L187.2,307.4 L193.0,280.1 L201.9,255.4 L204.0,245.1 L201.0,230.4 L181.4,215.9 L163.8,209.8 L125.0,195.7 L114.3,191.6 L97.9,185.4 L82.5,179.4 L60.6,169.6 L44.7,145.3 L59.5,97.6 L73.0,84.6 L93.8,69.9 L115.3,58.0 L152.6,41.1 Z"
    stroke="#ffffff" stroke-width="8" stroke-linecap="round" stroke-linejoin="round"
    stroke-opacity="0.15" fill="none"/>
  <path d="M152.6,41.1 L165.0,35.7 L176.5,31.0 L218.4,20.0 L245.9,27.9 L256.9,38.9 L264.9,58.4 L265.4,75.9 L263.4,109.2 L261.3,127.1 L242.2,143.8 L232.4,125.7 L233.4,110.4 L234.1,89.2 L229.6,73.6 L215.2,60.2 L189.9,60.4 L131.8,82.2 L112.3,92.6 L98.7,125.7 L108.1,137.2 L124.7,144.4 L140.1,148.2 L168.1,155.8 L181.9,160.4 L195.0,165.7 L211.5,173.3 L220.0,177.6 L228.8,182.1 L242.5,189.1 L250.9,193.5 L304.8,222.0 L314.5,227.1 L329.4,235.2 L344.0,246.9 L355.3,276.5 L342.4,321.1 L338.8,329.9 L335.2,338.8 L325.0,361.7 L315.6,371.6 L287.0,380.0 L253.5,373.6 L232.4,365.4 L194.4,332.2 L188.6,318.9 L187.2,307.4 L193.0,280.1 L201.9,255.4 L204.0,245.1 L201.0,230.4 L181.4,215.9 L163.8,209.8 L125.0,195.7 L114.3,191.6 L97.9,185.4 L82.5,179.4 L60.6,169.6 L44.7,145.3 L59.5,97.6 L73.0,84.6 L93.8,69.9 L115.3,58.0 L152.6,41.1 Z"
    stroke="#4db8ff" stroke-width="4.0" stroke-linecap="round" stroke-linejoin="round"
    fill="none" id="track-outline"/>
</svg>