<svg xmlns="http://www.w3.org/2000/svg" viewBox="0 0 400 400" fill="none">
  <path d="M264.7,89.5 L316.4,82.0 L352.7,98.1 L377.3,137.7 L380.0,172.9 L375.4,236.7 L372.9,256.3 L360.6,281.5 L342.1,283.6 L326.2,242.7 L328.9,218.5 L325.3,180.8 L320.4,167.9 L303.3,149.7 L258.5,147.1 L198.3,166.9 L171.3,178.8 L136.9,196.8 L113.9,221.4 L98.5,279.9 L83.3,312.3 L38.3,318.0 L21.1,295.4 L20.0,250.8 L52.9,200.8 L79.3,177.8 L107.8,159.7 L167.9,129.5 L187.8,120.1 L264.7,89.5 Z"
    stroke="#ffffff" stroke-width="8" stroke-linecap="round" stroke-linejoin="round"
    stroke-opacity="0.15" fill="none"/>
  <path d="M264.7,89.5 L316.4,82.0 L352.7,98.1 L377.3,137.7 L380.0,172.9 L375.4,236.7 L372.9,256.3 L360.6,281.5 L342.1,283.6 L326.2,242.7 L328.9,218.5 L325.3,180.8 L320.4,167.9 L303.3,149.7 L258.5,147.1 L198.3,166.9 L171.3,178.8 L136.9,196.8 L113.9,221.4 L98.5,279.9 L83.3,312.3 L38.3,318.0 L21.1,295.4 L20.0,250.8 L52.9,200.8 L79.3,177.8 L107.8,159.7 L167.9,129.5 L187.8,120.1 L264.7,89.5 Z"
    stroke="#4db8ff" stroke-width="4.0" stroke-linecap="round" stroke-linejoin="round"
    fill="none" id="track-outline"/>
</svg>