<svg xmlns="http://www.w3.org/2000/svg" viewBox="0 0 400 400" fill="none">
  <path d="M89.0,269.2 L116.4,289.9 L133.2,302.5 L148.0,305.4 L149.3,298.8 L140.8,282.3 L139.1,276.8 L138.7,266.4 L144.8,252.9 L156.6,243.3 L172.0,233.4 L179.1,226.0 L189.3,211.1 L202.5,200.2 L209.5,181.8 L229.8,169.8 L243.7,174.7 L249.2,176.7 L255.4,177.1 L267.5,170.6 L280.0,159.0 L288.3,161.3 L295.7,166.3 L307.7,166.6 L324.4,162.2 L335.5,156.5 L343.4,149.8 L355.0,135.2 L370.6,115.6 L377.4,106.8 L380.0,94.9 L369.8,94.6 L349.3,101.7 L279.4,122.4 L229.7,132.1 L196.7,136.9 L159.0,142.0 L150.3,147.1 L153.3,155.5 L165.5,167.2 L169.0,171.9 L170.7,182.8 L158.6,185.7 L154.1,182.3 L147.9,172.2 L143.8,167.5 L133.2,162.0 L128.1,164.6 L129.9,173.7 L142.5,190.3 L145.8,204.9 L141.5,217.7 L124.3,227.3 L104.8,223.1 L94.8,214.9 L86.5,202.0 L78.5,192.3 L71.9,188.9 L54.5,192.3 L29.6,204.0 L23.8,207.0 L20.0,212.9 L24.8,221.7 L41.5,233.9 L89.0,269.2 Z"
    stroke="#ffffff" stroke-width="8" stroke-linecap="round" stroke-linejoin="round"
    stroke-opacity="0.15" fill="none"/>
  <path d="M89.0,269.2 L116.4,289.9 L133.2,302.5 L148.0,305.4 L149.3,298.8 L140.8,282.3 L139.1,276.8 L138.7,266.4 L144.8,252.9 L156.6,243.3 L172.0,233.4 L179.1,226.0 L189.3,211.1 L202.5,200.2 L209.5,181.8 L229.8,169.8 L243.7,174.7 L249.2,176.7 L255.4,177.1 L267.5,170.6 L280.0,159.0 L288.3,161.3 L295.7,166.3 L307.7,166.6 L324.4,162.2 L335.5,156.5 L343.4,149.8 L355.0,135.2 L370.6,115.6 L377.4,106.8 L380.0,94.9 L369.8,94.6 L349.3,101.7 L279.4,122.4 L229.7,132.1 L196.7,136.9 L159.0,142.0 L150.3,147.1 L153.3,155.5 L165.5,167.2 L169.0,171.9 L170.7,182.8 L158.6,185.7 L154.1,182.3 L147.9,172.2 L143.8,167.5 L133.2,162.0 L128.1,164.6 L129.9,173.7 L142.5,190.3 L145.8,204.9 L141.5,217.7 L124.3,227.3 L104.8,223.1 L94.8,214.9 L86.5,202.0 L78.5,192.3 L71.9,188.9 L54.5,192.3 L29.6,204.0 L23.8,207.0 L20.0,212.9 L24.8,221.7 L41.5,233.9 L89.0,269.2 Z"
    stroke="#4db8ff" stroke-width="4.0" stroke-linecap="round" stroke-linejoin="round"
    fill="none" id="track-outline"/>
</svg>