<svg xmlns="http://www.w3.org/2000/svg" viewBox="0 0 400 400" fill="none">
  <path d="M323.7,199.0 L358.3,154.7 L373.0,133.8 L380.0,108.7 L356.6,107.0 L311.1,124.1 L153.4,169.1 L82.9,184.3 L41.3,191.7 L20.0,203.6 L22.3,216.3 L48.9,256.7 L68.4,277.2 L78.7,286.6 L100.0,293.0 L125.5,277.5 L154.9,252.3 L176.8,257.2 L190.5,269.6 L217.4,269.5 L254.9,260.0 L280.1,247.6 L297.2,231.4 L323.7,199.0 Z"
    stroke="#ffffff" stroke-width="8" stroke-linecap="round" stroke-linejoin="round"
    stroke-opacity="0.15" fill="none"/>
  <path d="M323.7,199.0 L358.3,154.7 L373.0,133.8 L380.0,108.7 L356.6,107.0 L311.1,124.1 L153.4,169.1 L82.9,184.3 L41.3,191.7 L20.0,203.6 L22.3,216.3 L48.9,256.7 L68.4,277.2 L78.7,286.6 L100.0,293.0 L125.5,277.5 L154.9,252.3 L176.8,257.2 L190.5,269.6 L217.4,269.5 L254.9,260.0 L280.1,247.6 L297.2,231.4 L323.7,199.0 Z"
    stroke="#4db8ff" stroke-width="4.0" stroke-linecap="round" stroke-linejoin="round"
    fill="none" id="track-outline"/>
</svg>