<svg xmlns="http://www.w3.org/2000/svg" viewBox="0 0 400 400" fill="none">
  <path d="M58.6,222.5 L145.0,286.8 L194.8,324.3 L225.6,346.9 L252.3,352.2 L254.4,340.4 L239.1,310.7 L235.7,300.1 L235.2,281.6 L246.0,256.9 L267.7,239.3 L295.4,221.7 L310.4,205.6 L326.9,181.2 L350.8,161.2 L364.2,128.4 L372.1,118.0 L378.9,105.8 L380.0,89.9 L373.8,76.0 L369.8,71.4 L366.9,68.2 L364.3,64.9 L359.7,57.4 L355.7,52.7 L340.0,47.8 L292.7,53.0 L271.2,56.0 L256.3,65.0 L267.0,86.0 L283.5,101.4 L290.1,110.3 L293.5,129.7 L271.8,135.0 L263.7,129.4 L252.0,111.3 L244.3,102.3 L225.8,92.3 L215.9,97.1 L219.3,113.3 L242.1,143.9 L247.4,170.4 L240.1,193.3 L209.5,211.0 L172.7,202.5 L155.4,188.0 L140.5,164.7 L126.1,147.3 L114.3,141.2 L82.5,147.2 L36.8,168.7 L27.0,174.0 L20.0,184.6 L28.8,200.4 L58.6,222.5 Z"
    stroke="#ffffff" stroke-width="8" stroke-linecap="round" stroke-linejoin="round"
    stroke-opacity="0.15" fill="none"/>
  <path d="M58.6,222.5 L145.0,286.8 L194.8,324.3 L225.6,346.9 L252.3,352.2 L254.4,340.4 L239.1,310.7 L235.7,300.1 L235.2,281.6 L246.0,256.9 L267.7,239.3 L295.4,221.7 L310.4,205.6 L326.9,181.2 L350.8,161.2 L364.2,128.4 L372.1,118.0 L378.9,105.8 L380.0,89.9 L373.8,76.0 L369.8,71.4 L366.9,68.2 L364.3,64.9 L359.7,57.4 L355.7,52.7 L340.0,47.8 L292.7,53.0 L271.2,56.0 L256.3,65.0 L267.0,86.0 L283.5,101.4 L290.1,110.3 L293.5,129.7 L271.8,135.0 L263.7,129.4 L252.0,111.3 L244.3,102.3 L225.8,92.3 L215.9,97.1 L219.3,113.3 L242.1,143.9 L247.4,170.4 L240.1,193.3 L209.5,211.0 L172.7,202.5 L155.4,188.0 L140.5,164.7 L126.1,147.3 L114.3,141.2 L82.5,147.2 L36.8,168.7 L27.0,174.0 L20.0,184.6 L28.8,200.4 L58.6,222.5 Z"
    stroke="#4db8ff" stroke-width="4.0" stroke-linecap="round" stroke-linejoin="round"
    fill="none" id="track-outline"/>
</svg>