<svg xmlns="http://www.w3.org/2000/svg" viewBox="0 0 400 400" fill="none">
  <path d="M114.3,229.4 L56.4,220.4 L34.9,216.5 L20.0,202.7 L26.9,183.1 L35.4,172.5 L63.8,154.4 L96.0,151.7 L125.3,155.2 L149.8,146.5 L168.2,137.7 L183.2,136.9 L198.1,146.0 L217.9,166.5 L227.9,173.5 L259.1,181.9 L296.1,177.6 L320.4,165.1 L336.0,166.4 L347.8,178.1 L370.0,214.6 L376.9,225.5 L380.0,236.7 L362.5,258.7 L335.8,263.1 L238.3,257.3 L209.8,255.8 L199.7,252.3 L192.3,243.2 L175.3,236.8 L124.9,231.1 L114.3,229.4 Z"
    stroke="#ffffff" stroke-width="8" stroke-linecap="round" stroke-linejoin="round"
    stroke-opacity="0.15" fill="none"/>
  <path d="M114.3,229.4 L56.4,220.4 L34.9,216.5 L20.0,202.7 L26.9,183.1 L35.4,172.5 L63.8,154.4 L96.0,151.7 L125.3,155.2 L149.8,146.5 L168.2,137.7 L183.2,136.9 L198.1,146.0 L217.9,166.5 L227.9,173.5 L259.1,181.9 L296.1,177.6 L320.4,165.1 L336.0,166.4 L347.8,178.1 L370.0,214.6 L376.9,225.5 L380.0,236.7 L362.5,258.7 L335.8,263.1 L238.3,257.3 L209.8,255.8 L199.7,252.3 L192.3,243.2 L175.3,236.8 L124.9,231.1 L114.3,229.4 Z"
    stroke="#4db8ff" stroke-width="4.0" stroke-linecap="round" stroke-linejoin="round"
    fill="none" id="track-outline"/>
</svg>