<svg xmlns="http://www.w3.org/2000/svg" viewBox="0 0 400 400" fill="none">
  <path d="M113.7,222.7 L56.3,213.9 L34.8,210.0 L20.0,196.1 L26.8,176.6 L35.4,166.0 L63.7,147.8 L95.9,145.2 L125.2,148.2 L149.6,139.6 L168.1,131.2 L183.1,130.5 L198.1,139.4 L217.9,160.0 L227.8,167.1 L259.1,175.3 L296.0,171.0 L320.4,158.4 L336.0,159.8 L347.8,171.6 L370.0,208.0 L376.9,219.0 L380.0,230.2 L362.6,252.4 L335.8,256.7 L274.5,251.0 L240.2,248.9 L211.3,247.4 L201.1,249.5 L192.1,256.7 L171.3,262.4 L129.3,263.8 L103.9,267.3 L88.0,269.5 L76.5,262.4 L90.5,254.5 L145.5,248.4 L156.2,247.6 L173.0,238.2 L156.0,227.3 L124.9,224.4 L113.7,222.7 Z"
    stroke="#ffffff" stroke-width="8" stroke-linecap="round" stroke-linejoin="round"
    stroke-opacity="0.15" fill="none"/>
  <path d="M113.7,222.7 L56.3,213.9 L34.8,210.0 L20.0,196.1 L26.8,176.6 L35.4,166.0 L63.7,147.8 L95.9,145.2 L125.2,148.2 L149.6,139.6 L168.1,131.2 L183.1,130.5 L198.1,139.4 L217.9,160.0 L227.8,167.1 L259.1,175.3 L296.0,171.0 L320.4,158.4 L336.0,159.8 L347.8,171.6 L370.0,208.0 L376.9,219.0 L380.0,230.2 L362.6,252.4 L335.8,256.7 L274.5,251.0 L240.2,248.9 L211.3,247.4 L201.1,249.5 L192.1,256.7 L171.3,262.4 L129.3,263.8 L103.9,267.3 L88.0,269.5 L76.5,262.4 L90.5,254.5 L145.5,248.4 L156.2,247.6 L173.0,238.2 L156.0,227.3 L124.9,224.4 L113.7,222.7 Z"
    stroke="#4db8ff" stroke-width="4.0" stroke-linecap="round" stroke-linejoin="round"
    fill="none" id="track-outline"/>
</svg>