<svg xmlns="http://www.w3.org/2000/svg" viewBox="0 0 400 400" fill="none">
  <path d="M132.3,205.5 L83.2,358.4 L167.4,177.3 L254.1,107.6 L342.0,37.1 L362.5,20.0 L375.1,23.1 L375.1,40.9 L367.9,59.8 L354.5,79.6 L334.0,104.1 L317.5,124.6 L309.6,135.1 L304.4,149.5 L308.9,170.8 L317.8,187.1 L315.0,226.2 L294.0,243.0 L268.7,239.1 L263.1,236.5 L256.3,226.6 L247.5,212.9 L244.3,208.4 L228.1,197.3 L212.7,221.3 L215.6,248.0 L217.4,261.0 L217.0,273.6 L210.3,297.5 L200.0,317.2 L183.2,338.6 L168.8,351.3 L143.0,370.1 L133.9,376.5 L123.1,380.0 L72.2,350.2 L65.9,329.5 L82.1,317.5 L91.5,310.0 L97.1,288.5 L95.6,284.3 L84.7,275.8 L71.1,284.5 L51.0,304.4 L35.6,309.7 L24.9,295.5 L34.5,280.6 L47.8,270.5 L102.2,228.0 L107.7,373.2 L132.3,205.5 Z"
    stroke="#ffffff" stroke-width="8" stroke-linecap="round" stroke-linejoin="round"
    stroke-opacity="0.15" fill="none"/>
  <path d="M132.3,205.5 L83.2,358.4 L167.4,177.3 L254.1,107.6 L342.0,37.1 L362.5,20.0 L375.1,23.1 L375.1,40.9 L367.9,59.8 L354.5,79.6 L334.0,104.1 L317.5,124.6 L309.6,135.1 L304.4,149.5 L308.9,170.8 L317.8,187.1 L315.0,226.2 L294.0,243.0 L268.7,239.1 L263.1,236.5 L256.3,226.6 L247.5,212.9 L244.3,208.4 L228.1,197.3 L212.7,221.3 L215.6,248.0 L217.4,261.0 L217.0,273.6 L210.3,297.5 L200.0,317.2 L183.2,338.6 L168.8,351.3 L143.0,370.1 L133.9,376.5 L123.1,380.0 L72.2,350.2 L65.9,329.5 L82.1,317.5 L91.5,310.0 L97.1,288.5 L95.6,284.3 L84.7,275.8 L71.1,284.5 L51.0,304.4 L35.6,309.7 L24.9,295.5 L34.5,280.6 L47.8,270.5 L102.2,228.0 L107.7,373.2 L132.3,205.5 Z"
    stroke="#4db8ff" stroke-width="4.0" stroke-linecap="round" stroke-linejoin="round"
    fill="none" id="track-outline"/>
</svg>