<svg xmlns="http://www.w3.org/2000/svg" viewBox="0 0 400 400"><path d="M 204.2,121.4 L 203.1,121.2 L 182.8,119.8 L 182.5,119.8 L 168.5,120.1 L 163.2,120.4 L 148.6,122.0 L 144.2,122.7 L 126.1,126.3 L 126.0,126.3 L 120.1,128.1 L 119.9,128.1 L 118.0,129.0 L 117.9,129.0 L 116.7,129.7 L 116.6,129.8 L 115.6,130.5 L 115.5,130.5 L 114.7,131.1 L 114.6,131.2 L 113.9,131.9 L 113.8,132.0 L 113.2,132.8 L 113.1,132.9 L 112.7,133.6 L 112.6,133.7 L 112.2,134.5 L 112.0,134.9 L 111.5,136.0 L 111.2,136.9 L 109.7,140.2 L 109.7,140.3 L 109.0,141.5 L 108.9,141.7 L 107.9,142.9 L 107.8,143.0 L 106.9,144.1 L 106.8,144.2 L 105.8,145.2 L 105.4,145.5 L 104.3,146.4 L 103.8,146.7 L 102.4,147.6 L 101.3,148.2 L 99.7,149.1 L 91.1,154.0 L 91.0,154.2 L 89.1,155.8 L 89.0,155.9 L 87.3,157.7 L 87.1,158.0 L 85.9,159.5 L 85.7,159.8 L 84.0,162.4 L 83.4,163.3 L 82.1,165.8 L 81.5,167.1 L 80.0,170.8 L 78.9,173.8 L 58.8,236.6 L 58.8,236.7 L 59.4,240.7 L 59.6,242.0 L 60.6,249.1 L 60.6,249.2 L 60.5,250.3 L 60.5,250.4 L 60.3,251.5 L 60.2,251.8 L 59.9,252.8 L 59.9,253.1 L 59.4,254.2 L 59.4,254.3 L 58.7,255.6 L 58.6,255.8 L 57.8,257.1 L 57.7,257.3 L 56.6,258.8 L 56.4,259.1 L 55.1,260.5 L 54.6,261.0 L 53.0,262.5 L 52.0,263.4 L 49.7,265.2 L 25.3,285.9 L 25.3,286.0 L 24.9,286.7 L 24.8,286.9 L 24.5,287.5 L 24.5,287.6 L 24.3,288.2 L 24.2,288.3 L 24.1,288.8 L 24.1,289.0 L 24.0,289.4 L 24.0,289.7 L 24.0,290.0 L 24.0,290.3 L 24.0,290.6 L 24.0,290.9 L 24.1,291.2 L 24.1,291.5 L 24.2,291.8 L 24.3,292.0 L 24.4,292.4 L 24.5,292.6 L 24.7,293.0 L 24.7,293.1 L 25.0,293.5 L 25.1,293.7 L 25.3,294.0 L 25.4,294.2 L 25.7,294.5 L 25.9,294.6 L 26.1,294.9 L 26.3,295.0 L 26.6,295.3 L 26.9,295.5 L 27.2,295.7 L 27.6,295.9 L 28.0,296.1 L 28.5,296.3 L 28.9,296.5 L 29.4,296.7 L 30.0,296.8 L 30.6,297.0 L 31.3,297.1 L 32.1,297.2 L 33.0,297.3 L 33.9,297.4 L 35.4,297.4 L 36.9,297.4 L 38.3,297.3 L 40.4,297.0 L 42.5,296.7 L 44.6,296.3 L 96.4,287.7 L 96.7,287.7 L 103.8,287.9 L 104.4,288.0 L 111.4,288.8 L 112.4,288.9 L 136.2,291.5 L 136.3,291.4 L 138.0,291.0 L 138.1,291.0 L 139.4,290.6 L 139.8,290.4 L 140.9,289.9 L 141.2,289.8 L 142.1,289.3 L 142.4,289.0 L 143.5,288.3 L 143.8,288.1 L 144.8,287.3 L 145.1,287.0 L 146.0,286.0 L 146.2,285.8 L 147.2,284.6 L 147.5,284.3 L 148.5,282.8 L 148.8,282.3 L 149.7,280.7 L 150.0,280.2 L 150.7,278.5 L 151.0,277.8 L 151.8,275.3 L 152.1,274.5 L 152.6,272.3 L 152.9,271.0 L 153.3,268.0 L 153.5,266.4 L 153.7,263.2 L 153.7,262.0 L 153.7,258.5 L 153.6,257.2 L 153.2,254.0 L 153.0,252.8 L 152.4,249.6 L 151.9,248.0 L 150.7,243.7 L 146.9,228.8 L 146.8,228.6 L 146.2,223.8 L 146.1,223.6 L 146.0,220.2 L 146.0,220.0 L 146.2,217.3 L 146.2,217.2 L 146.4,215.6 L 146.5,215.4 L 146.8,213.9 L 146.9,213.5 L 147.6,211.8 L 147.8,211.1 L 150.2,205.9 L 150.2,205.7 L 151.6,203.3 L 151.7,203.2 L 152.2,202.4 L 152.3,202.3 L 152.8,201.8 L 152.8,201.7 L 153.4,201.3 L 153.4,201.2 L 154.0,200.8 L 154.2,200.7 L 154.8,200.3 L 154.9,200.2 L 155.5,199.9 L 155.7,199.8 L 156.3,199.6 L 156.5,199.5 L 157.1,199.4 L 157.5,199.3 L 158.2,199.1 L 158.7,199.0 L 159.4,199.0 L 160.1,198.9 L 160.6,198.9 L 161.3,198.9 L 161.8,199.0 L 162.5,199.1 L 163.3,199.2 L 164.2,199.4 L 165.2,199.6 L 172.8,201.3 L 172.9,201.3 L 176.7,201.5 L 178.0,201.6 L 184.1,201.4 L 202.3,200.4 L 252.7,199.6 L 252.8,199.7 L 253.6,200.2 L 253.8,200.4 L 254.6,200.9 L 256.6,202.4 L 256.8,202.4 L 257.3,202.7 L 257.5,202.8 L 258.1,202.9 L 258.3,203.0 L 258.9,203.1 L 259.2,203.2 L 259.6,203.3 L 260.1,203.3 L 260.6,203.3 L 261.1,203.3 L 261.8,203.3 L 262.3,203.3 L 263.1,203.2 L 263.7,203.1 L 264.6,202.9 L 265.2,202.7 L 266.3,202.3 L 267.1,202.0 L 268.4,201.5 L 270.4,200.5 L 293.6,188.1 L 293.8,188.0 L 301.5,182.6 L 303.0,181.5 L 311.6,174.3 L 313.1,173.0 L 318.1,168.1 L 322.3,163.5 L 340.6,145.1 L 340.7,145.0 L 345.1,141.9 L 345.3,141.7 L 349.2,139.5 L 350.0,139.0 L 375.2,124.3 L 375.3,124.2 L 375.6,123.5 L 375.6,123.3 L 375.8,122.9 L 375.8,122.7 L 375.9,122.3 L 375.9,122.0 L 376.0,121.5 L 376.0,121.3 L 376.0,120.7 L 376.0,120.2 L 375.9,119.3 L 375.8,118.7 L 375.7,117.8 L 375.6,117.3 L 375.3,116.5 L 375.2,116.0 L 374.8,115.0 L 374.3,113.7 L 373.6,112.2 L 372.9,111.0 L 372.0,109.4 L 371.4,108.5 L 370.9,107.7 L 370.4,107.2 L 370.0,106.7 L 369.6,106.3 L 369.3,105.9 L 368.8,105.5 L 368.4,105.2 L 368.0,104.9 L 367.6,104.6 L 367.1,104.3 L 366.8,104.1 L 366.3,103.9 L 365.8,103.7 L 365.2,103.5 L 364.6,103.2 L 363.7,103.0 L 363.1,102.9 L 362.5,102.8 L 361.9,102.7 L 361.2,102.6 L 360.6,102.6 L 359.9,102.6 L 359.3,102.6 L 358.6,102.7 L 358.2,102.7 L 357.6,102.8 L 357.0,103.0 L 356.3,103.2 L 355.6,103.4 L 354.2,103.9 L 352.0,104.9 L 298.3,125.2 L 298.1,125.3 L 290.3,126.3 L 287.7,126.5 L 268.7,127.2 L 250.5,127.1 L 239.2,126.5 L 233.4,126.0 L 224.2,124.7" fill="none" stroke="rgba(255,255,255,0.15)" stroke-width="5" stroke-linecap="round" stroke-linejoin="round"/><path d="M 204.2,121.4 L 203.1,121.2 L 182.8,119.8 L 182.5,119.8 L 168.5,120.1 L 163.2,120.4 L 148.6,122.0 L 144.2,122.7 L 126.1,126.3 L 126.0,126.3 L 120.1,128.1 L 119.9,128.1 L 118.0,129.0 L 117.9,129.0 L 116.7,129.7 L 116.6,129.8 L 115.6,130.5 L 115.5,130.5 L 114.7,131.1 L 114.6,131.2 L 113.9,131.9 L 113.8,132.0 L 113.2,132.8 L 113.1,132.9 L 112.7,133.6 L 112.6,133.7 L 112.2,134.5 L 112.0,134.9 L 111.5,136.0 L 111.2,136.9 L 109.7,140.2 L 109.7,140.3 L 109.0,141.5 L 108.9,141.7 L 107.9,142.9 L 107.8,143.0 L 106.9,144.1 L 106.8,144.2 L 105.8,145.2 L 105.4,145.5 L 104.3,146.4 L 103.8,146.7 L 102.4,147.6 L 101.3,148.2 L 99.7,149.1 L 91.1,154.0 L 91.0,154.2 L 89.1,155.8 L 89.0,155.9 L 87.3,157.7 L 87.1,158.0 L 85.9,159.5 L 85.7,159.8 L 84.0,162.4 L 83.4,163.3 L 82.1,165.8 L 81.5,167.1 L 80.0,170.8 L 78.9,173.8 L 58.8,236.6 L 58.8,236.7 L 59.4,240.7 L 59.6,242.0 L 60.6,249.1 L 60.6,249.2 L 60.5,250.3 L 60.5,250.4 L 60.3,251.5 L 60.2,251.8 L 59.9,252.8 L 59.9,253.1 L 59.4,254.2 L 59.4,254.3 L 58.7,255.6 L 58.6,255.8 L 57.8,257.1 L 57.7,257.3 L 56.6,258.8 L 56.4,259.1 L 55.1,260.5 L 54.6,261.0 L 53.0,262.5 L 52.0,263.4 L 49.7,265.2 L 25.3,285.9 L 25.3,286.0 L 24.9,286.7 L 24.8,286.9 L 24.5,287.5 L 24.5,287.6 L 24.3,288.2 L 24.2,288.3 L 24.1,288.8 L 24.1,289.0 L 24.0,289.4 L 24.0,289.7 L 24.0,290.0 L 24.0,290.3 L 24.0,290.6 L 24.0,290.9 L 24.1,291.2 L 24.1,291.5 L 24.2,291.8 L 24.3,292.0 L 24.4,292.4 L 24.5,292.6 L 24.7,293.0 L 24.7,293.1 L 25.0,293.5 L 25.1,293.7 L 25.3,294.0 L 25.4,294.2 L 25.7,294.5 L 25.9,294.6 L 26.1,294.9 L 26.3,295.0 L 26.6,295.3 L 26.9,295.5 L 27.2,295.7 L 27.6,295.9 L 28.0,296.1 L 28.5,296.3 L 28.9,296.5 L 29.4,296.7 L 30.0,296.8 L 30.6,297.0 L 31.3,297.1 L 32.1,297.2 L 33.0,297.3 L 33.9,297.4 L 35.4,297.4 L 36.9,297.4 L 38.3,297.3 L 40.4,297.0 L 42.5,296.7 L 44.6,296.3 L 96.4,287.7 L 96.7,287.7 L 103.8,287.9 L 104.4,288.0 L 111.4,288.8 L 112.4,288.9 L 136.2,291.5 L 136.3,291.4 L 138.0,291.0 L 138.1,291.0 L 139.4,290.6 L 139.8,290.4 L 140.9,289.9 L 141.2,289.8 L 142.1,289.3 L 142.4,289.0 L 143.5,288.3 L 143.8,288.1 L 144.8,287.3 L 145.1,287.0 L 146.0,286.0 L 146.2,285.8 L 147.2,284.6 L 147.5,284.3 L 148.5,282.8 L 148.8,282.3 L 149.7,280.7 L 150.0,280.2 L 150.7,278.5 L 151.0,277.8 L 151.8,275.3 L 152.1,274.5 L 152.6,272.3 L 152.9,271.0 L 153.3,268.0 L 153.5,266.4 L 153.7,263.2 L 153.7,262.0 L 153.7,258.5 L 153.6,257.2 L 153.2,254.0 L 153.0,252.8 L 152.4,249.6 L 151.9,248.0 L 150.7,243.7 L 146.9,228.8 L 146.8,228.6 L 146.2,223.8 L 146.1,223.6 L 146.0,220.2 L 146.0,220.0 L 146.2,217.3 L 146.2,217.2 L 146.4,215.6 L 146.5,215.4 L 146.8,213.9 L 146.9,213.5 L 147.6,211.8 L 147.8,211.1 L 150.2,205.9 L 150.2,205.7 L 151.6,203.3 L 151.7,203.2 L 152.2,202.4 L 152.3,202.3 L 152.8,201.8 L 152.8,201.7 L 153.4,201.3 L 153.4,201.2 L 154.0,200.8 L 154.2,200.7 L 154.8,200.3 L 154.9,200.2 L 155.5,199.9 L 155.7,199.8 L 156.3,199.6 L 156.5,199.5 L 157.1,199.4 L 157.5,199.3 L 158.2,199.1 L 158.7,199.0 L 159.4,199.0 L 160.1,198.9 L 160.6,198.9 L 161.3,198.9 L 161.8,199.0 L 162.5,199.1 L 163.3,199.2 L 164.2,199.4 L 165.2,199.6 L 172.8,201.3 L 172.9,201.3 L 176.7,201.5 L 178.0,201.6 L 184.1,201.4 L 202.3,200.4 L 252.7,199.6 L 252.8,199.7 L 253.6,200.2 L 253.8,200.4 L 254.6,200.9 L 256.6,202.4 L 256.8,202.4 L 257.3,202.7 L 257.5,202.8 L 258.1,202.9 L 258.3,203.0 L 258.9,203.1 L 259.2,203.2 L 259.6,203.3 L 260.1,203.3 L 260.6,203.3 L 261.1,203.3 L 261.8,203.3 L 262.3,203.3 L 263.1,203.2 L 263.7,203.1 L 264.6,202.9 L 265.2,202.7 L 266.3,202.3 L 267.1,202.0 L 268.4,201.5 L 270.4,200.5 L 293.6,188.1 L 293.8,188.0 L 301.5,182.6 L 303.0,181.5 L 311.6,174.3 L 313.1,173.0 L 318.1,168.1 L 322.3,163.5 L 340.6,145.1 L 340.7,145.0 L 345.1,141.9 L 345.3,141.7 L 349.2,139.5 L 350.0,139.0 L 375.2,124.3 L 375.3,124.2 L 375.6,123.5 L 375.6,123.3 L 375.8,122.9 L 375.8,122.7 L 375.9,122.3 L 375.9,122.0 L 376.0,121.5 L 376.0,121.3 L 376.0,120.7 L 376.0,120.2 L 375.9,119.3 L 375.8,118.7 L 375.7,117.8 L 375.6,117.3 L 375.3,116.5 L 375.2,116.0 L 374.8,115.0 L 374.3,113.7 L 373.6,112.2 L 372.9,111.0 L 372.0,109.4 L 371.4,108.5 L 370.9,107.7 L 370.4,107.2 L 370.0,106.7 L 369.6,106.3 L 369.3,105.9 L 368.8,105.5 L 368.4,105.2 L 368.0,104.9 L 367.6,104.6 L 367.1,104.3 L 366.8,104.1 L 366.3,103.9 L 365.8,103.7 L 365.2,103.5 L 364.6,103.2 L 363.7,103.0 L 363.1,102.9 L 362.5,102.8 L 361.9,102.7 L 361.2,102.6 L 360.6,102.6 L 359.9,102.6 L 359.3,102.6 L 358.6,102.7 L 358.2,102.7 L 357.6,102.8 L 357.0,103.0 L 356.3,103.2 L 355.6,103.4 L 354.2,103.9 L 352.0,104.9 L 298.3,125.2 L 298.1,125.3 L 290.3,126.3 L 287.7,126.5 L 268.7,127.2 L 250.5,127.1 L 239.2,126.5 L 233.4,126.0 L 224.2,124.7" fill="none" stroke="#4db8ff" stroke-width="2.5" stroke-linecap="round" stroke-linejoin="round"/></svg>