<svg xmlns="http://www.w3.org/2000/svg" viewBox="0 0 400 400" fill="none">
  <path d="M84.7,122.7 L67.4,157.9 L57.9,186.4 L54.6,208.1 L54.4,247.1 L64.5,271.7 L83.0,264.6 L83.2,245.4 L76.3,204.9 L76.8,198.3 L79.2,187.0 L93.4,173.9 L121.7,174.4 L147.4,180.2 L165.2,184.9 L182.7,198.4 L191.3,221.5 L192.3,236.7 L189.0,274.4 L181.1,307.2 L176.7,322.9 L170.7,346.4 L178.0,373.1 L213.3,380.0 L245.9,373.3 L294.1,365.1 L306.3,362.2 L318.4,356.0 L329.4,342.5 L333.8,333.0 L340.8,287.4 L339.5,232.8 L339.3,224.8 L341.5,203.6 L345.6,186.9 L343.0,172.8 L331.2,165.5 L324.7,150.0 L326.7,126.7 L320.4,101.8 L302.7,88.7 L278.2,89.5 L251.7,101.3 L239.2,106.0 L215.3,104.5 L201.7,91.8 L195.1,80.0 L178.3,41.5 L171.2,28.2 L158.6,20.0 L143.8,32.8 L125.9,59.9 L84.7,122.7 Z"
    stroke="#ffffff" stroke-width="8" stroke-linecap="round" stroke-linejoin="round"
    stroke-opacity="0.15" fill="none"/>
  <path d="M84.7,122.7 L67.4,157.9 L57.9,186.4 L54.6,208.1 L54.4,247.1 L64.5,271.7 L83.0,264.6 L83.2,245.4 L76.3,204.9 L76.8,198.3 L79.2,187.0 L93.4,173.9 L121.7,174.4 L147.4,180.2 L165.2,184.9 L182.7,198.4 L191.3,221.5 L192.3,236.7 L189.0,274.4 L181.1,307.2 L176.7,322.9 L170.7,346.4 L178.0,373.1 L213.3,380.0 L245.9,373.3 L294.1,365.1 L306.3,362.2 L318.4,356.0 L329.4,342.5 L333.8,333.0 L340.8,287.4 L339.5,232.8 L339.3,224.8 L341.5,203.6 L345.6,186.9 L343.0,172.8 L331.2,165.5 L324.7,150.0 L326.7,126.7 L320.4,101.8 L302.7,88.7 L278.2,89.5 L251.7,101.3 L239.2,106.0 L215.3,104.5 L201.7,91.8 L195.1,80.0 L178.3,41.5 L171.2,28.2 L158.6,20.0 L143.8,32.8 L125.9,59.9 L84.7,122.7 Z"
    stroke="#4db8ff" stroke-width="4.0" stroke-linecap="round" stroke-linejoin="round"
    fill="none" id="track-outline"/>
</svg>