<svg xmlns="http://www.w3.org/2000/svg" viewBox="0 0 400 400"><path d="M 98.8,298.3 L 98.9,296.8 L 99.0,295.2 L 99.1,293.7 L 99.3,292.2 L 99.4,290.7 L 99.5,289.1 L 99.7,287.6 L 99.8,286.0 L 100.0,284.5 L 100.1,282.9 L 100.2,281.3 L 100.4,279.8 L 100.5,278.2 L 100.7,276.6 L 100.9,275.0 L 101.0,273.4 L 101.2,271.8 L 101.3,270.2 L 101.5,268.5 L 101.6,266.9 L 101.8,265.3 L 102.0,263.7 L 102.1,262.0 L 102.3,260.4 L 102.4,258.7 L 102.6,257.1 L 102.7,255.4 L 102.9,253.7 L 103.1,252.0 L 103.2,250.4 L 103.4,248.7 L 103.6,247.0 L 103.7,245.3 L 103.9,243.6 L 104.1,241.9 L 104.2,240.2 L 104.4,238.4 L 104.6,236.7 L 104.7,235.0 L 104.9,233.3 L 105.1,231.6 L 105.2,230.0 L 105.4,228.6 L 105.5,227.4 L 105.6,226.2 L 105.7,224.8 L 105.8,223.4 L 106.0,222.1 L 106.1,220.7 L 106.2,219.2 L 106.3,217.9 L 106.5,216.7 L 106.6,215.3 L 106.7,213.8 L 106.8,212.4 L 107.0,210.7 L 107.1,209.2 L 107.2,207.9 L 107.3,206.6 L 107.5,205.2 L 107.6,203.8 L 107.7,202.5 L 107.8,201.0 L 107.9,199.7 L 108.1,198.2 L 108.2,196.5 L 108.4,194.7 L 108.5,192.8 L 108.6,191.4 L 108.8,189.7 L 108.9,187.9 L 109.1,186.0 L 109.3,184.2 L 109.4,182.3 L 109.6,180.5 L 109.7,179.0 L 109.8,177.3 L 110.0,175.6 L 110.1,174.0 L 110.2,172.4 L 110.4,170.9 L 110.5,169.4 L 110.6,168.0 L 110.7,166.5 L 110.8,165.2 L 110.9,163.9 L 111.1,162.4 L 111.2,160.9 L 111.3,159.5 L 111.4,158.1 L 111.6,156.7 L 111.7,155.4 L 111.8,154.1 L 112.0,152.7 L 112.3,151.4 L 112.7,150.2 L 113.3,149.0 L 114.2,148.2 L 115.4,147.6 L 116.6,147.3 L 117.9,147.0 L 118.9,146.2 L 119.5,145.1 L 119.8,143.9 L 119.9,142.6 L 119.8,141.3 L 119.6,140.0 L 119.4,138.7 L 119.1,137.4 L 118.7,136.1 L 118.3,134.6 L 117.9,133.4 L 117.5,132.1 L 117.2,130.8 L 116.8,129.4 L 116.5,128.0 L 116.2,126.7 L 116.0,125.4 L 115.8,124.1 L 115.7,122.8 L 115.6,121.5 L 115.5,120.2 L 115.5,118.8 L 115.5,117.4 L 115.5,116.1 L 115.5,114.6 L 115.6,113.2 L 115.6,111.8 L 115.7,110.3 L 115.8,108.8 L 115.9,107.3 L 116.0,105.8 L 116.2,104.2 L 116.3,102.7 L 116.4,101.1 L 116.6,99.5 L 116.8,98.0 L 116.9,96.8 L 117.1,95.6 L 117.3,94.4 L 117.5,93.1 L 117.7,91.9 L 118.0,90.6 L 118.3,89.4 L 118.7,88.1 L 119.1,86.9 L 119.5,85.6 L 119.9,84.4 L 120.4,83.2 L 121.0,81.9 L 121.5,80.7 L 122.2,79.5 L 122.8,78.3 L 123.5,77.1 L 124.2,76.0 L 124.9,74.8 L 125.7,73.7 L 126.5,72.6 L 127.4,71.5 L 128.3,70.4 L 129.2,69.4 L 130.2,68.4 L 131.2,67.4 L 132.2,66.4 L 133.3,65.4 L 134.3,64.5 L 135.5,63.6 L 136.6,62.8 L 137.8,61.9 L 139.0,61.1 L 140.2,60.3 L 141.4,59.6 L 142.7,58.9 L 144.0,58.2 L 145.3,57.5 L 146.6,56.9 L 148.0,56.3 L 149.3,55.7 L 150.7,55.2 L 152.1,54.7 L 153.6,54.2 L 155.0,53.7 L 156.4,53.3 L 157.9,52.9 L 159.4,52.5 L 160.9,52.2 L 162.4,51.8 L 163.9,51.6 L 165.4,51.3 L 166.9,51.1 L 168.5,50.8 L 170.0,50.7 L 171.6,50.5 L 173.2,50.3 L 174.7,50.2 L 176.3,50.0 L 177.9,49.9 L 179.5,49.7 L 181.1,49.6 L 182.7,49.4 L 184.3,49.3 L 185.9,49.2 L 187.5,49.0 L 189.2,48.9 L 190.8,48.8 L 192.5,48.7 L 194.1,48.5 L 195.8,48.4 L 197.4,48.3 L 199.1,48.2 L 200.7,48.1 L 202.4,48.0 L 204.1,47.9 L 205.6,47.8 L 207.2,47.7 L 208.7,47.6 L 210.1,47.5 L 211.5,47.4 L 212.9,47.4 L 214.2,47.3 L 215.4,47.2 L 216.9,47.1 L 218.4,47.0 L 219.9,47.0 L 221.2,46.9 L 222.5,46.8 L 223.9,46.7 L 225.2,46.6 L 226.5,46.5 L 227.8,46.4 L 229.2,46.2 L 230.4,45.8 L 231.6,45.2 L 232.6,44.4 L 233.4,43.5 L 234.2,42.4 L 234.9,41.2 L 235.8,40.1 L 236.9,39.2 L 237.9,38.5 L 239.1,37.9 L 240.3,37.4 L 241.7,36.9 L 243.0,36.5 L 244.3,36.2 L 245.6,35.9 L 246.9,35.5 L 248.3,35.2 L 249.6,34.9 L 250.9,34.5 L 252.3,34.1 L 253.5,33.7 L 254.7,33.3 L 256.0,32.9 L 257.2,32.4 L 258.5,32.0 L 259.9,31.5 L 261.2,31.1 L 262.5,30.6 L 263.9,30.1 L 265.3,29.6 L 266.7,29.2 L 268.2,28.7 L 269.6,28.2 L 271.1,27.7 L 272.6,27.2 L 274.1,26.7 L 275.5,26.2 L 276.9,25.7 L 278.2,25.3 L 279.5,24.9 L 280.8,24.6 L 282.2,24.3 L 283.5,24.1 L 284.9,24.0 L 286.3,24.1 L 287.6,24.2 L 288.9,24.5 L 290.2,25.0 L 291.4,25.5 L 292.5,26.1 L 293.5,26.9 L 294.5,27.8 L 295.5,28.8 L 296.4,29.8 L 297.1,31.0 L 297.8,32.2 L 298.4,33.5 L 298.9,34.8 L 299.2,36.1 L 299.5,37.4 L 299.7,38.8 L 299.9,40.0 L 300.0,41.3 L 300.1,42.6 L 300.2,44.0 L 300.3,45.3 L 300.4,46.7 L 300.4,48.1 L 300.5,49.5 L 300.6,51.0 L 300.7,52.5 L 300.9,53.9 L 301.0,55.4 L 301.2,57.0 L 301.3,58.5 L 301.5,60.0 L 301.6,61.6 L 301.8,63.1 L 301.9,64.5 L 302.1,65.9 L 302.2,67.2 L 302.3,68.6 L 302.3,69.9 L 302.3,71.2 L 302.1,72.5 L 301.8,73.9 L 301.2,75.2 L 300.5,76.5 L 299.7,77.7 L 298.8,78.7 L 297.9,79.6 L 296.8,80.5 L 295.6,81.4 L 294.5,82.1 L 293.3,82.8 L 292.1,83.6 L 290.9,84.2 L 289.7,84.8 L 288.4,85.5 L 287.2,86.1 L 285.9,86.7 L 284.6,87.4 L 283.4,88.0 L 282.0,88.7 L 280.7,89.4 L 279.4,90.1 L 278.1,90.7 L 276.9,91.4 L 275.6,92.1 L 274.2,92.9 L 272.8,93.6 L 271.5,94.4 L 270.0,95.2 L 268.8,95.9 L 267.7,96.5 L 266.6,97.1 L 265.5,97.8 L 264.4,98.4 L 263.2,99.0 L 262.1,99.7 L 261.0,100.3 L 259.8,101.0 L 258.7,101.6 L 257.5,102.3 L 256.4,102.9 L 255.2,103.6 L 254.0,104.3 L 252.9,105.0 L 251.7,105.8 L 250.5,106.5 L 249.3,107.3 L 248.2,108.0 L 247.0,108.8 L 245.9,109.6 L 244.7,110.4 L 243.6,111.2 L 242.4,112.1 L 241.3,112.9 L 240.1,113.8 L 238.9,114.7 L 237.7,115.7 L 236.5,116.7 L 235.2,117.6 L 234.0,118.7 L 232.7,119.7 L 231.5,120.7 L 230.2,121.8 L 229.0,122.8 L 227.7,123.9 L 226.4,125.0 L 225.2,126.1 L 224.0,127.1 L 222.7,128.2 L 221.5,129.3 L 220.2,130.3 L 219.1,131.3 L 217.8,132.4 L 216.6,133.4 L 215.3,134.5 L 214.1,135.6 L 212.8,136.7 L 211.6,137.8 L 210.4,138.8 L 209.1,139.9 L 207.9,141.0 L 206.7,142.1 L 205.4,143.1 L 204.2,144.2 L 202.9,145.3 L 201.6,146.4 L 200.4,147.5 L 199.1,148.6 L 197.8,149.8 L 196.5,150.9 L 195.2,152.1 L 193.9,153.2 L 192.6,154.3 L 191.3,155.5 L 189.9,156.6 L 188.6,157.8 L 187.3,158.9 L 186.0,160.0 L 184.7,161.2 L 183.4,162.3 L 182.2,163.4 L 181.0,164.5 L 179.8,165.5 L 178.7,166.5 L 177.6,167.5 L 176.6,168.4 L 175.6,169.3 L 174.6,170.2 L 173.5,171.1 L 172.4,172.0 L 171.3,173.0 L 170.2,174.0 L 169.2,174.9 L 168.3,175.8 L 167.3,176.8 L 166.4,177.8 L 165.7,178.8 L 165.0,180.0 L 164.5,181.3 L 164.1,182.6 L 163.8,183.8 L 163.7,185.1 L 163.6,186.4 L 163.6,187.8 L 163.7,189.1 L 163.6,190.6 L 163.4,192.0 L 163.2,193.3 L 162.8,194.7 L 162.4,196.0 L 161.9,197.3 L 161.4,198.5 L 160.7,199.7 L 160.0,200.8 L 159.3,201.9 L 158.5,202.9 L 157.6,204.0 L 156.8,205.0 L 155.9,206.1 L 155.2,207.2 L 154.5,208.4 L 153.8,209.7 L 153.1,210.9 L 152.6,212.3 L 152.1,213.6 L 151.6,215.0 L 151.2,216.4 L 150.9,217.8 L 150.6,219.3 L 150.4,220.7 L 150.1,222.3 L 149.9,223.8 L 149.8,225.4 L 149.6,226.9 L 149.5,228.5 L 149.4,229.8 L 149.3,231.0 L 149.1,232.3 L 149.0,233.5 L 148.9,234.8 L 148.8,236.1 L 148.7,237.4 L 148.6,238.7 L 148.5,240.0 L 148.4,241.3 L 148.3,242.6 L 148.2,243.9 L 148.1,245.3 L 148.0,246.6 L 147.9,248.0 L 147.8,249.3 L 147.7,250.7 L 147.6,252.1 L 147.5,253.5 L 147.4,254.9 L 147.3,256.3 L 147.2,257.7 L 147.1,259.1 L 147.0,260.5 L 146.9,261.9 L 146.8,263.4 L 146.7,264.8 L 146.6,266.3 L 146.5,267.7 L 146.4,269.2 L 146.2,270.7 L 146.1,272.1 L 146.0,273.6 L 145.8,275.1 L 145.7,276.6 L 145.6,278.1 L 145.4,279.6 L 145.3,281.2 L 145.1,282.7 L 145.0,284.2 L 144.8,285.8 L 144.7,287.3 L 144.5,288.8 L 144.4,290.4 L 144.2,292.0 L 144.1,293.5 L 143.9,295.1 L 143.8,296.7 L 143.6,298.3 L 143.4,299.9 L 143.3,301.5 L 143.1,303.1 L 142.9,304.7 L 142.8,306.4 L 142.6,308.0 L 142.4,309.6 L 142.3,311.3 L 142.1,312.9 L 141.9,314.6 L 141.8,316.2 L 141.6,317.9 L 141.5,319.6 L 141.3,321.2 L 141.1,322.9 L 141.0,324.6 L 140.8,326.3 L 140.6,328.0 L 140.5,329.7 L 140.3,331.4 L 140.1,333.1 L 139.9,334.9 L 139.8,336.6 L 139.6,338.3 L 139.4,340.1 L 139.3,341.8 L 139.1,343.4 L 138.9,345.0 L 138.8,346.6 L 138.6,348.1 L 138.5,349.6 L 138.4,351.0 L 138.2,352.4 L 138.1,353.7 L 138.0,354.9 L 137.8,356.2 L 137.7,357.8 L 137.5,359.2 L 137.3,360.6 L 137.1,361.9 L 136.9,363.2 L 136.6,364.6 L 136.2,365.9 L 135.7,367.2 L 135.1,368.4 L 134.4,369.6 L 133.7,370.7 L 132.8,371.7 L 131.9,372.5 L 130.8,373.4 L 129.7,374.1 L 128.5,374.6 L 127.3,375.1 L 126.0,375.5 L 124.7,375.8 L 123.3,376.0 L 121.9,376.0 L 120.5,375.9 L 119.1,375.7 L 117.8,375.5 L 116.5,375.1 L 115.2,374.6 L 113.9,374.1 L 112.8,373.5 L 111.7,372.8 L 110.6,372.1 L 109.6,371.3 L 108.6,370.4 L 107.6,369.5 L 106.7,368.5 L 105.8,367.5 L 105.0,366.4 L 104.2,365.3 L 103.4,364.0 L 102.8,362.8 L 102.1,361.5 L 101.6,360.2 L 101.0,358.8 L 100.6,357.4 L 100.1,355.9 L 99.7,354.4 L 99.4,352.9 L 99.1,351.4 L 98.9,349.9 L 98.7,348.3 L 98.5,346.8 L 98.3,345.6 L 98.2,344.3 L 98.1,343.1 L 98.1,341.8 L 98.0,340.5 L 97.9,339.2 L 97.9,337.9 L 97.8,336.6 L 97.8,335.3 L 97.8,334.0 L 97.7,332.6 L 97.7,331.3 L 97.7,329.9 L 97.7,328.6 L 97.7,327.2 L 97.7,325.8 L 97.7,324.5 L 97.7,323.1 L 97.7,321.7 L 97.7,320.3 L 97.8,318.9 L 97.8,317.5 L 97.9,316.1 L 97.9,314.6 L 98.0,313.2 L 98.0,311.8 L 98.1,310.3 L 98.1,308.9 L 98.2,307.4 L 98.3,306.0 L 98.3,304.5 L 98.4,303.0 L 98.5,301.5 L 98.6,300.0 L 98.7,298.5 L 98.8,298.3 Z" fill="none" stroke="rgba(255,255,255,0.15)" stroke-width="5" stroke-linecap="round" stroke-linejoin="round"/><path d="M 98.8,298.3 L 98.9,296.8 L 99.0,295.2 L 99.1,293.7 L 99.3,292.2 L 99.4,290.7 L 99.5,289.1 L 99.7,287.6 L 99.8,286.0 L 100.0,284.5 L 100.1,282.9 L 100.2,281.3 L 100.4,279.8 L 100.5,278.2 L 100.7,276.6 L 100.9,275.0 L 101.0,273.4 L 101.2,271.8 L 101.3,270.2 L 101.5,268.5 L 101.6,266.9 L 101.8,265.3 L 102.0,263.7 L 102.1,262.0 L 102.3,260.4 L 102.4,258.7 L 102.6,257.1 L 102.7,255.4 L 102.9,253.7 L 103.1,252.0 L 103.2,250.4 L 103.4,248.7 L 103.6,247.0 L 103.7,245.3 L 103.9,243.6 L 104.1,241.9 L 104.2,240.2 L 104.4,238.4 L 104.6,236.7 L 104.7,235.0 L 104.9,233.3 L 105.1,231.6 L 105.2,230.0 L 105.4,228.6 L 105.5,227.4 L 105.6,226.2 L 105.7,224.8 L 105.8,223.4 L 106.0,222.1 L 106.1,220.7 L 106.2,219.2 L 106.3,217.9 L 106.5,216.7 L 106.6,215.3 L 106.7,213.8 L 106.8,212.4 L 107.0,210.7 L 107.1,209.2 L 107.2,207.9 L 107.3,206.6 L 107.5,205.2 L 107.6,203.8 L 107.7,202.5 L 107.8,201.0 L 107.9,199.7 L 108.1,198.2 L 108.2,196.5 L 108.4,194.7 L 108.5,192.8 L 108.6,191.4 L 108.8,189.7 L 108.9,187.9 L 109.1,186.0 L 109.3,184.2 L 109.4,182.3 L 109.6,180.5 L 109.7,179.0 L 109.8,177.3 L 110.0,175.6 L 110.1,174.0 L 110.2,172.4 L 110.4,170.9 L 110.5,169.4 L 110.6,168.0 L 110.7,166.5 L 110.8,165.2 L 110.9,163.9 L 111.1,162.4 L 111.2,160.9 L 111.3,159.5 L 111.4,158.1 L 111.6,156.7 L 111.7,155.4 L 111.8,154.1 L 112.0,152.7 L 112.3,151.4 L 112.7,150.2 L 113.3,149.0 L 114.2,148.2 L 115.4,147.6 L 116.6,147.3 L 117.9,147.0 L 118.9,146.2 L 119.5,145.1 L 119.8,143.9 L 119.9,142.6 L 119.8,141.3 L 119.6,140.0 L 119.4,138.7 L 119.1,137.4 L 118.7,136.1 L 118.3,134.6 L 117.9,133.4 L 117.5,132.1 L 117.2,130.8 L 116.8,129.4 L 116.5,128.0 L 116.2,126.7 L 116.0,125.4 L 115.8,124.1 L 115.7,122.8 L 115.6,121.5 L 115.5,120.2 L 115.5,118.8 L 115.5,117.4 L 115.5,116.1 L 115.5,114.6 L 115.6,113.2 L 115.6,111.8 L 115.7,110.3 L 115.8,108.8 L 115.9,107.3 L 116.0,105.8 L 116.2,104.2 L 116.3,102.7 L 116.4,101.1 L 116.6,99.5 L 116.8,98.0 L 116.9,96.8 L 117.1,95.6 L 117.3,94.4 L 117.5,93.1 L 117.7,91.9 L 118.0,90.6 L 118.3,89.4 L 118.7,88.1 L 119.1,86.9 L 119.5,85.6 L 119.9,84.4 L 120.4,83.2 L 121.0,81.9 L 121.5,80.7 L 122.2,79.5 L 122.8,78.3 L 123.5,77.1 L 124.2,76.0 L 124.9,74.8 L 125.7,73.7 L 126.5,72.6 L 127.4,71.5 L 128.3,70.4 L 129.2,69.4 L 130.2,68.4 L 131.2,67.4 L 132.2,66.4 L 133.3,65.4 L 134.3,64.5 L 135.5,63.6 L 136.6,62.8 L 137.8,61.9 L 139.0,61.1 L 140.2,60.3 L 141.4,59.6 L 142.7,58.9 L 144.0,58.2 L 145.3,57.5 L 146.6,56.9 L 148.0,56.3 L 149.3,55.7 L 150.7,55.2 L 152.1,54.7 L 153.6,54.2 L 155.0,53.7 L 156.4,53.3 L 157.9,52.9 L 159.4,52.5 L 160.9,52.2 L 162.4,51.8 L 163.9,51.6 L 165.4,51.3 L 166.9,51.1 L 168.5,50.8 L 170.0,50.7 L 171.6,50.5 L 173.2,50.3 L 174.7,50.2 L 176.3,50.0 L 177.9,49.9 L 179.5,49.7 L 181.1,49.6 L 182.7,49.4 L 184.3,49.3 L 185.9,49.2 L 187.5,49.0 L 189.2,48.9 L 190.8,48.8 L 192.5,48.7 L 194.1,48.5 L 195.8,48.4 L 197.4,48.3 L 199.1,48.2 L 200.7,48.1 L 202.4,48.0 L 204.1,47.9 L 205.6,47.8 L 207.2,47.7 L 208.7,47.6 L 210.1,47.5 L 211.5,47.4 L 212.9,47.4 L 214.2,47.3 L 215.4,47.2 L 216.9,47.1 L 218.4,47.0 L 219.9,47.0 L 221.2,46.9 L 222.5,46.8 L 223.9,46.7 L 225.2,46.6 L 226.5,46.5 L 227.8,46.4 L 229.2,46.2 L 230.4,45.8 L 231.6,45.2 L 232.6,44.4 L 233.4,43.5 L 234.2,42.4 L 234.9,41.2 L 235.8,40.1 L 236.9,39.2 L 237.9,38.5 L 239.1,37.9 L 240.3,37.4 L 241.7,36.9 L 243.0,36.5 L 244.3,36.2 L 245.6,35.9 L 246.9,35.5 L 248.3,35.2 L 249.6,34.9 L 250.9,34.5 L 252.3,34.1 L 253.5,33.7 L 254.7,33.3 L 256.0,32.9 L 257.2,32.4 L 258.5,32.0 L 259.9,31.5 L 261.2,31.1 L 262.5,30.6 L 263.9,30.1 L 265.3,29.6 L 266.7,29.2 L 268.2,28.7 L 269.6,28.2 L 271.1,27.7 L 272.6,27.2 L 274.1,26.7 L 275.5,26.2 L 276.9,25.7 L 278.2,25.3 L 279.5,24.9 L 280.8,24.6 L 282.2,24.3 L 283.5,24.1 L 284.9,24.0 L 286.3,24.1 L 287.6,24.2 L 288.9,24.5 L 290.2,25.0 L 291.4,25.5 L 292.5,26.1 L 293.5,26.9 L 294.5,27.8 L 295.5,28.8 L 296.4,29.8 L 297.1,31.0 L 297.8,32.2 L 298.4,33.5 L 298.9,34.8 L 299.2,36.1 L 299.5,37.4 L 299.7,38.8 L 299.9,40.0 L 300.0,41.3 L 300.1,42.6 L 300.2,44.0 L 300.3,45.3 L 300.4,46.7 L 300.4,48.1 L 300.5,49.5 L 300.6,51.0 L 300.7,52.5 L 300.9,53.9 L 301.0,55.4 L 301.2,57.0 L 301.3,58.5 L 301.5,60.0 L 301.6,61.6 L 301.8,63.1 L 301.9,64.5 L 302.1,65.9 L 302.2,67.2 L 302.3,68.6 L 302.3,69.9 L 302.3,71.2 L 302.1,72.5 L 301.8,73.9 L 301.2,75.2 L 300.5,76.5 L 299.7,77.7 L 298.8,78.7 L 297.9,79.6 L 296.8,80.5 L 295.6,81.4 L 294.5,82.1 L 293.3,82.8 L 292.1,83.6 L 290.9,84.2 L 289.7,84.8 L 288.4,85.5 L 287.2,86.1 L 285.9,86.7 L 284.6,87.4 L 283.4,88.0 L 282.0,88.7 L 280.7,89.4 L 279.4,90.1 L 278.1,90.7 L 276.9,91.4 L 275.6,92.1 L 274.2,92.9 L 272.8,93.6 L 271.5,94.4 L 270.0,95.2 L 268.8,95.9 L 267.7,96.5 L 266.6,97.1 L 265.5,97.8 L 264.4,98.4 L 263.2,99.0 L 262.1,99.7 L 261.0,100.3 L 259.8,101.0 L 258.7,101.6 L 257.5,102.3 L 256.4,102.9 L 255.2,103.6 L 254.0,104.3 L 252.9,105.0 L 251.7,105.8 L 250.5,106.5 L 249.3,107.3 L 248.2,108.0 L 247.0,108.8 L 245.9,109.6 L 244.7,110.4 L 243.6,111.2 L 242.4,112.1 L 241.3,112.9 L 240.1,113.8 L 238.9,114.7 L 237.7,115.7 L 236.5,116.7 L 235.2,117.6 L 234.0,118.7 L 232.7,119.7 L 231.5,120.7 L 230.2,121.8 L 229.0,122.8 L 227.7,123.9 L 226.4,125.0 L 225.2,126.1 L 224.0,127.1 L 222.7,128.2 L 221.5,129.3 L 220.2,130.3 L 219.1,131.3 L 217.8,132.4 L 216.6,133.4 L 215.3,134.5 L 214.1,135.6 L 212.8,136.7 L 211.6,137.8 L 210.4,138.8 L 209.1,139.9 L 207.9,141.0 L 206.7,142.1 L 205.4,143.1 L 204.2,144.2 L 202.9,145.3 L 201.6,146.4 L 200.4,147.5 L 199.1,148.6 L 197.8,149.8 L 196.5,150.9 L 195.2,152.1 L 193.9,153.2 L 192.6,154.3 L 191.3,155.5 L 189.9,156.6 L 188.6,157.8 L 187.3,158.9 L 186.0,160.0 L 184.7,161.2 L 183.4,162.3 L 182.2,163.4 L 181.0,164.5 L 179.8,165.5 L 178.7,166.5 L 177.6,167.5 L 176.6,168.4 L 175.6,169.3 L 174.6,170.2 L 173.5,171.1 L 172.4,172.0 L 171.3,173.0 L 170.2,174.0 L 169.2,174.9 L 168.3,175.8 L 167.3,176.8 L 166.4,177.8 L 165.7,178.8 L 165.0,180.0 L 164.5,181.3 L 164.1,182.6 L 163.8,183.8 L 163.7,185.1 L 163.6,186.4 L 163.6,187.8 L 163.7,189.1 L 163.6,190.6 L 163.4,192.0 L 163.2,193.3 L 162.8,194.7 L 162.4,196.0 L 161.9,197.3 L 161.4,198.5 L 160.7,199.7 L 160.0,200.8 L 159.3,201.9 L 158.5,202.9 L 157.6,204.0 L 156.8,205.0 L 155.9,206.1 L 155.2,207.2 L 154.5,208.4 L 153.8,209.7 L 153.1,210.9 L 152.6,212.3 L 152.1,213.6 L 151.6,215.0 L 151.2,216.4 L 150.9,217.8 L 150.6,219.3 L 150.4,220.7 L 150.1,222.3 L 149.9,223.8 L 149.8,225.4 L 149.6,226.9 L 149.5,228.5 L 149.4,229.8 L 149.3,231.0 L 149.1,232.3 L 149.0,233.5 L 148.9,234.8 L 148.8,236.1 L 148.7,237.4 L 148.6,238.7 L 148.5,240.0 L 148.4,241.3 L 148.3,242.6 L 148.2,243.9 L 148.1,245.3 L 148.0,246.6 L 147.9,248.0 L 147.8,249.3 L 147.7,250.7 L 147.6,252.1 L 147.5,253.5 L 147.4,254.9 L 147.3,256.3 L 147.2,257.7 L 147.1,259.1 L 147.0,260.5 L 146.9,261.9 L 146.8,263.4 L 146.7,264.8 L 146.6,266.3 L 146.5,267.7 L 146.4,269.2 L 146.2,270.7 L 146.1,272.1 L 146.0,273.6 L 145.8,275.1 L 145.7,276.6 L 145.6,278.1 L 145.4,279.6 L 145.3,281.2 L 145.1,282.7 L 145.0,284.2 L 144.8,285.8 L 144.7,287.3 L 144.5,288.8 L 144.4,290.4 L 144.2,292.0 L 144.1,293.5 L 143.9,295.1 L 143.8,296.7 L 143.6,298.3 L 143.4,299.9 L 143.3,301.5 L 143.1,303.1 L 142.9,304.7 L 142.8,306.4 L 142.6,308.0 L 142.4,309.6 L 142.3,311.3 L 142.1,312.9 L 141.9,314.6 L 141.8,316.2 L 141.6,317.9 L 141.5,319.6 L 141.3,321.2 L 141.1,322.9 L 141.0,324.6 L 140.8,326.3 L 140.6,328.0 L 140.5,329.7 L 140.3,331.4 L 140.1,333.1 L 139.9,334.9 L 139.8,336.6 L 139.6,338.3 L 139.4,340.1 L 139.3,341.8 L 139.1,343.4 L 138.9,345.0 L 138.8,346.6 L 138.6,348.1 L 138.5,349.6 L 138.4,351.0 L 138.2,352.4 L 138.1,353.7 L 138.0,354.9 L 137.8,356.2 L 137.7,357.8 L 137.5,359.2 L 137.3,360.6 L 137.1,361.9 L 136.9,363.2 L 136.6,364.6 L 136.2,365.9 L 135.7,367.2 L 135.1,368.4 L 134.4,369.6 L 133.7,370.7 L 132.8,371.7 L 131.9,372.5 L 130.8,373.4 L 129.7,374.1 L 128.5,374.6 L 127.3,375.1 L 126.0,375.5 L 124.7,375.8 L 123.3,376.0 L 121.9,376.0 L 120.5,375.9 L 119.1,375.7 L 117.8,375.5 L 116.5,375.1 L 115.2,374.6 L 113.9,374.1 L 112.8,373.5 L 111.7,372.8 L 110.6,372.1 L 109.6,371.3 L 108.6,370.4 L 107.6,369.5 L 106.7,368.5 L 105.8,367.5 L 105.0,366.4 L 104.2,365.3 L 103.4,364.0 L 102.8,362.8 L 102.1,361.5 L 101.6,360.2 L 101.0,358.8 L 100.6,357.4 L 100.1,355.9 L 99.7,354.4 L 99.4,352.9 L 99.1,351.4 L 98.9,349.9 L 98.7,348.3 L 98.5,346.8 L 98.3,345.6 L 98.2,344.3 L 98.1,343.1 L 98.1,341.8 L 98.0,340.5 L 97.9,339.2 L 97.9,337.9 L 97.8,336.6 L 97.8,335.3 L 97.8,334.0 L 97.7,332.6 L 97.7,331.3 L 97.7,329.9 L 97.7,328.6 L 97.7,327.2 L 97.7,325.8 L 97.7,324.5 L 97.7,323.1 L 97.7,321.7 L 97.7,320.3 L 97.8,318.9 L 97.8,317.5 L 97.9,316.1 L 97.9,314.6 L 98.0,313.2 L 98.0,311.8 L 98.1,310.3 L 98.1,308.9 L 98.2,307.4 L 98.3,306.0 L 98.3,304.5 L 98.4,303.0 L 98.5,301.5 L 98.6,300.0 L 98.7,298.5 L 98.8,298.3 Z" fill="none" stroke="#4db8ff" stroke-width="2.5" stroke-linecap="round" stroke-linejoin="round"/></svg>