<svg xmlns="http://www.w3.org/2000/svg" viewBox="0 0 400 400"><path d="M 270.6,30.2 L 269.2,29.9 L 267.8,29.6 L 266.4,29.3 L 265.0,29.0 L 263.6,28.8 L 262.1,28.4 L 260.7,28.2 L 259.3,27.9 L 257.8,27.6 L 256.4,27.3 L 255.0,27.0 L 253.5,26.7 L 251.4,26.3 L 249.9,26.1 L 248.4,25.8 L 246.9,25.5 L 245.6,25.2 L 244.2,24.9 L 242.5,24.6 L 240.9,24.3 L 239.5,24.1 L 238.1,24.0 L 236.6,24.0 L 235.1,24.2 L 233.5,24.7 L 232.1,25.4 L 230.9,26.4 L 229.9,27.6 L 229.2,28.9 L 228.5,30.7 L 228.0,32.1 L 227.7,33.6 L 227.5,35.1 L 227.3,36.4 L 227.1,37.9 L 227.0,39.3 L 226.8,40.8 L 226.6,42.2 L 226.3,43.8 L 226.0,45.4 L 225.8,47.0 L 225.5,48.5 L 225.2,50.1 L 224.9,51.7 L 224.6,53.2 L 224.3,54.8 L 224.0,56.3 L 223.6,58.2 L 223.3,59.7 L 223.0,61.4 L 222.7,62.8 L 222.4,64.5 L 222.1,66.0 L 221.8,67.3 L 221.5,68.6 L 221.2,70.0 L 220.9,71.4 L 220.6,72.8 L 220.4,74.0 L 220.1,75.4 L 219.8,76.8 L 219.5,78.2 L 219.2,79.7 L 218.9,81.2 L 218.6,82.6 L 218.3,84.1 L 218.0,85.4 L 217.8,86.7 L 217.5,88.1 L 217.2,89.4 L 217.0,90.8 L 216.6,92.8 L 216.2,94.6 L 216.0,96.0 L 215.7,97.4 L 215.5,98.8 L 215.2,100.2 L 214.9,101.8 L 214.6,103.2 L 214.4,104.6 L 214.1,106.0 L 213.8,107.4 L 213.5,108.9 L 213.2,110.4 L 213.0,111.8 L 212.7,113.2 L 212.4,114.7 L 212.1,116.2 L 211.6,118.5 L 211.3,120.2 L 211.0,121.8 L 210.7,123.3 L 210.4,124.9 L 210.1,126.4 L 209.8,128.0 L 209.5,129.6 L 209.2,131.1 L 208.9,132.7 L 208.4,135.2 L 208.1,137.0 L 207.8,138.7 L 207.4,140.6 L 207.1,142.3 L 206.8,143.8 L 206.5,145.5 L 206.1,147.3 L 205.8,149.0 L 205.5,150.7 L 205.1,152.4 L 204.8,154.1 L 204.4,156.3 L 204.0,158.1 L 203.7,159.9 L 203.3,161.6 L 203.0,163.3 L 202.6,165.1 L 202.2,167.3 L 201.9,169.2 L 201.5,171.0 L 201.2,172.7 L 200.8,174.5 L 200.4,176.4 L 199.9,178.9 L 199.4,181.4 L 199.0,183.4 L 198.6,185.2 L 198.2,186.9 L 197.9,188.6 L 197.6,190.1 L 197.3,191.6 L 197.0,192.8 L 196.7,194.3 L 196.3,195.9 L 195.8,197.4 L 195.1,198.8 L 194.4,200.0 L 193.6,201.2 L 192.6,202.2 L 191.5,203.1 L 190.3,203.9 L 188.9,204.7 L 187.3,205.3 L 186.0,205.6 L 184.6,205.8 L 183.3,205.9 L 181.8,205.8 L 180.4,205.7 L 178.9,205.4 L 177.4,204.9 L 176.0,204.4 L 174.5,203.8 L 173.1,203.1 L 171.7,202.4 L 170.2,201.5 L 168.8,200.7 L 167.4,199.8 L 165.9,198.8 L 164.4,197.8 L 163.1,197.0 L 161.6,195.9 L 160.1,194.9 L 158.9,194.0 L 157.6,193.1 L 156.4,192.3 L 155.2,191.5 L 154.1,190.8 L 152.9,190.0 L 151.6,189.2 L 150.4,188.5 L 149.2,187.8 L 147.9,187.0 L 146.7,186.3 L 145.3,185.6 L 144.1,185.0 L 142.8,184.4 L 141.4,183.9 L 140.2,183.5 L 138.8,183.1 L 137.2,182.7 L 135.7,182.4 L 134.3,182.2 L 132.4,182.1 L 131.0,182.2 L 129.4,182.3 L 127.9,182.6 L 126.6,182.9 L 125.1,183.2 L 123.6,183.8 L 122.3,184.6 L 121.3,185.6 L 120.5,186.8 L 120.0,188.2 L 119.9,189.5 L 120.1,190.9 L 120.6,192.3 L 121.3,193.7 L 122.1,194.9 L 123.0,196.1 L 123.9,197.2 L 124.9,198.2 L 125.8,199.1 L 126.8,200.4 L 127.7,201.5 L 128.4,202.7 L 129.2,204.1 L 129.8,205.5 L 130.4,207.0 L 130.8,208.6 L 131.1,210.2 L 131.3,211.8 L 131.4,213.7 L 131.4,215.2 L 131.3,216.8 L 131.1,218.5 L 130.9,220.1 L 130.6,221.8 L 130.3,223.5 L 129.9,225.0 L 129.5,226.3 L 129.1,227.7 L 128.5,229.2 L 127.9,230.5 L 127.1,231.9 L 126.2,233.3 L 125.3,234.5 L 124.2,235.7 L 123.0,236.8 L 121.7,237.8 L 120.5,238.6 L 118.8,239.6 L 117.4,240.4 L 115.9,241.2 L 114.5,242.0 L 113.2,242.8 L 111.7,243.7 L 110.6,244.5 L 109.4,245.3 L 108.2,246.2 L 106.6,247.4 L 105.5,248.3 L 104.2,249.3 L 103.1,250.3 L 102.1,251.2 L 101.1,252.2 L 100.1,253.1 L 99.2,254.2 L 98.2,255.3 L 97.2,256.5 L 96.3,257.7 L 95.4,259.0 L 94.6,260.2 L 93.5,262.0 L 92.7,263.3 L 92.0,264.5 L 91.3,265.9 L 90.6,267.3 L 90.0,268.6 L 89.5,269.9 L 89.1,271.2 L 88.8,272.5 L 88.6,273.9 L 88.4,275.3 L 88.3,276.6 L 88.3,277.9 L 88.4,279.3 L 88.6,280.9 L 88.8,282.3 L 89.1,283.7 L 89.4,285.1 L 89.8,286.6 L 90.2,287.9 L 90.7,289.1 L 91.2,290.4 L 91.7,291.7 L 92.3,293.0 L 93.2,294.9 L 93.9,296.1 L 94.6,297.4 L 95.3,298.6 L 96.0,299.8 L 96.7,301.0 L 97.4,302.2 L 98.2,303.5 L 99.2,305.2 L 100.2,306.8 L 101.2,308.3 L 102.0,309.6 L 102.9,310.9 L 103.8,312.1 L 104.7,313.3 L 105.7,314.5 L 106.7,315.7 L 107.7,316.7 L 108.7,317.7 L 110.0,318.8 L 111.2,319.7 L 112.5,320.6 L 113.9,321.3 L 115.4,322.0 L 117.2,322.7 L 118.6,323.2 L 120.0,323.5 L 121.4,323.8 L 122.9,324.1 L 124.4,324.4 L 126.0,324.6 L 127.4,324.7 L 128.9,324.8 L 130.4,324.9 L 132.2,324.9 L 133.8,324.9 L 135.3,324.8 L 136.9,324.7 L 138.4,324.7 L 139.9,324.6 L 141.5,324.5 L 143.0,324.4 L 144.7,324.4 L 146.4,324.4 L 148.4,324.6 L 150.0,324.7 L 151.5,324.9 L 152.9,325.1 L 155.2,325.4 L 156.5,325.6 L 157.7,325.8 L 159.1,326.1 L 160.5,326.4 L 162.0,326.8 L 163.2,327.2 L 164.5,327.7 L 165.8,328.2 L 167.1,328.9 L 168.7,329.5 L 170.4,330.1 L 171.9,330.6 L 173.5,330.9 L 175.0,331.1 L 176.9,331.2 L 178.3,331.3 L 179.6,331.4 L 181.2,331.5 L 182.8,331.9 L 184.2,332.5 L 185.5,333.2 L 186.6,334.3 L 187.5,335.5 L 188.2,336.8 L 188.9,337.9 L 189.8,338.9 L 190.7,339.8 L 192.0,340.5 L 193.4,341.0 L 194.8,341.3 L 196.2,341.6 L 197.5,342.0 L 198.7,342.5 L 200.0,343.1 L 201.1,343.7 L 202.3,344.6 L 203.4,345.6 L 204.6,346.6 L 205.7,347.7 L 206.8,348.8 L 208.0,349.9 L 209.1,350.9 L 210.4,352.0 L 211.6,352.9 L 212.8,353.8 L 214.3,354.7 L 215.5,355.4 L 216.7,356.0 L 218.0,356.7 L 219.6,357.6 L 220.9,358.4 L 222.1,359.2 L 223.2,360.2 L 224.3,361.3 L 225.3,362.6 L 226.1,363.9 L 226.9,365.2 L 227.6,366.7 L 228.3,368.0 L 228.8,369.3 L 229.4,370.7 L 230.0,372.1 L 230.6,373.3 L 231.5,374.3 L 232.8,375.3 L 234.0,375.8 L 235.3,376.0 L 236.5,375.9 L 237.9,375.6 L 239.0,374.9 L 240.2,374.0 L 241.2,373.0 L 242.2,371.9 L 243.2,370.7 L 244.0,369.7 L 244.8,368.5 L 245.7,367.4 L 246.5,366.1 L 247.4,364.8 L 248.2,363.5 L 249.1,362.0 L 250.0,360.5 L 250.8,359.1 L 251.7,357.7 L 252.5,356.2 L 253.3,354.6 L 254.0,353.1 L 254.6,351.9 L 255.2,350.5 L 255.8,349.2 L 256.4,347.6 L 256.9,346.2 L 257.4,344.9 L 257.8,343.6 L 258.2,342.3 L 258.5,340.9 L 258.9,339.5 L 259.2,338.2 L 259.5,337.0 L 259.7,335.6 L 260.0,334.1 L 260.3,332.7 L 260.6,331.3 L 260.9,329.5 L 261.2,328.0 L 261.4,326.5 L 261.8,324.4 L 262.0,322.9 L 262.3,321.2 L 262.6,319.5 L 262.9,317.7 L 263.2,316.0 L 263.5,314.3 L 263.7,312.5 L 264.0,310.8 L 264.3,309.0 L 264.7,307.2 L 265.0,305.4 L 265.4,303.4 L 265.7,301.7 L 266.1,299.7 L 266.4,298.0 L 266.8,295.8 L 267.1,294.1 L 267.5,292.3 L 267.8,290.4 L 268.2,288.6 L 268.5,286.8 L 268.9,284.9 L 269.3,282.4 L 269.6,280.5 L 269.9,278.7 L 270.3,276.4 L 270.6,274.6 L 270.9,272.6 L 271.3,270.7 L 271.6,268.9 L 271.9,267.2 L 272.2,265.4 L 272.5,263.6 L 272.8,261.6 L 273.1,259.9 L 273.4,258.1 L 273.7,256.4 L 274.0,254.6 L 274.4,252.2 L 274.8,250.3 L 275.1,248.5 L 275.4,246.7 L 275.7,244.9 L 276.0,243.1 L 276.4,241.2 L 276.7,239.4 L 277.0,237.5 L 277.3,235.7 L 277.7,233.8 L 278.1,231.1 L 278.5,229.2 L 278.8,227.3 L 279.1,225.5 L 279.4,223.5 L 279.8,221.6 L 280.1,219.6 L 280.4,217.7 L 280.7,215.9 L 281.0,214.0 L 281.3,212.0 L 281.7,209.7 L 282.1,207.6 L 282.4,205.6 L 282.7,203.6 L 283.0,201.6 L 283.4,199.5 L 283.8,197.3 L 284.2,195.0 L 284.5,193.0 L 284.9,190.9 L 285.2,188.8 L 285.5,187.2 L 285.8,185.3 L 286.2,183.1 L 286.8,180.3 L 287.6,177.3 L 288.1,175.4 L 288.7,173.5 L 289.4,171.3 L 290.2,169.2 L 290.9,167.4 L 291.8,165.3 L 292.6,163.5 L 293.6,161.4 L 294.7,159.3 L 295.7,157.3 L 296.6,155.5 L 297.7,153.6 L 298.5,152.1 L 299.2,150.7 L 300.0,149.3 L 300.7,147.9 L 301.4,146.7 L 302.0,145.4 L 302.7,144.1 L 303.4,142.8 L 304.2,141.3 L 305.0,139.8 L 305.7,138.5 L 306.5,136.9 L 307.1,135.7 L 307.7,134.4 L 308.2,133.0 L 308.6,131.7 L 308.7,130.2 L 308.5,128.8 L 308.1,127.4 L 307.5,126.1 L 306.7,124.8 L 305.7,123.7 L 304.8,122.6 L 303.9,121.4 L 303.1,120.1 L 302.4,118.8 L 301.6,117.0 L 301.1,115.5 L 300.6,114.0 L 300.2,112.0 L 300.0,110.4 L 299.9,108.7 L 299.9,107.0 L 300.0,105.3 L 300.2,103.4 L 300.5,102.0 L 300.7,100.7 L 301.0,99.3 L 301.3,97.8 L 301.5,96.4 L 301.8,94.9 L 302.1,93.5 L 302.4,92.2 L 302.7,90.8 L 303.0,89.4 L 303.3,88.1 L 303.6,86.8 L 304.0,85.0 L 304.3,83.6 L 304.7,82.1 L 305.0,80.6 L 305.3,79.2 L 305.6,77.8 L 305.9,76.3 L 306.2,74.8 L 306.5,73.3 L 306.8,71.8 L 307.1,70.3 L 307.4,68.7 L 307.7,67.2 L 308.0,65.7 L 308.3,64.2 L 308.5,62.7 L 308.9,61.0 L 309.2,59.4 L 309.5,58.0 L 309.7,56.6 L 310.0,55.3 L 310.2,53.9 L 310.6,52.2 L 310.9,50.6 L 311.3,48.9 L 311.5,47.3 L 311.7,45.8 L 311.6,44.2 L 311.4,42.9 L 310.9,41.4 L 310.2,40.1 L 309.2,39.0 L 308.0,38.0 L 306.6,37.2 L 305.2,36.7 L 303.7,36.2 L 302.3,35.9 L 300.9,35.7 L 299.3,35.5 L 297.9,35.3 L 296.4,35.0 L 294.9,34.8 L 293.4,34.5 L 291.8,34.2 L 290.2,33.8 L 288.6,33.5 L 287.0,33.2 L 285.4,32.9 L 283.7,32.6 L 282.1,32.3 L 280.6,32.0 L 279.2,31.8 L 277.7,31.5 L 276.4,31.2 L 274.6,30.9 L 273.1,30.6 L 271.7,30.3 L 270.6,30.2 Z" fill="none" stroke="rgba(255,255,255,0.15)" stroke-width="5" stroke-linecap="round" stroke-linejoin="round"/><path d="M 270.6,30.2 L 269.2,29.9 L 267.8,29.6 L 266.4,29.3 L 265.0,29.0 L 263.6,28.8 L 262.1,28.4 L 260.7,28.2 L 259.3,27.9 L 257.8,27.6 L 256.4,27.3 L 255.0,27.0 L 253.5,26.7 L 251.4,26.3 L 249.9,26.1 L 248.4,25.8 L 246.9,25.5 L 245.6,25.2 L 244.2,24.9 L 242.5,24.6 L 240.9,24.3 L 239.5,24.1 L 238.1,24.0 L 236.6,24.0 L 235.1,24.2 L 233.5,24.7 L 232.1,25.4 L 230.9,26.4 L 229.9,27.6 L 229.2,28.9 L 228.5,30.7 L 228.0,32.1 L 227.7,33.6 L 227.5,35.1 L 227.3,36.4 L 227.1,37.9 L 227.0,39.3 L 226.8,40.8 L 226.6,42.2 L 226.3,43.8 L 226.0,45.4 L 225.8,47.0 L 225.5,48.5 L 225.2,50.1 L 224.9,51.7 L 224.6,53.2 L 224.3,54.8 L 224.0,56.3 L 223.6,58.2 L 223.3,59.7 L 223.0,61.4 L 222.7,62.8 L 222.4,64.5 L 222.1,66.0 L 221.8,67.3 L 221.5,68.6 L 221.2,70.0 L 220.9,71.4 L 220.6,72.8 L 220.4,74.0 L 220.1,75.4 L 219.8,76.8 L 219.5,78.2 L 219.2,79.7 L 218.9,81.2 L 218.6,82.6 L 218.3,84.1 L 218.0,85.4 L 217.8,86.7 L 217.5,88.1 L 217.2,89.4 L 217.0,90.8 L 216.6,92.8 L 216.2,94.6 L 216.0,96.0 L 215.7,97.4 L 215.5,98.8 L 215.2,100.2 L 214.9,101.8 L 214.6,103.2 L 214.4,104.6 L 214.1,106.0 L 213.8,107.4 L 213.5,108.9 L 213.2,110.4 L 213.0,111.8 L 212.7,113.2 L 212.4,114.7 L 212.1,116.2 L 211.6,118.5 L 211.3,120.2 L 211.0,121.8 L 210.7,123.3 L 210.4,124.9 L 210.1,126.4 L 209.8,128.0 L 209.5,129.6 L 209.2,131.1 L 208.9,132.7 L 208.4,135.2 L 208.1,137.0 L 207.8,138.7 L 207.4,140.6 L 207.1,142.3 L 206.8,143.8 L 206.5,145.5 L 206.1,147.3 L 205.8,149.0 L 205.5,150.7 L 205.1,152.4 L 204.8,154.1 L 204.4,156.3 L 204.0,158.1 L 203.7,159.9 L 203.3,161.6 L 203.0,163.3 L 202.6,165.1 L 202.2,167.3 L 201.9,169.2 L 201.5,171.0 L 201.2,172.7 L 200.8,174.5 L 200.4,176.4 L 199.9,178.9 L 199.4,181.4 L 199.0,183.4 L 198.6,185.2 L 198.2,186.9 L 197.9,188.6 L 197.6,190.1 L 197.3,191.6 L 197.0,192.8 L 196.7,194.3 L 196.3,195.9 L 195.8,197.4 L 195.1,198.8 L 194.4,200.0 L 193.6,201.2 L 192.6,202.2 L 191.5,203.1 L 190.3,203.9 L 188.9,204.7 L 187.3,205.3 L 186.0,205.6 L 184.6,205.8 L 183.3,205.9 L 181.8,205.8 L 180.4,205.7 L 178.9,205.4 L 177.4,204.9 L 176.0,204.4 L 174.5,203.8 L 173.1,203.1 L 171.7,202.4 L 170.2,201.5 L 168.8,200.7 L 167.4,199.8 L 165.9,198.8 L 164.4,197.8 L 163.1,197.0 L 161.6,195.9 L 160.1,194.9 L 158.9,194.0 L 157.6,193.1 L 156.4,192.3 L 155.2,191.5 L 154.1,190.8 L 152.9,190.0 L 151.6,189.2 L 150.4,188.5 L 149.2,187.8 L 147.9,187.0 L 146.7,186.3 L 145.3,185.6 L 144.1,185.0 L 142.8,184.4 L 141.4,183.9 L 140.2,183.5 L 138.8,183.1 L 137.2,182.7 L 135.7,182.4 L 134.3,182.2 L 132.4,182.1 L 131.0,182.2 L 129.4,182.3 L 127.9,182.6 L 126.6,182.9 L 125.1,183.2 L 123.6,183.8 L 122.3,184.6 L 121.3,185.6 L 120.5,186.8 L 120.0,188.2 L 119.9,189.5 L 120.1,190.9 L 120.6,192.3 L 121.3,193.7 L 122.1,194.9 L 123.0,196.1 L 123.9,197.2 L 124.9,198.2 L 125.8,199.1 L 126.8,200.4 L 127.7,201.5 L 128.4,202.7 L 129.2,204.1 L 129.8,205.5 L 130.4,207.0 L 130.8,208.6 L 131.1,210.2 L 131.3,211.8 L 131.4,213.7 L 131.4,215.2 L 131.3,216.8 L 131.1,218.5 L 130.9,220.1 L 130.6,221.8 L 130.3,223.5 L 129.9,225.0 L 129.5,226.3 L 129.1,227.7 L 128.5,229.2 L 127.9,230.5 L 127.1,231.9 L 126.2,233.3 L 125.3,234.5 L 124.2,235.7 L 123.0,236.8 L 121.7,237.8 L 120.5,238.6 L 118.8,239.6 L 117.4,240.4 L 115.9,241.2 L 114.5,242.0 L 113.2,242.8 L 111.7,243.7 L 110.6,244.5 L 109.4,245.3 L 108.2,246.2 L 106.6,247.4 L 105.5,248.3 L 104.2,249.3 L 103.1,250.3 L 102.1,251.2 L 101.1,252.2 L 100.1,253.1 L 99.2,254.2 L 98.2,255.3 L 97.2,256.5 L 96.3,257.7 L 95.4,259.0 L 94.6,260.2 L 93.5,262.0 L 92.7,263.3 L 92.0,264.5 L 91.3,265.9 L 90.6,267.3 L 90.0,268.6 L 89.5,269.9 L 89.1,271.2 L 88.8,272.5 L 88.6,273.9 L 88.4,275.3 L 88.3,276.6 L 88.3,277.9 L 88.4,279.3 L 88.6,280.9 L 88.8,282.3 L 89.1,283.7 L 89.4,285.1 L 89.8,286.6 L 90.2,287.9 L 90.7,289.1 L 91.2,290.4 L 91.7,291.7 L 92.3,293.0 L 93.2,294.9 L 93.9,296.1 L 94.6,297.4 L 95.3,298.6 L 96.0,299.8 L 96.7,301.0 L 97.4,302.2 L 98.2,303.5 L 99.2,305.2 L 100.2,306.8 L 101.2,308.3 L 102.0,309.6 L 102.9,310.9 L 103.8,312.1 L 104.7,313.3 L 105.7,314.5 L 106.7,315.7 L 107.7,316.7 L 108.7,317.7 L 110.0,318.8 L 111.2,319.7 L 112.5,320.6 L 113.9,321.3 L 115.4,322.0 L 117.2,322.7 L 118.6,323.2 L 120.0,323.5 L 121.4,323.8 L 122.9,324.1 L 124.4,324.4 L 126.0,324.6 L 127.4,324.7 L 128.9,324.8 L 130.4,324.9 L 132.2,324.9 L 133.8,324.9 L 135.3,324.8 L 136.9,324.7 L 138.4,324.7 L 139.9,324.6 L 141.5,324.5 L 143.0,324.4 L 144.7,324.4 L 146.4,324.4 L 148.4,324.6 L 150.0,324.7 L 151.5,324.9 L 152.9,325.1 L 155.2,325.4 L 156.5,325.6 L 157.7,325.8 L 159.1,326.1 L 160.5,326.4 L 162.0,326.8 L 163.2,327.2 L 164.5,327.7 L 165.8,328.2 L 167.1,328.9 L 168.7,329.5 L 170.4,330.1 L 171.9,330.6 L 173.5,330.9 L 175.0,331.1 L 176.9,331.2 L 178.3,331.3 L 179.6,331.4 L 181.2,331.5 L 182.8,331.9 L 184.2,332.5 L 185.5,333.2 L 186.6,334.3 L 187.5,335.5 L 188.2,336.8 L 188.9,337.9 L 189.8,338.9 L 190.7,339.8 L 192.0,340.5 L 193.4,341.0 L 194.8,341.3 L 196.2,341.6 L 197.5,342.0 L 198.7,342.5 L 200.0,343.1 L 201.1,343.7 L 202.3,344.6 L 203.4,345.6 L 204.6,346.6 L 205.7,347.7 L 206.8,348.8 L 208.0,349.9 L 209.1,350.9 L 210.4,352.0 L 211.6,352.9 L 212.8,353.8 L 214.3,354.7 L 215.5,355.4 L 216.7,356.0 L 218.0,356.7 L 219.6,357.6 L 220.9,358.4 L 222.1,359.2 L 223.2,360.2 L 224.3,361.3 L 225.3,362.6 L 226.1,363.9 L 226.9,365.2 L 227.6,366.7 L 228.3,368.0 L 228.8,369.3 L 229.4,370.7 L 230.0,372.1 L 230.6,373.3 L 231.5,374.3 L 232.8,375.3 L 234.0,375.8 L 235.3,376.0 L 236.5,375.9 L 237.9,375.6 L 239.0,374.9 L 240.2,374.0 L 241.2,373.0 L 242.2,371.9 L 243.2,370.7 L 244.0,369.7 L 244.8,368.5 L 245.7,367.4 L 246.5,366.1 L 247.4,364.8 L 248.2,363.5 L 249.1,362.0 L 250.0,360.5 L 250.8,359.1 L 251.7,357.7 L 252.5,356.2 L 253.3,354.6 L 254.0,353.1 L 254.6,351.9 L 255.2,350.5 L 255.8,349.2 L 256.4,347.6 L 256.9,346.2 L 257.4,344.9 L 257.8,343.6 L 258.2,342.3 L 258.5,340.9 L 258.9,339.5 L 259.2,338.2 L 259.5,337.0 L 259.7,335.6 L 260.0,334.1 L 260.3,332.7 L 260.6,331.3 L 260.9,329.5 L 261.2,328.0 L 261.4,326.5 L 261.8,324.4 L 262.0,322.9 L 262.3,321.2 L 262.6,319.5 L 262.9,317.7 L 263.2,316.0 L 263.5,314.3 L 263.7,312.5 L 264.0,310.8 L 264.3,309.0 L 264.7,307.2 L 265.0,305.4 L 265.4,303.4 L 265.7,301.7 L 266.1,299.7 L 266.4,298.0 L 266.8,295.8 L 267.1,294.1 L 267.5,292.3 L 267.8,290.4 L 268.2,288.6 L 268.5,286.8 L 268.9,284.9 L 269.3,282.4 L 269.6,280.5 L 269.9,278.7 L 270.3,276.4 L 270.6,274.6 L 270.9,272.6 L 271.3,270.7 L 271.6,268.9 L 271.9,267.2 L 272.2,265.4 L 272.5,263.6 L 272.8,261.6 L 273.1,259.9 L 273.4,258.1 L 273.7,256.4 L 274.0,254.6 L 274.4,252.2 L 274.8,250.3 L 275.1,248.5 L 275.4,246.7 L 275.7,244.9 L 276.0,243.1 L 276.4,241.2 L 276.7,239.4 L 277.0,237.5 L 277.3,235.7 L 277.7,233.8 L 278.1,231.1 L 278.5,229.2 L 278.8,227.3 L 279.1,225.5 L 279.4,223.5 L 279.8,221.6 L 280.1,219.6 L 280.4,217.7 L 280.7,215.9 L 281.0,214.0 L 281.3,212.0 L 281.7,209.7 L 282.1,207.6 L 282.4,205.6 L 282.7,203.6 L 283.0,201.6 L 283.4,199.5 L 283.8,197.3 L 284.2,195.0 L 284.5,193.0 L 284.9,190.9 L 285.2,188.8 L 285.5,187.2 L 285.8,185.3 L 286.2,183.1 L 286.8,180.3 L 287.6,177.3 L 288.1,175.4 L 288.7,173.5 L 289.4,171.3 L 290.2,169.2 L 290.9,167.4 L 291.8,165.3 L 292.6,163.5 L 293.6,161.4 L 294.7,159.3 L 295.7,157.3 L 296.6,155.5 L 297.7,153.6 L 298.5,152.1 L 299.2,150.7 L 300.0,149.3 L 300.7,147.9 L 301.4,146.7 L 302.0,145.4 L 302.7,144.1 L 303.4,142.8 L 304.2,141.3 L 305.0,139.8 L 305.7,138.5 L 306.5,136.9 L 307.1,135.7 L 307.7,134.4 L 308.2,133.0 L 308.6,131.7 L 308.7,130.2 L 308.5,128.8 L 308.1,127.4 L 307.5,126.1 L 306.7,124.8 L 305.7,123.7 L 304.8,122.6 L 303.9,121.4 L 303.1,120.1 L 302.4,118.8 L 301.6,117.0 L 301.1,115.5 L 300.6,114.0 L 300.2,112.0 L 300.0,110.4 L 299.9,108.7 L 299.9,107.0 L 300.0,105.3 L 300.2,103.4 L 300.5,102.0 L 300.7,100.7 L 301.0,99.3 L 301.3,97.8 L 301.5,96.4 L 301.8,94.9 L 302.1,93.5 L 302.4,92.2 L 302.7,90.8 L 303.0,89.4 L 303.3,88.1 L 303.6,86.8 L 304.0,85.0 L 304.3,83.6 L 304.7,82.1 L 305.0,80.6 L 305.3,79.2 L 305.6,77.8 L 305.9,76.3 L 306.2,74.8 L 306.5,73.3 L 306.8,71.8 L 307.1,70.3 L 307.4,68.7 L 307.7,67.2 L 308.0,65.7 L 308.3,64.2 L 308.5,62.7 L 308.9,61.0 L 309.2,59.4 L 309.5,58.0 L 309.7,56.6 L 310.0,55.3 L 310.2,53.9 L 310.6,52.2 L 310.9,50.6 L 311.3,48.9 L 311.5,47.3 L 311.7,45.8 L 311.6,44.2 L 311.4,42.9 L 310.9,41.4 L 310.2,40.1 L 309.2,39.0 L 308.0,38.0 L 306.6,37.2 L 305.2,36.7 L 303.7,36.2 L 302.3,35.9 L 300.9,35.7 L 299.3,35.5 L 297.9,35.3 L 296.4,35.0 L 294.9,34.8 L 293.4,34.5 L 291.8,34.2 L 290.2,33.8 L 288.6,33.5 L 287.0,33.2 L 285.4,32.9 L 283.7,32.6 L 282.1,32.3 L 280.6,32.0 L 279.2,31.8 L 277.7,31.5 L 276.4,31.2 L 274.6,30.9 L 273.1,30.6 L 271.7,30.3 L 270.6,30.2 Z" fill="none" stroke="#4db8ff" stroke-width="2.5" stroke-linecap="round" stroke-linejoin="round"/></svg>