<svg xmlns="http://www.w3.org/2000/svg" viewBox="0 0 400 400"><path d="M 144.1,331.0 L 143.0,329.6 L 141.9,328.2 L 140.4,327.5 L 138.8,328.3 L 137.7,329.8 L 136.8,331.5 L 135.9,333.2 L 135.0,334.7 L 133.8,336.1 L 132.4,337.3 L 130.8,338.3 L 129.2,339.2 L 127.4,339.8 L 125.5,340.1 L 123.5,340.0 L 121.6,339.4 L 120.1,338.7 L 118.5,337.8 L 116.8,337.0 L 115.0,336.2 L 113.0,335.7 L 111.0,335.4 L 109.2,335.2 L 107.2,335.1 L 105.4,335.4 L 103.6,335.9 L 101.8,336.1 L 100.0,335.5 L 98.6,334.3 L 97.7,332.8 L 96.8,331.2 L 95.6,329.7 L 94.2,328.6 L 92.8,327.3 L 91.8,325.7 L 90.9,324.1 L 89.4,323.0 L 87.6,322.6 L 85.9,322.5 L 84.0,322.3 L 82.3,322.0 L 80.6,321.0 L 79.7,319.4 L 79.3,317.6 L 78.7,315.9 L 77.6,314.5 L 76.0,313.2 L 74.5,312.1 L 73.0,311.2 L 71.2,310.0 L 69.6,308.9 L 67.9,307.7 L 66.1,306.5 L 64.4,305.3 L 62.6,303.9 L 60.9,302.5 L 59.2,300.8 L 57.7,299.0 L 56.2,297.3 L 54.8,295.5 L 53.3,293.7 L 51.9,292.0 L 50.6,290.4 L 49.6,288.8 L 48.7,287.2 L 48.2,285.6 L 47.9,284.0 L 47.8,282.3 L 47.9,280.5 L 48.3,278.7 L 48.9,277.0 L 49.7,275.2 L 50.5,273.3 L 51.1,271.3 L 51.6,269.3 L 52.0,267.1 L 52.3,264.9 L 52.5,262.6 L 52.5,260.3 L 52.3,258.0 L 52.1,255.6 L 51.9,253.2 L 51.5,250.7 L 51.1,248.2 L 50.4,245.7 L 49.5,243.2 L 48.5,240.7 L 47.5,238.3 L 46.4,235.8 L 45.4,233.4 L 44.4,230.9 L 43.5,228.6 L 42.7,226.6 L 41.9,224.5 L 41.0,222.7 L 40.0,221.0 L 38.8,219.4 L 37.5,217.8 L 35.9,216.5 L 34.2,215.3 L 32.4,214.3 L 30.6,213.5 L 28.9,212.7 L 27.1,211.9 L 25.5,211.0 L 24.3,209.6 L 24.0,207.9 L 24.7,206.2 L 26.0,204.9 L 27.6,204.0 L 29.4,203.3 L 31.2,202.7 L 32.9,202.1 L 34.6,201.4 L 36.4,200.5 L 38.2,199.5 L 40.0,198.3 L 41.8,197.0 L 43.6,195.5 L 45.5,194.1 L 47.1,192.8 L 48.8,191.3 L 50.1,189.9 L 51.4,188.6 L 52.8,187.2 L 54.5,185.6 L 56.3,184.0 L 58.3,182.2 L 60.2,180.3 L 61.9,178.2 L 63.3,176.0 L 64.4,173.8 L 65.2,171.9 L 65.9,170.2 L 66.4,168.5 L 66.7,166.8 L 66.7,165.1 L 66.6,163.1 L 66.7,161.3 L 67.3,159.5 L 68.5,158.1 L 69.9,157.0 L 71.2,155.7 L 71.7,154.0 L 70.9,152.5 L 70.1,150.9 L 70.3,149.2 L 71.4,147.7 L 72.8,146.4 L 74.3,145.3 L 75.9,144.0 L 77.3,143.0 L 78.7,141.9 L 80.1,140.6 L 81.5,139.2 L 82.9,137.7 L 84.3,136.1 L 85.9,134.6 L 87.5,133.1 L 89.2,131.5 L 90.8,129.8 L 92.4,128.1 L 93.7,126.5 L 94.8,124.9 L 95.7,123.4 L 96.3,121.8 L 96.7,119.9 L 96.6,117.8 L 96.2,115.9 L 95.8,114.1 L 95.3,112.3 L 94.7,110.6 L 93.4,109.3 L 91.6,108.8 L 89.7,108.8 L 88.0,108.4 L 86.3,107.7 L 84.5,106.7 L 82.8,105.5 L 81.4,104.4 L 80.4,102.9 L 80.3,101.1 L 81.2,99.6 L 82.8,98.5 L 84.5,97.8 L 86.3,97.0 L 88.0,96.0 L 89.4,94.9 L 90.9,93.5 L 92.0,91.9 L 92.7,90.1 L 93.2,88.1 L 93.8,86.5 L 94.5,84.9 L 95.5,83.2 L 96.8,81.7 L 98.3,80.6 L 100.0,79.8 L 101.9,79.4 L 103.8,79.6 L 105.7,80.2 L 107.5,81.1 L 109.0,82.0 L 110.5,83.1 L 112.0,84.1 L 113.6,85.3 L 114.9,86.5 L 116.1,87.9 L 116.9,89.5 L 118.2,90.6 L 119.7,89.8 L 120.9,88.4 L 122.4,87.4 L 124.2,86.8 L 126.0,86.5 L 128.1,86.4 L 129.8,86.3 L 131.6,86.2 L 133.5,86.1 L 135.4,86.2 L 137.4,86.5 L 139.2,86.9 L 141.0,87.3 L 142.8,87.7 L 144.6,87.8 L 146.3,87.0 L 147.5,85.7 L 148.3,84.0 L 148.7,82.2 L 148.7,80.4 L 148.7,78.6 L 149.2,76.9 L 150.5,75.6 L 152.1,74.7 L 153.7,73.9 L 155.5,73.3 L 157.5,72.6 L 159.2,72.1 L 160.9,71.6 L 162.7,71.1 L 164.5,70.7 L 166.5,70.2 L 168.6,69.8 L 170.7,69.3 L 172.8,68.9 L 175.0,68.4 L 177.2,67.7 L 179.2,66.7 L 181.1,65.6 L 182.7,64.3 L 184.0,63.2 L 185.6,62.0 L 187.1,60.9 L 188.8,60.1 L 190.5,59.9 L 192.3,60.6 L 193.4,62.1 L 193.9,63.9 L 194.1,65.8 L 194.1,67.8 L 193.9,69.9 L 193.7,71.8 L 193.6,73.6 L 193.6,75.5 L 193.6,77.5 L 193.7,79.4 L 193.9,81.5 L 194.3,83.5 L 194.9,85.5 L 195.6,87.4 L 196.6,89.2 L 197.7,91.0 L 199.2,92.6 L 200.8,94.0 L 202.6,95.3 L 204.5,96.4 L 206.5,97.4 L 208.7,98.4 L 210.8,99.3 L 212.9,100.1 L 214.9,100.7 L 217.0,101.2 L 219.4,101.4 L 221.7,101.3 L 223.8,101.2 L 225.5,101.2 L 227.2,101.2 L 229.1,101.4 L 231.6,101.6 L 233.4,101.7 L 235.4,102.0 L 237.5,102.2 L 239.4,102.5 L 241.1,102.7 L 243.0,103.1 L 244.8,103.5 L 246.6,104.0 L 248.3,104.6 L 250.1,105.2 L 251.7,106.0 L 253.3,106.8 L 254.7,107.7 L 256.3,108.9 L 258.2,110.3 L 260.3,111.7 L 262.3,112.9 L 264.2,113.9 L 265.9,114.6 L 267.6,115.1 L 269.6,115.3 L 271.7,115.1 L 273.4,114.7 L 275.1,114.0 L 276.8,113.2 L 278.4,112.2 L 280.1,111.1 L 281.8,109.9 L 283.4,108.6 L 285.0,107.2 L 286.6,105.9 L 288.1,104.7 L 289.6,103.7 L 291.2,102.9 L 293.0,102.4 L 294.8,102.1 L 296.7,101.8 L 298.7,101.5 L 300.6,101.2 L 302.4,100.8 L 304.3,100.4 L 306.1,100.1 L 307.8,100.5 L 308.8,101.9 L 308.7,103.7 L 307.9,105.3 L 306.6,106.7 L 305.2,107.9 L 303.6,109.1 L 302.0,110.3 L 300.7,111.4 L 299.3,112.5 L 297.7,113.6 L 296.2,114.6 L 294.7,115.7 L 293.7,117.1 L 294.3,118.7 L 295.9,119.0 L 297.2,117.8 L 298.1,116.3 L 299.3,114.8 L 300.6,113.6 L 302.3,112.5 L 304.0,111.7 L 305.6,111.1 L 307.4,110.5 L 309.3,109.9 L 311.3,109.4 L 313.3,109.0 L 315.3,108.7 L 317.0,108.4 L 318.9,107.7 L 320.5,106.8 L 321.9,105.8 L 323.3,104.7 L 324.6,103.4 L 325.8,102.1 L 326.9,100.5 L 327.6,98.8 L 327.9,97.1 L 327.7,95.3 L 327.6,93.6 L 328.0,91.9 L 328.7,90.3 L 329.6,88.7 L 330.7,87.3 L 332.0,86.1 L 333.7,85.5 L 335.5,85.6 L 337.2,86.2 L 338.9,87.0 L 340.7,87.7 L 342.7,88.2 L 344.4,88.5 L 346.0,89.0 L 347.9,89.7 L 349.6,90.7 L 351.0,92.0 L 352.1,93.4 L 353.3,94.8 L 354.7,95.9 L 356.3,96.6 L 358.2,97.0 L 360.0,97.4 L 361.7,98.2 L 363.2,99.4 L 364.6,101.0 L 365.7,102.3 L 366.9,103.8 L 367.7,105.5 L 368.0,107.3 L 367.7,109.1 L 367.2,110.8 L 366.4,112.4 L 365.5,114.2 L 364.9,116.0 L 364.7,117.7 L 365.1,119.5 L 366.1,121.1 L 367.4,122.2 L 369.1,123.0 L 370.8,123.4 L 372.6,123.9 L 374.1,124.8 L 375.0,126.3 L 375.5,128.1 L 375.7,130.0 L 375.9,132.1 L 376.0,133.9 L 375.7,135.8 L 374.6,137.3 L 372.9,138.1 L 371.1,138.3 L 369.3,138.3 L 367.4,138.1 L 365.3,137.7 L 363.4,137.5 L 361.6,137.5 L 359.9,138.1 L 358.7,139.4 L 358.0,141.1 L 357.2,142.8 L 356.3,144.3 L 355.2,145.8 L 353.9,147.4 L 352.8,149.1 L 352.1,150.6 L 351.6,152.2 L 351.2,154.0 L 351.1,155.8 L 351.3,157.7 L 351.4,159.7 L 351.5,161.7 L 351.5,163.7 L 351.6,165.5 L 351.7,167.4 L 351.4,169.3 L 350.7,171.0 L 349.6,172.4 L 348.2,173.5 L 346.5,174.4 L 344.6,174.9 L 342.7,175.6 L 340.8,176.4 L 339.2,177.5 L 337.9,178.6 L 336.7,179.9 L 335.5,181.3 L 334.4,182.8 L 333.4,184.4 L 332.6,186.0 L 331.8,187.8 L 330.9,189.6 L 329.9,191.4 L 328.7,192.9 L 327.4,194.3 L 325.9,195.5 L 324.3,196.5 L 322.6,197.6 L 320.9,198.8 L 319.2,199.9 L 317.2,200.8 L 315.2,201.5 L 313.2,202.0 L 311.0,202.5 L 308.9,203.2 L 306.7,204.0 L 304.6,204.8 L 302.7,205.5 L 300.9,206.0 L 299.2,206.3 L 297.1,206.4 L 295.2,206.1 L 293.4,205.4 L 291.8,204.1 L 290.5,202.9 L 289.0,201.8 L 287.3,201.3 L 285.5,201.4 L 283.8,202.0 L 282.2,202.8 L 280.6,203.9 L 278.8,205.1 L 277.4,206.2 L 276.2,207.6 L 275.9,209.5 L 276.7,211.2 L 277.8,212.6 L 279.2,213.8 L 280.8,214.7 L 282.7,215.6 L 284.4,216.2 L 286.1,216.7 L 287.9,217.2 L 289.6,217.8 L 291.5,218.5 L 293.0,219.5 L 294.2,220.8 L 295.2,222.4 L 296.0,224.3 L 296.6,226.3 L 296.9,228.3 L 296.8,230.3 L 296.3,232.1 L 295.4,233.9 L 294.0,235.4 L 292.7,236.5 L 291.2,237.5 L 289.6,238.4 L 287.9,239.4 L 286.1,240.4 L 284.2,241.5 L 282.3,242.6 L 280.4,243.8 L 278.5,244.9 L 276.5,246.1 L 274.6,247.2 L 272.7,248.4 L 270.6,249.6 L 268.6,250.8 L 266.7,252.0 L 264.5,253.3 L 262.6,254.5 L 260.4,255.8 L 258.1,257.2 L 255.8,258.6 L 253.4,260.0 L 251.1,261.4 L 249.4,262.4 L 247.8,263.4 L 246.2,264.4 L 244.7,265.3 L 243.1,266.3 L 241.5,267.3 L 239.9,268.2 L 238.3,269.2 L 236.7,270.2 L 235.1,271.2 L 233.5,272.2 L 231.9,273.2 L 230.3,274.2 L 228.7,275.2 L 227.0,276.3 L 225.4,277.3 L 223.8,278.3 L 222.2,279.3 L 220.6,280.3 L 219.0,281.4 L 217.4,282.4 L 215.7,283.4 L 214.1,284.5 L 212.4,285.5 L 210.8,286.5 L 209.1,287.5 L 207.4,288.5 L 205.8,289.5 L 204.1,290.5 L 202.4,291.5 L 200.8,292.4 L 199.1,293.4 L 197.4,294.5 L 195.8,295.5 L 194.1,296.5 L 192.5,297.6 L 190.8,298.7 L 189.2,299.8 L 187.7,301.0 L 186.2,302.3 L 184.8,303.6 L 183.5,305.0 L 182.1,306.5 L 180.8,307.9 L 179.6,309.4 L 178.3,311.0 L 176.9,312.7 L 175.5,314.4 L 174.5,315.8 L 173.1,317.7 L 171.9,319.6 L 170.8,321.5 L 169.7,323.3 L 168.6,324.9 L 167.4,326.3 L 166.1,327.6 L 164.8,328.9 L 163.5,330.4 L 162.6,332.0 L 161.7,333.6 L 160.5,334.9 L 158.9,335.3 L 157.0,335.3 L 155.3,335.9 L 153.8,336.9 L 152.2,337.6 L 150.5,337.2 L 148.9,336.2 L 147.5,335.0 L 146.2,333.8 L 144.9,332.2 L 144.1,331.0 Z" fill="none" stroke="rgba(255,255,255,0.15)" stroke-width="5" stroke-linecap="round" stroke-linejoin="round"/><path d="M 144.1,331.0 L 143.0,329.6 L 141.9,328.2 L 140.4,327.5 L 138.8,328.3 L 137.7,329.8 L 136.8,331.5 L 135.9,333.2 L 135.0,334.7 L 133.8,336.1 L 132.4,337.3 L 130.8,338.3 L 129.2,339.2 L 127.4,339.8 L 125.5,340.1 L 123.5,340.0 L 121.6,339.4 L 120.1,338.7 L 118.5,337.8 L 116.8,337.0 L 115.0,336.2 L 113.0,335.7 L 111.0,335.4 L 109.2,335.2 L 107.2,335.1 L 105.4,335.4 L 103.6,335.9 L 101.8,336.1 L 100.0,335.5 L 98.6,334.3 L 97.7,332.8 L 96.8,331.2 L 95.6,329.7 L 94.2,328.6 L 92.8,327.3 L 91.8,325.7 L 90.9,324.1 L 89.4,323.0 L 87.6,322.6 L 85.9,322.5 L 84.0,322.3 L 82.3,322.0 L 80.6,321.0 L 79.7,319.4 L 79.3,317.6 L 78.7,315.9 L 77.6,314.5 L 76.0,313.2 L 74.5,312.1 L 73.0,311.2 L 71.2,310.0 L 69.6,308.9 L 67.9,307.7 L 66.1,306.5 L 64.4,305.3 L 62.6,303.9 L 60.9,302.5 L 59.2,300.8 L 57.7,299.0 L 56.2,297.3 L 54.8,295.5 L 53.3,293.7 L 51.9,292.0 L 50.6,290.4 L 49.6,288.8 L 48.7,287.2 L 48.2,285.6 L 47.9,284.0 L 47.8,282.3 L 47.9,280.5 L 48.3,278.7 L 48.9,277.0 L 49.7,275.2 L 50.5,273.3 L 51.1,271.3 L 51.6,269.3 L 52.0,267.1 L 52.3,264.9 L 52.5,262.6 L 52.5,260.3 L 52.3,258.0 L 52.1,255.6 L 51.9,253.2 L 51.5,250.7 L 51.1,248.2 L 50.4,245.7 L 49.5,243.2 L 48.5,240.7 L 47.5,238.3 L 46.4,235.8 L 45.4,233.4 L 44.4,230.9 L 43.5,228.6 L 42.7,226.6 L 41.9,224.5 L 41.0,222.7 L 40.0,221.0 L 38.8,219.4 L 37.5,217.8 L 35.9,216.5 L 34.2,215.3 L 32.4,214.3 L 30.6,213.5 L 28.9,212.7 L 27.1,211.9 L 25.5,211.0 L 24.3,209.6 L 24.0,207.9 L 24.7,206.2 L 26.0,204.9 L 27.6,204.0 L 29.4,203.3 L 31.2,202.7 L 32.9,202.1 L 34.6,201.4 L 36.4,200.5 L 38.2,199.5 L 40.0,198.3 L 41.8,197.0 L 43.6,195.5 L 45.5,194.1 L 47.1,192.8 L 48.8,191.3 L 50.1,189.9 L 51.4,188.6 L 52.8,187.2 L 54.5,185.6 L 56.3,184.0 L 58.3,182.2 L 60.2,180.3 L 61.9,178.2 L 63.3,176.0 L 64.4,173.8 L 65.2,171.9 L 65.9,170.2 L 66.4,168.5 L 66.7,166.8 L 66.7,165.1 L 66.6,163.1 L 66.7,161.3 L 67.3,159.5 L 68.5,158.1 L 69.9,157.0 L 71.2,155.7 L 71.7,154.0 L 70.9,152.5 L 70.1,150.9 L 70.3,149.2 L 71.4,147.7 L 72.8,146.4 L 74.3,145.3 L 75.9,144.0 L 77.3,143.0 L 78.7,141.9 L 80.1,140.6 L 81.5,139.2 L 82.9,137.7 L 84.3,136.1 L 85.9,134.6 L 87.5,133.1 L 89.2,131.5 L 90.8,129.8 L 92.4,128.1 L 93.7,126.5 L 94.8,124.9 L 95.7,123.4 L 96.3,121.8 L 96.7,119.9 L 96.6,117.8 L 96.2,115.9 L 95.8,114.1 L 95.3,112.3 L 94.7,110.6 L 93.4,109.3 L 91.6,108.8 L 89.7,108.8 L 88.0,108.4 L 86.3,107.7 L 84.5,106.7 L 82.8,105.5 L 81.4,104.4 L 80.4,102.9 L 80.3,101.1 L 81.2,99.6 L 82.8,98.5 L 84.5,97.8 L 86.3,97.0 L 88.0,96.0 L 89.4,94.9 L 90.9,93.5 L 92.0,91.9 L 92.7,90.1 L 93.2,88.1 L 93.8,86.5 L 94.5,84.9 L 95.5,83.2 L 96.8,81.7 L 98.3,80.6 L 100.0,79.8 L 101.9,79.4 L 103.8,79.6 L 105.7,80.2 L 107.5,81.1 L 109.0,82.0 L 110.5,83.1 L 112.0,84.1 L 113.6,85.3 L 114.9,86.5 L 116.1,87.9 L 116.9,89.5 L 118.2,90.6 L 119.7,89.8 L 120.9,88.4 L 122.4,87.4 L 124.2,86.8 L 126.0,86.5 L 128.1,86.4 L 129.8,86.3 L 131.6,86.2 L 133.5,86.1 L 135.4,86.2 L 137.4,86.5 L 139.2,86.9 L 141.0,87.3 L 142.8,87.7 L 144.6,87.8 L 146.3,87.0 L 147.5,85.7 L 148.3,84.0 L 148.7,82.2 L 148.7,80.4 L 148.7,78.6 L 149.2,76.9 L 150.5,75.6 L 152.1,74.7 L 153.7,73.9 L 155.5,73.3 L 157.5,72.6 L 159.2,72.1 L 160.9,71.6 L 162.7,71.1 L 164.5,70.7 L 166.5,70.2 L 168.6,69.8 L 170.7,69.3 L 172.8,68.9 L 175.0,68.4 L 177.2,67.7 L 179.2,66.7 L 181.1,65.6 L 182.7,64.3 L 184.0,63.2 L 185.6,62.0 L 187.1,60.9 L 188.8,60.1 L 190.5,59.9 L 192.3,60.6 L 193.4,62.1 L 193.9,63.9 L 194.1,65.8 L 194.1,67.8 L 193.9,69.9 L 193.7,71.8 L 193.6,73.6 L 193.6,75.5 L 193.6,77.5 L 193.7,79.4 L 193.9,81.5 L 194.3,83.5 L 194.9,85.5 L 195.6,87.4 L 196.6,89.2 L 197.7,91.0 L 199.2,92.6 L 200.8,94.0 L 202.6,95.3 L 204.5,96.4 L 206.5,97.4 L 208.7,98.4 L 210.8,99.3 L 212.9,100.1 L 214.9,100.7 L 217.0,101.2 L 219.4,101.4 L 221.7,101.3 L 223.8,101.2 L 225.5,101.2 L 227.2,101.2 L 229.1,101.4 L 231.6,101.6 L 233.4,101.7 L 235.4,102.0 L 237.5,102.2 L 239.4,102.5 L 241.1,102.7 L 243.0,103.1 L 244.8,103.5 L 246.6,104.0 L 248.3,104.6 L 250.1,105.2 L 251.7,106.0 L 253.3,106.8 L 254.7,107.7 L 256.3,108.9 L 258.2,110.3 L 260.3,111.7 L 262.3,112.9 L 264.2,113.9 L 265.9,114.6 L 267.6,115.1 L 269.6,115.3 L 271.7,115.1 L 273.4,114.7 L 275.1,114.0 L 276.8,113.2 L 278.4,112.2 L 280.1,111.1 L 281.8,109.9 L 283.4,108.6 L 285.0,107.2 L 286.6,105.9 L 288.1,104.7 L 289.6,103.7 L 291.2,102.9 L 293.0,102.4 L 294.8,102.1 L 296.7,101.8 L 298.7,101.5 L 300.6,101.2 L 302.4,100.8 L 304.3,100.4 L 306.1,100.1 L 307.8,100.5 L 308.8,101.9 L 308.7,103.7 L 307.9,105.3 L 306.6,106.7 L 305.2,107.9 L 303.6,109.1 L 302.0,110.3 L 300.7,111.4 L 299.3,112.5 L 297.7,113.6 L 296.2,114.6 L 294.7,115.7 L 293.7,117.1 L 294.3,118.7 L 295.9,119.0 L 297.2,117.8 L 298.1,116.3 L 299.3,114.8 L 300.6,113.6 L 302.3,112.5 L 304.0,111.7 L 305.6,111.1 L 307.4,110.5 L 309.3,109.9 L 311.3,109.4 L 313.3,109.0 L 315.3,108.7 L 317.0,108.4 L 318.9,107.7 L 320.5,106.8 L 321.9,105.8 L 323.3,104.7 L 324.6,103.4 L 325.8,102.1 L 326.9,100.5 L 327.6,98.8 L 327.9,97.1 L 327.7,95.3 L 327.6,93.6 L 328.0,91.9 L 328.7,90.3 L 329.6,88.7 L 330.7,87.3 L 332.0,86.1 L 333.7,85.5 L 335.5,85.6 L 337.2,86.2 L 338.9,87.0 L 340.7,87.7 L 342.7,88.2 L 344.4,88.5 L 346.0,89.0 L 347.9,89.7 L 349.6,90.7 L 351.0,92.0 L 352.1,93.4 L 353.3,94.8 L 354.7,95.9 L 356.3,96.6 L 358.2,97.0 L 360.0,97.4 L 361.7,98.2 L 363.2,99.4 L 364.6,101.0 L 365.7,102.3 L 366.9,103.8 L 367.7,105.5 L 368.0,107.3 L 367.7,109.1 L 367.2,110.8 L 366.4,112.4 L 365.5,114.2 L 364.9,116.0 L 364.7,117.7 L 365.1,119.5 L 366.1,121.1 L 367.4,122.2 L 369.1,123.0 L 370.8,123.4 L 372.6,123.9 L 374.1,124.8 L 375.0,126.3 L 375.5,128.1 L 375.7,130.0 L 375.9,132.1 L 376.0,133.9 L 375.7,135.8 L 374.6,137.3 L 372.9,138.1 L 371.1,138.3 L 369.3,138.3 L 367.4,138.1 L 365.3,137.7 L 363.4,137.5 L 361.6,137.5 L 359.9,138.1 L 358.7,139.4 L 358.0,141.1 L 357.2,142.8 L 356.3,144.3 L 355.2,145.8 L 353.9,147.4 L 352.8,149.1 L 352.1,150.6 L 351.6,152.2 L 351.2,154.0 L 351.1,155.8 L 351.3,157.7 L 351.4,159.7 L 351.5,161.7 L 351.5,163.7 L 351.6,165.5 L 351.7,167.4 L 351.4,169.3 L 350.7,171.0 L 349.6,172.4 L 348.2,173.5 L 346.5,174.4 L 344.6,174.9 L 342.7,175.6 L 340.8,176.4 L 339.2,177.5 L 337.9,178.6 L 336.7,179.9 L 335.5,181.3 L 334.4,182.8 L 333.4,184.4 L 332.6,186.0 L 331.8,187.8 L 330.9,189.6 L 329.9,191.4 L 328.7,192.9 L 327.4,194.3 L 325.9,195.5 L 324.3,196.5 L 322.6,197.6 L 320.9,198.8 L 319.2,199.9 L 317.2,200.8 L 315.2,201.5 L 313.2,202.0 L 311.0,202.5 L 308.9,203.2 L 306.7,204.0 L 304.6,204.8 L 302.7,205.5 L 300.9,206.0 L 299.2,206.3 L 297.1,206.4 L 295.2,206.1 L 293.4,205.4 L 291.8,204.1 L 290.5,202.9 L 289.0,201.8 L 287.3,201.3 L 285.5,201.4 L 283.8,202.0 L 282.2,202.8 L 280.6,203.9 L 278.8,205.1 L 277.4,206.2 L 276.2,207.6 L 275.9,209.5 L 276.7,211.2 L 277.8,212.6 L 279.2,213.8 L 280.8,214.7 L 282.7,215.6 L 284.4,216.2 L 286.1,216.7 L 287.9,217.2 L 289.6,217.8 L 291.5,218.5 L 293.0,219.5 L 294.2,220.8 L 295.2,222.4 L 296.0,224.3 L 296.6,226.3 L 296.9,228.3 L 296.8,230.3 L 296.3,232.1 L 295.4,233.9 L 294.0,235.4 L 292.7,236.5 L 291.2,237.5 L 289.6,238.4 L 287.9,239.4 L 286.1,240.4 L 284.2,241.5 L 282.3,242.6 L 280.4,243.8 L 278.5,244.9 L 276.5,246.1 L 274.6,247.2 L 272.7,248.4 L 270.6,249.6 L 268.6,250.8 L 266.7,252.0 L 264.5,253.3 L 262.6,254.5 L 260.4,255.8 L 258.1,257.2 L 255.8,258.6 L 253.4,260.0 L 251.1,261.4 L 249.4,262.4 L 247.8,263.4 L 246.2,264.4 L 244.7,265.3 L 243.1,266.3 L 241.5,267.3 L 239.9,268.2 L 238.3,269.2 L 236.7,270.2 L 235.1,271.2 L 233.5,272.2 L 231.9,273.2 L 230.3,274.2 L 228.7,275.2 L 227.0,276.3 L 225.4,277.3 L 223.8,278.3 L 222.2,279.3 L 220.6,280.3 L 219.0,281.4 L 217.4,282.4 L 215.7,283.4 L 214.1,284.5 L 212.4,285.5 L 210.8,286.5 L 209.1,287.5 L 207.4,288.5 L 205.8,289.5 L 204.1,290.5 L 202.4,291.5 L 200.8,292.4 L 199.1,293.4 L 197.4,294.5 L 195.8,295.5 L 194.1,296.5 L 192.5,297.6 L 190.8,298.7 L 189.2,299.8 L 187.7,301.0 L 186.2,302.3 L 184.8,303.6 L 183.5,305.0 L 182.1,306.5 L 180.8,307.9 L 179.6,309.4 L 178.3,311.0 L 176.9,312.7 L 175.5,314.4 L 174.5,315.8 L 173.1,317.7 L 171.9,319.6 L 170.8,321.5 L 169.7,323.3 L 168.6,324.9 L 167.4,326.3 L 166.1,327.6 L 164.8,328.9 L 163.5,330.4 L 162.6,332.0 L 161.7,333.6 L 160.5,334.9 L 158.9,335.3 L 157.0,335.3 L 155.3,335.9 L 153.8,336.9 L 152.2,337.6 L 150.5,337.2 L 148.9,336.2 L 147.5,335.0 L 146.2,333.8 L 144.9,332.2 L 144.1,331.0 Z" fill="none" stroke="#4db8ff" stroke-width="2.5" stroke-linecap="round" stroke-linejoin="round"/></svg>