<svg xmlns="http://www.w3.org/2000/svg" viewBox="0 0 400 400" fill="none">
  <path d="M143.4,334.4 L142.0,332.5 L140.6,330.6 L138.7,329.9 L136.2,332.0 L134.3,335.8 L133.3,337.4 L127.8,341.7 L122.5,342.8 L118.7,341.7 L115.6,340.0 L111.8,338.5 L106.9,337.7 L103.4,337.9 L101.2,338.5 L98.6,338.5 L96.9,337.6 L94.9,334.6 L94.3,333.7 L93.5,332.6 L91.0,330.6 L89.4,328.5 L88.8,327.1 L87.9,326.0 L83.9,324.7 L81.1,324.6 L80.7,324.5 L76.9,321.9 L76.2,319.3 L76.0,318.7 L72.8,315.1 L65.0,309.8 L48.3,293.5 L48.1,293.2 L47.1,292.0 L44.3,282.3 L47.2,273.5 L48.6,267.5 L48.9,261.0 L46.4,244.9 L44.8,240.7 L41.6,233.2 L39.1,226.9 L38.4,225.2 L37.1,222.4 L35.3,219.8 L24.4,212.3 L22.4,211.3 L20.0,206.9 L25.2,202.8 L30.1,201.2 L35.4,198.3 L39.5,195.1 L43.9,191.7 L50.7,185.1 L54.8,181.4 L58.6,177.3 L60.2,174.7 L61.6,171.8 L63.3,166.5 L63.3,161.3 L63.7,159.0 L66.3,155.8 L67.5,154.9 L68.6,153.3 L68.3,151.5 L67.5,150.5 L67.1,148.2 L69.8,144.5 L77.2,138.6 L88.9,126.9 L90.4,125.2 L92.0,123.1 L94.0,118.2 L93.5,112.5 L93.2,111.1 L92.7,109.3 L90.4,106.4 L86.3,106.0 L80.7,103.3 L80.0,102.8 L79.4,102.3 L77.8,97.4 L79.9,95.6 L83.4,94.2 L86.6,92.1 L89.7,88.2 L90.6,85.1 L90.9,84.4 L92.1,81.4 L92.8,80.3 L102.8,76.7 L109.9,80.9 L111.1,81.8 L113.6,84.1 L114.9,86.5 L119.1,85.1 L119.6,84.7 L124.6,83.3 L137.2,83.6 L138.3,83.9 L141.4,84.6 L144.5,84.1 L146.3,82.2 L147.4,76.3 L147.4,75.7 L148.1,73.3 L151.8,70.7 L163.5,67.2 L175.0,64.6 L178.0,63.4 L182.5,60.1 L185.3,58.0 L186.5,57.2 L192.5,57.3 L193.8,64.3 L193.3,70.7 L193.3,75.0 L196.7,86.5 L204.8,93.6 L211.8,96.8 L216.6,98.2 L227.2,98.4 L236.1,99.1 L242.5,100.1 L247.0,101.1 L253.7,103.7 L259.4,107.7 L260.3,108.3 L264.6,110.9 L265.1,111.1 L270.8,112.8 L277.3,111.3 L288.6,103.1 L289.0,102.8 L291.9,100.8 L304.5,98.0 L306.0,97.6 L307.5,97.3 L309.7,97.4 L305.5,106.8 L299.4,111.3 L298.7,111.8 L296.6,113.3 L298.3,116.5 L302.7,111.2 L315.2,106.5 L318.6,105.9 L321.5,105.0 L326.7,101.5 L330.7,94.5 L330.5,91.3 L330.6,89.9 L331.1,88.2 L332.5,85.6 L333.3,84.5 L336.4,82.3 L341.4,83.5 L349.3,85.9 L350.3,86.2 L354.1,88.6 L354.9,89.5 L356.2,91.2 L358.1,92.8 L362.7,94.3 L363.9,94.6 L369.9,99.9 L370.1,100.2 L371.7,104.3 L370.7,108.8 L369.5,111.1 L368.8,112.8 L375.3,121.1 L375.6,121.2 L378.1,122.6 L379.0,123.9 L379.4,125.0 L380.0,130.5 L380.0,130.8 L378.2,135.4 L372.2,136.3 L368.2,135.6 L367.3,135.5 L362.9,136.7 L361.5,139.3 L357.4,145.6 L355.6,148.9 L354.6,152.5 L354.8,158.3 L355.0,163.2 L355.1,165.4 L351.5,172.3 L345.8,174.5 L344.9,174.8 L338.9,179.8 L337.8,181.3 L334.0,188.6 L333.8,189.1 L328.7,194.8 L324.9,197.3 L320.3,200.0 L315.9,201.4 L306.5,204.5 L306.0,204.7 L305.2,205.0 L296.7,205.5 L292.1,202.1 L288.9,200.7 L279.9,205.1 L279.0,205.8 L277.5,208.7 L279.2,211.9 L291.0,217.4 L291.8,217.7 L292.2,217.8 L295.0,219.4 L298.5,225.5 L298.1,232.9 L291.8,238.7 L283.6,243.4 L265.2,254.4 L263.9,255.2 L244.0,267.3 L243.5,267.6 L233.4,273.8 L223.3,280.1 L213.3,286.3 L203.1,292.5 L194.5,297.8 L185.4,304.5 L175.1,316.1 L171.7,321.0 L169.5,324.6 L167.2,328.0 L162.5,333.0 L160.7,336.2 L159.2,337.6 L155.3,338.0 L157.0,337.8 L152.4,339.7 L150.7,340.3 L148.9,339.7 L143.4,334.4 Z"
    stroke="#ffffff" stroke-width="8" stroke-linecap="round" stroke-linejoin="round"
    stroke-opacity="0.15" fill="none"/>
  <path d="M143.4,334.4 L142.0,332.5 L140.6,330.6 L138.7,329.9 L136.2,332.0 L134.3,335.8 L133.3,337.4 L127.8,341.7 L122.5,342.8 L118.7,341.7 L115.6,340.0 L111.8,338.5 L106.9,337.7 L103.4,337.9 L101.2,338.5 L98.6,338.5 L96.9,337.6 L94.9,334.6 L94.3,333.7 L93.5,332.6 L91.0,330.6 L89.4,328.5 L88.8,327.1 L87.9,326.0 L83.9,324.7 L81.1,324.6 L80.7,324.5 L76.9,321.9 L76.2,319.3 L76.0,318.7 L72.8,315.1 L65.0,309.8 L48.3,293.5 L48.1,293.2 L47.1,292.0 L44.3,282.3 L47.2,273.5 L48.6,267.5 L48.9,261.0 L46.4,244.9 L44.8,240.7 L41.6,233.2 L39.1,226.9 L38.4,225.2 L37.1,222.4 L35.3,219.8 L24.4,212.3 L22.4,211.3 L20.0,206.9 L25.2,202.8 L30.1,201.2 L35.4,198.3 L39.5,195.1 L43.9,191.7 L50.7,185.1 L54.8,181.4 L58.6,177.3 L60.2,174.7 L61.6,171.8 L63.3,166.5 L63.3,161.3 L63.7,159.0 L66.3,155.8 L67.5,154.9 L68.6,153.3 L68.3,151.5 L67.5,150.5 L67.1,148.2 L69.8,144.5 L77.2,138.6 L88.9,126.9 L90.4,125.2 L92.0,123.1 L94.0,118.2 L93.5,112.5 L93.2,111.1 L92.7,109.3 L90.4,106.4 L86.3,106.0 L80.7,103.3 L80.0,102.8 L79.4,102.3 L77.8,97.4 L79.9,95.6 L83.4,94.2 L86.6,92.1 L89.7,88.2 L90.6,85.1 L90.9,84.4 L92.1,81.4 L92.8,80.3 L102.8,76.7 L109.9,80.9 L111.1,81.8 L113.6,84.1 L114.9,86.5 L119.1,85.1 L119.6,84.7 L124.6,83.3 L137.2,83.6 L138.3,83.9 L141.4,84.6 L144.5,84.1 L146.3,82.2 L147.4,76.3 L147.4,75.7 L148.1,73.3 L151.8,70.7 L163.5,67.2 L175.0,64.6 L178.0,63.4 L182.5,60.1 L185.3,58.0 L186.5,57.2 L192.5,57.3 L193.8,64.3 L193.3,70.7 L193.3,75.0 L196.7,86.5 L204.8,93.6 L211.8,96.8 L216.6,98.2 L227.2,98.4 L236.1,99.1 L242.5,100.1 L247.0,101.1 L253.7,103.7 L259.4,107.7 L260.3,108.3 L264.6,110.9 L265.1,111.1 L270.8,112.8 L277.3,111.3 L288.6,103.1 L289.0,102.8 L291.9,100.8 L304.5,98.0 L306.0,97.6 L307.5,97.3 L309.7,97.4 L305.5,106.8 L299.4,111.3 L298.7,111.8 L296.6,113.3 L298.3,116.5 L302.7,111.2 L315.2,106.5 L318.6,105.9 L321.5,105.0 L326.7,101.5 L330.7,94.5 L330.5,91.3 L330.6,89.9 L331.1,88.2 L332.5,85.6 L333.3,84.5 L336.4,82.3 L341.4,83.5 L349.3,85.9 L350.3,86.2 L354.1,88.6 L354.9,89.5 L356.2,91.2 L358.1,92.8 L362.7,94.3 L363.9,94.6 L369.9,99.9 L370.1,100.2 L371.7,104.3 L370.7,108.8 L369.5,111.1 L368.8,112.8 L375.3,121.1 L375.6,121.2 L378.1,122.6 L379.0,123.9 L379.4,125.0 L380.0,130.5 L380.0,130.8 L378.2,135.4 L372.2,136.3 L368.2,135.6 L367.3,135.5 L362.9,136.7 L361.5,139.3 L357.4,145.6 L355.6,148.9 L354.6,152.5 L354.8,158.3 L355.0,163.2 L355.1,165.4 L351.5,172.3 L345.8,174.5 L344.9,174.8 L338.9,179.8 L337.8,181.3 L334.0,188.6 L333.8,189.1 L328.7,194.8 L324.9,197.3 L320.3,200.0 L315.9,201.4 L306.5,204.5 L306.0,204.7 L305.2,205.0 L296.7,205.5 L292.1,202.1 L288.9,200.7 L279.9,205.1 L279.0,205.8 L277.5,208.7 L279.2,211.9 L291.0,217.4 L291.8,217.7 L292.2,217.8 L295.0,219.4 L298.5,225.5 L298.1,232.9 L291.8,238.7 L283.6,243.4 L265.2,254.4 L263.9,255.2 L244.0,267.3 L243.5,267.6 L233.4,273.8 L223.3,280.1 L213.3,286.3 L203.1,292.5 L194.5,297.8 L185.4,304.5 L175.1,316.1 L171.7,321.0 L169.5,324.6 L167.2,328.0 L162.5,333.0 L160.7,336.2 L159.2,337.6 L155.3,338.0 L157.0,337.8 L152.4,339.7 L150.7,340.3 L148.9,339.7 L143.4,334.4 Z"
    stroke="#4db8ff" stroke-width="4.0" stroke-linecap="round" stroke-linejoin="round"
    fill="none" id="track-outline"/>
</svg>