<svg xmlns="http://www.w3.org/2000/svg" viewBox="0 0 400 400"><path d="M 246.6,190.0 L 245.0,191.6 L 243.5,193.2 L 242.0,194.7 L 240.4,196.3 L 238.9,197.9 L 237.3,199.5 L 235.8,201.0 L 234.2,202.6 L 232.7,204.2 L 231.1,205.8 L 229.6,207.4 L 228.0,209.0 L 226.4,210.6 L 224.9,212.2 L 223.3,213.8 L 221.7,215.4 L 220.1,217.0 L 218.5,218.6 L 216.9,220.2 L 215.3,221.8 L 213.6,223.4 L 212.0,225.0 L 210.3,226.6 L 208.7,228.1 L 207.0,229.7 L 205.3,231.2 L 203.6,232.8 L 201.9,234.3 L 200.1,235.9 L 198.4,237.4 L 196.8,238.8 L 195.1,240.3 L 193.5,241.7 L 191.9,243.0 L 190.3,244.3 L 188.8,245.6 L 187.3,246.9 L 185.9,248.1 L 184.5,249.2 L 183.1,250.4 L 181.7,251.5 L 180.4,252.6 L 179.0,253.7 L 177.4,255.0 L 175.8,256.2 L 174.2,257.4 L 172.7,258.5 L 171.2,259.6 L 169.8,260.6 L 168.3,261.6 L 166.8,262.6 L 165.2,263.7 L 163.7,264.6 L 162.1,265.5 L 160.4,266.4 L 158.8,267.1 L 157.2,267.8 L 155.4,268.3 L 153.8,268.6 L 151.9,268.8 L 150.2,268.7 L 148.5,268.4 L 146.8,267.7 L 145.4,266.7 L 144.2,265.4 L 143.2,263.9 L 142.5,262.3 L 142.0,260.6 L 141.8,258.9 L 141.8,257.1 L 142.0,255.3 L 142.3,253.6 L 142.8,251.9 L 143.4,250.2 L 144.1,248.6 L 145.1,246.9 L 146.1,245.2 L 147.3,243.7 L 148.4,242.3 L 149.6,240.9 L 150.9,239.6 L 152.1,238.1 L 153.3,236.6 L 154.5,235.1 L 155.4,233.6 L 156.4,231.9 L 157.3,230.2 L 158.1,228.5 L 158.8,226.8 L 159.4,225.0 L 159.8,223.3 L 160.2,221.5 L 160.4,219.8 L 160.5,218.1 L 160.5,216.2 L 160.3,214.4 L 160.0,212.6 L 159.6,210.7 L 158.9,209.0 L 158.2,207.2 L 157.3,205.6 L 156.2,204.0 L 155.0,202.5 L 153.8,201.2 L 152.4,199.9 L 150.9,198.7 L 149.2,197.6 L 147.5,196.6 L 145.8,195.8 L 144.2,195.1 L 142.5,194.5 L 140.8,193.9 L 139.0,193.5 L 137.1,193.1 L 135.2,192.8 L 133.4,192.6 L 131.5,192.5 L 129.7,192.4 L 127.9,192.4 L 126.2,192.4 L 124.5,192.5 L 122.7,192.7 L 120.9,192.8 L 119.1,193.1 L 117.3,193.4 L 115.4,193.7 L 113.6,194.1 L 111.7,194.5 L 109.9,195.0 L 108.0,195.6 L 106.1,196.3 L 104.3,197.0 L 102.5,197.7 L 100.9,198.4 L 99.2,199.1 L 97.7,199.9 L 96.0,200.8 L 94.5,201.8 L 92.9,202.9 L 91.4,203.9 L 90.0,205.1 L 88.6,206.5 L 87.3,207.8 L 86.3,209.2 L 85.3,210.6 L 84.5,212.3 L 83.9,214.0 L 83.5,215.6 L 83.4,217.4 L 83.5,219.2 L 83.9,220.9 L 84.7,222.5 L 85.7,224.0 L 87.0,225.3 L 88.5,226.3 L 90.1,227.1 L 91.6,227.8 L 93.3,228.3 L 95.2,228.6 L 96.8,228.8 L 98.6,228.9 L 100.4,229.2 L 102.2,229.5 L 104.0,230.1 L 105.7,230.7 L 107.3,231.5 L 108.9,232.3 L 110.3,233.3 L 111.6,234.5 L 112.8,235.8 L 113.9,237.2 L 114.9,238.7 L 115.7,240.3 L 116.5,242.0 L 117.1,243.8 L 117.7,245.7 L 118.1,247.6 L 118.4,249.3 L 118.7,251.0 L 118.9,252.8 L 119.0,254.7 L 119.1,256.6 L 119.0,258.6 L 119.0,260.4 L 118.8,262.2 L 118.6,264.1 L 118.4,265.8 L 118.2,267.5 L 117.9,269.2 L 117.6,271.0 L 117.3,272.7 L 117.0,274.5 L 116.6,276.4 L 116.2,278.2 L 115.8,280.1 L 115.4,282.0 L 115.0,283.9 L 114.7,285.7 L 114.3,287.7 L 113.8,289.7 L 113.4,291.6 L 113.0,293.6 L 112.6,295.6 L 112.2,297.6 L 111.7,299.7 L 111.3,301.8 L 110.9,303.9 L 110.5,305.5 L 110.2,307.2 L 109.8,308.8 L 109.5,310.5 L 109.1,312.1 L 108.8,313.8 L 108.4,315.5 L 108.0,317.1 L 107.6,318.8 L 107.2,320.5 L 106.8,322.2 L 106.4,323.9 L 105.9,325.7 L 105.4,327.4 L 105.0,329.1 L 104.5,330.9 L 104.0,332.6 L 103.5,334.4 L 102.9,336.1 L 102.4,337.9 L 101.9,339.6 L 101.4,341.2 L 100.9,342.8 L 100.3,344.8 L 99.7,346.7 L 99.1,348.6 L 98.4,350.4 L 97.8,352.2 L 97.2,353.9 L 96.5,355.5 L 95.8,357.2 L 95.0,358.8 L 94.1,360.5 L 93.2,362.1 L 92.3,363.5 L 91.2,365.2 L 90.0,366.6 L 88.9,368.0 L 87.6,369.2 L 86.2,370.3 L 84.7,371.3 L 83.1,372.1 L 81.4,372.7 L 79.7,372.9 L 77.9,372.9 L 76.1,372.6 L 74.4,372.0 L 72.9,371.0 L 71.6,370.0 L 70.4,368.7 L 69.4,367.2 L 68.5,365.6 L 67.8,364.0 L 67.3,362.4 L 66.9,360.6 L 66.6,358.8 L 66.4,356.9 L 66.3,354.9 L 66.3,353.0 L 66.4,351.3 L 66.5,349.5 L 66.8,347.7 L 67.0,345.8 L 67.4,343.9 L 67.9,342.1 L 68.4,340.2 L 69.0,338.5 L 69.6,336.8 L 70.3,335.1 L 71.1,333.3 L 71.8,331.8 L 72.6,330.3 L 73.4,328.7 L 74.3,327.1 L 75.1,325.5 L 75.9,323.9 L 76.7,322.2 L 77.5,320.5 L 78.3,318.7 L 79.0,316.9 L 79.7,315.1 L 80.3,313.2 L 81.0,311.3 L 81.6,309.4 L 82.2,307.6 L 82.7,305.8 L 83.2,304.0 L 83.7,302.3 L 84.1,300.7 L 84.5,298.9 L 84.9,297.1 L 85.2,295.2 L 85.4,293.3 L 85.5,291.4 L 85.5,289.6 L 85.4,287.8 L 85.1,286.0 L 84.7,284.3 L 84.1,282.7 L 83.5,281.1 L 82.7,279.5 L 81.8,278.0 L 80.8,276.6 L 79.6,275.2 L 78.5,274.0 L 77.1,272.7 L 75.7,271.6 L 74.2,270.4 L 72.7,269.3 L 71.1,268.3 L 69.5,267.4 L 67.9,266.5 L 66.2,265.7 L 64.6,264.9 L 63.0,264.3 L 61.4,263.7 L 59.7,263.1 L 58.0,262.7 L 56.3,262.2 L 54.5,261.9 L 52.8,261.5 L 51.0,261.0 L 49.2,260.5 L 47.5,260.0 L 45.8,259.5 L 44.2,258.9 L 42.5,258.1 L 40.8,257.4 L 39.2,256.5 L 37.7,255.6 L 36.1,254.5 L 34.7,253.5 L 33.3,252.3 L 32.0,251.0 L 30.8,249.7 L 29.7,248.4 L 28.6,246.9 L 27.5,245.3 L 26.6,243.6 L 25.8,241.9 L 25.2,240.2 L 24.7,238.4 L 24.3,236.6 L 24.1,234.8 L 24.0,233.0 L 24.0,231.0 L 24.2,229.0 L 24.5,227.0 L 24.8,225.2 L 25.3,223.6 L 25.8,221.9 L 26.5,220.2 L 27.2,218.6 L 28.0,216.8 L 28.9,215.1 L 29.9,213.5 L 31.0,211.7 L 32.1,210.1 L 33.3,208.4 L 34.4,206.8 L 35.7,205.2 L 36.8,203.7 L 38.1,202.1 L 39.3,200.8 L 40.4,199.4 L 41.6,198.1 L 42.8,196.8 L 44.0,195.5 L 45.2,194.1 L 46.4,192.8 L 47.7,191.4 L 48.9,190.0 L 50.1,188.6 L 51.4,187.2 L 52.6,185.8 L 53.8,184.4 L 55.0,182.9 L 56.2,181.4 L 57.4,180.0 L 58.6,178.5 L 59.8,177.0 L 61.0,175.5 L 62.2,174.0 L 63.5,172.5 L 64.7,171.0 L 65.9,169.5 L 67.1,168.0 L 68.3,166.5 L 69.5,165.0 L 70.8,163.5 L 72.0,161.9 L 73.2,160.4 L 74.5,158.9 L 75.8,157.3 L 77.1,155.7 L 78.3,154.2 L 79.6,152.6 L 80.9,151.0 L 82.3,149.4 L 83.6,147.8 L 84.9,146.2 L 86.3,144.5 L 87.7,142.9 L 89.1,141.2 L 90.4,139.6 L 91.8,138.0 L 93.2,136.4 L 94.7,134.8 L 96.2,133.2 L 97.7,131.6 L 99.2,130.0 L 100.8,128.5 L 102.4,126.9 L 104.0,125.4 L 105.8,124.0 L 107.5,122.5 L 109.1,121.3 L 110.8,119.9 L 112.5,118.7 L 114.3,117.4 L 115.8,116.4 L 117.7,115.3 L 119.4,114.2 L 121.2,113.2 L 123.0,112.3 L 125.0,111.3 L 126.7,110.4 L 128.8,109.5 L 130.9,108.6 L 132.7,107.8 L 134.8,107.0 L 136.8,106.3 L 138.9,105.6 L 141.1,104.8 L 143.2,104.2 L 145.4,103.5 L 147.6,102.9 L 149.7,102.3 L 151.9,101.7 L 154.2,101.1 L 156.3,100.6 L 158.5,100.1 L 160.7,99.5 L 162.9,99.0 L 165.1,98.4 L 167.2,97.9 L 169.4,97.4 L 171.7,96.9 L 173.9,96.3 L 176.1,95.8 L 178.3,95.3 L 180.6,94.7 L 182.8,94.2 L 185.1,93.6 L 187.4,93.1 L 189.6,92.6 L 191.7,92.1 L 193.9,91.5 L 196.0,91.0 L 198.3,90.5 L 200.6,89.9 L 202.9,89.4 L 205.2,88.8 L 207.6,88.3 L 209.9,87.7 L 212.2,87.1 L 214.5,86.6 L 216.8,86.0 L 219.1,85.4 L 221.4,84.9 L 223.6,84.3 L 225.9,83.7 L 228.2,83.1 L 230.4,82.6 L 232.5,82.1 L 234.5,81.5 L 236.5,81.0 L 238.4,80.5 L 240.3,80.0 L 242.0,79.6 L 243.8,79.1 L 245.5,78.6 L 247.1,78.2 L 248.9,77.7 L 250.9,77.1 L 252.8,76.6 L 254.7,76.0 L 256.4,75.5 L 258.0,75.0 L 259.8,74.5 L 261.5,73.9 L 263.2,73.3 L 265.0,72.6 L 266.6,71.9 L 268.2,71.1 L 269.7,70.2 L 271.0,69.1 L 272.3,67.9 L 273.3,66.5 L 274.1,64.9 L 274.8,63.2 L 275.2,61.5 L 275.6,59.8 L 276.2,58.0 L 276.8,56.4 L 277.7,54.8 L 278.6,53.3 L 279.7,51.9 L 280.9,50.5 L 282.3,49.2 L 283.6,48.0 L 285.1,46.9 L 286.5,45.9 L 288.0,44.9 L 289.6,44.0 L 291.3,43.1 L 293.1,42.3 L 294.9,41.5 L 296.6,40.9 L 298.3,40.3 L 300.1,39.7 L 301.9,39.1 L 303.6,38.5 L 305.2,38.0 L 306.9,37.5 L 308.6,36.9 L 310.3,36.4 L 312.0,35.9 L 313.8,35.4 L 315.6,34.9 L 317.4,34.4 L 319.2,33.9 L 321.1,33.4 L 323.0,32.9 L 324.9,32.4 L 326.8,31.9 L 328.8,31.4 L 330.7,30.9 L 332.7,30.4 L 334.7,29.9 L 336.8,29.4 L 338.6,29.0 L 340.6,28.6 L 342.4,28.3 L 344.2,27.9 L 346.0,27.7 L 347.8,27.4 L 349.5,27.3 L 351.3,27.2 L 353.1,27.1 L 355.0,27.1 L 356.9,27.1 L 358.7,27.3 L 360.4,27.5 L 362.2,27.9 L 364.1,28.5 L 365.8,29.2 L 367.5,30.0 L 369.1,31.0 L 370.5,32.1 L 371.8,33.3 L 372.9,34.7 L 373.9,36.1 L 374.7,37.7 L 375.3,39.5 L 375.8,41.3 L 376.0,43.1 L 376.0,44.8 L 375.9,46.6 L 375.6,48.4 L 375.3,50.2 L 374.8,52.0 L 374.3,53.7 L 373.7,55.4 L 373.0,57.1 L 372.2,58.8 L 371.3,60.4 L 370.4,62.0 L 369.4,63.6 L 368.4,65.1 L 367.3,66.6 L 366.2,68.1 L 365.1,69.4 L 364.0,70.7 L 362.8,72.1 L 361.6,73.4 L 360.3,74.7 L 359.0,76.0 L 357.6,77.3 L 356.3,78.6 L 354.8,79.9 L 353.4,81.2 L 352.0,82.5 L 350.5,83.9 L 349.1,85.3 L 347.7,86.7 L 346.3,88.1 L 344.9,89.5 L 343.5,90.9 L 342.0,92.4 L 340.6,93.8 L 339.1,95.4 L 337.6,96.9 L 336.3,98.2 L 335.2,99.4 L 334.0,100.6 L 332.8,101.8 L 331.6,103.0 L 330.5,104.2 L 329.3,105.5 L 328.1,106.7 L 326.8,108.0 L 325.6,109.2 L 324.4,110.5 L 323.2,111.7 L 321.9,113.0 L 320.7,114.3 L 319.4,115.6 L 318.1,116.9 L 316.9,118.2 L 315.6,119.5 L 314.3,120.8 L 313.0,122.1 L 311.7,123.4 L 310.4,124.7 L 309.1,126.1 L 307.8,127.4 L 306.5,128.7 L 305.1,130.1 L 303.8,131.4 L 302.5,132.8 L 301.1,134.2 L 299.8,135.5 L 298.4,136.9 L 297.1,138.3 L 295.7,139.7 L 294.3,141.1 L 293.0,142.5 L 291.6,143.9 L 290.2,145.3 L 288.8,146.7 L 287.4,148.2 L 286.0,149.6 L 284.6,151.0 L 283.2,152.5 L 281.8,153.9 L 280.4,155.4 L 278.9,156.8 L 277.5,158.3 L 276.1,159.8 L 274.6,161.2 L 273.2,162.7 L 271.8,164.2 L 270.3,165.7 L 268.9,167.2 L 267.4,168.7 L 266.0,170.2 L 264.5,171.7 L 263.0,173.3 L 261.6,174.8 L 260.1,176.3 L 258.6,177.8 L 257.1,179.4 L 255.6,180.9 L 254.1,182.4 L 252.6,184.0 L 251.1,185.5 L 249.6,187.1 L 248.0,188.6 L 246.6,190.0 Z" fill="none" stroke="rgba(255,255,255,0.15)" stroke-width="5" stroke-linecap="round" stroke-linejoin="round"/><path d="M 246.6,190.0 L 245.0,191.6 L 243.5,193.2 L 242.0,194.7 L 240.4,196.3 L 238.9,197.9 L 237.3,199.5 L 235.8,201.0 L 234.2,202.6 L 232.7,204.2 L 231.1,205.8 L 229.6,207.4 L 228.0,209.0 L 226.4,210.6 L 224.9,212.2 L 223.3,213.8 L 221.7,215.4 L 220.1,217.0 L 218.5,218.6 L 216.9,220.2 L 215.3,221.8 L 213.6,223.4 L 212.0,225.0 L 210.3,226.6 L 208.7,228.1 L 207.0,229.7 L 205.3,231.2 L 203.6,232.8 L 201.9,234.3 L 200.1,235.9 L 198.4,237.4 L 196.8,238.8 L 195.1,240.3 L 193.5,241.7 L 191.9,243.0 L 190.3,244.3 L 188.8,245.6 L 187.3,246.9 L 185.9,248.1 L 184.5,249.2 L 183.1,250.4 L 181.7,251.5 L 180.4,252.6 L 179.0,253.7 L 177.4,255.0 L 175.8,256.2 L 174.2,257.4 L 172.7,258.5 L 171.2,259.6 L 169.8,260.6 L 168.3,261.6 L 166.8,262.6 L 165.2,263.7 L 163.7,264.6 L 162.1,265.5 L 160.4,266.4 L 158.8,267.1 L 157.2,267.8 L 155.4,268.3 L 153.8,268.6 L 151.9,268.8 L 150.2,268.7 L 148.5,268.4 L 146.8,267.7 L 145.4,266.7 L 144.2,265.4 L 143.2,263.9 L 142.5,262.3 L 142.0,260.6 L 141.8,258.9 L 141.8,257.1 L 142.0,255.3 L 142.3,253.6 L 142.8,251.9 L 143.4,250.2 L 144.1,248.6 L 145.1,246.9 L 146.1,245.2 L 147.3,243.7 L 148.4,242.3 L 149.6,240.9 L 150.9,239.6 L 152.1,238.1 L 153.3,236.6 L 154.5,235.1 L 155.4,233.6 L 156.4,231.9 L 157.3,230.2 L 158.1,228.5 L 158.8,226.8 L 159.4,225.0 L 159.8,223.3 L 160.2,221.5 L 160.4,219.8 L 160.5,218.1 L 160.5,216.2 L 160.3,214.4 L 160.0,212.6 L 159.6,210.7 L 158.9,209.0 L 158.2,207.2 L 157.3,205.6 L 156.2,204.0 L 155.0,202.5 L 153.8,201.2 L 152.4,199.9 L 150.9,198.7 L 149.2,197.6 L 147.5,196.6 L 145.8,195.8 L 144.2,195.1 L 142.5,194.5 L 140.8,193.9 L 139.0,193.5 L 137.1,193.1 L 135.2,192.8 L 133.4,192.6 L 131.5,192.5 L 129.7,192.4 L 127.9,192.4 L 126.2,192.4 L 124.5,192.5 L 122.7,192.7 L 120.9,192.8 L 119.1,193.1 L 117.3,193.4 L 115.4,193.7 L 113.6,194.1 L 111.7,194.5 L 109.9,195.0 L 108.0,195.6 L 106.1,196.3 L 104.3,197.0 L 102.5,197.7 L 100.9,198.4 L 99.2,199.1 L 97.7,199.9 L 96.0,200.8 L 94.5,201.8 L 92.9,202.9 L 91.4,203.9 L 90.0,205.1 L 88.6,206.5 L 87.3,207.8 L 86.3,209.2 L 85.3,210.6 L 84.5,212.3 L 83.9,214.0 L 83.5,215.6 L 83.4,217.4 L 83.5,219.2 L 83.9,220.9 L 84.7,222.5 L 85.7,224.0 L 87.0,225.3 L 88.5,226.3 L 90.1,227.1 L 91.6,227.8 L 93.3,228.3 L 95.2,228.6 L 96.8,228.8 L 98.6,228.9 L 100.4,229.2 L 102.2,229.5 L 104.0,230.1 L 105.7,230.7 L 107.3,231.5 L 108.9,232.3 L 110.3,233.3 L 111.6,234.5 L 112.8,235.8 L 113.9,237.2 L 114.9,238.7 L 115.7,240.3 L 116.5,242.0 L 117.1,243.8 L 117.7,245.7 L 118.1,247.6 L 118.4,249.3 L 118.7,251.0 L 118.9,252.8 L 119.0,254.7 L 119.1,256.6 L 119.0,258.6 L 119.0,260.4 L 118.8,262.2 L 118.6,264.1 L 118.4,265.8 L 118.2,267.5 L 117.9,269.2 L 117.6,271.0 L 117.3,272.7 L 117.0,274.5 L 116.6,276.4 L 116.2,278.2 L 115.8,280.1 L 115.4,282.0 L 115.0,283.9 L 114.7,285.7 L 114.3,287.7 L 113.8,289.7 L 113.4,291.6 L 113.0,293.6 L 112.6,295.6 L 112.2,297.6 L 111.7,299.7 L 111.3,301.8 L 110.9,303.9 L 110.5,305.5 L 110.2,307.2 L 109.8,308.8 L 109.5,310.5 L 109.1,312.1 L 108.8,313.8 L 108.4,315.5 L 108.0,317.1 L 107.6,318.8 L 107.2,320.5 L 106.8,322.2 L 106.4,323.9 L 105.9,325.7 L 105.4,327.4 L 105.0,329.1 L 104.5,330.9 L 104.0,332.6 L 103.5,334.4 L 102.9,336.1 L 102.4,337.9 L 101.9,339.6 L 101.4,341.2 L 100.9,342.8 L 100.3,344.8 L 99.7,346.7 L 99.1,348.6 L 98.4,350.4 L 97.8,352.2 L 97.2,353.9 L 96.5,355.5 L 95.8,357.2 L 95.0,358.8 L 94.1,360.5 L 93.2,362.1 L 92.3,363.5 L 91.2,365.2 L 90.0,366.6 L 88.9,368.0 L 87.6,369.2 L 86.2,370.3 L 84.7,371.3 L 83.1,372.1 L 81.4,372.7 L 79.7,372.9 L 77.9,372.9 L 76.1,372.6 L 74.4,372.0 L 72.9,371.0 L 71.6,370.0 L 70.4,368.7 L 69.4,367.2 L 68.5,365.6 L 67.8,364.0 L 67.3,362.4 L 66.9,360.6 L 66.6,358.8 L 66.4,356.9 L 66.3,354.9 L 66.3,353.0 L 66.4,351.3 L 66.5,349.5 L 66.8,347.7 L 67.0,345.8 L 67.4,343.9 L 67.9,342.1 L 68.4,340.2 L 69.0,338.5 L 69.6,336.8 L 70.3,335.1 L 71.1,333.3 L 71.8,331.8 L 72.6,330.3 L 73.4,328.7 L 74.3,327.1 L 75.1,325.5 L 75.9,323.9 L 76.7,322.2 L 77.5,320.5 L 78.3,318.7 L 79.0,316.9 L 79.7,315.1 L 80.3,313.2 L 81.0,311.3 L 81.6,309.4 L 82.2,307.6 L 82.7,305.8 L 83.2,304.0 L 83.7,302.3 L 84.1,300.7 L 84.5,298.9 L 84.9,297.1 L 85.2,295.2 L 85.4,293.3 L 85.5,291.4 L 85.5,289.6 L 85.4,287.8 L 85.1,286.0 L 84.7,284.3 L 84.1,282.7 L 83.5,281.1 L 82.7,279.5 L 81.8,278.0 L 80.8,276.6 L 79.6,275.2 L 78.5,274.0 L 77.1,272.7 L 75.7,271.6 L 74.2,270.4 L 72.7,269.3 L 71.1,268.3 L 69.5,267.4 L 67.9,266.5 L 66.2,265.7 L 64.6,264.9 L 63.0,264.3 L 61.4,263.7 L 59.7,263.1 L 58.0,262.7 L 56.3,262.2 L 54.5,261.9 L 52.8,261.5 L 51.0,261.0 L 49.2,260.5 L 47.5,260.0 L 45.8,259.5 L 44.2,258.9 L 42.5,258.1 L 40.8,257.4 L 39.2,256.5 L 37.7,255.6 L 36.1,254.5 L 34.7,253.5 L 33.3,252.3 L 32.0,251.0 L 30.8,249.7 L 29.7,248.4 L 28.6,246.9 L 27.5,245.3 L 26.6,243.6 L 25.8,241.9 L 25.2,240.2 L 24.7,238.4 L 24.3,236.6 L 24.1,234.8 L 24.0,233.0 L 24.0,231.0 L 24.2,229.0 L 24.5,227.0 L 24.8,225.2 L 25.3,223.6 L 25.8,221.9 L 26.5,220.2 L 27.2,218.6 L 28.0,216.8 L 28.9,215.1 L 29.9,213.5 L 31.0,211.7 L 32.1,210.1 L 33.3,208.4 L 34.4,206.8 L 35.7,205.2 L 36.8,203.7 L 38.1,202.1 L 39.3,200.8 L 40.4,199.4 L 41.6,198.1 L 42.8,196.8 L 44.0,195.5 L 45.2,194.1 L 46.4,192.8 L 47.7,191.4 L 48.9,190.0 L 50.1,188.6 L 51.4,187.2 L 52.6,185.8 L 53.8,184.4 L 55.0,182.9 L 56.2,181.4 L 57.4,180.0 L 58.6,178.5 L 59.8,177.0 L 61.0,175.5 L 62.2,174.0 L 63.5,172.5 L 64.7,171.0 L 65.9,169.5 L 67.1,168.0 L 68.3,166.5 L 69.5,165.0 L 70.8,163.5 L 72.0,161.9 L 73.2,160.4 L 74.5,158.9 L 75.8,157.3 L 77.1,155.7 L 78.3,154.2 L 79.6,152.6 L 80.9,151.0 L 82.3,149.4 L 83.6,147.8 L 84.9,146.2 L 86.3,144.5 L 87.7,142.9 L 89.1,141.2 L 90.4,139.6 L 91.8,138.0 L 93.2,136.4 L 94.7,134.8 L 96.2,133.2 L 97.7,131.6 L 99.2,130.0 L 100.8,128.5 L 102.4,126.9 L 104.0,125.4 L 105.8,124.0 L 107.5,122.5 L 109.1,121.3 L 110.8,119.9 L 112.5,118.7 L 114.3,117.4 L 115.8,116.4 L 117.7,115.3 L 119.4,114.2 L 121.2,113.2 L 123.0,112.3 L 125.0,111.3 L 126.7,110.4 L 128.8,109.5 L 130.9,108.6 L 132.7,107.8 L 134.8,107.0 L 136.8,106.3 L 138.9,105.6 L 141.1,104.8 L 143.2,104.2 L 145.4,103.5 L 147.6,102.9 L 149.7,102.3 L 151.9,101.7 L 154.2,101.1 L 156.3,100.6 L 158.5,100.1 L 160.7,99.5 L 162.9,99.0 L 165.1,98.4 L 167.2,97.9 L 169.4,97.4 L 171.7,96.9 L 173.9,96.3 L 176.1,95.8 L 178.3,95.3 L 180.6,94.7 L 182.8,94.2 L 185.1,93.6 L 187.4,93.1 L 189.6,92.6 L 191.7,92.1 L 193.9,91.5 L 196.0,91.0 L 198.3,90.5 L 200.6,89.9 L 202.9,89.4 L 205.2,88.8 L 207.6,88.3 L 209.9,87.7 L 212.2,87.1 L 214.5,86.6 L 216.8,86.0 L 219.1,85.4 L 221.4,84.9 L 223.6,84.3 L 225.9,83.7 L 228.2,83.1 L 230.4,82.6 L 232.5,82.1 L 234.5,81.5 L 236.5,81.0 L 238.4,80.5 L 240.3,80.0 L 242.0,79.6 L 243.8,79.1 L 245.5,78.6 L 247.1,78.2 L 248.9,77.7 L 250.9,77.1 L 252.8,76.6 L 254.7,76.0 L 256.4,75.5 L 258.0,75.0 L 259.8,74.5 L 261.5,73.9 L 263.2,73.3 L 265.0,72.6 L 266.6,71.9 L 268.2,71.1 L 269.7,70.2 L 271.0,69.1 L 272.3,67.9 L 273.3,66.5 L 274.1,64.9 L 274.8,63.2 L 275.2,61.5 L 275.6,59.8 L 276.2,58.0 L 276.8,56.4 L 277.7,54.8 L 278.6,53.3 L 279.7,51.9 L 280.9,50.5 L 282.3,49.2 L 283.6,48.0 L 285.1,46.9 L 286.5,45.9 L 288.0,44.9 L 289.6,44.0 L 291.3,43.1 L 293.1,42.3 L 294.9,41.5 L 296.6,40.9 L 298.3,40.3 L 300.1,39.7 L 301.9,39.1 L 303.6,38.5 L 305.2,38.0 L 306.9,37.5 L 308.6,36.9 L 310.3,36.4 L 312.0,35.9 L 313.8,35.4 L 315.6,34.9 L 317.4,34.4 L 319.2,33.9 L 321.1,33.4 L 323.0,32.9 L 324.9,32.4 L 326.8,31.9 L 328.8,31.4 L 330.7,30.9 L 332.7,30.4 L 334.7,29.9 L 336.8,29.4 L 338.6,29.0 L 340.6,28.6 L 342.4,28.3 L 344.2,27.9 L 346.0,27.7 L 347.8,27.4 L 349.5,27.3 L 351.3,27.2 L 353.1,27.1 L 355.0,27.1 L 356.9,27.1 L 358.7,27.3 L 360.4,27.5 L 362.2,27.9 L 364.1,28.5 L 365.8,29.2 L 367.5,30.0 L 369.1,31.0 L 370.5,32.1 L 371.8,33.3 L 372.9,34.7 L 373.9,36.1 L 374.7,37.7 L 375.3,39.5 L 375.8,41.3 L 376.0,43.1 L 376.0,44.8 L 375.9,46.6 L 375.6,48.4 L 375.3,50.2 L 374.8,52.0 L 374.3,53.7 L 373.7,55.4 L 373.0,57.1 L 372.2,58.8 L 371.3,60.4 L 370.4,62.0 L 369.4,63.6 L 368.4,65.1 L 367.3,66.6 L 366.2,68.1 L 365.1,69.4 L 364.0,70.7 L 362.8,72.1 L 361.6,73.4 L 360.3,74.7 L 359.0,76.0 L 357.6,77.3 L 356.3,78.6 L 354.8,79.9 L 353.4,81.2 L 352.0,82.5 L 350.5,83.9 L 349.1,85.3 L 347.7,86.7 L 346.3,88.1 L 344.9,89.5 L 343.5,90.9 L 342.0,92.4 L 340.6,93.8 L 339.1,95.4 L 337.6,96.9 L 336.3,98.2 L 335.2,99.4 L 334.0,100.6 L 332.8,101.8 L 331.6,103.0 L 330.5,104.2 L 329.3,105.5 L 328.1,106.7 L 326.8,108.0 L 325.6,109.2 L 324.4,110.5 L 323.2,111.7 L 321.9,113.0 L 320.7,114.3 L 319.4,115.6 L 318.1,116.9 L 316.9,118.2 L 315.6,119.5 L 314.3,120.8 L 313.0,122.1 L 311.7,123.4 L 310.4,124.7 L 309.1,126.1 L 307.8,127.4 L 306.5,128.7 L 305.1,130.1 L 303.8,131.4 L 302.5,132.8 L 301.1,134.2 L 299.8,135.5 L 298.4,136.9 L 297.1,138.3 L 295.7,139.7 L 294.3,141.1 L 293.0,142.5 L 291.6,143.9 L 290.2,145.3 L 288.8,146.7 L 287.4,148.2 L 286.0,149.6 L 284.6,151.0 L 283.2,152.5 L 281.8,153.9 L 280.4,155.4 L 278.9,156.8 L 277.5,158.3 L 276.1,159.8 L 274.6,161.2 L 273.2,162.7 L 271.8,164.2 L 270.3,165.7 L 268.9,167.2 L 267.4,168.7 L 266.0,170.2 L 264.5,171.7 L 263.0,173.3 L 261.6,174.8 L 260.1,176.3 L 258.6,177.8 L 257.1,179.4 L 255.6,180.9 L 254.1,182.4 L 252.6,184.0 L 251.1,185.5 L 249.6,187.1 L 248.0,188.6 L 246.6,190.0 Z" fill="none" stroke="#4db8ff" stroke-width="2.5" stroke-linecap="round" stroke-linejoin="round"/></svg>