<svg xmlns="http://www.w3.org/2000/svg" viewBox="0 0 400 400"><path d="M 292.9,80.1 L 291.9,81.2 L 290.8,82.3 L 289.7,83.4 L 288.6,84.5 L 287.6,85.6 L 286.5,86.8 L 285.3,87.9 L 284.2,89.0 L 283.1,90.2 L 282.0,91.3 L 280.9,92.5 L 279.7,93.6 L 278.6,94.8 L 277.4,96.0 L 276.3,97.2 L 275.1,98.4 L 273.9,99.5 L 272.8,100.7 L 271.6,102.0 L 270.4,103.2 L 269.2,104.4 L 268.0,105.6 L 266.8,106.9 L 265.6,108.1 L 264.4,109.3 L 263.2,110.6 L 262.0,111.8 L 260.8,113.1 L 259.5,114.4 L 258.3,115.6 L 257.0,116.9 L 255.8,118.2 L 254.5,119.5 L 253.3,120.8 L 252.0,122.1 L 250.8,123.4 L 249.5,124.7 L 248.2,126.0 L 246.9,127.3 L 245.6,128.6 L 244.3,129.9 L 243.0,131.2 L 241.7,132.6 L 240.4,133.9 L 239.1,135.2 L 237.8,136.6 L 236.5,137.9 L 235.2,139.3 L 233.9,140.6 L 232.5,142.0 L 231.2,143.3 L 229.9,144.7 L 228.5,146.1 L 227.2,147.4 L 225.8,148.8 L 224.4,150.1 L 223.0,151.5 L 221.6,152.8 L 220.2,154.1 L 218.7,155.4 L 217.3,156.7 L 215.8,157.9 L 214.4,159.1 L 213.0,160.2 L 211.7,161.3 L 210.3,162.4 L 209.1,163.4 L 207.8,164.4 L 206.7,165.4 L 205.5,166.3 L 204.4,167.2 L 203.0,168.3 L 201.6,169.3 L 200.3,170.2 L 199.1,171.1 L 197.8,172.0 L 196.5,172.9 L 195.2,173.6 L 193.8,174.4 L 192.5,175.1 L 191.1,175.6 L 189.7,176.0 L 188.2,176.2 L 186.8,176.2 L 185.3,175.7 L 184.1,175.0 L 183.2,174.0 L 182.5,172.6 L 182.1,171.1 L 182.0,169.7 L 182.0,168.1 L 182.2,166.7 L 182.6,165.2 L 183.1,163.8 L 183.8,162.3 L 184.6,161.0 L 185.4,159.7 L 186.4,158.5 L 187.4,157.3 L 188.4,156.1 L 189.2,154.9 L 190.1,153.6 L 190.8,152.2 L 191.5,150.8 L 192.1,149.3 L 192.5,147.8 L 192.8,146.3 L 193.0,144.8 L 193.0,143.4 L 192.9,141.9 L 192.6,140.2 L 192.2,138.7 L 191.6,137.2 L 190.8,135.9 L 189.9,134.7 L 188.8,133.5 L 187.6,132.4 L 186.3,131.5 L 184.9,130.6 L 183.4,130.0 L 182.0,129.5 L 180.6,129.1 L 179.1,128.8 L 177.5,128.6 L 175.9,128.5 L 174.4,128.4 L 172.8,128.4 L 171.3,128.5 L 169.8,128.6 L 168.4,128.7 L 166.9,128.9 L 165.3,129.1 L 163.8,129.4 L 162.2,129.7 L 160.6,130.1 L 159.0,130.6 L 157.5,131.1 L 156.1,131.7 L 154.8,132.3 L 153.4,132.9 L 152.1,133.7 L 150.8,134.5 L 149.6,135.4 L 148.4,136.5 L 147.3,137.6 L 146.4,138.8 L 145.6,140.0 L 145.0,141.4 L 144.6,142.9 L 144.5,144.3 L 144.7,145.8 L 145.2,147.2 L 146.0,148.4 L 147.0,149.4 L 148.2,150.3 L 149.6,150.8 L 151.0,151.2 L 152.5,151.5 L 153.9,151.6 L 155.5,151.9 L 157.0,152.3 L 158.5,152.8 L 159.9,153.5 L 161.2,154.4 L 162.4,155.3 L 163.4,156.4 L 164.3,157.7 L 165.1,159.0 L 165.8,160.4 L 166.3,162.0 L 166.8,163.6 L 167.0,165.1 L 167.2,166.6 L 167.2,168.1 L 167.2,169.7 L 167.1,171.4 L 166.9,172.8 L 166.7,174.4 L 166.5,176.0 L 166.2,177.4 L 165.9,178.8 L 165.6,180.3 L 165.3,181.8 L 165.0,183.3 L 164.6,184.9 L 164.2,186.5 L 163.9,188.1 L 163.5,189.7 L 163.1,191.4 L 162.7,193.1 L 162.2,194.8 L 161.8,196.5 L 161.3,198.2 L 160.9,200.0 L 160.5,201.4 L 160.1,202.7 L 159.8,204.1 L 159.4,205.4 L 159.0,206.8 L 158.6,208.2 L 158.2,209.6 L 157.7,211.0 L 157.3,212.5 L 156.9,213.9 L 156.4,215.3 L 156.0,216.8 L 155.5,218.2 L 155.0,219.7 L 154.6,221.2 L 154.1,222.7 L 153.6,224.2 L 153.1,225.7 L 152.6,227.2 L 152.1,228.7 L 151.5,230.2 L 151.0,231.7 L 150.5,233.3 L 150.0,234.8 L 149.5,236.4 L 148.9,237.9 L 148.5,239.4 L 148.0,240.8 L 147.6,242.2 L 147.2,243.6 L 146.6,245.3 L 146.2,246.9 L 145.8,248.6 L 145.5,250.1 L 145.2,251.6 L 145.0,253.1 L 145.0,254.6 L 145.0,256.1 L 145.1,257.5 L 145.3,258.9 L 145.6,260.4 L 146.1,261.9 L 146.6,263.4 L 147.3,264.7 L 148.1,266.1 L 149.0,267.4 L 149.9,268.5 L 150.9,269.6 L 152.0,270.6 L 153.1,271.5 L 154.3,272.4 L 155.6,273.2 L 156.9,274.0 L 158.3,274.8 L 159.7,275.5 L 161.1,276.1 L 162.5,276.7 L 163.9,277.3 L 165.2,277.8 L 166.7,278.5 L 168.0,279.2 L 169.4,280.0 L 170.7,280.9 L 171.7,282.0 L 172.6,283.1 L 173.4,284.4 L 173.8,285.8 L 174.0,287.3 L 173.9,288.7 L 173.5,290.2 L 173.0,291.6 L 172.3,292.9 L 171.4,294.1 L 170.3,295.4 L 169.3,296.4 L 168.1,297.5 L 166.9,298.5 L 165.6,299.4 L 164.3,300.3 L 162.9,301.1 L 161.7,301.8 L 160.4,302.5 L 159.1,303.3 L 157.7,304.0 L 156.3,304.7 L 154.9,305.4 L 153.4,306.1 L 151.9,306.8 L 150.4,307.6 L 148.9,308.4 L 147.4,309.2 L 145.8,310.1 L 144.3,311.1 L 142.7,312.0 L 141.6,312.8 L 140.4,313.6 L 139.2,314.3 L 138.1,315.1 L 136.9,316.0 L 135.7,316.8 L 134.5,317.7 L 133.3,318.6 L 132.1,319.5 L 130.9,320.4 L 129.7,321.3 L 128.5,322.3 L 127.3,323.2 L 126.2,324.2 L 125.0,325.3 L 123.8,326.3 L 122.6,327.3 L 121.4,328.4 L 120.2,329.5 L 119.1,330.6 L 117.9,331.8 L 116.7,332.9 L 115.6,334.1 L 114.4,335.3 L 113.3,336.5 L 112.2,337.7 L 111.0,339.0 L 109.9,340.2 L 108.8,341.5 L 107.7,342.8 L 106.6,344.1 L 105.5,345.5 L 104.4,346.9 L 103.4,348.3 L 102.3,349.7 L 101.3,351.1 L 100.3,352.6 L 99.4,354.1 L 98.4,355.6 L 97.6,357.0 L 96.7,358.4 L 95.9,359.7 L 95.1,361.0 L 94.3,362.3 L 93.5,363.5 L 92.5,365.0 L 91.6,366.3 L 90.7,367.6 L 89.7,368.8 L 88.8,370.0 L 87.8,371.1 L 86.7,372.1 L 85.5,373.2 L 84.3,374.1 L 83.0,374.8 L 81.6,375.4 L 80.1,375.8 L 78.7,376.0 L 77.2,375.9 L 75.7,375.5 L 74.4,374.9 L 73.3,374.0 L 72.4,372.8 L 71.8,371.5 L 71.3,370.1 L 71.1,368.6 L 71.1,367.1 L 71.4,365.5 L 71.8,364.1 L 72.3,362.7 L 73.0,361.3 L 73.7,359.9 L 74.6,358.6 L 75.6,357.3 L 76.5,356.1 L 77.4,354.9 L 78.5,353.8 L 79.6,352.6 L 80.7,351.5 L 81.9,350.3 L 83.1,349.2 L 84.3,348.0 L 85.5,346.9 L 86.8,345.8 L 88.0,344.6 L 89.2,343.6 L 90.4,342.6 L 91.6,341.6 L 92.8,340.5 L 94.1,339.4 L 95.5,338.2 L 96.9,337.1 L 98.3,335.9 L 99.5,334.9 L 100.7,333.9 L 101.7,333.0 L 102.8,332.1 L 103.9,331.1 L 104.9,330.2 L 106.0,329.2 L 107.1,328.2 L 108.2,327.2 L 109.2,326.2 L 110.3,325.2 L 111.4,324.2 L 112.4,323.1 L 113.4,322.0 L 114.4,320.9 L 115.3,319.7 L 116.2,318.6 L 117.0,317.4 L 117.8,316.2 L 118.5,314.9 L 119.1,313.7 L 119.7,312.4 L 120.3,311.0 L 120.9,309.3 L 121.4,307.7 L 121.8,306.0 L 122.2,304.3 L 122.4,302.6 L 122.6,300.8 L 122.7,299.0 L 122.7,297.3 L 122.6,295.4 L 122.5,293.7 L 122.3,291.8 L 122.0,290.0 L 121.7,288.7 L 121.4,287.3 L 121.1,285.9 L 120.8,284.6 L 120.5,283.2 L 120.3,281.8 L 120.1,280.4 L 119.9,278.9 L 119.8,277.5 L 119.7,276.1 L 119.7,274.6 L 119.8,273.2 L 119.8,271.7 L 120.0,270.3 L 120.1,268.8 L 120.3,267.4 L 120.6,265.9 L 120.9,264.5 L 121.2,263.1 L 121.6,261.6 L 122.0,260.2 L 122.4,258.7 L 122.8,257.3 L 123.3,255.8 L 123.8,254.4 L 124.4,253.0 L 124.9,251.5 L 125.4,250.1 L 126.0,248.6 L 126.6,247.1 L 127.1,245.7 L 127.7,244.2 L 128.3,242.7 L 128.8,241.2 L 129.4,239.6 L 130.0,238.1 L 130.6,236.6 L 131.2,235.0 L 131.7,233.5 L 132.3,231.9 L 132.9,230.4 L 133.5,228.8 L 134.1,227.2 L 134.7,225.7 L 135.2,224.1 L 135.9,222.5 L 136.5,220.9 L 137.1,219.4 L 137.8,217.8 L 138.4,216.2 L 139.0,214.6 L 139.7,212.9 L 140.3,211.3 L 140.8,209.8 L 141.4,208.2 L 141.9,206.7 L 142.4,205.2 L 142.9,203.8 L 143.3,202.5 L 143.8,200.9 L 144.2,199.2 L 144.6,197.6 L 145.0,196.1 L 145.3,194.7 L 145.5,193.2 L 145.7,191.7 L 145.7,190.2 L 145.7,188.6 L 145.5,187.0 L 145.1,185.5 L 144.6,184.1 L 144.0,182.8 L 143.3,181.5 L 142.3,180.2 L 141.3,179.1 L 140.3,178.1 L 139.1,177.2 L 137.8,176.3 L 136.4,175.5 L 135.0,174.8 L 133.7,174.1 L 132.2,173.6 L 130.7,173.0 L 129.3,172.6 L 127.9,172.3 L 126.4,172.0 L 125.0,171.7 L 123.5,171.3 L 121.9,170.9 L 120.5,170.4 L 119.2,169.9 L 117.7,169.3 L 116.4,168.6 L 115.1,167.8 L 113.8,167.0 L 112.6,165.9 L 111.4,164.8 L 110.4,163.5 L 109.5,162.2 L 108.7,160.8 L 108.1,159.4 L 107.6,158.0 L 107.2,156.5 L 107.0,155.0 L 107.0,153.5 L 107.1,151.8 L 107.3,150.2 L 107.6,148.8 L 108.0,147.4 L 108.5,146.0 L 109.2,144.5 L 109.9,143.1 L 110.7,141.7 L 111.6,140.2 L 112.5,138.8 L 113.6,137.4 L 114.7,136.0 L 115.7,134.7 L 116.6,133.6 L 117.6,132.4 L 118.6,131.3 L 119.6,130.2 L 120.6,129.1 L 121.6,127.9 L 122.6,126.7 L 123.6,125.5 L 124.6,124.3 L 125.6,123.1 L 126.7,121.9 L 127.7,120.7 L 128.7,119.4 L 129.8,118.2 L 130.8,116.9 L 131.8,115.7 L 132.9,114.4 L 133.9,113.2 L 135.0,111.9 L 136.0,110.7 L 137.1,109.4 L 138.1,108.1 L 139.1,106.8 L 140.2,105.5 L 141.3,104.2 L 142.4,102.9 L 143.4,101.6 L 144.6,100.2 L 145.7,98.8 L 146.9,97.5 L 148.0,96.2 L 149.2,94.8 L 150.4,93.4 L 151.6,92.1 L 152.9,90.8 L 154.1,89.4 L 155.5,88.1 L 156.8,86.8 L 158.1,85.7 L 159.3,84.6 L 160.8,83.4 L 162.3,82.2 L 163.6,81.2 L 164.9,80.3 L 166.4,79.4 L 167.8,78.5 L 169.4,77.6 L 170.9,76.8 L 172.6,75.9 L 174.1,75.2 L 175.9,74.4 L 177.5,73.7 L 179.3,73.0 L 181.1,72.4 L 182.7,71.8 L 184.5,71.2 L 186.4,70.7 L 188.2,70.2 L 189.9,69.7 L 191.7,69.3 L 193.6,68.8 L 195.5,68.4 L 197.3,68.0 L 199.2,67.6 L 201.1,67.2 L 203.0,66.8 L 204.7,66.4 L 206.6,66.0 L 208.6,65.6 L 210.5,65.2 L 212.4,64.8 L 214.4,64.4 L 216.3,63.9 L 218.2,63.5 L 220.0,63.1 L 222.0,62.6 L 223.8,62.2 L 225.6,61.8 L 227.5,61.3 L 229.5,60.9 L 231.4,60.4 L 233.3,59.9 L 235.2,59.5 L 237.1,59.0 L 239.0,58.6 L 240.9,58.1 L 242.8,57.6 L 244.6,57.2 L 246.3,56.7 L 248.0,56.2 L 249.7,55.8 L 251.3,55.3 L 252.8,54.9 L 254.3,54.5 L 255.7,54.1 L 257.0,53.7 L 258.7,53.1 L 260.3,52.6 L 261.8,52.0 L 263.3,51.4 L 264.7,50.8 L 266.0,50.1 L 267.3,49.3 L 268.5,48.5 L 269.6,47.6 L 270.7,46.6 L 271.8,45.6 L 272.8,44.5 L 273.7,43.4 L 274.6,42.2 L 275.5,41.0 L 276.4,39.8 L 277.4,38.5 L 278.5,37.3 L 279.6,36.2 L 280.8,35.1 L 282.0,34.1 L 283.3,33.1 L 284.6,32.2 L 286.0,31.4 L 287.5,30.6 L 288.9,29.9 L 290.4,29.3 L 291.9,28.7 L 293.5,28.2 L 295.2,27.8 L 296.8,27.3 L 298.5,26.9 L 300.3,26.4 L 302.0,26.0 L 303.8,25.6 L 305.6,25.2 L 307.3,24.9 L 309.0,24.6 L 310.5,24.4 L 312.0,24.2 L 313.6,24.1 L 315.2,24.0 L 316.8,24.0 L 318.2,24.1 L 319.8,24.3 L 321.3,24.7 L 322.7,25.3 L 324.0,26.0 L 325.2,26.9 L 326.2,27.8 L 327.2,29.1 L 327.9,30.5 L 328.4,31.9 L 328.7,33.3 L 328.9,34.8 L 328.9,36.3 L 328.7,37.9 L 328.4,39.5 L 327.9,41.0 L 327.4,42.4 L 326.8,43.8 L 326.1,45.3 L 325.3,46.6 L 324.4,47.9 L 323.5,49.2 L 322.5,50.4 L 321.6,51.5 L 320.6,52.6 L 319.5,53.7 L 318.4,54.8 L 317.3,55.9 L 316.1,57.0 L 314.9,58.1 L 313.7,59.3 L 312.5,60.4 L 311.2,61.6 L 310.0,62.8 L 308.8,64.0 L 307.5,65.3 L 306.3,66.5 L 305.0,67.8 L 304.0,68.8 L 303.1,69.8 L 302.1,70.8 L 301.1,71.8 L 300.1,72.9 L 299.1,73.9 L 298.0,75.0 L 297.0,76.0 L 296.0,77.1 L 294.9,78.1 L 293.9,79.2 L 292.9,80.1 Z" fill="none" stroke="rgba(255,255,255,0.15)" stroke-width="5" stroke-linecap="round" stroke-linejoin="round"/><path d="M 292.9,80.1 L 291.9,81.2 L 290.8,82.3 L 289.7,83.4 L 288.6,84.5 L 287.6,85.6 L 286.5,86.8 L 285.3,87.9 L 284.2,89.0 L 283.1,90.2 L 282.0,91.3 L 280.9,92.5 L 279.7,93.6 L 278.6,94.8 L 277.4,96.0 L 276.3,97.2 L 275.1,98.4 L 273.9,99.5 L 272.8,100.7 L 271.6,102.0 L 270.4,103.2 L 269.2,104.4 L 268.0,105.6 L 266.8,106.9 L 265.6,108.1 L 264.4,109.3 L 263.2,110.6 L 262.0,111.8 L 260.8,113.1 L 259.5,114.4 L 258.3,115.6 L 257.0,116.9 L 255.8,118.2 L 254.5,119.5 L 253.3,120.8 L 252.0,122.1 L 250.8,123.4 L 249.5,124.7 L 248.2,126.0 L 246.9,127.3 L 245.6,128.6 L 244.3,129.9 L 243.0,131.2 L 241.7,132.6 L 240.4,133.9 L 239.1,135.2 L 237.8,136.6 L 236.5,137.9 L 235.2,139.3 L 233.9,140.6 L 232.5,142.0 L 231.2,143.3 L 229.9,144.7 L 228.5,146.1 L 227.2,147.4 L 225.8,148.8 L 224.4,150.1 L 223.0,151.5 L 221.6,152.8 L 220.2,154.1 L 218.7,155.4 L 217.3,156.7 L 215.8,157.9 L 214.4,159.1 L 213.0,160.2 L 211.7,161.3 L 210.3,162.4 L 209.1,163.4 L 207.8,164.4 L 206.7,165.4 L 205.5,166.3 L 204.4,167.2 L 203.0,168.3 L 201.6,169.3 L 200.3,170.2 L 199.1,171.1 L 197.8,172.0 L 196.5,172.9 L 195.2,173.6 L 193.8,174.4 L 192.5,175.1 L 191.1,175.6 L 189.7,176.0 L 188.2,176.2 L 186.8,176.2 L 185.3,175.7 L 184.1,175.0 L 183.2,174.0 L 182.5,172.6 L 182.1,171.1 L 182.0,169.7 L 182.0,168.1 L 182.2,166.7 L 182.6,165.2 L 183.1,163.8 L 183.8,162.3 L 184.6,161.0 L 185.4,159.7 L 186.4,158.5 L 187.4,157.3 L 188.4,156.1 L 189.2,154.9 L 190.1,153.6 L 190.8,152.2 L 191.5,150.8 L 192.1,149.3 L 192.5,147.8 L 192.8,146.3 L 193.0,144.8 L 193.0,143.4 L 192.9,141.9 L 192.6,140.2 L 192.2,138.7 L 191.6,137.2 L 190.8,135.9 L 189.9,134.7 L 188.8,133.5 L 187.6,132.4 L 186.3,131.5 L 184.9,130.6 L 183.4,130.0 L 182.0,129.5 L 180.6,129.1 L 179.1,128.8 L 177.5,128.6 L 175.9,128.5 L 174.4,128.4 L 172.8,128.4 L 171.3,128.5 L 169.8,128.6 L 168.4,128.7 L 166.9,128.9 L 165.3,129.1 L 163.8,129.4 L 162.2,129.7 L 160.6,130.1 L 159.0,130.6 L 157.5,131.1 L 156.1,131.7 L 154.8,132.3 L 153.4,132.9 L 152.1,133.7 L 150.8,134.5 L 149.6,135.4 L 148.4,136.5 L 147.3,137.6 L 146.4,138.8 L 145.6,140.0 L 145.0,141.4 L 144.6,142.9 L 144.5,144.3 L 144.7,145.8 L 145.2,147.2 L 146.0,148.4 L 147.0,149.4 L 148.2,150.3 L 149.6,150.8 L 151.0,151.2 L 152.5,151.5 L 153.9,151.6 L 155.5,151.9 L 157.0,152.3 L 158.5,152.8 L 159.9,153.5 L 161.2,154.4 L 162.4,155.3 L 163.4,156.4 L 164.3,157.7 L 165.1,159.0 L 165.8,160.4 L 166.3,162.0 L 166.8,163.6 L 167.0,165.1 L 167.2,166.6 L 167.2,168.1 L 167.2,169.7 L 167.1,171.4 L 166.9,172.8 L 166.7,174.4 L 166.5,176.0 L 166.2,177.4 L 165.9,178.8 L 165.6,180.3 L 165.3,181.8 L 165.0,183.3 L 164.6,184.9 L 164.2,186.5 L 163.9,188.1 L 163.5,189.7 L 163.1,191.4 L 162.7,193.1 L 162.2,194.8 L 161.8,196.5 L 161.3,198.2 L 160.9,200.0 L 160.5,201.4 L 160.1,202.7 L 159.8,204.1 L 159.4,205.4 L 159.0,206.8 L 158.6,208.2 L 158.2,209.6 L 157.7,211.0 L 157.3,212.5 L 156.9,213.9 L 156.4,215.3 L 156.0,216.8 L 155.5,218.2 L 155.0,219.7 L 154.6,221.2 L 154.1,222.7 L 153.6,224.2 L 153.1,225.7 L 152.6,227.2 L 152.1,228.7 L 151.5,230.2 L 151.0,231.7 L 150.5,233.3 L 150.0,234.8 L 149.5,236.4 L 148.9,237.9 L 148.5,239.4 L 148.0,240.8 L 147.6,242.2 L 147.2,243.6 L 146.6,245.3 L 146.2,246.9 L 145.8,248.6 L 145.5,250.1 L 145.2,251.6 L 145.0,253.1 L 145.0,254.6 L 145.0,256.1 L 145.1,257.5 L 145.3,258.9 L 145.6,260.4 L 146.1,261.9 L 146.6,263.4 L 147.3,264.7 L 148.1,266.1 L 149.0,267.4 L 149.9,268.5 L 150.9,269.6 L 152.0,270.6 L 153.1,271.5 L 154.3,272.4 L 155.6,273.2 L 156.9,274.0 L 158.3,274.8 L 159.7,275.5 L 161.1,276.1 L 162.5,276.7 L 163.9,277.3 L 165.2,277.8 L 166.7,278.5 L 168.0,279.2 L 169.4,280.0 L 170.7,280.9 L 171.7,282.0 L 172.6,283.1 L 173.4,284.4 L 173.8,285.8 L 174.0,287.3 L 173.9,288.7 L 173.5,290.2 L 173.0,291.6 L 172.3,292.9 L 171.4,294.1 L 170.3,295.4 L 169.3,296.4 L 168.1,297.5 L 166.9,298.5 L 165.6,299.4 L 164.3,300.3 L 162.9,301.1 L 161.7,301.8 L 160.4,302.5 L 159.1,303.3 L 157.7,304.0 L 156.3,304.7 L 154.9,305.4 L 153.4,306.1 L 151.9,306.8 L 150.4,307.6 L 148.9,308.4 L 147.4,309.2 L 145.8,310.1 L 144.3,311.1 L 142.7,312.0 L 141.6,312.8 L 140.4,313.6 L 139.2,314.3 L 138.1,315.1 L 136.9,316.0 L 135.7,316.8 L 134.5,317.7 L 133.3,318.6 L 132.1,319.5 L 130.9,320.4 L 129.7,321.3 L 128.5,322.3 L 127.3,323.2 L 126.2,324.2 L 125.0,325.3 L 123.8,326.3 L 122.6,327.3 L 121.4,328.4 L 120.2,329.5 L 119.1,330.6 L 117.9,331.8 L 116.7,332.9 L 115.6,334.1 L 114.4,335.3 L 113.3,336.5 L 112.2,337.7 L 111.0,339.0 L 109.9,340.2 L 108.8,341.5 L 107.7,342.8 L 106.6,344.1 L 105.5,345.5 L 104.4,346.9 L 103.4,348.3 L 102.3,349.7 L 101.3,351.1 L 100.3,352.6 L 99.4,354.1 L 98.4,355.6 L 97.6,357.0 L 96.7,358.4 L 95.9,359.7 L 95.1,361.0 L 94.3,362.3 L 93.5,363.5 L 92.5,365.0 L 91.6,366.3 L 90.7,367.6 L 89.7,368.8 L 88.8,370.0 L 87.8,371.1 L 86.7,372.1 L 85.5,373.2 L 84.3,374.1 L 83.0,374.8 L 81.6,375.4 L 80.1,375.8 L 78.7,376.0 L 77.2,375.9 L 75.7,375.5 L 74.4,374.9 L 73.3,374.0 L 72.4,372.8 L 71.8,371.5 L 71.3,370.1 L 71.1,368.6 L 71.1,367.1 L 71.4,365.5 L 71.8,364.1 L 72.3,362.7 L 73.0,361.3 L 73.7,359.9 L 74.6,358.6 L 75.6,357.3 L 76.5,356.1 L 77.4,354.9 L 78.5,353.8 L 79.6,352.6 L 80.7,351.5 L 81.9,350.3 L 83.1,349.2 L 84.3,348.0 L 85.5,346.9 L 86.8,345.8 L 88.0,344.6 L 89.2,343.6 L 90.4,342.6 L 91.6,341.6 L 92.8,340.5 L 94.1,339.4 L 95.5,338.2 L 96.9,337.1 L 98.3,335.9 L 99.5,334.9 L 100.7,333.9 L 101.7,333.0 L 102.8,332.1 L 103.9,331.1 L 104.9,330.2 L 106.0,329.2 L 107.1,328.2 L 108.2,327.2 L 109.2,326.2 L 110.3,325.2 L 111.4,324.2 L 112.4,323.1 L 113.4,322.0 L 114.4,320.9 L 115.3,319.7 L 116.2,318.6 L 117.0,317.4 L 117.8,316.2 L 118.5,314.9 L 119.1,313.7 L 119.7,312.4 L 120.3,311.0 L 120.9,309.3 L 121.4,307.7 L 121.8,306.0 L 122.2,304.3 L 122.4,302.6 L 122.6,300.8 L 122.7,299.0 L 122.7,297.3 L 122.6,295.4 L 122.5,293.7 L 122.3,291.8 L 122.0,290.0 L 121.7,288.7 L 121.4,287.3 L 121.1,285.9 L 120.8,284.6 L 120.5,283.2 L 120.3,281.8 L 120.1,280.4 L 119.9,278.9 L 119.8,277.5 L 119.7,276.1 L 119.7,274.6 L 119.8,273.2 L 119.8,271.7 L 120.0,270.3 L 120.1,268.8 L 120.3,267.4 L 120.6,265.9 L 120.9,264.5 L 121.2,263.1 L 121.6,261.6 L 122.0,260.2 L 122.4,258.7 L 122.8,257.3 L 123.3,255.8 L 123.8,254.4 L 124.4,253.0 L 124.9,251.5 L 125.4,250.1 L 126.0,248.6 L 126.6,247.1 L 127.1,245.7 L 127.7,244.2 L 128.3,242.7 L 128.8,241.2 L 129.4,239.6 L 130.0,238.1 L 130.6,236.6 L 131.2,235.0 L 131.7,233.5 L 132.3,231.9 L 132.9,230.4 L 133.5,228.8 L 134.1,227.2 L 134.7,225.7 L 135.2,224.1 L 135.9,222.5 L 136.5,220.9 L 137.1,219.4 L 137.8,217.8 L 138.4,216.2 L 139.0,214.6 L 139.7,212.9 L 140.3,211.3 L 140.8,209.8 L 141.4,208.2 L 141.9,206.7 L 142.4,205.2 L 142.9,203.8 L 143.3,202.5 L 143.8,200.9 L 144.2,199.2 L 144.6,197.6 L 145.0,196.1 L 145.3,194.7 L 145.5,193.2 L 145.7,191.7 L 145.7,190.2 L 145.7,188.6 L 145.5,187.0 L 145.1,185.5 L 144.6,184.1 L 144.0,182.8 L 143.3,181.5 L 142.3,180.2 L 141.3,179.1 L 140.3,178.1 L 139.1,177.2 L 137.8,176.3 L 136.4,175.5 L 135.0,174.8 L 133.7,174.1 L 132.2,173.6 L 130.7,173.0 L 129.3,172.6 L 127.9,172.3 L 126.4,172.0 L 125.0,171.7 L 123.5,171.3 L 121.9,170.9 L 120.5,170.4 L 119.2,169.9 L 117.7,169.3 L 116.4,168.6 L 115.1,167.8 L 113.8,167.0 L 112.6,165.9 L 111.4,164.8 L 110.4,163.5 L 109.5,162.2 L 108.7,160.8 L 108.1,159.4 L 107.6,158.0 L 107.2,156.5 L 107.0,155.0 L 107.0,153.5 L 107.1,151.8 L 107.3,150.2 L 107.6,148.8 L 108.0,147.4 L 108.5,146.0 L 109.2,144.5 L 109.9,143.1 L 110.7,141.7 L 111.6,140.2 L 112.5,138.8 L 113.6,137.4 L 114.7,136.0 L 115.7,134.7 L 116.6,133.6 L 117.6,132.4 L 118.6,131.3 L 119.6,130.2 L 120.6,129.1 L 121.6,127.9 L 122.6,126.7 L 123.6,125.5 L 124.6,124.3 L 125.6,123.1 L 126.7,121.9 L 127.7,120.7 L 128.7,119.4 L 129.8,118.2 L 130.8,116.9 L 131.8,115.7 L 132.9,114.4 L 133.9,113.2 L 135.0,111.9 L 136.0,110.7 L 137.1,109.4 L 138.1,108.1 L 139.1,106.8 L 140.2,105.5 L 141.3,104.2 L 142.4,102.9 L 143.4,101.6 L 144.6,100.2 L 145.7,98.8 L 146.9,97.5 L 148.0,96.2 L 149.2,94.8 L 150.4,93.4 L 151.6,92.1 L 152.9,90.8 L 154.1,89.4 L 155.5,88.1 L 156.8,86.8 L 158.1,85.7 L 159.3,84.6 L 160.8,83.4 L 162.3,82.2 L 163.6,81.2 L 164.9,80.3 L 166.4,79.4 L 167.8,78.5 L 169.4,77.6 L 170.9,76.8 L 172.6,75.9 L 174.1,75.2 L 175.9,74.4 L 177.5,73.7 L 179.3,73.0 L 181.1,72.4 L 182.7,71.8 L 184.5,71.2 L 186.4,70.7 L 188.2,70.2 L 189.9,69.7 L 191.7,69.3 L 193.6,68.8 L 195.5,68.4 L 197.3,68.0 L 199.2,67.6 L 201.1,67.2 L 203.0,66.8 L 204.7,66.4 L 206.6,66.0 L 208.6,65.6 L 210.5,65.2 L 212.4,64.8 L 214.4,64.4 L 216.3,63.9 L 218.2,63.5 L 220.0,63.1 L 222.0,62.6 L 223.8,62.2 L 225.6,61.8 L 227.5,61.3 L 229.5,60.9 L 231.4,60.4 L 233.3,59.9 L 235.2,59.5 L 237.1,59.0 L 239.0,58.6 L 240.9,58.1 L 242.8,57.6 L 244.6,57.2 L 246.3,56.7 L 248.0,56.2 L 249.7,55.8 L 251.3,55.3 L 252.8,54.9 L 254.3,54.5 L 255.7,54.1 L 257.0,53.7 L 258.7,53.1 L 260.3,52.6 L 261.8,52.0 L 263.3,51.4 L 264.7,50.8 L 266.0,50.1 L 267.3,49.3 L 268.5,48.5 L 269.6,47.6 L 270.7,46.6 L 271.8,45.6 L 272.8,44.5 L 273.7,43.4 L 274.6,42.2 L 275.5,41.0 L 276.4,39.8 L 277.4,38.5 L 278.5,37.3 L 279.6,36.2 L 280.8,35.1 L 282.0,34.1 L 283.3,33.1 L 284.6,32.2 L 286.0,31.4 L 287.5,30.6 L 288.9,29.9 L 290.4,29.3 L 291.9,28.7 L 293.5,28.2 L 295.2,27.8 L 296.8,27.3 L 298.5,26.9 L 300.3,26.4 L 302.0,26.0 L 303.8,25.6 L 305.6,25.2 L 307.3,24.9 L 309.0,24.6 L 310.5,24.4 L 312.0,24.2 L 313.6,24.1 L 315.2,24.0 L 316.8,24.0 L 318.2,24.1 L 319.8,24.3 L 321.3,24.7 L 322.7,25.3 L 324.0,26.0 L 325.2,26.9 L 326.2,27.8 L 327.2,29.1 L 327.9,30.5 L 328.4,31.9 L 328.7,33.3 L 328.9,34.8 L 328.9,36.3 L 328.7,37.9 L 328.4,39.5 L 327.9,41.0 L 327.4,42.4 L 326.8,43.8 L 326.1,45.3 L 325.3,46.6 L 324.4,47.9 L 323.5,49.2 L 322.5,50.4 L 321.6,51.5 L 320.6,52.6 L 319.5,53.7 L 318.4,54.8 L 317.3,55.9 L 316.1,57.0 L 314.9,58.1 L 313.7,59.3 L 312.5,60.4 L 311.2,61.6 L 310.0,62.8 L 308.8,64.0 L 307.5,65.3 L 306.3,66.5 L 305.0,67.8 L 304.0,68.8 L 303.1,69.8 L 302.1,70.8 L 301.1,71.8 L 300.1,72.9 L 299.1,73.9 L 298.0,75.0 L 297.0,76.0 L 296.0,77.1 L 294.9,78.1 L 293.9,79.2 L 292.9,80.1 Z" fill="none" stroke="#4db8ff" stroke-width="2.5" stroke-linecap="round" stroke-linejoin="round"/></svg>