<svg xmlns="http://www.w3.org/2000/svg" viewBox="0 0 400 400"><path d="M 127.8,317.7 L 126.3,319.2 L 124.9,320.7 L 123.3,322.2 L 121.7,323.7 L 119.8,325.2 L 118.0,326.5 L 116.2,327.7 L 114.2,327.8 L 113.2,325.9 L 111.3,325.7 L 109.9,327.3 L 109.2,329.3 L 108.7,331.5 L 108.3,333.7 L 107.8,336.0 L 107.2,338.1 L 106.5,340.1 L 105.9,342.2 L 105.2,344.4 L 104.7,346.6 L 104.9,348.7 L 106.0,350.4 L 107.9,351.7 L 109.9,352.6 L 111.5,354.1 L 111.4,356.1 L 109.9,357.6 L 108.0,358.7 L 105.9,359.7 L 103.9,360.9 L 102.2,362.0 L 100.5,363.4 L 98.7,365.0 L 97.0,366.7 L 95.4,368.6 L 93.8,370.7 L 92.5,372.8 L 91.2,374.6 L 89.6,376.0 L 87.6,375.9 L 86.9,374.0 L 87.7,372.1 L 89.1,370.4 L 90.7,369.0 L 92.5,367.4 L 94.2,365.8 L 95.9,364.3 L 97.4,362.8 L 98.5,361.0 L 99.1,359.1 L 99.2,357.0 L 98.9,354.9 L 98.6,352.7 L 98.7,350.5 L 99.2,348.3 L 99.9,346.1 L 100.8,343.8 L 101.7,341.5 L 102.6,339.2 L 103.4,336.8 L 104.1,334.5 L 104.7,332.3 L 104.6,330.2 L 103.5,328.4 L 101.5,327.3 L 99.4,326.8 L 97.4,325.9 L 95.9,324.2 L 95.5,322.1 L 96.2,320.0 L 97.5,318.2 L 98.9,316.5 L 100.3,314.8 L 101.8,313.1 L 103.3,311.2 L 104.9,309.3 L 106.5,307.5 L 108.1,305.9 L 109.8,304.7 L 111.7,303.6 L 113.7,302.8 L 115.8,302.2 L 117.8,301.7 L 119.9,301.3 L 122.1,300.8 L 124.2,300.3 L 126.3,299.8 L 128.5,299.3 L 130.7,298.7 L 132.9,298.0 L 134.7,297.0 L 136.2,295.3 L 137.6,293.7 L 139.5,292.7 L 141.8,292.2 L 144.2,291.9 L 146.3,291.2 L 147.8,289.8 L 148.0,287.7 L 147.1,285.8 L 145.7,284.0 L 144.4,282.2 L 142.6,281.3 L 140.8,282.3 L 139.6,284.2 L 138.6,286.2 L 137.5,288.0 L 136.1,289.7 L 134.3,291.2 L 132.1,292.4 L 129.9,293.2 L 127.6,293.4 L 125.3,293.0 L 123.1,292.1 L 120.9,290.8 L 118.6,289.8 L 116.1,289.1 L 113.9,288.8 L 111.6,288.6 L 109.4,288.7 L 107.3,289.4 L 105.1,289.5 L 103.1,288.4 L 101.8,286.8 L 100.7,284.7 L 99.1,283.0 L 97.2,281.5 L 96.0,279.7 L 94.9,277.8 L 93.0,276.7 L 90.9,276.4 L 88.6,276.3 L 86.5,275.9 L 84.8,274.6 L 84.0,272.5 L 83.4,270.4 L 82.0,268.5 L 80.3,267.2 L 78.5,266.0 L 76.6,264.8 L 74.6,263.4 L 72.6,262.0 L 70.6,260.6 L 68.5,259.0 L 66.7,257.6 L 65.2,256.2 L 63.8,254.6 L 62.4,253.0 L 61.1,251.4 L 59.8,249.8 L 58.4,248.2 L 57.1,246.6 L 55.7,244.7 L 54.5,242.5 L 53.9,240.1 L 53.7,237.6 L 54.0,235.1 L 54.7,232.6 L 55.7,230.3 L 56.4,228.4 L 57.0,226.4 L 57.5,224.3 L 57.8,222.2 L 58.0,220.1 L 58.1,218.0 L 58.0,215.8 L 57.9,213.6 L 57.7,211.3 L 57.5,209.1 L 57.1,206.8 L 56.6,204.5 L 55.9,202.2 L 55.1,199.9 L 54.2,197.6 L 53.2,195.4 L 52.3,193.1 L 51.3,190.7 L 50.4,188.4 L 49.4,186.0 L 48.5,183.7 L 47.5,181.5 L 46.6,179.6 L 45.3,177.8 L 43.9,176.2 L 42.4,174.8 L 40.7,173.5 L 38.8,172.4 L 36.8,171.5 L 34.6,170.6 L 32.7,169.6 L 31.1,168.1 L 30.8,166.0 L 31.8,164.1 L 33.6,162.8 L 35.7,161.9 L 37.7,161.3 L 39.8,160.5 L 42.0,159.6 L 44.2,158.4 L 46.2,157.0 L 47.9,155.7 L 49.6,154.4 L 51.3,153.1 L 53.0,151.7 L 54.6,150.2 L 56.2,148.6 L 57.9,147.0 L 59.6,145.4 L 61.4,143.8 L 63.2,142.2 L 65.0,140.5 L 66.6,138.6 L 68.1,136.5 L 69.2,134.3 L 70.2,132.2 L 71.0,130.0 L 71.6,127.6 L 71.7,125.2 L 71.6,122.9 L 72.0,120.7 L 73.2,118.7 L 75.0,117.3 L 76.4,115.7 L 76.3,113.7 L 75.2,111.8 L 75.4,109.7 L 76.7,107.9 L 78.4,106.6 L 80.3,105.2 L 82.0,103.9 L 83.7,102.5 L 85.3,100.9 L 86.9,99.2 L 88.6,97.5 L 90.4,95.7 L 92.2,94.0 L 94.0,92.2 L 95.5,90.7 L 96.9,89.1 L 98.2,87.4 L 99.5,85.3 L 100.3,83.0 L 100.5,80.6 L 100.2,78.1 L 99.7,75.7 L 99.1,73.6 L 97.9,71.8 L 95.8,71.0 L 93.7,71.0 L 91.5,70.4 L 89.3,69.3 L 87.6,68.1 L 85.9,66.7 L 84.7,64.9 L 85.2,62.9 L 86.7,61.4 L 88.8,60.4 L 90.9,59.5 L 92.8,58.4 L 94.4,57.0 L 95.9,55.2 L 96.8,53.1 L 97.4,50.8 L 98.3,48.4 L 99.6,46.3 L 101.0,44.6 L 102.8,43.4 L 104.7,42.8 L 106.8,42.8 L 108.9,43.4 L 110.9,44.3 L 112.9,45.6 L 115.0,47.0 L 116.9,48.4 L 118.5,49.9 L 119.7,51.8 L 121.0,53.4 L 122.9,52.7 L 124.2,51.1 L 126.2,50.1 L 128.3,49.7 L 130.7,49.5 L 132.8,49.4 L 135.0,49.3 L 137.3,49.3 L 139.7,49.6 L 142.2,50.1 L 144.3,50.7 L 146.5,50.8 L 148.5,49.9 L 149.8,48.2 L 150.5,46.0 L 150.6,43.7 L 150.7,41.5 L 151.7,39.6 L 153.4,38.4 L 155.4,37.5 L 157.6,36.7 L 159.9,36.0 L 161.8,35.4 L 163.9,34.8 L 166.1,34.3 L 168.5,33.8 L 170.8,33.3 L 173.3,32.7 L 175.7,32.2 L 178.2,31.4 L 180.1,30.4 L 181.9,29.1 L 183.6,27.8 L 185.4,26.4 L 187.2,25.1 L 189.2,24.1 L 191.3,24.0 L 193.0,25.2 L 194.0,27.2 L 194.3,29.5 L 194.2,31.8 L 194.0,34.2 L 193.8,36.3 L 193.7,38.4 L 193.7,40.6 L 193.8,42.8 L 194.1,45.0 L 194.6,47.3 L 195.4,49.6 L 196.4,51.8 L 197.9,53.8 L 199.5,55.7 L 201.5,57.3 L 203.6,58.8 L 205.9,60.0 L 208.1,60.9 L 209.9,61.7 L 211.9,62.5 L 213.9,63.2 L 215.9,63.6 L 218.0,63.8 L 220.2,63.8 L 222.3,63.8 L 224.5,63.8 L 226.7,63.8 L 228.9,63.9 L 231.0,64.1 L 233.2,64.4 L 235.4,64.6 L 237.6,64.9 L 239.8,65.3 L 241.9,65.7 L 244.0,66.3 L 246.2,66.9 L 248.3,67.7 L 250.4,68.6 L 252.3,69.8 L 254.1,71.1 L 255.8,72.5 L 257.6,73.7 L 259.5,74.9 L 261.5,75.9 L 263.7,76.8 L 266.0,77.3 L 268.4,77.2 L 270.8,76.7 L 273.0,75.7 L 275.2,74.4 L 277.3,73.0 L 279.3,71.5 L 281.3,69.9 L 283.2,68.2 L 285.1,66.8 L 287.3,65.5 L 289.8,64.8 L 292.4,64.3 L 295.0,64.0 L 297.3,63.6 L 299.5,63.1 L 301.7,62.6 L 303.7,63.1 L 304.6,65.0 L 304.2,67.1 L 302.8,68.8 L 301.1,70.2 L 299.3,71.5 L 297.4,73.0 L 295.6,74.4 L 293.9,75.6 L 292.1,76.8 L 290.4,78.1 L 290.2,80.2 L 292.0,80.9 L 293.5,79.5 L 294.7,77.6 L 296.2,76.0 L 298.2,74.7 L 300.2,73.8 L 302.2,73.1 L 304.3,72.5 L 306.5,71.8 L 308.7,71.2 L 311.1,70.9 L 313.4,70.3 L 315.6,69.2 L 317.6,67.9 L 319.4,66.3 L 321.0,64.4 L 322.2,62.6 L 322.8,60.6 L 322.8,58.6 L 322.6,56.5 L 323.2,54.1 L 324.3,52.1 L 325.6,50.3 L 327.2,49.0 L 329.2,48.6 L 331.4,49.1 L 333.5,50.1 L 335.6,50.8 L 337.7,51.3 L 339.9,51.8 L 342.1,52.6 L 344.1,53.9 L 345.7,55.6 L 347.1,57.3 L 349.0,58.7 L 351.0,59.5 L 353.1,59.9 L 355.1,60.7 L 356.9,62.0 L 358.4,63.7 L 359.9,65.6 L 361.0,67.5 L 361.4,69.8 L 361.0,72.1 L 360.1,74.1 L 359.1,76.1 L 358.4,78.1 L 358.3,80.3 L 359.1,82.2 L 360.7,83.7 L 362.7,84.7 L 364.9,85.1 L 366.9,86.0 L 368.2,87.7 L 368.8,90.0 L 369.0,92.2 L 369.2,94.3 L 369.0,96.5 L 367.7,98.4 L 365.8,99.3 L 363.7,99.5 L 361.3,99.3 L 359.1,98.8 L 356.9,98.5 L 354.7,98.7 L 353.0,99.9 L 351.9,101.9 L 351.0,103.9 L 349.7,105.8 L 348.3,107.5 L 347.1,109.3 L 346.2,111.3 L 345.5,113.6 L 345.2,116.0 L 345.4,118.5 L 345.5,121.1 L 345.6,123.2 L 345.7,125.4 L 345.7,127.7 L 345.2,129.9 L 343.9,131.9 L 342.2,133.3 L 340.4,134.3 L 338.3,134.8 L 336.3,135.5 L 334.3,136.7 L 332.5,138.2 L 330.8,140.0 L 329.3,141.9 L 328.0,144.1 L 327.0,146.2 L 326.2,148.1 L 325.2,150.0 L 324.0,151.6 L 322.5,153.1 L 320.9,154.4 L 319.1,155.5 L 317.4,156.7 L 315.6,157.9 L 313.7,159.0 L 311.7,159.8 L 309.6,160.4 L 307.4,161.0 L 305.2,161.6 L 303.1,162.4 L 300.9,163.2 L 298.7,164.0 L 296.6,164.5 L 294.3,164.9 L 291.9,164.7 L 289.8,163.9 L 288.1,162.6 L 286.4,161.0 L 284.4,160.0 L 282.3,159.9 L 280.2,160.5 L 278.2,161.8 L 276.4,163.1 L 274.6,164.4 L 273.2,166.1 L 273.0,168.2 L 274.2,170.1 L 275.7,171.6 L 277.8,172.8 L 279.8,173.6 L 281.8,174.4 L 283.9,175.1 L 286.1,175.8 L 288.0,176.6 L 289.7,177.8 L 291.0,179.4 L 292.0,181.3 L 292.7,183.4 L 293.0,185.6 L 293.0,187.8 L 292.3,190.0 L 291.1,191.9 L 289.4,193.6 L 287.3,195.0 L 285.1,196.2 L 283.0,197.4 L 281.1,198.5 L 279.3,199.5 L 277.6,200.6 L 275.8,201.6 L 274.0,202.7 L 272.1,203.8 L 270.2,205.0 L 268.3,206.1 L 266.4,207.3 L 264.5,208.5 L 262.5,209.6 L 260.5,210.8 L 258.5,212.0 L 256.5,213.2 L 254.5,214.4 L 252.5,215.7 L 250.5,216.9 L 248.4,218.1 L 246.4,219.4 L 244.3,220.7 L 242.2,221.9 L 240.1,223.2 L 238.0,224.5 L 235.9,225.8 L 233.8,227.1 L 231.7,228.4 L 229.5,229.7 L 227.4,231.0 L 225.3,232.4 L 223.1,233.7 L 221.0,235.0 L 218.9,236.3 L 216.8,237.6 L 214.6,239.0 L 212.5,240.3 L 210.4,241.6 L 208.2,242.9 L 206.1,244.2 L 203.9,245.5 L 201.8,246.8 L 199.6,248.1 L 197.5,249.5 L 195.3,250.8 L 193.2,252.2 L 191.1,253.6 L 189.1,255.1 L 187.1,256.8 L 185.2,258.5 L 183.4,260.4 L 181.6,262.3 L 179.9,264.3 L 178.3,266.3 L 176.6,268.4 L 175.0,270.5 L 173.5,272.7 L 172.3,274.8 L 171.1,276.8 L 169.9,278.6 L 168.4,280.3 L 166.9,281.8 L 165.3,283.6 L 164.1,285.4 L 163.0,287.4 L 161.3,288.7 L 159.2,288.7 L 157.0,289.2 L 155.2,290.3 L 153.4,291.7 L 151.5,293.3 L 150.1,294.7 L 148.6,296.3 L 147.0,297.9 L 145.4,299.6 L 143.7,301.3 L 142.0,303.1 L 140.2,305.0 L 138.4,306.8 L 136.9,308.3 L 135.5,309.8 L 134.0,311.3 L 132.5,312.8 L 131.0,314.4 L 129.5,316.0 L 127.9,317.5 L 127.8,317.7 Z" fill="none" stroke="rgba(255,255,255,0.15)" stroke-width="5" stroke-linecap="round" stroke-linejoin="round"/><path d="M 127.8,317.7 L 126.3,319.2 L 124.9,320.7 L 123.3,322.2 L 121.7,323.7 L 119.8,325.2 L 118.0,326.5 L 116.2,327.7 L 114.2,327.8 L 113.2,325.9 L 111.3,325.7 L 109.9,327.3 L 109.2,329.3 L 108.7,331.5 L 108.3,333.7 L 107.8,336.0 L 107.2,338.1 L 106.5,340.1 L 105.9,342.2 L 105.2,344.4 L 104.7,346.6 L 104.9,348.7 L 106.0,350.4 L 107.9,351.7 L 109.9,352.6 L 111.5,354.1 L 111.4,356.1 L 109.9,357.6 L 108.0,358.7 L 105.9,359.7 L 103.9,360.9 L 102.2,362.0 L 100.5,363.4 L 98.7,365.0 L 97.0,366.7 L 95.4,368.6 L 93.8,370.7 L 92.5,372.8 L 91.2,374.6 L 89.6,376.0 L 87.6,375.9 L 86.9,374.0 L 87.7,372.1 L 89.1,370.4 L 90.7,369.0 L 92.5,367.4 L 94.2,365.8 L 95.9,364.3 L 97.4,362.8 L 98.5,361.0 L 99.1,359.1 L 99.2,357.0 L 98.9,354.9 L 98.6,352.7 L 98.7,350.5 L 99.2,348.3 L 99.9,346.1 L 100.8,343.8 L 101.7,341.5 L 102.6,339.2 L 103.4,336.8 L 104.1,334.5 L 104.7,332.3 L 104.6,330.2 L 103.5,328.4 L 101.5,327.3 L 99.4,326.8 L 97.4,325.9 L 95.9,324.2 L 95.5,322.1 L 96.2,320.0 L 97.5,318.2 L 98.9,316.5 L 100.3,314.8 L 101.8,313.1 L 103.3,311.2 L 104.9,309.3 L 106.5,307.5 L 108.1,305.9 L 109.8,304.7 L 111.7,303.6 L 113.7,302.8 L 115.8,302.2 L 117.8,301.7 L 119.9,301.3 L 122.1,300.8 L 124.2,300.3 L 126.3,299.8 L 128.5,299.3 L 130.7,298.7 L 132.9,298.0 L 134.7,297.0 L 136.2,295.3 L 137.6,293.7 L 139.5,292.7 L 141.8,292.2 L 144.2,291.9 L 146.3,291.2 L 147.8,289.8 L 148.0,287.7 L 147.1,285.8 L 145.7,284.0 L 144.4,282.2 L 142.6,281.3 L 140.8,282.3 L 139.6,284.2 L 138.6,286.2 L 137.5,288.0 L 136.1,289.7 L 134.3,291.2 L 132.1,292.4 L 129.9,293.2 L 127.6,293.4 L 125.3,293.0 L 123.1,292.1 L 120.9,290.8 L 118.6,289.8 L 116.1,289.1 L 113.9,288.8 L 111.6,288.6 L 109.4,288.7 L 107.3,289.4 L 105.1,289.5 L 103.1,288.4 L 101.8,286.8 L 100.7,284.7 L 99.1,283.0 L 97.2,281.5 L 96.0,279.7 L 94.9,277.8 L 93.0,276.7 L 90.9,276.4 L 88.6,276.3 L 86.5,275.9 L 84.8,274.6 L 84.0,272.5 L 83.4,270.4 L 82.0,268.5 L 80.3,267.2 L 78.5,266.0 L 76.6,264.8 L 74.6,263.4 L 72.6,262.0 L 70.6,260.6 L 68.5,259.0 L 66.7,257.6 L 65.2,256.2 L 63.8,254.6 L 62.4,253.0 L 61.1,251.4 L 59.8,249.8 L 58.4,248.2 L 57.1,246.6 L 55.7,244.7 L 54.5,242.5 L 53.9,240.1 L 53.7,237.6 L 54.0,235.1 L 54.7,232.6 L 55.7,230.3 L 56.4,228.4 L 57.0,226.4 L 57.5,224.3 L 57.8,222.2 L 58.0,220.1 L 58.1,218.0 L 58.0,215.8 L 57.9,213.6 L 57.7,211.3 L 57.5,209.1 L 57.1,206.8 L 56.6,204.5 L 55.9,202.2 L 55.1,199.9 L 54.2,197.6 L 53.2,195.4 L 52.3,193.1 L 51.3,190.7 L 50.4,188.4 L 49.4,186.0 L 48.5,183.7 L 47.5,181.5 L 46.6,179.6 L 45.3,177.8 L 43.9,176.2 L 42.4,174.8 L 40.7,173.5 L 38.8,172.4 L 36.8,171.5 L 34.6,170.6 L 32.7,169.6 L 31.1,168.1 L 30.8,166.0 L 31.8,164.1 L 33.6,162.8 L 35.7,161.9 L 37.7,161.3 L 39.8,160.5 L 42.0,159.6 L 44.2,158.4 L 46.2,157.0 L 47.9,155.7 L 49.6,154.4 L 51.3,153.1 L 53.0,151.7 L 54.6,150.2 L 56.2,148.6 L 57.9,147.0 L 59.6,145.4 L 61.4,143.8 L 63.2,142.2 L 65.0,140.5 L 66.6,138.6 L 68.1,136.5 L 69.2,134.3 L 70.2,132.2 L 71.0,130.0 L 71.6,127.6 L 71.7,125.2 L 71.6,122.9 L 72.0,120.7 L 73.2,118.7 L 75.0,117.3 L 76.4,115.7 L 76.3,113.7 L 75.2,111.8 L 75.4,109.7 L 76.7,107.9 L 78.4,106.6 L 80.3,105.2 L 82.0,103.9 L 83.7,102.5 L 85.3,100.9 L 86.9,99.2 L 88.6,97.5 L 90.4,95.7 L 92.2,94.0 L 94.0,92.2 L 95.5,90.7 L 96.9,89.1 L 98.2,87.4 L 99.5,85.3 L 100.3,83.0 L 100.5,80.6 L 100.2,78.1 L 99.7,75.7 L 99.1,73.6 L 97.9,71.8 L 95.8,71.0 L 93.7,71.0 L 91.5,70.4 L 89.3,69.3 L 87.6,68.1 L 85.9,66.7 L 84.7,64.9 L 85.2,62.9 L 86.7,61.4 L 88.8,60.4 L 90.9,59.5 L 92.8,58.4 L 94.4,57.0 L 95.9,55.2 L 96.8,53.1 L 97.4,50.8 L 98.3,48.4 L 99.6,46.3 L 101.0,44.6 L 102.8,43.4 L 104.7,42.8 L 106.8,42.8 L 108.9,43.4 L 110.9,44.3 L 112.9,45.6 L 115.0,47.0 L 116.9,48.4 L 118.5,49.9 L 119.7,51.8 L 121.0,53.4 L 122.9,52.7 L 124.2,51.1 L 126.2,50.1 L 128.3,49.7 L 130.7,49.5 L 132.8,49.4 L 135.0,49.3 L 137.3,49.3 L 139.7,49.6 L 142.2,50.1 L 144.3,50.7 L 146.5,50.8 L 148.5,49.9 L 149.8,48.2 L 150.5,46.0 L 150.6,43.7 L 150.7,41.5 L 151.7,39.6 L 153.4,38.4 L 155.4,37.5 L 157.6,36.7 L 159.9,36.0 L 161.8,35.4 L 163.9,34.8 L 166.1,34.3 L 168.5,33.8 L 170.8,33.3 L 173.3,32.7 L 175.7,32.2 L 178.2,31.4 L 180.1,30.4 L 181.9,29.1 L 183.6,27.8 L 185.4,26.4 L 187.2,25.1 L 189.2,24.1 L 191.3,24.0 L 193.0,25.2 L 194.0,27.2 L 194.3,29.5 L 194.2,31.8 L 194.0,34.2 L 193.8,36.3 L 193.7,38.4 L 193.7,40.6 L 193.8,42.8 L 194.1,45.0 L 194.6,47.3 L 195.4,49.6 L 196.4,51.8 L 197.9,53.8 L 199.5,55.7 L 201.5,57.3 L 203.6,58.8 L 205.9,60.0 L 208.1,60.9 L 209.9,61.7 L 211.9,62.5 L 213.9,63.2 L 215.9,63.6 L 218.0,63.8 L 220.2,63.8 L 222.3,63.8 L 224.5,63.8 L 226.7,63.8 L 228.9,63.9 L 231.0,64.1 L 233.2,64.4 L 235.4,64.6 L 237.6,64.9 L 239.8,65.3 L 241.9,65.7 L 244.0,66.3 L 246.2,66.9 L 248.3,67.7 L 250.4,68.6 L 252.3,69.8 L 254.1,71.1 L 255.8,72.5 L 257.6,73.7 L 259.5,74.9 L 261.5,75.9 L 263.7,76.8 L 266.0,77.3 L 268.4,77.2 L 270.8,76.7 L 273.0,75.7 L 275.2,74.4 L 277.3,73.0 L 279.3,71.5 L 281.3,69.9 L 283.2,68.2 L 285.1,66.8 L 287.3,65.5 L 289.8,64.8 L 292.4,64.3 L 295.0,64.0 L 297.3,63.6 L 299.5,63.1 L 301.7,62.6 L 303.7,63.1 L 304.6,65.0 L 304.2,67.1 L 302.8,68.8 L 301.1,70.2 L 299.3,71.5 L 297.4,73.0 L 295.6,74.4 L 293.9,75.6 L 292.1,76.8 L 290.4,78.1 L 290.2,80.2 L 292.0,80.9 L 293.5,79.5 L 294.7,77.6 L 296.2,76.0 L 298.2,74.7 L 300.2,73.8 L 302.2,73.1 L 304.3,72.5 L 306.5,71.8 L 308.7,71.2 L 311.1,70.9 L 313.4,70.3 L 315.6,69.2 L 317.6,67.9 L 319.4,66.3 L 321.0,64.4 L 322.2,62.6 L 322.8,60.6 L 322.8,58.6 L 322.6,56.5 L 323.2,54.1 L 324.3,52.1 L 325.6,50.3 L 327.2,49.0 L 329.2,48.6 L 331.4,49.1 L 333.5,50.1 L 335.6,50.8 L 337.7,51.3 L 339.9,51.8 L 342.1,52.6 L 344.1,53.9 L 345.7,55.6 L 347.1,57.3 L 349.0,58.7 L 351.0,59.5 L 353.1,59.9 L 355.1,60.7 L 356.9,62.0 L 358.4,63.7 L 359.9,65.6 L 361.0,67.5 L 361.4,69.8 L 361.0,72.1 L 360.1,74.1 L 359.1,76.1 L 358.4,78.1 L 358.3,80.3 L 359.1,82.2 L 360.7,83.7 L 362.7,84.7 L 364.9,85.1 L 366.9,86.0 L 368.2,87.7 L 368.8,90.0 L 369.0,92.2 L 369.2,94.3 L 369.0,96.5 L 367.7,98.4 L 365.8,99.3 L 363.7,99.5 L 361.3,99.3 L 359.1,98.8 L 356.9,98.5 L 354.7,98.7 L 353.0,99.9 L 351.9,101.9 L 351.0,103.9 L 349.7,105.8 L 348.3,107.5 L 347.1,109.3 L 346.2,111.3 L 345.5,113.6 L 345.2,116.0 L 345.4,118.5 L 345.5,121.1 L 345.6,123.2 L 345.7,125.4 L 345.7,127.7 L 345.2,129.9 L 343.9,131.9 L 342.2,133.3 L 340.4,134.3 L 338.3,134.8 L 336.3,135.5 L 334.3,136.7 L 332.5,138.2 L 330.8,140.0 L 329.3,141.9 L 328.0,144.1 L 327.0,146.2 L 326.2,148.1 L 325.2,150.0 L 324.0,151.6 L 322.5,153.1 L 320.9,154.4 L 319.1,155.5 L 317.4,156.7 L 315.6,157.9 L 313.7,159.0 L 311.7,159.8 L 309.6,160.4 L 307.4,161.0 L 305.2,161.6 L 303.1,162.4 L 300.9,163.2 L 298.7,164.0 L 296.6,164.5 L 294.3,164.9 L 291.9,164.7 L 289.8,163.9 L 288.1,162.6 L 286.4,161.0 L 284.4,160.0 L 282.3,159.9 L 280.2,160.5 L 278.2,161.8 L 276.4,163.1 L 274.6,164.4 L 273.2,166.1 L 273.0,168.2 L 274.2,170.1 L 275.7,171.6 L 277.8,172.8 L 279.8,173.6 L 281.8,174.4 L 283.9,175.1 L 286.1,175.8 L 288.0,176.6 L 289.7,177.8 L 291.0,179.4 L 292.0,181.3 L 292.7,183.4 L 293.0,185.6 L 293.0,187.8 L 292.3,190.0 L 291.1,191.9 L 289.4,193.6 L 287.3,195.0 L 285.1,196.2 L 283.0,197.4 L 281.1,198.5 L 279.3,199.5 L 277.6,200.6 L 275.8,201.6 L 274.0,202.7 L 272.1,203.8 L 270.2,205.0 L 268.3,206.1 L 266.4,207.3 L 264.5,208.5 L 262.5,209.6 L 260.5,210.8 L 258.5,212.0 L 256.5,213.2 L 254.5,214.4 L 252.5,215.7 L 250.5,216.9 L 248.4,218.1 L 246.4,219.4 L 244.3,220.7 L 242.2,221.9 L 240.1,223.2 L 238.0,224.5 L 235.9,225.8 L 233.8,227.1 L 231.7,228.4 L 229.5,229.7 L 227.4,231.0 L 225.3,232.4 L 223.1,233.7 L 221.0,235.0 L 218.9,236.3 L 216.8,237.6 L 214.6,239.0 L 212.5,240.3 L 210.4,241.6 L 208.2,242.9 L 206.1,244.2 L 203.9,245.5 L 201.8,246.8 L 199.6,248.1 L 197.5,249.5 L 195.3,250.8 L 193.2,252.2 L 191.1,253.6 L 189.1,255.1 L 187.1,256.8 L 185.2,258.5 L 183.4,260.4 L 181.6,262.3 L 179.9,264.3 L 178.3,266.3 L 176.6,268.4 L 175.0,270.5 L 173.5,272.7 L 172.3,274.8 L 171.1,276.8 L 169.9,278.6 L 168.4,280.3 L 166.9,281.8 L 165.3,283.6 L 164.1,285.4 L 163.0,287.4 L 161.3,288.7 L 159.2,288.7 L 157.0,289.2 L 155.2,290.3 L 153.4,291.7 L 151.5,293.3 L 150.1,294.7 L 148.6,296.3 L 147.0,297.9 L 145.4,299.6 L 143.7,301.3 L 142.0,303.1 L 140.2,305.0 L 138.4,306.8 L 136.9,308.3 L 135.5,309.8 L 134.0,311.3 L 132.5,312.8 L 131.0,314.4 L 129.5,316.0 L 127.9,317.5 L 127.8,317.7 Z" fill="none" stroke="#4db8ff" stroke-width="2.5" stroke-linecap="round" stroke-linejoin="round"/></svg>