<svg xmlns="http://www.w3.org/2000/svg" viewBox="0 0 400 400"><path d="M 262.6,106.0 L 262.9,107.7 L 263.1,109.4 L 263.4,111.1 L 263.7,112.8 L 263.9,114.5 L 264.2,116.2 L 264.5,117.9 L 264.8,119.6 L 265.2,121.4 L 265.5,123.1 L 265.8,124.9 L 266.2,126.6 L 266.6,128.4 L 267.0,130.2 L 267.4,131.9 L 267.8,133.7 L 268.3,135.5 L 268.7,137.3 L 269.2,139.0 L 269.7,140.8 L 270.1,142.5 L 270.6,144.1 L 271.0,145.7 L 271.5,147.2 L 271.9,148.6 L 272.3,150.4 L 272.8,152.2 L 273.2,153.9 L 273.5,155.5 L 273.7,157.2 L 273.9,158.7 L 273.9,160.3 L 273.9,161.8 L 273.8,163.3 L 273.7,164.8 L 273.4,166.3 L 273.0,168.0 L 272.5,169.6 L 271.9,171.1 L 271.2,172.6 L 270.3,174.1 L 269.3,175.6 L 268.2,176.9 L 267.2,178.0 L 266.1,179.1 L 264.9,180.1 L 263.6,181.1 L 262.4,182.1 L 261.1,183.1 L 259.7,184.0 L 258.2,184.9 L 256.7,185.8 L 255.2,186.6 L 253.6,187.4 L 252.0,188.2 L 250.3,189.0 L 248.7,189.8 L 247.0,190.7 L 245.3,191.5 L 243.6,192.5 L 241.9,193.4 L 240.5,194.2 L 239.1,194.9 L 237.8,195.6 L 236.5,196.3 L 235.1,197.0 L 233.7,197.7 L 232.3,198.4 L 230.9,199.2 L 229.5,199.9 L 228.1,200.6 L 226.7,201.4 L 225.2,202.1 L 223.8,202.9 L 222.3,203.6 L 220.8,204.4 L 219.4,205.1 L 217.8,205.9 L 216.3,206.6 L 214.8,207.2 L 213.2,207.9 L 211.6,208.6 L 210.0,209.2 L 208.4,209.7 L 206.7,210.3 L 205.1,210.8 L 203.4,211.3 L 201.7,211.7 L 200.0,212.1 L 198.3,212.5 L 196.5,212.8 L 194.8,213.1 L 193.1,213.4 L 191.4,213.7 L 189.8,214.0 L 188.1,214.2 L 186.6,214.5 L 185.0,214.8 L 183.6,215.1 L 181.8,215.5 L 180.0,215.9 L 178.3,216.5 L 176.6,217.0 L 175.0,217.6 L 173.4,218.3 L 172.0,219.0 L 170.5,219.8 L 169.1,220.7 L 167.8,221.6 L 166.7,222.5 L 165.4,223.6 L 164.3,224.9 L 163.3,226.2 L 162.4,227.6 L 161.7,229.0 L 161.0,230.6 L 160.5,232.1 L 160.1,233.8 L 159.8,235.5 L 159.7,237.2 L 159.7,238.9 L 159.8,240.4 L 160.0,241.9 L 160.2,243.5 L 160.5,245.1 L 160.9,246.7 L 161.4,248.4 L 161.9,250.0 L 162.5,251.6 L 163.2,253.2 L 163.9,254.8 L 164.7,256.4 L 165.6,258.0 L 166.5,259.6 L 167.4,261.3 L 168.4,262.9 L 169.4,264.5 L 170.4,266.2 L 171.2,267.6 L 172.0,268.9 L 172.8,270.2 L 173.5,271.5 L 174.3,272.8 L 175.1,274.2 L 175.8,275.5 L 176.6,276.9 L 177.4,278.3 L 178.2,279.6 L 178.9,281.0 L 179.7,282.5 L 180.5,283.9 L 181.3,285.3 L 182.1,286.8 L 182.9,288.2 L 183.7,289.7 L 184.5,291.2 L 185.2,292.7 L 186.0,294.2 L 186.8,295.7 L 187.6,297.2 L 188.4,298.7 L 189.2,300.2 L 190.0,301.8 L 190.8,303.3 L 191.6,304.9 L 192.4,306.5 L 193.2,308.1 L 194.0,309.7 L 194.8,311.3 L 195.6,312.9 L 196.4,314.5 L 197.2,316.2 L 198.0,317.8 L 198.8,319.4 L 199.6,321.1 L 200.4,322.8 L 201.2,324.4 L 202.0,326.1 L 202.9,327.8 L 203.7,329.5 L 204.5,331.2 L 205.4,332.9 L 206.2,334.6 L 207.1,336.2 L 207.9,337.8 L 208.8,339.4 L 209.7,340.9 L 210.6,342.4 L 211.5,343.8 L 212.4,345.1 L 213.4,346.4 L 214.4,347.7 L 215.4,348.9 L 216.4,350.0 L 217.5,351.2 L 218.7,352.2 L 219.8,353.2 L 221.0,354.2 L 222.2,355.1 L 223.5,355.9 L 224.8,356.7 L 226.1,357.4 L 227.4,358.1 L 228.8,358.7 L 230.2,359.3 L 231.6,359.8 L 233.0,360.3 L 234.4,360.7 L 235.9,361.1 L 237.3,361.5 L 238.8,361.7 L 240.3,362.0 L 241.9,362.2 L 243.4,362.3 L 244.9,362.4 L 246.5,362.4 L 248.0,362.4 L 249.6,362.4 L 251.1,362.2 L 252.7,362.1 L 254.3,361.8 L 255.9,361.6 L 257.4,361.3 L 259.0,360.9 L 260.5,360.6 L 262.0,360.2 L 263.7,359.7 L 265.5,359.2 L 267.2,358.8 L 268.9,358.4 L 270.5,358.1 L 272.0,357.8 L 273.7,357.5 L 275.4,357.4 L 277.1,357.3 L 278.7,357.4 L 280.3,357.6 L 281.9,358.0 L 283.4,358.6 L 284.8,359.4 L 286.0,360.3 L 287.0,361.6 L 287.7,363.1 L 288.1,364.6 L 288.1,366.1 L 287.7,367.6 L 287.1,369.1 L 286.1,370.4 L 285.0,371.5 L 283.7,372.4 L 282.3,373.2 L 280.8,373.8 L 279.2,374.4 L 277.7,374.9 L 276.1,375.3 L 274.4,375.6 L 272.8,375.8 L 271.2,375.9 L 269.5,376.0 L 267.9,376.0 L 266.3,376.0 L 264.8,376.0 L 263.1,375.9 L 261.5,375.9 L 259.8,375.8 L 258.1,375.7 L 256.3,375.6 L 254.5,375.5 L 252.7,375.3 L 250.9,375.1 L 249.0,374.9 L 247.2,374.7 L 245.3,374.4 L 243.4,374.1 L 241.5,373.7 L 240.0,373.4 L 238.6,373.0 L 237.1,372.5 L 235.7,372.1 L 234.2,371.5 L 232.8,371.0 L 231.4,370.4 L 230.0,369.7 L 228.6,369.0 L 227.2,368.2 L 225.9,367.4 L 224.5,366.5 L 223.2,365.6 L 222.0,364.6 L 220.7,363.6 L 219.5,362.6 L 218.3,361.6 L 216.8,360.4 L 215.4,359.4 L 214.0,358.3 L 212.7,357.4 L 211.4,356.5 L 210.0,355.6 L 208.6,354.7 L 207.2,353.9 L 205.7,353.3 L 204.3,352.7 L 202.8,352.0 L 201.4,351.3 L 200.1,350.4 L 198.9,349.4 L 197.9,348.2 L 197.0,346.8 L 196.3,345.4 L 195.6,343.8 L 195.1,342.1 L 194.7,340.5 L 194.3,338.9 L 193.9,337.3 L 193.4,335.6 L 192.9,334.1 L 192.3,332.6 L 191.6,331.1 L 190.9,329.7 L 190.2,328.3 L 189.4,327.0 L 188.6,325.6 L 187.7,324.2 L 186.7,322.9 L 185.8,321.5 L 184.8,320.1 L 183.7,318.7 L 182.6,317.3 L 181.6,315.9 L 180.5,314.4 L 179.4,313.0 L 178.2,311.5 L 177.1,310.0 L 176.0,308.5 L 174.8,306.9 L 173.6,305.4 L 172.7,304.2 L 171.8,303.0 L 170.9,301.8 L 170.0,300.5 L 169.1,299.3 L 168.2,298.1 L 167.2,296.8 L 166.3,295.5 L 165.3,294.3 L 164.4,293.0 L 163.4,291.7 L 162.5,290.4 L 161.5,289.0 L 160.5,287.7 L 159.5,286.4 L 158.6,285.0 L 157.6,283.6 L 156.6,282.3 L 155.6,280.9 L 154.6,279.5 L 153.6,278.1 L 152.6,276.6 L 151.6,275.2 L 150.6,273.8 L 149.6,272.3 L 148.6,270.9 L 147.5,269.4 L 146.5,268.0 L 145.4,266.5 L 144.4,265.1 L 143.5,263.8 L 142.5,262.4 L 141.6,261.2 L 140.7,259.9 L 139.6,258.3 L 138.6,256.9 L 137.7,255.5 L 136.7,254.2 L 135.8,252.9 L 134.9,251.6 L 134.0,250.2 L 133.2,248.8 L 132.5,247.3 L 131.9,245.7 L 131.5,244.2 L 131.3,242.7 L 131.3,241.2 L 131.5,239.7 L 131.9,238.2 L 132.3,236.7 L 132.5,235.0 L 132.5,233.4 L 132.2,231.8 L 131.6,230.3 L 130.8,228.9 L 129.8,227.7 L 128.7,226.6 L 127.4,225.5 L 126.0,224.5 L 124.5,223.6 L 123.1,222.8 L 121.7,222.0 L 120.3,221.2 L 119.0,220.2 L 117.8,219.2 L 116.6,218.1 L 115.5,216.7 L 114.5,215.2 L 113.6,213.6 L 113.0,212.0 L 112.5,210.5 L 112.2,209.0 L 112.0,207.4 L 111.9,205.8 L 112.0,204.2 L 112.2,202.6 L 112.6,200.9 L 113.0,199.3 L 113.5,197.7 L 114.0,196.1 L 114.6,194.7 L 115.2,193.2 L 115.8,191.8 L 116.5,190.3 L 117.2,188.8 L 118.0,187.3 L 118.7,185.8 L 119.5,184.2 L 120.3,182.7 L 121.1,181.0 L 122.0,179.4 L 122.8,177.8 L 123.6,176.1 L 124.5,174.4 L 125.3,172.7 L 126.1,170.9 L 126.9,169.2 L 127.6,167.7 L 128.2,166.4 L 128.8,165.0 L 129.3,163.6 L 129.9,162.2 L 130.4,160.8 L 131.0,159.2 L 131.5,157.7 L 132.0,156.3 L 132.5,154.8 L 133.0,153.3 L 133.4,151.8 L 133.9,150.2 L 134.3,148.7 L 134.7,147.1 L 135.1,145.6 L 135.5,144.0 L 135.9,142.4 L 136.3,140.8 L 136.6,139.2 L 136.9,137.6 L 137.2,135.9 L 137.4,134.3 L 137.7,132.6 L 137.9,130.9 L 138.2,129.2 L 138.4,127.5 L 138.6,125.8 L 138.8,124.1 L 139.0,122.4 L 139.2,120.6 L 139.4,118.9 L 139.5,117.1 L 139.6,115.3 L 139.7,113.5 L 139.7,111.7 L 139.7,109.9 L 139.7,108.1 L 139.6,106.3 L 139.5,104.5 L 139.4,102.7 L 139.2,100.9 L 139.0,99.1 L 138.7,97.2 L 138.4,95.4 L 138.1,93.6 L 137.7,91.8 L 137.3,90.0 L 136.8,88.3 L 136.4,86.6 L 135.9,84.9 L 135.5,83.4 L 135.1,81.9 L 134.8,80.4 L 134.4,78.7 L 134.1,76.8 L 133.8,75.0 L 133.6,73.3 L 133.5,71.6 L 133.4,69.9 L 133.4,68.3 L 133.5,66.7 L 133.6,65.2 L 133.8,63.6 L 134.2,62.0 L 134.6,60.4 L 135.2,58.8 L 135.9,57.3 L 136.7,55.9 L 137.5,54.5 L 138.5,53.1 L 139.5,51.8 L 140.5,50.7 L 141.6,49.5 L 142.8,48.5 L 144.0,47.5 L 145.4,46.6 L 146.7,45.7 L 148.2,44.9 L 149.7,44.2 L 151.2,43.5 L 152.8,42.9 L 154.5,42.4 L 156.2,42.0 L 157.9,41.6 L 159.7,41.2 L 161.4,40.9 L 163.3,40.5 L 165.1,40.2 L 167.0,40.0 L 168.9,39.8 L 170.9,39.6 L 172.5,39.5 L 173.9,39.3 L 175.4,39.2 L 177.0,39.0 L 178.5,38.8 L 180.0,38.6 L 181.6,38.4 L 183.1,38.1 L 184.8,37.8 L 186.5,37.5 L 188.1,37.2 L 189.7,36.8 L 191.3,36.4 L 192.9,36.1 L 194.5,35.7 L 196.1,35.3 L 197.7,34.9 L 199.3,34.5 L 201.0,34.2 L 202.6,33.8 L 204.3,33.4 L 205.9,33.0 L 207.6,32.6 L 209.3,32.2 L 211.0,31.8 L 212.7,31.5 L 214.5,31.1 L 216.2,30.7 L 217.9,30.4 L 219.7,30.1 L 221.4,29.7 L 223.2,29.4 L 225.0,29.0 L 226.8,28.7 L 228.6,28.3 L 230.4,28.0 L 232.1,27.6 L 233.9,27.3 L 235.5,27.0 L 237.1,26.7 L 238.7,26.4 L 240.1,26.1 L 242.0,25.7 L 243.8,25.4 L 245.4,25.1 L 247.0,24.8 L 248.7,24.5 L 250.4,24.3 L 252.0,24.1 L 253.7,24.0 L 255.5,24.0 L 257.1,24.2 L 258.7,24.6 L 260.1,25.2 L 261.5,26.1 L 262.7,27.2 L 263.6,28.4 L 264.3,29.7 L 264.9,31.1 L 265.5,32.6 L 265.9,34.2 L 266.2,35.8 L 266.4,37.5 L 266.5,39.1 L 266.6,40.8 L 266.6,42.5 L 266.5,44.1 L 266.3,45.8 L 266.0,47.4 L 265.7,48.9 L 265.3,50.4 L 264.9,52.0 L 264.4,53.6 L 264.0,55.1 L 263.5,56.8 L 263.0,58.4 L 262.6,60.1 L 262.2,61.9 L 261.8,63.6 L 261.4,65.4 L 261.0,67.2 L 260.7,69.0 L 260.4,70.9 L 260.2,72.8 L 260.0,74.7 L 259.8,76.6 L 259.7,78.2 L 259.7,79.7 L 259.6,81.2 L 259.7,82.8 L 259.7,84.3 L 259.8,85.8 L 259.9,87.4 L 260.0,89.0 L 260.2,90.5 L 260.3,92.1 L 260.5,93.7 L 260.8,95.3 L 261.0,96.9 L 261.2,98.6 L 261.5,100.2 L 261.7,101.8 L 262.0,103.5 L 262.2,105.1 L 262.6,106.0 Z" fill="none" stroke="rgba(255,255,255,0.15)" stroke-width="5" stroke-linecap="round" stroke-linejoin="round"/><path d="M 262.6,106.0 L 262.9,107.7 L 263.1,109.4 L 263.4,111.1 L 263.7,112.8 L 263.9,114.5 L 264.2,116.2 L 264.5,117.9 L 264.8,119.6 L 265.2,121.4 L 265.5,123.1 L 265.8,124.9 L 266.2,126.6 L 266.6,128.4 L 267.0,130.2 L 267.4,131.9 L 267.8,133.7 L 268.3,135.5 L 268.7,137.3 L 269.2,139.0 L 269.7,140.8 L 270.1,142.5 L 270.6,144.1 L 271.0,145.7 L 271.5,147.2 L 271.9,148.6 L 272.3,150.4 L 272.8,152.2 L 273.2,153.9 L 273.5,155.5 L 273.7,157.2 L 273.9,158.7 L 273.9,160.3 L 273.9,161.8 L 273.8,163.3 L 273.7,164.8 L 273.4,166.3 L 273.0,168.0 L 272.5,169.6 L 271.9,171.1 L 271.2,172.6 L 270.3,174.1 L 269.3,175.6 L 268.2,176.9 L 267.2,178.0 L 266.1,179.1 L 264.9,180.1 L 263.6,181.1 L 262.4,182.1 L 261.1,183.1 L 259.7,184.0 L 258.2,184.9 L 256.7,185.8 L 255.2,186.6 L 253.6,187.4 L 252.0,188.2 L 250.3,189.0 L 248.7,189.8 L 247.0,190.7 L 245.3,191.5 L 243.6,192.5 L 241.9,193.4 L 240.5,194.2 L 239.1,194.9 L 237.8,195.6 L 236.5,196.3 L 235.1,197.0 L 233.7,197.7 L 232.3,198.4 L 230.9,199.2 L 229.5,199.9 L 228.1,200.6 L 226.7,201.4 L 225.2,202.1 L 223.8,202.9 L 222.3,203.6 L 220.8,204.4 L 219.4,205.1 L 217.8,205.9 L 216.3,206.6 L 214.8,207.2 L 213.2,207.9 L 211.6,208.6 L 210.0,209.2 L 208.4,209.7 L 206.7,210.3 L 205.1,210.8 L 203.4,211.3 L 201.7,211.7 L 200.0,212.1 L 198.3,212.5 L 196.5,212.8 L 194.8,213.1 L 193.1,213.4 L 191.4,213.7 L 189.8,214.0 L 188.1,214.2 L 186.6,214.5 L 185.0,214.8 L 183.6,215.1 L 181.8,215.5 L 180.0,215.9 L 178.3,216.5 L 176.6,217.0 L 175.0,217.6 L 173.4,218.3 L 172.0,219.0 L 170.5,219.8 L 169.1,220.7 L 167.8,221.6 L 166.7,222.5 L 165.4,223.6 L 164.3,224.9 L 163.3,226.2 L 162.4,227.6 L 161.7,229.0 L 161.0,230.6 L 160.5,232.1 L 160.1,233.8 L 159.8,235.5 L 159.7,237.2 L 159.7,238.9 L 159.8,240.4 L 160.0,241.9 L 160.2,243.5 L 160.5,245.1 L 160.9,246.7 L 161.4,248.4 L 161.9,250.0 L 162.5,251.6 L 163.2,253.2 L 163.9,254.8 L 164.7,256.4 L 165.6,258.0 L 166.5,259.6 L 167.4,261.3 L 168.4,262.9 L 169.4,264.5 L 170.4,266.2 L 171.2,267.6 L 172.0,268.9 L 172.8,270.2 L 173.5,271.5 L 174.3,272.8 L 175.1,274.2 L 175.8,275.5 L 176.6,276.9 L 177.4,278.3 L 178.2,279.6 L 178.9,281.0 L 179.7,282.5 L 180.5,283.9 L 181.3,285.3 L 182.1,286.8 L 182.9,288.2 L 183.7,289.7 L 184.5,291.2 L 185.2,292.7 L 186.0,294.2 L 186.8,295.7 L 187.6,297.2 L 188.4,298.7 L 189.2,300.2 L 190.0,301.8 L 190.8,303.3 L 191.6,304.9 L 192.4,306.5 L 193.2,308.1 L 194.0,309.7 L 194.8,311.3 L 195.6,312.9 L 196.4,314.5 L 197.2,316.2 L 198.0,317.8 L 198.8,319.4 L 199.6,321.1 L 200.4,322.8 L 201.2,324.4 L 202.0,326.1 L 202.9,327.8 L 203.7,329.5 L 204.5,331.2 L 205.4,332.9 L 206.2,334.6 L 207.1,336.2 L 207.9,337.8 L 208.8,339.4 L 209.7,340.9 L 210.6,342.4 L 211.5,343.8 L 212.4,345.1 L 213.4,346.4 L 214.4,347.7 L 215.4,348.9 L 216.4,350.0 L 217.5,351.2 L 218.7,352.2 L 219.8,353.2 L 221.0,354.2 L 222.2,355.1 L 223.5,355.9 L 224.8,356.7 L 226.1,357.4 L 227.4,358.1 L 228.8,358.7 L 230.2,359.3 L 231.6,359.8 L 233.0,360.3 L 234.4,360.7 L 235.9,361.1 L 237.3,361.5 L 238.8,361.7 L 240.3,362.0 L 241.9,362.2 L 243.4,362.3 L 244.9,362.4 L 246.5,362.4 L 248.0,362.4 L 249.6,362.4 L 251.1,362.2 L 252.7,362.1 L 254.3,361.8 L 255.9,361.6 L 257.4,361.3 L 259.0,360.9 L 260.5,360.6 L 262.0,360.2 L 263.7,359.7 L 265.5,359.2 L 267.2,358.8 L 268.9,358.4 L 270.5,358.1 L 272.0,357.8 L 273.7,357.5 L 275.4,357.4 L 277.1,357.3 L 278.7,357.4 L 280.3,357.6 L 281.9,358.0 L 283.4,358.6 L 284.8,359.4 L 286.0,360.3 L 287.0,361.6 L 287.7,363.1 L 288.1,364.6 L 288.1,366.1 L 287.7,367.6 L 287.1,369.1 L 286.1,370.4 L 285.0,371.5 L 283.7,372.4 L 282.3,373.2 L 280.8,373.8 L 279.2,374.4 L 277.7,374.9 L 276.1,375.3 L 274.4,375.6 L 272.8,375.8 L 271.2,375.9 L 269.5,376.0 L 267.9,376.0 L 266.3,376.0 L 264.8,376.0 L 263.1,375.9 L 261.5,375.9 L 259.8,375.8 L 258.1,375.7 L 256.3,375.6 L 254.5,375.5 L 252.7,375.3 L 250.9,375.1 L 249.0,374.9 L 247.2,374.7 L 245.3,374.4 L 243.4,374.1 L 241.5,373.7 L 240.0,373.4 L 238.6,373.0 L 237.1,372.5 L 235.7,372.1 L 234.2,371.5 L 232.8,371.0 L 231.4,370.4 L 230.0,369.7 L 228.6,369.0 L 227.2,368.2 L 225.9,367.4 L 224.5,366.5 L 223.2,365.6 L 222.0,364.6 L 220.7,363.6 L 219.5,362.6 L 218.3,361.6 L 216.8,360.4 L 215.4,359.4 L 214.0,358.3 L 212.7,357.4 L 211.4,356.5 L 210.0,355.6 L 208.6,354.7 L 207.2,353.9 L 205.7,353.3 L 204.3,352.7 L 202.8,352.0 L 201.4,351.3 L 200.1,350.4 L 198.9,349.4 L 197.9,348.2 L 197.0,346.8 L 196.3,345.4 L 195.6,343.8 L 195.1,342.1 L 194.7,340.5 L 194.3,338.9 L 193.9,337.3 L 193.4,335.6 L 192.9,334.1 L 192.3,332.6 L 191.6,331.1 L 190.9,329.7 L 190.2,328.3 L 189.4,327.0 L 188.6,325.6 L 187.7,324.2 L 186.7,322.9 L 185.8,321.5 L 184.8,320.1 L 183.7,318.7 L 182.6,317.3 L 181.6,315.9 L 180.5,314.4 L 179.4,313.0 L 178.2,311.5 L 177.1,310.0 L 176.0,308.5 L 174.8,306.9 L 173.6,305.4 L 172.7,304.2 L 171.8,303.0 L 170.9,301.8 L 170.0,300.5 L 169.1,299.3 L 168.2,298.1 L 167.2,296.8 L 166.3,295.5 L 165.3,294.3 L 164.4,293.0 L 163.4,291.7 L 162.5,290.4 L 161.5,289.0 L 160.5,287.7 L 159.5,286.4 L 158.6,285.0 L 157.6,283.6 L 156.6,282.3 L 155.6,280.9 L 154.6,279.5 L 153.6,278.1 L 152.6,276.6 L 151.6,275.2 L 150.6,273.8 L 149.6,272.3 L 148.6,270.9 L 147.5,269.4 L 146.5,268.0 L 145.4,266.5 L 144.4,265.1 L 143.5,263.8 L 142.5,262.4 L 141.6,261.2 L 140.7,259.9 L 139.6,258.3 L 138.6,256.9 L 137.7,255.5 L 136.7,254.2 L 135.8,252.9 L 134.9,251.6 L 134.0,250.2 L 133.2,248.8 L 132.5,247.3 L 131.9,245.7 L 131.5,244.2 L 131.3,242.7 L 131.3,241.2 L 131.5,239.7 L 131.9,238.2 L 132.3,236.7 L 132.5,235.0 L 132.5,233.4 L 132.2,231.8 L 131.6,230.3 L 130.8,228.9 L 129.8,227.7 L 128.7,226.6 L 127.4,225.5 L 126.0,224.5 L 124.5,223.6 L 123.1,222.8 L 121.7,222.0 L 120.3,221.2 L 119.0,220.2 L 117.8,219.2 L 116.6,218.1 L 115.5,216.7 L 114.5,215.2 L 113.6,213.6 L 113.0,212.0 L 112.5,210.5 L 112.2,209.0 L 112.0,207.4 L 111.9,205.8 L 112.0,204.2 L 112.2,202.6 L 112.6,200.9 L 113.0,199.3 L 113.5,197.7 L 114.0,196.1 L 114.6,194.7 L 115.2,193.2 L 115.8,191.8 L 116.5,190.3 L 117.2,188.8 L 118.0,187.3 L 118.7,185.8 L 119.5,184.2 L 120.3,182.7 L 121.1,181.0 L 122.0,179.4 L 122.8,177.8 L 123.6,176.1 L 124.5,174.4 L 125.3,172.7 L 126.1,170.9 L 126.9,169.2 L 127.6,167.7 L 128.2,166.4 L 128.8,165.0 L 129.3,163.6 L 129.9,162.2 L 130.4,160.8 L 131.0,159.2 L 131.5,157.7 L 132.0,156.3 L 132.5,154.8 L 133.0,153.3 L 133.4,151.8 L 133.9,150.2 L 134.3,148.7 L 134.7,147.1 L 135.1,145.6 L 135.5,144.0 L 135.9,142.4 L 136.3,140.8 L 136.6,139.2 L 136.9,137.6 L 137.2,135.9 L 137.4,134.3 L 137.7,132.6 L 137.9,130.9 L 138.2,129.2 L 138.4,127.5 L 138.6,125.8 L 138.8,124.1 L 139.0,122.4 L 139.2,120.6 L 139.4,118.9 L 139.5,117.1 L 139.6,115.3 L 139.7,113.5 L 139.7,111.7 L 139.7,109.9 L 139.7,108.1 L 139.6,106.3 L 139.5,104.5 L 139.4,102.7 L 139.2,100.9 L 139.0,99.1 L 138.7,97.2 L 138.4,95.4 L 138.1,93.6 L 137.7,91.8 L 137.3,90.0 L 136.8,88.3 L 136.4,86.6 L 135.9,84.9 L 135.5,83.4 L 135.1,81.9 L 134.8,80.4 L 134.4,78.7 L 134.1,76.8 L 133.8,75.0 L 133.6,73.3 L 133.5,71.6 L 133.4,69.9 L 133.4,68.3 L 133.5,66.7 L 133.6,65.2 L 133.8,63.6 L 134.2,62.0 L 134.6,60.4 L 135.2,58.8 L 135.9,57.3 L 136.7,55.9 L 137.5,54.5 L 138.5,53.1 L 139.5,51.8 L 140.5,50.7 L 141.6,49.5 L 142.8,48.5 L 144.0,47.5 L 145.4,46.6 L 146.7,45.7 L 148.2,44.9 L 149.7,44.2 L 151.2,43.5 L 152.8,42.9 L 154.5,42.4 L 156.2,42.0 L 157.9,41.6 L 159.7,41.2 L 161.4,40.9 L 163.3,40.5 L 165.1,40.2 L 167.0,40.0 L 168.9,39.8 L 170.9,39.6 L 172.5,39.5 L 173.9,39.3 L 175.4,39.2 L 177.0,39.0 L 178.5,38.8 L 180.0,38.6 L 181.6,38.4 L 183.1,38.1 L 184.8,37.8 L 186.5,37.5 L 188.1,37.2 L 189.7,36.8 L 191.3,36.4 L 192.9,36.1 L 194.5,35.7 L 196.1,35.3 L 197.7,34.9 L 199.3,34.5 L 201.0,34.2 L 202.6,33.8 L 204.3,33.4 L 205.9,33.0 L 207.6,32.6 L 209.3,32.2 L 211.0,31.8 L 212.7,31.5 L 214.5,31.1 L 216.2,30.7 L 217.9,30.4 L 219.7,30.1 L 221.4,29.7 L 223.2,29.4 L 225.0,29.0 L 226.8,28.7 L 228.6,28.3 L 230.4,28.0 L 232.1,27.6 L 233.9,27.3 L 235.5,27.0 L 237.1,26.7 L 238.7,26.4 L 240.1,26.1 L 242.0,25.7 L 243.8,25.4 L 245.4,25.1 L 247.0,24.8 L 248.7,24.5 L 250.4,24.3 L 252.0,24.1 L 253.7,24.0 L 255.5,24.0 L 257.1,24.2 L 258.7,24.6 L 260.1,25.2 L 261.5,26.1 L 262.7,27.2 L 263.6,28.4 L 264.3,29.7 L 264.9,31.1 L 265.5,32.6 L 265.9,34.2 L 266.2,35.8 L 266.4,37.5 L 266.5,39.1 L 266.6,40.8 L 266.6,42.5 L 266.5,44.1 L 266.3,45.8 L 266.0,47.4 L 265.7,48.9 L 265.3,50.4 L 264.9,52.0 L 264.4,53.6 L 264.0,55.1 L 263.5,56.8 L 263.0,58.4 L 262.6,60.1 L 262.2,61.9 L 261.8,63.6 L 261.4,65.4 L 261.0,67.2 L 260.7,69.0 L 260.4,70.9 L 260.2,72.8 L 260.0,74.7 L 259.8,76.6 L 259.7,78.2 L 259.7,79.7 L 259.6,81.2 L 259.7,82.8 L 259.7,84.3 L 259.8,85.8 L 259.9,87.4 L 260.0,89.0 L 260.2,90.5 L 260.3,92.1 L 260.5,93.7 L 260.8,95.3 L 261.0,96.9 L 261.2,98.6 L 261.5,100.2 L 261.7,101.8 L 262.0,103.5 L 262.2,105.1 L 262.6,106.0 Z" fill="none" stroke="#4db8ff" stroke-width="2.5" stroke-linecap="round" stroke-linejoin="round"/></svg>