<svg xmlns="http://www.w3.org/2000/svg" viewBox="0 0 400 400"><path d="M 308.3,151.8 L 308.5,153.2 L 308.7,154.5 L 309.0,155.8 L 309.2,157.1 L 309.4,158.4 L 309.6,159.7 L 309.9,161.0 L 310.1,162.4 L 310.3,163.7 L 310.6,165.0 L 310.8,166.3 L 311.1,167.7 L 311.3,169.0 L 311.5,170.3 L 311.8,171.7 L 312.0,173.0 L 312.3,174.4 L 312.5,175.7 L 312.8,177.1 L 313.1,178.4 L 313.3,179.8 L 313.6,181.2 L 313.8,182.5 L 314.1,183.9 L 314.4,185.3 L 314.6,186.7 L 314.9,188.0 L 315.2,189.4 L 315.5,190.8 L 315.8,192.2 L 316.1,193.6 L 316.4,195.0 L 316.7,196.4 L 317.1,197.8 L 317.4,199.2 L 317.8,200.5 L 318.1,201.9 L 318.5,203.3 L 318.8,204.7 L 319.2,206.1 L 319.6,207.5 L 319.9,208.8 L 320.3,210.1 L 320.7,211.4 L 321.0,212.7 L 321.4,213.9 L 321.7,215.2 L 322.1,216.4 L 322.4,217.6 L 322.7,218.7 L 323.1,219.9 L 323.4,221.0 L 323.8,222.5 L 324.1,223.9 L 324.5,225.3 L 324.8,226.7 L 325.0,228.0 L 325.3,229.3 L 325.5,230.6 L 325.7,231.9 L 325.9,233.2 L 326.0,234.4 L 326.1,235.6 L 326.2,236.8 L 326.2,238.0 L 326.3,239.3 L 326.2,240.6 L 326.2,241.9 L 326.1,243.1 L 325.9,244.4 L 325.7,245.6 L 325.5,247.0 L 325.1,248.3 L 324.7,249.6 L 324.3,250.9 L 323.8,252.1 L 323.2,253.4 L 322.6,254.6 L 322.0,255.8 L 321.3,256.8 L 320.6,257.9 L 319.9,258.9 L 319.1,259.9 L 318.3,260.9 L 317.4,261.9 L 316.5,262.8 L 315.6,263.7 L 314.7,264.5 L 313.8,265.3 L 312.9,266.1 L 312.0,266.9 L 311.0,267.7 L 310.1,268.4 L 309.1,269.2 L 308.0,270.0 L 307.0,270.7 L 305.9,271.4 L 304.9,272.2 L 303.8,272.9 L 302.6,273.6 L 301.5,274.3 L 300.3,274.9 L 299.2,275.6 L 297.9,276.3 L 296.8,276.9 L 295.5,277.6 L 294.3,278.2 L 293.1,278.9 L 291.8,279.5 L 290.5,280.2 L 289.3,280.8 L 288.0,281.5 L 286.6,282.2 L 285.4,282.8 L 284.0,283.5 L 282.7,284.2 L 281.4,284.9 L 280.1,285.6 L 278.7,286.3 L 277.4,287.0 L 276.2,287.7 L 275.2,288.2 L 274.1,288.8 L 273.1,289.3 L 272.1,289.9 L 271.0,290.4 L 270.0,291.0 L 268.9,291.5 L 267.9,292.1 L 266.8,292.7 L 265.8,293.2 L 264.7,293.8 L 263.6,294.3 L 262.5,294.9 L 261.4,295.5 L 260.4,296.0 L 259.3,296.6 L 258.2,297.2 L 257.1,297.8 L 256.0,298.3 L 254.8,298.9 L 253.7,299.5 L 252.6,300.1 L 251.5,300.7 L 250.4,301.3 L 249.2,301.8 L 248.1,302.4 L 246.9,303.0 L 245.8,303.6 L 244.6,304.2 L 243.5,304.8 L 242.3,305.4 L 241.2,305.9 L 240.0,306.5 L 238.8,307.1 L 237.6,307.6 L 236.4,308.2 L 235.2,308.7 L 234.0,309.2 L 232.8,309.8 L 231.5,310.3 L 230.3,310.8 L 229.1,311.3 L 227.8,311.8 L 226.6,312.2 L 225.3,312.7 L 224.0,313.2 L 222.7,313.6 L 221.5,314.0 L 220.2,314.5 L 218.9,314.9 L 217.6,315.3 L 216.2,315.7 L 214.9,316.0 L 213.6,316.4 L 212.3,316.7 L 211.0,317.1 L 209.6,317.4 L 208.3,317.7 L 206.9,318.0 L 205.6,318.2 L 204.2,318.5 L 202.9,318.8 L 201.5,319.0 L 200.1,319.2 L 198.8,319.4 L 197.4,319.6 L 196.1,319.8 L 194.8,320.0 L 193.5,320.3 L 192.2,320.5 L 190.9,320.7 L 189.7,320.9 L 188.4,321.1 L 187.2,321.3 L 186.0,321.6 L 184.8,321.8 L 183.6,322.1 L 182.4,322.4 L 181.3,322.7 L 180.1,323.1 L 179.0,323.4 L 177.8,323.8 L 176.7,324.1 L 175.6,324.5 L 174.5,324.9 L 173.4,325.3 L 172.3,325.8 L 171.3,326.2 L 170.2,326.7 L 169.1,327.2 L 167.8,327.8 L 166.4,328.5 L 165.1,329.2 L 163.8,330.0 L 162.5,330.7 L 161.2,331.5 L 160.0,332.3 L 158.8,333.2 L 157.5,334.1 L 156.4,335.0 L 155.2,336.0 L 154.1,337.1 L 153.1,338.1 L 152.0,339.2 L 151.0,340.4 L 150.0,341.6 L 149.0,342.7 L 148.1,344.0 L 147.2,345.2 L 146.3,346.4 L 145.6,347.4 L 145.0,348.3 L 144.3,349.4 L 143.5,350.7 L 142.7,352.0 L 142.0,353.3 L 141.4,354.5 L 140.7,355.7 L 140.1,356.9 L 139.5,358.1 L 139.0,359.2 L 138.5,360.2 L 137.9,361.4 L 137.3,362.5 L 136.7,363.7 L 136.1,364.8 L 135.5,365.8 L 134.9,366.9 L 134.2,368.0 L 133.4,369.0 L 132.7,370.0 L 132.0,370.9 L 131.1,371.8 L 130.2,372.7 L 129.2,373.5 L 128.3,374.1 L 127.1,374.8 L 125.9,375.3 L 124.8,375.6 L 123.5,375.9 L 122.3,376.0 L 121.1,376.0 L 119.9,375.9 L 118.7,375.7 L 117.5,375.5 L 116.3,375.1 L 115.1,374.7 L 113.9,374.2 L 112.9,373.7 L 111.8,373.1 L 110.7,372.5 L 109.5,371.8 L 108.5,371.1 L 107.4,370.3 L 106.2,369.5 L 105.3,368.7 L 104.3,368.0 L 103.3,367.1 L 102.3,366.3 L 101.4,365.4 L 100.4,364.4 L 99.4,363.5 L 98.5,362.5 L 97.7,361.5 L 96.8,360.6 L 96.0,359.6 L 95.2,358.5 L 94.5,357.6 L 93.7,356.6 L 93.0,355.7 L 92.3,354.7 L 91.5,353.6 L 90.8,352.7 L 90.1,351.6 L 89.3,350.6 L 88.6,349.5 L 87.8,348.5 L 87.0,347.4 L 86.3,346.3 L 85.5,345.2 L 84.7,344.1 L 84.0,343.1 L 83.2,341.9 L 82.5,340.7 L 81.8,339.6 L 81.1,338.4 L 80.5,337.2 L 79.9,336.1 L 79.3,334.9 L 78.7,333.6 L 78.2,332.5 L 77.7,331.2 L 77.2,330.0 L 76.8,328.8 L 76.4,327.5 L 76.0,326.2 L 75.7,325.0 L 75.4,323.7 L 75.1,322.4 L 74.8,321.1 L 74.6,319.8 L 74.3,318.5 L 74.2,317.2 L 74.0,315.9 L 73.9,314.6 L 73.8,313.2 L 73.8,311.9 L 73.7,310.5 L 73.8,309.2 L 73.8,307.8 L 73.9,306.4 L 74.1,305.1 L 74.2,303.7 L 74.5,302.3 L 74.7,301.0 L 75.0,299.6 L 75.3,298.2 L 75.6,296.9 L 76.0,295.5 L 76.4,294.1 L 76.9,292.7 L 77.4,291.4 L 77.9,290.0 L 78.4,288.6 L 79.0,287.3 L 79.6,285.9 L 80.1,284.5 L 80.7,283.1 L 81.3,281.7 L 81.9,280.3 L 82.5,279.1 L 83.0,278.0 L 83.5,277.0 L 84.0,275.9 L 84.5,274.9 L 85.0,273.8 L 85.5,272.7 L 86.0,271.7 L 86.5,270.6 L 87.0,269.5 L 87.6,268.5 L 88.1,267.4 L 88.7,266.3 L 89.2,265.2 L 89.8,264.2 L 90.3,263.1 L 90.9,262.0 L 91.4,260.9 L 92.0,259.8 L 92.6,258.7 L 93.1,257.6 L 93.7,256.5 L 94.3,255.4 L 94.8,254.2 L 95.4,253.1 L 95.9,252.0 L 96.5,250.9 L 97.0,249.7 L 97.6,248.6 L 98.1,247.4 L 98.6,246.3 L 99.2,245.1 L 99.7,243.9 L 100.1,242.7 L 100.6,241.6 L 101.1,240.4 L 101.5,239.2 L 102.0,238.0 L 102.4,236.8 L 102.8,235.5 L 103.3,234.3 L 103.7,233.1 L 104.1,231.9 L 104.5,230.6 L 104.9,229.4 L 105.3,228.1 L 105.6,226.9 L 106.0,225.6 L 106.3,224.4 L 106.7,223.1 L 107.1,221.8 L 107.4,220.5 L 107.8,219.3 L 108.1,218.0 L 108.4,216.7 L 108.7,215.4 L 109.0,214.1 L 109.4,212.8 L 109.7,211.5 L 110.0,210.2 L 110.3,208.9 L 110.6,207.5 L 110.9,206.2 L 111.2,204.9 L 111.5,203.5 L 111.7,202.2 L 112.0,200.8 L 112.2,199.5 L 112.5,198.1 L 112.7,196.8 L 112.9,195.4 L 113.2,194.0 L 113.4,192.7 L 113.6,191.3 L 113.8,189.9 L 114.0,188.5 L 114.2,187.1 L 114.4,185.7 L 114.6,184.3 L 114.7,182.9 L 114.9,181.5 L 115.1,180.1 L 115.3,178.7 L 115.4,177.3 L 115.6,175.9 L 115.7,174.4 L 115.9,173.0 L 116.0,171.6 L 116.1,170.1 L 116.3,168.7 L 116.4,167.3 L 116.4,165.8 L 116.5,164.4 L 116.6,162.9 L 116.6,161.5 L 116.6,160.0 L 116.6,158.5 L 116.6,157.1 L 116.5,155.6 L 116.5,154.1 L 116.4,152.7 L 116.3,151.2 L 116.2,149.7 L 116.1,148.3 L 116.0,146.8 L 115.9,145.4 L 115.7,143.9 L 115.6,142.4 L 115.4,141.0 L 115.2,139.5 L 115.0,138.0 L 114.7,136.6 L 114.5,135.1 L 114.2,133.6 L 114.0,132.2 L 113.7,130.7 L 113.4,129.3 L 113.0,127.8 L 112.7,126.4 L 112.4,125.0 L 112.0,123.6 L 111.7,122.2 L 111.3,120.9 L 111.0,119.6 L 110.7,118.3 L 110.3,117.0 L 110.0,115.8 L 109.7,114.6 L 109.4,113.4 L 109.1,112.2 L 108.9,111.0 L 108.7,109.9 L 108.4,108.7 L 108.2,107.3 L 107.9,105.8 L 107.7,104.3 L 107.5,102.9 L 107.3,101.5 L 107.2,100.1 L 107.1,98.8 L 107.0,97.4 L 107.0,96.0 L 107.0,94.8 L 107.0,93.4 L 107.0,92.1 L 107.1,90.8 L 107.2,89.5 L 107.3,88.3 L 107.5,87.0 L 107.7,85.8 L 107.9,84.6 L 108.2,83.4 L 108.5,82.2 L 108.8,81.1 L 109.2,79.8 L 109.7,78.6 L 110.2,77.4 L 110.7,76.2 L 111.2,75.0 L 111.9,73.9 L 112.5,72.7 L 113.2,71.6 L 113.9,70.5 L 114.7,69.4 L 115.5,68.4 L 116.2,67.5 L 116.9,66.5 L 117.7,65.6 L 118.5,64.8 L 119.4,63.9 L 120.3,63.1 L 121.2,62.3 L 122.1,61.5 L 123.1,60.7 L 124.1,60.0 L 125.1,59.3 L 126.2,58.6 L 127.2,58.0 L 128.4,57.3 L 129.5,56.7 L 130.6,56.1 L 131.8,55.6 L 133.1,55.0 L 134.3,54.5 L 135.5,54.1 L 136.8,53.6 L 138.1,53.3 L 139.4,52.9 L 140.7,52.5 L 142.0,52.2 L 143.4,51.9 L 144.7,51.5 L 146.1,51.3 L 147.5,51.0 L 148.9,50.7 L 150.3,50.4 L 151.7,50.1 L 153.1,49.9 L 154.5,49.6 L 156.0,49.4 L 157.5,49.2 L 158.9,48.9 L 160.5,48.8 L 162.0,48.6 L 163.4,48.4 L 164.8,48.3 L 166.0,48.2 L 167.1,48.1 L 168.3,48.0 L 169.5,47.9 L 170.6,47.7 L 171.8,47.6 L 173.0,47.5 L 174.2,47.4 L 175.4,47.2 L 176.5,47.1 L 177.7,46.9 L 178.9,46.8 L 180.2,46.6 L 181.4,46.4 L 182.6,46.3 L 183.8,46.1 L 185.0,45.9 L 186.2,45.7 L 187.5,45.5 L 188.7,45.2 L 189.9,45.0 L 191.2,44.8 L 192.4,44.5 L 193.6,44.2 L 194.9,44.0 L 196.1,43.7 L 197.3,43.4 L 198.6,43.1 L 199.8,42.8 L 201.1,42.5 L 202.3,42.2 L 203.6,41.9 L 204.8,41.6 L 206.1,41.3 L 207.4,41.0 L 208.6,40.7 L 209.9,40.3 L 211.2,40.0 L 212.5,39.7 L 213.7,39.4 L 215.0,39.1 L 216.3,38.8 L 217.6,38.5 L 218.9,38.1 L 220.2,37.8 L 221.5,37.5 L 222.8,37.2 L 224.2,36.9 L 225.5,36.6 L 226.8,36.3 L 228.1,36.1 L 229.5,35.8 L 230.8,35.5 L 232.1,35.2 L 233.5,34.9 L 234.8,34.6 L 236.2,34.3 L 237.6,34.1 L 238.9,33.8 L 240.3,33.5 L 241.6,33.2 L 243.0,33.0 L 244.4,32.7 L 245.8,32.4 L 247.2,32.2 L 248.5,31.9 L 249.9,31.6 L 251.3,31.4 L 252.7,31.1 L 254.1,30.8 L 255.5,30.5 L 256.9,30.3 L 258.3,30.0 L 259.7,29.8 L 261.0,29.5 L 262.3,29.3 L 263.6,29.0 L 264.9,28.8 L 266.1,28.5 L 267.4,28.3 L 268.6,28.1 L 269.8,27.8 L 270.9,27.6 L 272.1,27.4 L 273.5,27.1 L 274.9,26.9 L 276.3,26.6 L 277.7,26.3 L 279.0,26.1 L 280.2,25.9 L 281.5,25.6 L 282.7,25.4 L 283.9,25.2 L 285.3,25.0 L 286.5,24.8 L 287.8,24.7 L 289.1,24.5 L 290.4,24.3 L 291.6,24.2 L 292.8,24.1 L 294.2,24.0 L 295.6,24.0 L 297.0,24.0 L 298.3,24.2 L 299.6,24.4 L 300.8,24.6 L 302.0,25.0 L 303.2,25.4 L 304.3,25.9 L 305.3,26.5 L 306.3,27.3 L 307.3,28.1 L 308.2,29.1 L 309.1,30.1 L 309.7,31.1 L 310.3,32.1 L 310.8,33.2 L 311.3,34.2 L 311.8,35.3 L 312.2,36.5 L 312.5,37.7 L 312.9,38.9 L 313.2,40.2 L 313.5,41.5 L 313.7,42.6 L 313.9,44.0 L 314.1,45.4 L 314.3,46.7 L 314.4,47.9 L 314.4,49.1 L 314.4,50.4 L 314.4,51.7 L 314.4,53.0 L 314.4,54.3 L 314.3,55.7 L 314.2,56.9 L 314.0,58.2 L 313.8,59.5 L 313.6,60.7 L 313.3,62.0 L 313.1,63.2 L 312.8,64.3 L 312.4,65.5 L 312.1,66.7 L 311.7,67.9 L 311.4,69.1 L 311.1,70.3 L 310.7,71.5 L 310.4,72.8 L 310.0,74.0 L 309.7,75.3 L 309.3,76.6 L 309.0,77.8 L 308.6,79.2 L 308.3,80.5 L 307.9,81.8 L 307.6,83.1 L 307.3,84.5 L 306.9,85.8 L 306.6,87.2 L 306.3,88.5 L 306.0,89.9 L 305.7,91.3 L 305.4,92.7 L 305.2,94.1 L 304.9,95.6 L 304.7,97.0 L 304.5,98.5 L 304.3,100.0 L 304.1,101.5 L 303.9,102.9 L 303.8,104.4 L 303.6,106.0 L 303.5,107.4 L 303.4,108.8 L 303.4,110.0 L 303.4,111.1 L 303.3,112.3 L 303.3,113.5 L 303.4,114.6 L 303.4,115.8 L 303.4,117.0 L 303.5,118.2 L 303.6,119.4 L 303.6,120.6 L 303.7,121.8 L 303.8,123.0 L 303.9,124.2 L 304.0,125.4 L 304.2,126.6 L 304.3,127.9 L 304.5,129.1 L 304.6,130.3 L 304.8,131.5 L 305.0,132.8 L 305.2,134.0 L 305.4,135.3 L 305.6,136.5 L 305.8,137.7 L 306.0,139.0 L 306.2,140.2 L 306.4,141.5 L 306.6,142.8 L 306.8,144.0 L 307.0,145.3 L 307.3,146.6 L 307.5,147.9 L 307.7,149.1 L 307.9,150.4 L 308.1,151.6 L 308.3,151.8 Z" fill="none" stroke="rgba(255,255,255,0.15)" stroke-width="5" stroke-linecap="round" stroke-linejoin="round"/><path d="M 308.3,151.8 L 308.5,153.2 L 308.7,154.5 L 309.0,155.8 L 309.2,157.1 L 309.4,158.4 L 309.6,159.7 L 309.9,161.0 L 310.1,162.4 L 310.3,163.7 L 310.6,165.0 L 310.8,166.3 L 311.1,167.7 L 311.3,169.0 L 311.5,170.3 L 311.8,171.7 L 312.0,173.0 L 312.3,174.4 L 312.5,175.7 L 312.8,177.1 L 313.1,178.4 L 313.3,179.8 L 313.6,181.2 L 313.8,182.5 L 314.1,183.9 L 314.4,185.3 L 314.6,186.7 L 314.9,188.0 L 315.2,189.4 L 315.5,190.8 L 315.8,192.2 L 316.1,193.6 L 316.4,195.0 L 316.7,196.4 L 317.1,197.8 L 317.4,199.2 L 317.8,200.5 L 318.1,201.9 L 318.5,203.3 L 318.8,204.7 L 319.2,206.1 L 319.6,207.5 L 319.9,208.8 L 320.3,210.1 L 320.7,211.4 L 321.0,212.7 L 321.4,213.9 L 321.7,215.2 L 322.1,216.4 L 322.4,217.6 L 322.7,218.7 L 323.1,219.9 L 323.4,221.0 L 323.8,222.5 L 324.1,223.9 L 324.5,225.3 L 324.8,226.7 L 325.0,228.0 L 325.3,229.3 L 325.5,230.6 L 325.7,231.9 L 325.9,233.2 L 326.0,234.4 L 326.1,235.6 L 326.2,236.8 L 326.2,238.0 L 326.3,239.3 L 326.2,240.6 L 326.2,241.9 L 326.1,243.1 L 325.9,244.4 L 325.7,245.6 L 325.5,247.0 L 325.1,248.3 L 324.7,249.6 L 324.3,250.9 L 323.8,252.1 L 323.2,253.4 L 322.6,254.6 L 322.0,255.8 L 321.3,256.8 L 320.6,257.9 L 319.9,258.9 L 319.1,259.9 L 318.3,260.9 L 317.4,261.9 L 316.5,262.8 L 315.6,263.7 L 314.7,264.5 L 313.8,265.3 L 312.9,266.1 L 312.0,266.9 L 311.0,267.7 L 310.1,268.4 L 309.1,269.2 L 308.0,270.0 L 307.0,270.7 L 305.9,271.4 L 304.9,272.2 L 303.8,272.9 L 302.6,273.6 L 301.5,274.3 L 300.3,274.9 L 299.2,275.6 L 297.9,276.3 L 296.8,276.9 L 295.5,277.6 L 294.3,278.2 L 293.1,278.9 L 291.8,279.5 L 290.5,280.2 L 289.3,280.8 L 288.0,281.5 L 286.6,282.2 L 285.4,282.8 L 284.0,283.5 L 282.7,284.2 L 281.4,284.9 L 280.1,285.6 L 278.7,286.3 L 277.4,287.0 L 276.2,287.7 L 275.2,288.2 L 274.1,288.8 L 273.1,289.3 L 272.1,289.9 L 271.0,290.4 L 270.0,291.0 L 268.9,291.5 L 267.9,292.1 L 266.8,292.7 L 265.8,293.2 L 264.7,293.8 L 263.6,294.3 L 262.5,294.9 L 261.4,295.5 L 260.4,296.0 L 259.3,296.6 L 258.2,297.2 L 257.1,297.8 L 256.0,298.3 L 254.8,298.9 L 253.7,299.5 L 252.6,300.1 L 251.5,300.7 L 250.4,301.3 L 249.2,301.8 L 248.1,302.4 L 246.9,303.0 L 245.8,303.6 L 244.6,304.2 L 243.5,304.8 L 242.3,305.4 L 241.2,305.9 L 240.0,306.5 L 238.8,307.1 L 237.6,307.6 L 236.4,308.2 L 235.2,308.7 L 234.0,309.2 L 232.8,309.8 L 231.5,310.3 L 230.3,310.8 L 229.1,311.3 L 227.8,311.8 L 226.6,312.2 L 225.3,312.7 L 224.0,313.2 L 222.7,313.6 L 221.5,314.0 L 220.2,314.5 L 218.9,314.9 L 217.6,315.3 L 216.2,315.7 L 214.9,316.0 L 213.6,316.4 L 212.3,316.7 L 211.0,317.1 L 209.6,317.4 L 208.3,317.7 L 206.9,318.0 L 205.6,318.2 L 204.2,318.5 L 202.9,318.8 L 201.5,319.0 L 200.1,319.2 L 198.8,319.4 L 197.4,319.6 L 196.1,319.8 L 194.8,320.0 L 193.5,320.3 L 192.2,320.5 L 190.9,320.7 L 189.7,320.9 L 188.4,321.1 L 187.2,321.3 L 186.0,321.6 L 184.8,321.8 L 183.6,322.1 L 182.4,322.4 L 181.3,322.7 L 180.1,323.1 L 179.0,323.4 L 177.8,323.8 L 176.7,324.1 L 175.6,324.5 L 174.5,324.9 L 173.4,325.3 L 172.3,325.8 L 171.3,326.2 L 170.2,326.7 L 169.1,327.2 L 167.8,327.8 L 166.4,328.5 L 165.1,329.2 L 163.8,330.0 L 162.5,330.7 L 161.2,331.5 L 160.0,332.3 L 158.8,333.2 L 157.5,334.1 L 156.4,335.0 L 155.2,336.0 L 154.1,337.1 L 153.1,338.1 L 152.0,339.2 L 151.0,340.4 L 150.0,341.6 L 149.0,342.7 L 148.1,344.0 L 147.2,345.2 L 146.3,346.4 L 145.6,347.4 L 145.0,348.3 L 144.3,349.4 L 143.5,350.7 L 142.7,352.0 L 142.0,353.3 L 141.4,354.5 L 140.7,355.7 L 140.1,356.9 L 139.5,358.1 L 139.0,359.2 L 138.5,360.2 L 137.9,361.4 L 137.3,362.5 L 136.7,363.7 L 136.1,364.8 L 135.5,365.8 L 134.9,366.9 L 134.2,368.0 L 133.4,369.0 L 132.7,370.0 L 132.0,370.9 L 131.1,371.8 L 130.2,372.7 L 129.2,373.5 L 128.3,374.1 L 127.1,374.8 L 125.9,375.3 L 124.8,375.6 L 123.5,375.9 L 122.3,376.0 L 121.1,376.0 L 119.9,375.9 L 118.7,375.7 L 117.5,375.5 L 116.3,375.1 L 115.1,374.7 L 113.9,374.2 L 112.9,373.7 L 111.8,373.1 L 110.7,372.5 L 109.5,371.8 L 108.5,371.1 L 107.4,370.3 L 106.2,369.5 L 105.3,368.7 L 104.3,368.0 L 103.3,367.1 L 102.3,366.3 L 101.4,365.4 L 100.4,364.4 L 99.4,363.5 L 98.5,362.5 L 97.7,361.5 L 96.8,360.6 L 96.0,359.6 L 95.2,358.5 L 94.5,357.6 L 93.7,356.6 L 93.0,355.7 L 92.3,354.7 L 91.5,353.6 L 90.8,352.7 L 90.1,351.6 L 89.3,350.6 L 88.6,349.5 L 87.8,348.5 L 87.0,347.4 L 86.3,346.3 L 85.5,345.2 L 84.7,344.1 L 84.0,343.1 L 83.2,341.9 L 82.5,340.7 L 81.8,339.6 L 81.1,338.4 L 80.5,337.2 L 79.9,336.1 L 79.3,334.9 L 78.7,333.6 L 78.2,332.5 L 77.7,331.2 L 77.2,330.0 L 76.8,328.8 L 76.4,327.5 L 76.0,326.2 L 75.7,325.0 L 75.4,323.7 L 75.1,322.4 L 74.8,321.1 L 74.6,319.8 L 74.3,318.5 L 74.2,317.2 L 74.0,315.9 L 73.9,314.6 L 73.8,313.2 L 73.8,311.9 L 73.7,310.5 L 73.8,309.2 L 73.8,307.8 L 73.9,306.4 L 74.1,305.1 L 74.2,303.7 L 74.5,302.3 L 74.7,301.0 L 75.0,299.6 L 75.3,298.2 L 75.6,296.9 L 76.0,295.5 L 76.4,294.1 L 76.9,292.7 L 77.4,291.4 L 77.9,290.0 L 78.4,288.6 L 79.0,287.3 L 79.6,285.9 L 80.1,284.5 L 80.7,283.1 L 81.3,281.7 L 81.9,280.3 L 82.5,279.1 L 83.0,278.0 L 83.5,277.0 L 84.0,275.9 L 84.5,274.9 L 85.0,273.8 L 85.5,272.7 L 86.0,271.7 L 86.5,270.6 L 87.0,269.5 L 87.6,268.5 L 88.1,267.4 L 88.7,266.3 L 89.2,265.2 L 89.8,264.2 L 90.3,263.1 L 90.9,262.0 L 91.4,260.9 L 92.0,259.8 L 92.6,258.7 L 93.1,257.6 L 93.7,256.5 L 94.3,255.4 L 94.8,254.2 L 95.4,253.1 L 95.9,252.0 L 96.5,250.9 L 97.0,249.7 L 97.6,248.6 L 98.1,247.4 L 98.6,246.3 L 99.2,245.1 L 99.7,243.9 L 100.1,242.7 L 100.6,241.6 L 101.1,240.4 L 101.5,239.2 L 102.0,238.0 L 102.4,236.8 L 102.8,235.5 L 103.3,234.3 L 103.7,233.1 L 104.1,231.9 L 104.5,230.6 L 104.9,229.4 L 105.3,228.1 L 105.6,226.9 L 106.0,225.6 L 106.3,224.4 L 106.7,223.1 L 107.1,221.8 L 107.4,220.5 L 107.8,219.3 L 108.1,218.0 L 108.4,216.7 L 108.7,215.4 L 109.0,214.1 L 109.4,212.8 L 109.7,211.5 L 110.0,210.2 L 110.3,208.9 L 110.6,207.5 L 110.9,206.2 L 111.2,204.9 L 111.5,203.5 L 111.7,202.2 L 112.0,200.8 L 112.2,199.5 L 112.5,198.1 L 112.7,196.8 L 112.9,195.4 L 113.2,194.0 L 113.4,192.7 L 113.6,191.3 L 113.8,189.9 L 114.0,188.5 L 114.2,187.1 L 114.4,185.7 L 114.6,184.3 L 114.7,182.9 L 114.9,181.5 L 115.1,180.1 L 115.3,178.7 L 115.4,177.3 L 115.6,175.9 L 115.7,174.4 L 115.9,173.0 L 116.0,171.6 L 116.1,170.1 L 116.3,168.7 L 116.4,167.3 L 116.4,165.8 L 116.5,164.4 L 116.6,162.9 L 116.6,161.5 L 116.6,160.0 L 116.6,158.5 L 116.6,157.1 L 116.5,155.6 L 116.5,154.1 L 116.4,152.7 L 116.3,151.2 L 116.2,149.7 L 116.1,148.3 L 116.0,146.8 L 115.9,145.4 L 115.7,143.9 L 115.6,142.4 L 115.4,141.0 L 115.2,139.5 L 115.0,138.0 L 114.7,136.6 L 114.5,135.1 L 114.2,133.6 L 114.0,132.2 L 113.7,130.7 L 113.4,129.3 L 113.0,127.8 L 112.7,126.4 L 112.4,125.0 L 112.0,123.6 L 111.7,122.2 L 111.3,120.9 L 111.0,119.6 L 110.7,118.3 L 110.3,117.0 L 110.0,115.8 L 109.7,114.6 L 109.4,113.4 L 109.1,112.2 L 108.9,111.0 L 108.7,109.9 L 108.4,108.7 L 108.2,107.3 L 107.9,105.8 L 107.7,104.3 L 107.5,102.9 L 107.3,101.5 L 107.2,100.1 L 107.1,98.8 L 107.0,97.4 L 107.0,96.0 L 107.0,94.8 L 107.0,93.4 L 107.0,92.1 L 107.1,90.8 L 107.2,89.5 L 107.3,88.3 L 107.5,87.0 L 107.7,85.8 L 107.9,84.6 L 108.2,83.4 L 108.5,82.2 L 108.8,81.1 L 109.2,79.8 L 109.7,78.6 L 110.2,77.4 L 110.7,76.2 L 111.2,75.0 L 111.9,73.9 L 112.5,72.7 L 113.2,71.6 L 113.9,70.5 L 114.7,69.4 L 115.5,68.4 L 116.2,67.5 L 116.9,66.5 L 117.7,65.6 L 118.5,64.8 L 119.4,63.9 L 120.3,63.1 L 121.2,62.3 L 122.1,61.5 L 123.1,60.7 L 124.1,60.0 L 125.1,59.3 L 126.2,58.6 L 127.2,58.0 L 128.4,57.3 L 129.5,56.7 L 130.6,56.1 L 131.8,55.6 L 133.1,55.0 L 134.3,54.5 L 135.5,54.1 L 136.8,53.6 L 138.1,53.3 L 139.4,52.9 L 140.7,52.5 L 142.0,52.2 L 143.4,51.9 L 144.7,51.5 L 146.1,51.3 L 147.5,51.0 L 148.9,50.7 L 150.3,50.4 L 151.7,50.1 L 153.1,49.9 L 154.5,49.6 L 156.0,49.4 L 157.5,49.2 L 158.9,48.9 L 160.5,48.8 L 162.0,48.6 L 163.4,48.4 L 164.8,48.3 L 166.0,48.2 L 167.1,48.1 L 168.3,48.0 L 169.5,47.9 L 170.6,47.7 L 171.8,47.6 L 173.0,47.5 L 174.2,47.4 L 175.4,47.2 L 176.5,47.1 L 177.7,46.9 L 178.9,46.8 L 180.2,46.6 L 181.4,46.4 L 182.6,46.3 L 183.8,46.1 L 185.0,45.9 L 186.2,45.7 L 187.5,45.5 L 188.7,45.2 L 189.9,45.0 L 191.2,44.8 L 192.4,44.5 L 193.6,44.2 L 194.9,44.0 L 196.1,43.7 L 197.3,43.4 L 198.6,43.1 L 199.8,42.8 L 201.1,42.5 L 202.3,42.2 L 203.6,41.9 L 204.8,41.6 L 206.1,41.3 L 207.4,41.0 L 208.6,40.7 L 209.9,40.3 L 211.2,40.0 L 212.5,39.7 L 213.7,39.4 L 215.0,39.1 L 216.3,38.8 L 217.6,38.5 L 218.9,38.1 L 220.2,37.8 L 221.5,37.5 L 222.8,37.2 L 224.2,36.9 L 225.5,36.6 L 226.8,36.3 L 228.1,36.1 L 229.5,35.8 L 230.8,35.5 L 232.1,35.2 L 233.5,34.9 L 234.8,34.6 L 236.2,34.3 L 237.6,34.1 L 238.9,33.8 L 240.3,33.5 L 241.6,33.2 L 243.0,33.0 L 244.4,32.7 L 245.8,32.4 L 247.2,32.2 L 248.5,31.9 L 249.9,31.6 L 251.3,31.4 L 252.7,31.1 L 254.1,30.8 L 255.5,30.5 L 256.9,30.3 L 258.3,30.0 L 259.7,29.8 L 261.0,29.5 L 262.3,29.3 L 263.6,29.0 L 264.9,28.8 L 266.1,28.5 L 267.4,28.3 L 268.6,28.1 L 269.8,27.8 L 270.9,27.6 L 272.1,27.4 L 273.5,27.1 L 274.9,26.9 L 276.3,26.6 L 277.7,26.3 L 279.0,26.1 L 280.2,25.9 L 281.5,25.6 L 282.7,25.4 L 283.9,25.2 L 285.3,25.0 L 286.5,24.8 L 287.8,24.7 L 289.1,24.5 L 290.4,24.3 L 291.6,24.2 L 292.8,24.1 L 294.2,24.0 L 295.6,24.0 L 297.0,24.0 L 298.3,24.2 L 299.6,24.4 L 300.8,24.6 L 302.0,25.0 L 303.2,25.4 L 304.3,25.9 L 305.3,26.5 L 306.3,27.3 L 307.3,28.1 L 308.2,29.1 L 309.1,30.1 L 309.7,31.1 L 310.3,32.1 L 310.8,33.2 L 311.3,34.2 L 311.8,35.3 L 312.2,36.5 L 312.5,37.7 L 312.9,38.9 L 313.2,40.2 L 313.5,41.5 L 313.7,42.6 L 313.9,44.0 L 314.1,45.4 L 314.3,46.7 L 314.4,47.9 L 314.4,49.1 L 314.4,50.4 L 314.4,51.7 L 314.4,53.0 L 314.4,54.3 L 314.3,55.7 L 314.2,56.9 L 314.0,58.2 L 313.8,59.5 L 313.6,60.7 L 313.3,62.0 L 313.1,63.2 L 312.8,64.3 L 312.4,65.5 L 312.1,66.7 L 311.7,67.9 L 311.4,69.1 L 311.1,70.3 L 310.7,71.5 L 310.4,72.8 L 310.0,74.0 L 309.7,75.3 L 309.3,76.6 L 309.0,77.8 L 308.6,79.2 L 308.3,80.5 L 307.9,81.8 L 307.6,83.1 L 307.3,84.5 L 306.9,85.8 L 306.6,87.2 L 306.3,88.5 L 306.0,89.9 L 305.7,91.3 L 305.4,92.7 L 305.2,94.1 L 304.9,95.6 L 304.7,97.0 L 304.5,98.5 L 304.3,100.0 L 304.1,101.5 L 303.9,102.9 L 303.8,104.4 L 303.6,106.0 L 303.5,107.4 L 303.4,108.8 L 303.4,110.0 L 303.4,111.1 L 303.3,112.3 L 303.3,113.5 L 303.4,114.6 L 303.4,115.8 L 303.4,117.0 L 303.5,118.2 L 303.6,119.4 L 303.6,120.6 L 303.7,121.8 L 303.8,123.0 L 303.9,124.2 L 304.0,125.4 L 304.2,126.6 L 304.3,127.9 L 304.5,129.1 L 304.6,130.3 L 304.8,131.5 L 305.0,132.8 L 305.2,134.0 L 305.4,135.3 L 305.6,136.5 L 305.8,137.7 L 306.0,139.0 L 306.2,140.2 L 306.4,141.5 L 306.6,142.8 L 306.8,144.0 L 307.0,145.3 L 307.3,146.6 L 307.5,147.9 L 307.7,149.1 L 307.9,150.4 L 308.1,151.6 L 308.3,151.8 Z" fill="none" stroke="#4db8ff" stroke-width="2.5" stroke-linecap="round" stroke-linejoin="round"/></svg>