<svg xmlns="http://www.w3.org/2000/svg" viewBox="0 0 400 400"><path d="M 134.4,193.7 L 133.2,192.9 L 132.1,192.1 L 130.9,191.3 L 129.8,190.4 L 128.6,189.6 L 127.4,188.8 L 126.3,188.0 L 125.1,187.1 L 123.9,186.3 L 122.7,185.4 L 121.5,184.6 L 120.3,183.8 L 119.1,182.9 L 117.9,182.0 L 116.7,181.2 L 115.4,180.3 L 114.2,179.5 L 113.0,178.6 L 111.7,177.7 L 110.5,176.8 L 109.3,175.9 L 108.0,175.1 L 106.8,174.2 L 105.5,173.3 L 104.2,172.4 L 103.0,171.5 L 101.7,170.6 L 100.4,169.7 L 99.1,168.8 L 97.8,167.9 L 96.5,167.0 L 95.2,166.0 L 93.9,165.1 L 92.6,164.2 L 91.3,163.3 L 90.0,162.3 L 88.7,161.4 L 87.4,160.5 L 86.1,159.5 L 84.9,158.7 L 83.6,157.7 L 82.3,156.9 L 81.1,156.0 L 79.8,155.1 L 78.7,154.2 L 77.7,153.5 L 76.7,152.8 L 75.7,152.1 L 74.6,151.4 L 73.6,150.7 L 72.6,149.9 L 71.6,149.2 L 70.5,148.5 L 69.5,147.8 L 68.5,147.1 L 67.5,146.3 L 66.4,145.6 L 65.4,144.9 L 64.3,144.2 L 63.3,143.4 L 62.2,142.7 L 61.2,142.0 L 60.1,141.2 L 59.1,140.5 L 58.0,139.8 L 56.9,139.1 L 55.9,138.3 L 54.8,137.6 L 53.7,136.9 L 52.7,136.1 L 51.6,135.4 L 50.5,134.6 L 49.4,133.9 L 48.4,133.1 L 47.3,132.4 L 46.3,131.6 L 45.2,130.9 L 43.9,129.9 L 42.6,129.0 L 41.4,128.2 L 40.2,127.4 L 39.0,126.5 L 37.9,125.7 L 36.9,125.0 L 35.8,124.2 L 34.7,123.3 L 33.5,122.5 L 32.4,121.6 L 31.4,120.8 L 30.3,119.9 L 29.2,119.0 L 28.2,118.2 L 27.2,117.3 L 26.4,116.4 L 25.5,115.4 L 24.9,114.2 L 24.3,113.0 L 24.1,111.7 L 24.0,110.4 L 24.2,109.1 L 24.5,107.8 L 25.0,106.6 L 25.7,105.5 L 26.4,104.4 L 27.3,103.4 L 28.2,102.5 L 29.2,101.7 L 30.3,100.9 L 31.5,100.1 L 32.7,99.4 L 33.7,98.7 L 34.8,98.0 L 35.9,97.3 L 37.0,96.6 L 38.1,95.9 L 39.2,95.1 L 40.3,94.3 L 41.5,93.5 L 42.7,92.7 L 43.8,91.9 L 45.1,91.2 L 46.4,90.4 L 47.7,89.8 L 49.1,89.3 L 50.5,88.9 L 51.9,88.6 L 53.4,88.4 L 54.8,88.2 L 56.3,88.2 L 57.8,88.2 L 59.4,88.4 L 60.6,88.5 L 61.9,88.8 L 63.2,89.1 L 64.5,89.4 L 65.8,89.8 L 67.1,90.2 L 68.3,90.7 L 69.6,91.2 L 70.9,91.8 L 72.2,92.3 L 73.5,92.9 L 74.8,93.5 L 76.1,94.1 L 77.4,94.6 L 78.6,95.1 L 79.8,95.7 L 81.0,96.2 L 82.3,96.8 L 83.6,97.3 L 84.8,97.8 L 86.1,98.4 L 87.4,98.9 L 88.6,99.4 L 90.0,99.9 L 91.2,100.5 L 92.6,101.0 L 93.8,101.5 L 94.9,101.9 L 96.1,102.4 L 97.4,102.9 L 98.5,103.4 L 99.7,103.8 L 101.0,104.3 L 102.2,104.8 L 103.4,105.2 L 104.7,105.7 L 105.9,106.2 L 107.2,106.6 L 108.5,107.1 L 109.7,107.5 L 111.0,108.0 L 112.3,108.4 L 113.6,108.8 L 114.9,109.3 L 116.1,109.7 L 117.4,110.1 L 118.7,110.5 L 120.0,110.9 L 121.3,111.3 L 122.6,111.6 L 124.0,112.0 L 125.3,112.2 L 126.6,112.4 L 128.0,112.4 L 129.3,112.4 L 130.5,112.3 L 131.9,111.9 L 133.0,111.5 L 134.2,111.0 L 135.3,110.3 L 136.3,109.5 L 137.3,108.7 L 138.3,107.7 L 139.2,106.6 L 140.1,105.6 L 141.1,104.7 L 142.2,103.8 L 143.3,103.1 L 144.5,102.5 L 145.7,102.0 L 147.0,101.7 L 148.3,101.4 L 149.7,101.3 L 151.0,101.4 L 152.4,101.6 L 153.8,101.9 L 155.1,102.3 L 156.3,102.8 L 157.4,103.3 L 158.5,104.0 L 159.6,104.7 L 160.6,105.5 L 161.6,106.4 L 162.5,107.4 L 163.4,108.4 L 164.3,109.5 L 165.2,110.6 L 166.0,111.6 L 167.0,112.7 L 168.0,113.8 L 169.1,114.9 L 170.1,115.8 L 171.0,116.7 L 172.0,117.6 L 173.1,118.4 L 174.1,119.2 L 175.2,120.0 L 176.3,120.8 L 177.5,121.6 L 178.7,122.4 L 179.9,123.1 L 181.1,123.9 L 182.3,124.7 L 183.5,125.4 L 184.6,126.1 L 185.8,126.8 L 187.0,127.5 L 188.1,128.1 L 189.4,128.8 L 190.5,129.4 L 191.8,130.1 L 193.0,130.8 L 194.3,131.4 L 195.5,132.1 L 196.8,132.7 L 197.9,133.3 L 199.0,133.8 L 200.2,134.4 L 201.4,134.9 L 202.5,135.4 L 203.7,136.0 L 204.9,136.5 L 206.1,137.0 L 207.4,137.5 L 208.6,137.9 L 209.9,138.4 L 211.1,138.9 L 212.4,139.3 L 213.7,139.8 L 215.0,140.2 L 216.2,140.7 L 217.6,141.1 L 218.9,141.5 L 220.2,142.0 L 221.5,142.4 L 222.8,142.8 L 224.2,143.3 L 225.5,143.7 L 226.9,144.1 L 228.2,144.6 L 229.6,145.0 L 231.0,145.5 L 232.3,145.9 L 233.7,146.3 L 235.1,146.8 L 236.5,147.3 L 237.9,147.7 L 239.3,148.2 L 240.7,148.6 L 242.1,149.1 L 243.5,149.6 L 244.9,150.0 L 246.3,150.5 L 247.8,151.0 L 249.2,151.5 L 250.6,151.9 L 252.1,152.4 L 253.5,152.9 L 255.0,153.4 L 256.4,153.9 L 257.9,154.3 L 259.4,154.8 L 260.8,155.3 L 262.3,155.8 L 263.8,156.3 L 265.3,156.8 L 266.7,157.3 L 268.2,157.8 L 269.7,158.3 L 271.2,158.8 L 272.7,159.3 L 274.2,159.8 L 275.7,160.3 L 277.2,160.8 L 278.7,161.3 L 280.2,161.8 L 281.7,162.3 L 283.2,162.8 L 284.8,163.3 L 286.3,163.8 L 287.8,164.3 L 289.3,164.8 L 290.9,165.3 L 292.4,165.8 L 293.9,166.3 L 295.5,166.8 L 297.0,167.3 L 298.6,167.9 L 300.2,168.4 L 301.3,168.7 L 302.5,169.1 L 303.7,169.5 L 304.9,169.9 L 306.0,170.2 L 307.2,170.6 L 308.4,171.0 L 309.6,171.4 L 310.8,171.8 L 312.0,172.1 L 313.1,172.5 L 314.3,172.9 L 315.5,173.3 L 316.7,173.7 L 317.9,174.1 L 319.1,174.4 L 320.3,174.8 L 321.5,175.2 L 322.7,175.6 L 323.9,176.0 L 325.1,176.4 L 326.3,176.8 L 327.6,177.2 L 328.8,177.5 L 330.0,177.9 L 331.2,178.3 L 332.4,178.7 L 333.6,179.2 L 334.8,179.6 L 336.0,180.0 L 337.2,180.5 L 338.4,181.0 L 339.5,181.5 L 340.7,182.0 L 341.8,182.6 L 342.9,183.1 L 344.0,183.7 L 345.1,184.3 L 346.2,184.9 L 347.5,185.7 L 348.9,186.6 L 350.2,187.5 L 351.5,188.4 L 352.8,189.4 L 354.0,190.4 L 355.1,191.3 L 356.3,192.4 L 357.4,193.5 L 358.5,194.6 L 359.6,195.7 L 360.6,196.9 L 361.6,198.1 L 362.6,199.3 L 363.5,200.6 L 364.4,201.8 L 365.2,203.2 L 366.1,204.5 L 366.8,205.8 L 367.6,207.2 L 368.3,208.6 L 369.0,210.0 L 369.6,211.5 L 370.2,212.9 L 370.8,214.4 L 371.3,215.9 L 371.8,217.4 L 372.2,218.9 L 372.7,220.4 L 373.1,222.0 L 373.4,223.6 L 373.7,225.1 L 374.0,226.7 L 374.3,228.3 L 374.5,229.9 L 374.7,231.5 L 374.8,233.1 L 374.9,234.7 L 375.0,236.4 L 375.1,238.0 L 375.1,239.5 L 375.2,240.7 L 375.2,241.9 L 375.3,243.2 L 375.3,244.4 L 375.3,245.7 L 375.4,246.9 L 375.4,248.2 L 375.5,249.4 L 375.5,250.7 L 375.5,251.9 L 375.6,253.2 L 375.7,254.5 L 375.7,255.7 L 375.7,257.0 L 375.8,258.3 L 375.8,259.5 L 375.9,260.8 L 375.9,262.1 L 376.0,263.4 L 376.0,264.7 L 376.0,266.0 L 376.0,267.3 L 376.0,268.6 L 376.0,269.8 L 375.9,271.1 L 375.9,272.4 L 375.9,273.9 L 375.8,275.5 L 375.7,277.0 L 375.6,278.5 L 375.4,280.0 L 375.3,281.4 L 375.1,282.8 L 374.8,284.2 L 374.6,285.5 L 374.4,286.8 L 374.1,288.1 L 373.7,289.4 L 373.3,290.9 L 372.8,292.2 L 372.3,293.5 L 371.7,294.7 L 371.1,296.0 L 370.4,297.2 L 369.7,298.4 L 369.0,299.5 L 368.1,300.6 L 367.3,301.6 L 366.4,302.7 L 365.5,303.6 L 364.5,304.6 L 363.5,305.5 L 362.4,306.4 L 361.2,307.2 L 360.0,308.0 L 358.7,308.7 L 357.5,309.3 L 356.2,309.9 L 354.9,310.4 L 353.6,310.8 L 352.2,311.1 L 350.9,311.4 L 349.6,311.6 L 348.2,311.8 L 346.9,311.8 L 345.6,311.8 L 344.3,311.7 L 342.9,311.5 L 341.4,311.2 L 340.0,310.8 L 338.6,310.3 L 337.3,309.8 L 336.1,309.1 L 334.8,308.3 L 333.7,307.5 L 332.5,306.6 L 331.5,305.6 L 330.5,304.6 L 329.5,303.5 L 328.7,302.3 L 327.9,301.1 L 327.2,299.8 L 326.6,298.5 L 326.1,297.1 L 325.7,295.7 L 325.4,294.2 L 325.3,292.7 L 325.2,291.3 L 325.2,289.9 L 325.3,288.4 L 325.4,287.1 L 325.7,285.8 L 325.9,284.5 L 326.3,283.3 L 326.6,282.0 L 327.1,280.7 L 327.5,279.4 L 328.0,278.2 L 328.6,276.9 L 329.2,275.7 L 329.9,274.4 L 330.6,273.2 L 331.4,272.0 L 332.2,270.8 L 333.0,269.7 L 333.9,268.5 L 334.8,267.4 L 335.7,266.4 L 336.5,265.4 L 337.4,264.4 L 338.3,263.4 L 339.2,262.3 L 340.1,261.3 L 341.1,260.3 L 341.9,259.3 L 342.9,258.2 L 343.7,257.2 L 344.7,256.1 L 345.5,255.0 L 346.4,253.9 L 347.2,252.7 L 347.9,251.7 L 348.6,250.6 L 349.2,249.5 L 349.8,248.4 L 350.4,247.3 L 351.0,246.1 L 351.5,244.9 L 351.9,243.7 L 352.4,242.4 L 352.9,241.2 L 353.3,239.8 L 353.7,238.5 L 354.0,237.2 L 354.2,235.9 L 354.5,234.5 L 354.6,233.1 L 354.7,231.7 L 354.7,230.4 L 354.6,229.1 L 354.3,227.8 L 354.0,226.6 L 353.6,225.4 L 353.0,224.1 L 352.3,222.9 L 351.5,221.8 L 350.6,220.8 L 349.6,219.9 L 348.5,219.1 L 347.3,218.4 L 346.1,217.8 L 344.8,217.3 L 343.5,216.9 L 342.3,216.6 L 341.0,216.5 L 339.7,216.4 L 338.4,216.5 L 337.1,216.6 L 335.8,216.8 L 334.5,217.1 L 333.2,217.5 L 332.0,218.0 L 330.7,218.6 L 329.4,219.3 L 328.2,220.0 L 326.9,220.8 L 325.7,221.6 L 324.3,222.3 L 323.2,222.9 L 322.0,223.5 L 320.9,224.1 L 319.6,224.7 L 318.4,225.2 L 317.1,225.8 L 315.8,226.2 L 314.5,226.7 L 313.1,227.2 L 311.7,227.6 L 310.3,228.0 L 309.0,228.3 L 307.7,228.6 L 306.4,228.9 L 305.1,229.1 L 303.7,229.3 L 302.4,229.5 L 301.0,229.7 L 299.6,229.8 L 298.2,229.9 L 296.8,229.9 L 295.4,230.0 L 294.1,230.0 L 292.8,230.0 L 291.6,229.9 L 290.3,229.8 L 289.0,229.7 L 287.7,229.6 L 286.4,229.4 L 285.1,229.2 L 283.8,229.0 L 282.5,228.8 L 281.2,228.5 L 279.9,228.2 L 278.6,227.8 L 277.3,227.4 L 276.0,227.0 L 274.7,226.6 L 273.4,226.1 L 272.1,225.6 L 270.8,225.1 L 269.5,224.6 L 268.2,224.0 L 267.0,223.4 L 265.7,222.7 L 264.5,222.1 L 263.2,221.4 L 262.0,220.6 L 260.8,219.9 L 259.6,219.1 L 258.4,218.3 L 257.2,217.4 L 256.1,216.6 L 254.9,215.7 L 253.7,214.8 L 252.6,213.9 L 251.4,213.0 L 250.2,212.2 L 249.0,211.3 L 247.8,210.5 L 246.6,209.8 L 245.4,209.1 L 244.3,208.4 L 243.2,207.8 L 242.0,207.1 L 240.7,206.5 L 239.5,205.9 L 238.2,205.4 L 236.9,204.9 L 235.6,204.5 L 234.4,204.1 L 233.0,203.8 L 231.5,203.5 L 230.0,203.4 L 228.6,203.4 L 227.1,203.5 L 225.7,203.7 L 224.3,203.9 L 223.0,204.3 L 221.7,204.8 L 220.5,205.3 L 219.3,206.0 L 218.2,206.7 L 217.2,207.5 L 216.3,208.4 L 215.4,209.3 L 214.6,210.4 L 213.8,211.4 L 213.2,212.6 L 212.6,213.8 L 212.1,215.0 L 211.7,216.3 L 211.3,217.7 L 211.1,219.0 L 210.9,220.4 L 210.8,221.8 L 210.8,223.3 L 210.9,224.7 L 211.1,226.2 L 211.3,227.6 L 211.5,228.8 L 211.8,230.1 L 211.9,231.4 L 212.0,232.8 L 211.9,234.1 L 211.6,235.3 L 211.1,236.6 L 210.4,237.7 L 209.5,238.6 L 208.5,239.3 L 207.3,239.9 L 206.0,240.2 L 204.7,240.3 L 203.3,240.2 L 202.0,240.0 L 200.7,239.7 L 199.5,239.3 L 198.3,238.8 L 197.1,238.2 L 195.9,237.5 L 194.7,236.8 L 193.7,236.1 L 192.6,235.4 L 191.6,234.7 L 190.5,233.9 L 189.5,233.2 L 188.4,232.3 L 187.3,231.5 L 186.2,230.7 L 185.0,229.8 L 183.9,229.0 L 182.7,228.1 L 181.5,227.2 L 180.3,226.3 L 179.3,225.5 L 178.2,224.8 L 177.2,224.0 L 176.1,223.2 L 175.0,222.4 L 173.8,221.6 L 172.7,220.8 L 171.6,220.0 L 170.4,219.2 L 169.2,218.3 L 168.0,217.5 L 166.8,216.7 L 165.7,215.9 L 164.7,215.1 L 163.5,214.3 L 162.4,213.6 L 161.3,212.7 L 160.2,212.0 L 159.0,211.1 L 157.9,210.3 L 156.7,209.5 L 155.6,208.7 L 154.4,207.9 L 153.4,207.2 L 152.3,206.4 L 151.3,205.7 L 150.3,204.9 L 149.2,204.2 L 148.1,203.4 L 147.1,202.7 L 146.0,201.9 L 144.9,201.1 L 143.8,200.4 L 142.7,199.6 L 141.6,198.8 L 140.5,198.0 L 139.4,197.2 L 138.3,196.4 L 137.2,195.7 L 136.1,194.8 L 134.9,194.0 L 134.4,193.7 Z" fill="none" stroke="rgba(255,255,255,0.15)" stroke-width="5" stroke-linecap="round" stroke-linejoin="round"/><path d="M 134.4,193.7 L 133.2,192.9 L 132.1,192.1 L 130.9,191.3 L 129.8,190.4 L 128.6,189.6 L 127.4,188.8 L 126.3,188.0 L 125.1,187.1 L 123.9,186.3 L 122.7,185.4 L 121.5,184.6 L 120.3,183.8 L 119.1,182.9 L 117.9,182.0 L 116.7,181.2 L 115.4,180.3 L 114.2,179.5 L 113.0,178.6 L 111.7,177.7 L 110.5,176.8 L 109.3,175.9 L 108.0,175.1 L 106.8,174.2 L 105.5,173.3 L 104.2,172.4 L 103.0,171.5 L 101.7,170.6 L 100.4,169.7 L 99.1,168.8 L 97.8,167.9 L 96.5,167.0 L 95.2,166.0 L 93.9,165.1 L 92.6,164.2 L 91.3,163.3 L 90.0,162.3 L 88.7,161.4 L 87.4,160.5 L 86.1,159.5 L 84.9,158.7 L 83.6,157.7 L 82.3,156.9 L 81.1,156.0 L 79.8,155.1 L 78.7,154.2 L 77.7,153.5 L 76.7,152.8 L 75.7,152.1 L 74.6,151.4 L 73.6,150.7 L 72.6,149.9 L 71.6,149.2 L 70.5,148.5 L 69.5,147.8 L 68.5,147.1 L 67.5,146.3 L 66.4,145.6 L 65.4,144.9 L 64.3,144.2 L 63.3,143.4 L 62.2,142.7 L 61.2,142.0 L 60.1,141.2 L 59.1,140.5 L 58.0,139.8 L 56.9,139.1 L 55.9,138.3 L 54.8,137.6 L 53.7,136.9 L 52.7,136.1 L 51.6,135.4 L 50.5,134.6 L 49.4,133.9 L 48.4,133.1 L 47.3,132.4 L 46.3,131.6 L 45.2,130.9 L 43.9,129.9 L 42.6,129.0 L 41.4,128.2 L 40.2,127.4 L 39.0,126.5 L 37.9,125.7 L 36.9,125.0 L 35.8,124.2 L 34.7,123.3 L 33.5,122.5 L 32.4,121.6 L 31.4,120.8 L 30.3,119.9 L 29.2,119.0 L 28.2,118.2 L 27.2,117.3 L 26.4,116.4 L 25.5,115.4 L 24.9,114.2 L 24.3,113.0 L 24.1,111.7 L 24.0,110.4 L 24.2,109.1 L 24.5,107.8 L 25.0,106.6 L 25.7,105.5 L 26.4,104.4 L 27.3,103.4 L 28.2,102.5 L 29.2,101.7 L 30.3,100.9 L 31.5,100.1 L 32.7,99.4 L 33.7,98.7 L 34.8,98.0 L 35.9,97.3 L 37.0,96.6 L 38.1,95.9 L 39.2,95.1 L 40.3,94.3 L 41.5,93.5 L 42.7,92.7 L 43.8,91.9 L 45.1,91.2 L 46.4,90.4 L 47.7,89.8 L 49.1,89.3 L 50.5,88.9 L 51.9,88.6 L 53.4,88.4 L 54.8,88.2 L 56.3,88.2 L 57.8,88.2 L 59.4,88.4 L 60.6,88.5 L 61.9,88.8 L 63.2,89.1 L 64.5,89.4 L 65.8,89.8 L 67.1,90.2 L 68.3,90.7 L 69.6,91.2 L 70.9,91.8 L 72.2,92.3 L 73.5,92.9 L 74.8,93.5 L 76.1,94.1 L 77.4,94.6 L 78.6,95.1 L 79.8,95.7 L 81.0,96.2 L 82.3,96.8 L 83.6,97.3 L 84.8,97.8 L 86.1,98.4 L 87.4,98.9 L 88.6,99.4 L 90.0,99.9 L 91.2,100.5 L 92.6,101.0 L 93.8,101.5 L 94.9,101.9 L 96.1,102.4 L 97.4,102.9 L 98.5,103.4 L 99.7,103.8 L 101.0,104.3 L 102.2,104.8 L 103.4,105.2 L 104.7,105.7 L 105.9,106.2 L 107.2,106.6 L 108.5,107.1 L 109.7,107.5 L 111.0,108.0 L 112.3,108.4 L 113.6,108.8 L 114.9,109.3 L 116.1,109.7 L 117.4,110.1 L 118.7,110.5 L 120.0,110.9 L 121.3,111.3 L 122.6,111.6 L 124.0,112.0 L 125.3,112.2 L 126.6,112.4 L 128.0,112.4 L 129.3,112.4 L 130.5,112.3 L 131.9,111.9 L 133.0,111.5 L 134.2,111.0 L 135.3,110.3 L 136.3,109.5 L 137.3,108.7 L 138.3,107.7 L 139.2,106.6 L 140.1,105.6 L 141.1,104.7 L 142.2,103.8 L 143.3,103.1 L 144.5,102.5 L 145.7,102.0 L 147.0,101.7 L 148.3,101.4 L 149.7,101.3 L 151.0,101.4 L 152.4,101.6 L 153.8,101.9 L 155.1,102.3 L 156.3,102.8 L 157.4,103.3 L 158.5,104.0 L 159.6,104.7 L 160.6,105.5 L 161.6,106.4 L 162.5,107.4 L 163.4,108.4 L 164.3,109.5 L 165.2,110.6 L 166.0,111.6 L 167.0,112.7 L 168.0,113.8 L 169.1,114.9 L 170.1,115.8 L 171.0,116.7 L 172.0,117.6 L 173.1,118.4 L 174.1,119.2 L 175.2,120.0 L 176.3,120.8 L 177.5,121.6 L 178.7,122.4 L 179.9,123.1 L 181.1,123.9 L 182.3,124.7 L 183.5,125.4 L 184.6,126.1 L 185.8,126.8 L 187.0,127.5 L 188.1,128.1 L 189.4,128.8 L 190.5,129.4 L 191.8,130.1 L 193.0,130.8 L 194.3,131.4 L 195.5,132.1 L 196.8,132.7 L 197.9,133.3 L 199.0,133.8 L 200.2,134.4 L 201.4,134.9 L 202.5,135.4 L 203.7,136.0 L 204.9,136.5 L 206.1,137.0 L 207.4,137.5 L 208.6,137.9 L 209.9,138.4 L 211.1,138.9 L 212.4,139.3 L 213.7,139.8 L 215.0,140.2 L 216.2,140.7 L 217.6,141.1 L 218.9,141.5 L 220.2,142.0 L 221.5,142.4 L 222.8,142.8 L 224.2,143.3 L 225.5,143.7 L 226.9,144.1 L 228.2,144.6 L 229.6,145.0 L 231.0,145.5 L 232.3,145.9 L 233.7,146.3 L 235.1,146.8 L 236.5,147.3 L 237.9,147.7 L 239.3,148.2 L 240.7,148.6 L 242.1,149.1 L 243.5,149.6 L 244.9,150.0 L 246.3,150.5 L 247.8,151.0 L 249.2,151.5 L 250.6,151.9 L 252.1,152.4 L 253.5,152.9 L 255.0,153.4 L 256.4,153.9 L 257.9,154.3 L 259.4,154.8 L 260.8,155.3 L 262.3,155.8 L 263.8,156.3 L 265.3,156.8 L 266.7,157.3 L 268.2,157.8 L 269.7,158.3 L 271.2,158.8 L 272.7,159.3 L 274.2,159.8 L 275.7,160.3 L 277.2,160.8 L 278.7,161.3 L 280.2,161.8 L 281.7,162.3 L 283.2,162.8 L 284.8,163.3 L 286.3,163.8 L 287.8,164.3 L 289.3,164.8 L 290.9,165.3 L 292.4,165.8 L 293.9,166.3 L 295.5,166.8 L 297.0,167.3 L 298.6,167.9 L 300.2,168.4 L 301.3,168.7 L 302.5,169.1 L 303.7,169.5 L 304.9,169.9 L 306.0,170.2 L 307.2,170.6 L 308.4,171.0 L 309.6,171.4 L 310.8,171.8 L 312.0,172.1 L 313.1,172.5 L 314.3,172.9 L 315.5,173.3 L 316.7,173.7 L 317.9,174.1 L 319.1,174.4 L 320.3,174.8 L 321.5,175.2 L 322.7,175.6 L 323.9,176.0 L 325.1,176.4 L 326.3,176.8 L 327.6,177.2 L 328.8,177.5 L 330.0,177.9 L 331.2,178.3 L 332.4,178.7 L 333.6,179.2 L 334.8,179.6 L 336.0,180.0 L 337.2,180.5 L 338.4,181.0 L 339.5,181.5 L 340.7,182.0 L 341.8,182.6 L 342.9,183.1 L 344.0,183.7 L 345.1,184.3 L 346.2,184.9 L 347.5,185.7 L 348.9,186.6 L 350.2,187.5 L 351.5,188.4 L 352.8,189.4 L 354.0,190.4 L 355.1,191.3 L 356.3,192.4 L 357.4,193.5 L 358.5,194.6 L 359.6,195.7 L 360.6,196.9 L 361.6,198.1 L 362.6,199.3 L 363.5,200.6 L 364.4,201.8 L 365.2,203.2 L 366.1,204.5 L 366.8,205.8 L 367.6,207.2 L 368.3,208.6 L 369.0,210.0 L 369.6,211.5 L 370.2,212.9 L 370.8,214.4 L 371.3,215.9 L 371.8,217.4 L 372.2,218.9 L 372.7,220.4 L 373.1,222.0 L 373.4,223.6 L 373.7,225.1 L 374.0,226.7 L 374.3,228.3 L 374.5,229.9 L 374.7,231.5 L 374.8,233.1 L 374.9,234.7 L 375.0,236.4 L 375.1,238.0 L 375.1,239.5 L 375.2,240.7 L 375.2,241.9 L 375.3,243.2 L 375.3,244.4 L 375.3,245.7 L 375.4,246.9 L 375.4,248.2 L 375.5,249.4 L 375.5,250.7 L 375.5,251.9 L 375.6,253.2 L 375.7,254.5 L 375.7,255.7 L 375.7,257.0 L 375.8,258.3 L 375.8,259.5 L 375.9,260.8 L 375.9,262.1 L 376.0,263.4 L 376.0,264.7 L 376.0,266.0 L 376.0,267.3 L 376.0,268.6 L 376.0,269.8 L 375.9,271.1 L 375.9,272.4 L 375.9,273.9 L 375.8,275.5 L 375.7,277.0 L 375.6,278.5 L 375.4,280.0 L 375.3,281.4 L 375.1,282.8 L 374.8,284.2 L 374.6,285.5 L 374.4,286.8 L 374.1,288.1 L 373.7,289.4 L 373.3,290.9 L 372.8,292.2 L 372.3,293.5 L 371.7,294.7 L 371.1,296.0 L 370.4,297.2 L 369.7,298.4 L 369.0,299.5 L 368.1,300.6 L 367.3,301.6 L 366.4,302.7 L 365.5,303.6 L 364.5,304.6 L 363.5,305.5 L 362.4,306.4 L 361.2,307.2 L 360.0,308.0 L 358.7,308.7 L 357.5,309.3 L 356.2,309.9 L 354.9,310.4 L 353.6,310.8 L 352.2,311.1 L 350.9,311.4 L 349.6,311.6 L 348.2,311.8 L 346.9,311.8 L 345.6,311.8 L 344.3,311.7 L 342.9,311.5 L 341.4,311.2 L 340.0,310.8 L 338.6,310.3 L 337.3,309.8 L 336.1,309.1 L 334.8,308.3 L 333.7,307.5 L 332.5,306.6 L 331.5,305.6 L 330.5,304.6 L 329.5,303.5 L 328.7,302.3 L 327.9,301.1 L 327.2,299.8 L 326.6,298.5 L 326.1,297.1 L 325.7,295.7 L 325.4,294.2 L 325.3,292.7 L 325.2,291.3 L 325.2,289.9 L 325.3,288.4 L 325.4,287.1 L 325.7,285.8 L 325.9,284.5 L 326.3,283.3 L 326.6,282.0 L 327.1,280.7 L 327.5,279.4 L 328.0,278.2 L 328.6,276.9 L 329.2,275.7 L 329.9,274.4 L 330.6,273.2 L 331.4,272.0 L 332.2,270.8 L 333.0,269.7 L 333.9,268.5 L 334.8,267.4 L 335.7,266.4 L 336.5,265.4 L 337.4,264.4 L 338.3,263.4 L 339.2,262.3 L 340.1,261.3 L 341.1,260.3 L 341.9,259.3 L 342.9,258.2 L 343.7,257.2 L 344.7,256.1 L 345.5,255.0 L 346.4,253.9 L 347.2,252.7 L 347.9,251.7 L 348.6,250.6 L 349.2,249.5 L 349.8,248.4 L 350.4,247.3 L 351.0,246.1 L 351.5,244.9 L 351.9,243.7 L 352.4,242.4 L 352.9,241.2 L 353.3,239.8 L 353.7,238.5 L 354.0,237.2 L 354.2,235.9 L 354.5,234.5 L 354.6,233.1 L 354.7,231.7 L 354.7,230.4 L 354.6,229.1 L 354.3,227.8 L 354.0,226.6 L 353.6,225.4 L 353.0,224.1 L 352.3,222.9 L 351.5,221.8 L 350.6,220.8 L 349.6,219.9 L 348.5,219.1 L 347.3,218.4 L 346.1,217.8 L 344.8,217.3 L 343.5,216.9 L 342.3,216.6 L 341.0,216.5 L 339.7,216.4 L 338.4,216.5 L 337.1,216.6 L 335.8,216.8 L 334.5,217.1 L 333.2,217.5 L 332.0,218.0 L 330.7,218.6 L 329.4,219.3 L 328.2,220.0 L 326.9,220.8 L 325.7,221.6 L 324.3,222.3 L 323.2,222.9 L 322.0,223.5 L 320.9,224.1 L 319.6,224.7 L 318.4,225.2 L 317.1,225.8 L 315.8,226.2 L 314.5,226.7 L 313.1,227.2 L 311.7,227.6 L 310.3,228.0 L 309.0,228.3 L 307.7,228.6 L 306.4,228.9 L 305.1,229.1 L 303.7,229.3 L 302.4,229.5 L 301.0,229.7 L 299.6,229.8 L 298.2,229.9 L 296.8,229.9 L 295.4,230.0 L 294.1,230.0 L 292.8,230.0 L 291.6,229.9 L 290.3,229.8 L 289.0,229.7 L 287.7,229.6 L 286.4,229.4 L 285.1,229.2 L 283.8,229.0 L 282.5,228.8 L 281.2,228.5 L 279.9,228.2 L 278.6,227.8 L 277.3,227.4 L 276.0,227.0 L 274.7,226.6 L 273.4,226.1 L 272.1,225.6 L 270.8,225.1 L 269.5,224.6 L 268.2,224.0 L 267.0,223.4 L 265.7,222.7 L 264.5,222.1 L 263.2,221.4 L 262.0,220.6 L 260.8,219.9 L 259.6,219.1 L 258.4,218.3 L 257.2,217.4 L 256.1,216.6 L 254.9,215.7 L 253.7,214.8 L 252.6,213.9 L 251.4,213.0 L 250.2,212.2 L 249.0,211.3 L 247.8,210.5 L 246.6,209.8 L 245.4,209.1 L 244.3,208.4 L 243.2,207.8 L 242.0,207.1 L 240.7,206.5 L 239.5,205.9 L 238.2,205.4 L 236.9,204.9 L 235.6,204.5 L 234.4,204.1 L 233.0,203.8 L 231.5,203.5 L 230.0,203.4 L 228.6,203.4 L 227.1,203.5 L 225.7,203.7 L 224.3,203.9 L 223.0,204.3 L 221.7,204.8 L 220.5,205.3 L 219.3,206.0 L 218.2,206.7 L 217.2,207.5 L 216.3,208.4 L 215.4,209.3 L 214.6,210.4 L 213.8,211.4 L 213.2,212.6 L 212.6,213.8 L 212.1,215.0 L 211.7,216.3 L 211.3,217.7 L 211.1,219.0 L 210.9,220.4 L 210.8,221.8 L 210.8,223.3 L 210.9,224.7 L 211.1,226.2 L 211.3,227.6 L 211.5,228.8 L 211.8,230.1 L 211.9,231.4 L 212.0,232.8 L 211.9,234.1 L 211.6,235.3 L 211.1,236.6 L 210.4,237.7 L 209.5,238.6 L 208.5,239.3 L 207.3,239.9 L 206.0,240.2 L 204.7,240.3 L 203.3,240.2 L 202.0,240.0 L 200.7,239.7 L 199.5,239.3 L 198.3,238.8 L 197.1,238.2 L 195.9,237.5 L 194.7,236.8 L 193.7,236.1 L 192.6,235.4 L 191.6,234.7 L 190.5,233.9 L 189.5,233.2 L 188.4,232.3 L 187.3,231.5 L 186.2,230.7 L 185.0,229.8 L 183.9,229.0 L 182.7,228.1 L 181.5,227.2 L 180.3,226.3 L 179.3,225.5 L 178.2,224.8 L 177.2,224.0 L 176.1,223.2 L 175.0,222.4 L 173.8,221.6 L 172.7,220.8 L 171.6,220.0 L 170.4,219.2 L 169.2,218.3 L 168.0,217.5 L 166.8,216.7 L 165.7,215.9 L 164.7,215.1 L 163.5,214.3 L 162.4,213.6 L 161.3,212.7 L 160.2,212.0 L 159.0,211.1 L 157.9,210.3 L 156.7,209.5 L 155.6,208.7 L 154.4,207.9 L 153.4,207.2 L 152.3,206.4 L 151.3,205.7 L 150.3,204.9 L 149.2,204.2 L 148.1,203.4 L 147.1,202.7 L 146.0,201.9 L 144.9,201.1 L 143.8,200.4 L 142.7,199.6 L 141.6,198.8 L 140.5,198.0 L 139.4,197.2 L 138.3,196.4 L 137.2,195.7 L 136.1,194.8 L 134.9,194.0 L 134.4,193.7 Z" fill="none" stroke="#4db8ff" stroke-width="2.5" stroke-linecap="round" stroke-linejoin="round"/></svg>