<svg xmlns="http://www.w3.org/2000/svg" viewBox="0 0 400 400"><path d="M 229.3,229.2 L 228.1,228.3 L 226.9,227.5 L 225.8,226.6 L 224.6,225.8 L 223.4,224.9 L 222.2,224.0 L 221.0,223.2 L 219.8,222.3 L 218.6,221.4 L 217.4,220.5 L 216.1,219.6 L 214.9,218.7 L 213.6,217.8 L 212.4,216.8 L 211.1,215.9 L 209.8,215.0 L 208.5,214.1 L 207.2,213.1 L 206.0,212.2 L 204.7,211.2 L 203.4,210.3 L 202.1,209.3 L 200.7,208.4 L 199.4,207.4 L 198.1,206.5 L 196.7,205.5 L 195.5,204.6 L 194.5,203.9 L 193.5,203.1 L 192.5,202.4 L 191.4,201.7 L 190.4,200.9 L 189.4,200.2 L 188.3,199.4 L 187.3,198.7 L 186.2,197.9 L 185.2,197.1 L 184.1,196.4 L 183.1,195.6 L 182.0,194.8 L 180.9,194.1 L 179.9,193.3 L 178.8,192.5 L 177.7,191.8 L 176.6,191.0 L 175.5,190.2 L 174.4,189.4 L 173.4,188.6 L 172.3,187.9 L 171.2,187.1 L 170.1,186.3 L 169.0,185.5 L 167.9,184.6 L 166.8,183.8 L 165.7,183.0 L 164.6,182.2 L 163.5,181.4 L 162.3,180.6 L 161.2,179.8 L 160.2,179.0 L 159.1,178.2 L 157.9,177.3 L 156.6,176.4 L 155.4,175.6 L 154.2,174.8 L 153.1,174.1 L 151.9,173.3 L 150.7,172.6 L 149.5,172.0 L 148.2,171.4 L 146.8,170.9 L 145.4,170.7 L 144.0,170.5 L 142.6,170.6 L 141.2,170.8 L 139.8,171.1 L 138.5,171.6 L 137.2,172.3 L 136.0,173.2 L 134.8,174.1 L 133.5,175.0 L 132.2,175.7 L 131.0,176.2 L 129.7,176.7 L 128.4,177.0 L 127.1,177.3 L 125.7,177.5 L 124.3,177.6 L 122.8,177.5 L 121.4,177.4 L 120.0,177.1 L 118.6,176.7 L 117.3,176.3 L 116.0,175.8 L 114.8,175.2 L 113.6,174.5 L 112.4,173.8 L 111.2,173.0 L 110.1,172.2 L 109.0,171.4 L 107.9,170.6 L 106.9,169.7 L 105.9,168.9 L 104.9,168.0 L 103.9,167.2 L 102.8,166.3 L 101.7,165.5 L 100.7,164.6 L 99.6,163.8 L 98.4,162.9 L 97.3,162.0 L 96.2,161.2 L 95.0,160.3 L 93.9,159.4 L 92.7,158.5 L 91.5,157.7 L 90.3,156.8 L 89.0,156.0 L 87.8,155.2 L 86.5,154.4 L 85.2,153.6 L 83.9,152.8 L 82.5,152.0 L 81.2,151.3 L 79.8,150.6 L 78.4,149.9 L 76.9,149.2 L 75.5,148.5 L 74.0,147.9 L 72.5,147.3 L 71.0,146.8 L 69.5,146.2 L 67.9,145.7 L 66.4,145.1 L 64.9,144.5 L 63.4,143.9 L 61.9,143.2 L 60.4,142.5 L 58.9,141.8 L 57.5,141.1 L 56.2,140.4 L 55.0,139.7 L 53.8,139.0 L 52.7,138.2 L 51.6,137.4 L 50.4,136.5 L 49.4,135.6 L 48.5,134.6 L 47.7,133.5 L 46.9,132.4 L 46.3,131.3 L 45.7,130.0 L 45.3,128.5 L 45.0,127.0 L 44.9,125.6 L 44.8,124.2 L 44.6,122.9 L 44.2,121.7 L 43.7,120.4 L 42.9,119.2 L 42.0,118.3 L 40.9,117.5 L 39.7,116.9 L 38.4,116.5 L 37.0,116.2 L 35.7,116.2 L 34.4,116.3 L 33.1,116.5 L 31.8,116.8 L 30.4,117.0 L 29.1,117.0 L 27.7,116.8 L 26.5,116.3 L 25.5,115.5 L 24.7,114.4 L 24.2,113.1 L 24.0,111.8 L 24.0,110.4 L 24.2,109.1 L 24.5,107.8 L 24.9,106.5 L 25.3,105.3 L 25.8,104.1 L 26.5,102.9 L 27.3,101.8 L 28.2,100.9 L 29.2,100.0 L 30.3,99.3 L 31.5,98.8 L 32.9,98.4 L 34.2,98.2 L 35.6,98.1 L 37.1,98.2 L 38.5,98.4 L 40.0,98.8 L 41.4,99.4 L 42.7,100.0 L 43.8,100.7 L 44.9,101.5 L 45.9,102.4 L 46.9,103.3 L 47.9,104.4 L 48.7,105.5 L 49.5,106.7 L 50.3,108.0 L 51.0,109.2 L 51.5,110.4 L 52.1,111.7 L 52.7,113.0 L 53.3,114.2 L 54.0,115.4 L 54.7,116.7 L 55.5,117.8 L 56.3,119.0 L 57.1,120.0 L 57.9,121.0 L 58.8,122.0 L 59.8,122.9 L 60.7,123.8 L 61.8,124.6 L 62.8,125.4 L 63.9,126.2 L 65.1,126.9 L 66.3,127.6 L 67.5,128.3 L 68.8,128.8 L 70.0,129.4 L 71.3,129.9 L 72.7,130.4 L 74.0,130.8 L 75.4,131.2 L 76.8,131.7 L 78.2,132.1 L 79.6,132.6 L 81.0,133.0 L 82.4,133.5 L 83.8,133.9 L 85.2,134.4 L 86.7,134.9 L 88.1,135.3 L 89.6,135.8 L 91.1,136.3 L 92.5,136.7 L 94.0,137.2 L 95.5,137.7 L 97.0,138.2 L 98.5,138.7 L 100.0,139.2 L 101.5,139.7 L 103.1,140.2 L 104.6,140.7 L 106.1,141.2 L 107.6,141.7 L 109.2,142.2 L 110.7,142.7 L 112.3,143.2 L 113.9,143.7 L 115.4,144.3 L 117.0,144.8 L 118.2,145.2 L 119.4,145.6 L 120.6,146.0 L 121.8,146.4 L 123.0,146.8 L 124.2,147.2 L 125.4,147.6 L 126.6,148.1 L 127.8,148.5 L 129.0,148.9 L 130.2,149.3 L 131.5,149.7 L 132.7,150.1 L 133.9,150.6 L 135.2,151.0 L 136.4,151.4 L 137.7,151.8 L 138.9,152.2 L 140.1,152.7 L 141.4,153.1 L 142.7,153.5 L 143.9,154.0 L 145.2,154.4 L 146.4,154.8 L 147.7,155.2 L 149.0,155.7 L 150.3,156.1 L 151.5,156.5 L 152.8,157.0 L 154.1,157.4 L 155.4,157.8 L 156.7,158.3 L 158.0,158.7 L 159.3,159.1 L 160.6,159.6 L 161.9,160.0 L 163.2,160.4 L 164.5,160.9 L 165.8,161.3 L 167.1,161.8 L 168.5,162.2 L 169.8,162.6 L 171.1,163.1 L 172.4,163.5 L 173.7,164.0 L 175.1,164.4 L 176.4,164.9 L 177.7,165.3 L 179.1,165.8 L 180.4,166.2 L 181.8,166.7 L 183.1,167.1 L 184.5,167.6 L 185.8,168.0 L 187.2,168.5 L 188.5,168.9 L 189.9,169.4 L 191.2,169.8 L 192.6,170.3 L 193.9,170.8 L 195.3,171.2 L 196.7,171.7 L 198.0,172.2 L 199.4,172.6 L 200.8,173.1 L 202.2,173.6 L 203.5,174.0 L 204.9,174.5 L 206.1,174.9 L 207.4,175.3 L 208.6,175.7 L 210.2,176.3 L 211.6,176.7 L 213.0,177.2 L 214.3,177.6 L 215.6,178.1 L 216.9,178.5 L 218.3,179.0 L 219.6,179.4 L 220.9,179.8 L 222.3,180.2 L 223.6,180.4 L 224.9,180.5 L 226.2,180.4 L 227.4,180.0 L 228.6,179.4 L 229.8,178.7 L 230.8,177.7 L 231.8,176.7 L 232.8,175.7 L 233.9,175.0 L 235.0,174.4 L 236.3,174.0 L 237.6,173.8 L 239.0,173.8 L 240.4,174.0 L 241.7,174.5 L 242.8,175.0 L 243.9,175.7 L 244.9,176.6 L 245.9,177.5 L 246.8,178.6 L 247.7,179.6 L 248.7,180.7 L 249.7,181.6 L 250.7,182.6 L 251.7,183.5 L 252.7,184.4 L 253.8,185.2 L 255.0,186.0 L 256.1,186.8 L 257.4,187.6 L 258.6,188.4 L 259.8,189.1 L 261.0,189.8 L 262.2,190.4 L 263.4,191.1 L 264.6,191.7 L 265.9,192.4 L 267.2,193.0 L 268.4,193.6 L 269.6,194.1 L 270.8,194.6 L 272.0,195.2 L 273.3,195.7 L 274.5,196.2 L 275.8,196.6 L 277.1,197.1 L 278.4,197.6 L 279.7,198.0 L 281.0,198.5 L 282.4,198.9 L 283.7,199.4 L 285.1,199.8 L 286.5,200.3 L 287.9,200.7 L 289.2,201.2 L 290.7,201.6 L 292.1,202.1 L 293.5,202.6 L 294.9,203.0 L 296.4,203.5 L 297.8,204.0 L 299.3,204.5 L 300.7,205.0 L 302.2,205.4 L 303.7,205.9 L 305.2,206.4 L 306.6,206.9 L 308.2,207.4 L 309.7,207.9 L 311.2,208.4 L 312.7,208.9 L 314.2,209.4 L 315.8,209.9 L 317.3,210.4 L 318.8,210.9 L 320.4,211.4 L 321.9,211.9 L 323.5,212.4 L 325.0,212.9 L 326.6,213.4 L 328.2,214.0 L 329.8,214.5 L 330.9,214.9 L 332.1,215.2 L 333.3,215.6 L 334.5,216.0 L 335.7,216.4 L 336.9,216.8 L 338.1,217.2 L 339.3,217.6 L 340.6,218.0 L 341.8,218.4 L 343.0,218.8 L 344.2,219.1 L 345.4,219.5 L 346.7,219.9 L 347.9,220.3 L 349.1,220.8 L 350.5,221.2 L 351.7,221.7 L 352.9,222.1 L 354.0,222.6 L 355.2,223.2 L 356.3,223.7 L 357.4,224.3 L 358.7,225.1 L 360.1,226.0 L 361.4,226.9 L 362.7,227.9 L 363.9,228.9 L 365.0,230.0 L 366.1,231.2 L 367.2,232.3 L 368.1,233.6 L 369.0,234.9 L 369.9,236.2 L 370.7,237.6 L 371.4,239.0 L 372.0,240.4 L 372.6,241.9 L 373.2,243.4 L 373.7,244.9 L 374.1,246.4 L 374.5,248.0 L 374.8,249.6 L 375.0,251.2 L 375.2,252.8 L 375.3,254.4 L 375.4,256.1 L 375.4,257.8 L 375.5,259.4 L 375.5,260.7 L 375.6,262.0 L 375.6,263.3 L 375.7,264.5 L 375.7,265.8 L 375.8,267.1 L 375.8,268.4 L 375.9,269.6 L 375.9,270.9 L 376.0,272.2 L 376.0,273.5 L 376.0,274.8 L 376.0,276.1 L 375.9,277.4 L 375.9,278.8 L 375.8,280.4 L 375.7,281.9 L 375.5,283.4 L 375.3,284.8 L 375.0,286.1 L 374.7,287.4 L 374.4,288.8 L 373.9,290.1 L 373.4,291.4 L 372.8,292.6 L 372.1,293.8 L 371.3,294.9 L 370.4,295.9 L 369.4,297.0 L 368.4,297.9 L 367.3,298.8 L 366.0,299.6 L 364.7,300.3 L 363.4,300.8 L 362.1,301.3 L 360.7,301.6 L 359.4,301.8 L 358.0,301.9 L 356.7,301.8 L 355.2,301.6 L 353.8,301.2 L 352.4,300.7 L 351.2,300.0 L 350.0,299.2 L 348.9,298.3 L 348.0,297.2 L 347.1,296.0 L 346.4,294.7 L 345.8,293.3 L 345.4,292.0 L 345.1,290.5 L 345.1,289.1 L 345.1,287.8 L 345.3,286.5 L 345.6,285.2 L 345.9,283.9 L 346.3,282.5 L 346.9,281.2 L 347.5,280.0 L 348.2,278.7 L 348.9,277.5 L 349.7,276.3 L 350.6,275.1 L 351.4,274.1 L 352.4,273.0 L 353.3,272.0 L 354.2,271.0 L 355.2,269.9 L 356.1,268.9 L 357.0,267.8 L 357.9,266.6 L 358.6,265.6 L 359.3,264.5 L 360.0,263.4 L 360.6,262.2 L 361.1,261.0 L 361.6,259.8 L 362.0,258.4 L 362.4,257.1 L 362.8,255.7 L 363.0,254.4 L 363.1,252.9 L 363.1,251.6 L 362.9,250.2 L 362.6,248.9 L 362.0,247.7 L 361.3,246.7 L 360.3,245.8 L 359.2,245.1 L 358.0,244.5 L 356.7,244.1 L 355.3,243.9 L 354.0,243.8 L 352.7,244.0 L 351.4,244.2 L 350.1,244.6 L 348.7,245.2 L 347.4,245.8 L 346.1,246.5 L 344.8,247.2 L 343.7,247.8 L 342.5,248.4 L 341.2,249.0 L 339.9,249.5 L 338.5,250.0 L 337.1,250.5 L 335.8,250.9 L 334.4,251.2 L 333.1,251.4 L 331.7,251.7 L 330.3,251.8 L 328.9,252.0 L 327.5,252.0 L 326.2,252.1 L 324.9,252.0 L 323.6,252.0 L 322.3,251.9 L 321.0,251.7 L 319.6,251.5 L 318.3,251.2 L 316.9,250.9 L 315.6,250.5 L 314.3,250.1 L 312.9,249.6 L 311.6,249.1 L 310.3,248.5 L 309.0,247.9 L 307.8,247.2 L 306.5,246.4 L 305.3,245.6 L 304.1,244.7 L 302.9,243.9 L 301.8,242.9 L 300.6,242.0 L 299.4,241.1 L 298.1,240.3 L 296.9,239.5 L 295.8,238.8 L 294.6,238.2 L 293.4,237.6 L 292.1,237.0 L 290.8,236.5 L 289.4,236.1 L 287.9,235.9 L 286.5,235.8 L 285.0,235.9 L 283.6,236.2 L 282.2,236.7 L 281.0,237.2 L 279.8,238.0 L 278.8,238.8 L 277.9,239.8 L 277.1,240.9 L 276.4,242.1 L 276.0,243.3 L 275.6,244.7 L 275.4,246.1 L 275.4,247.5 L 275.5,249.0 L 275.7,250.5 L 276.0,251.8 L 276.1,253.1 L 276.1,254.4 L 275.7,255.7 L 275.0,256.8 L 274.0,257.6 L 272.7,258.1 L 271.4,258.3 L 270.1,258.2 L 268.8,257.9 L 267.5,257.4 L 266.3,256.7 L 265.2,256.0 L 264.2,255.2 L 263.2,254.4 L 262.1,253.6 L 261.0,252.7 L 259.9,251.8 L 258.7,251.0 L 257.5,250.0 L 256.4,249.2 L 255.4,248.4 L 254.3,247.6 L 253.2,246.7 L 252.0,245.9 L 250.9,245.0 L 249.7,244.1 L 248.6,243.3 L 247.5,242.4 L 246.4,241.6 L 245.2,240.8 L 244.1,239.9 L 242.9,239.1 L 241.8,238.3 L 240.7,237.5 L 239.7,236.7 L 238.6,235.9 L 237.5,235.2 L 236.5,234.4 L 235.4,233.6 L 234.3,232.8 L 233.2,232.0 L 232.0,231.2 L 230.9,230.4 L 229.8,229.6 L 229.3,229.2 Z" fill="none" stroke="rgba(255,255,255,0.15)" stroke-width="5" stroke-linecap="round" stroke-linejoin="round"/><path d="M 229.3,229.2 L 228.1,228.3 L 226.9,227.5 L 225.8,226.6 L 224.6,225.8 L 223.4,224.9 L 222.2,224.0 L 221.0,223.2 L 219.8,222.3 L 218.6,221.4 L 217.4,220.5 L 216.1,219.6 L 214.9,218.7 L 213.6,217.8 L 212.4,216.8 L 211.1,215.9 L 209.8,215.0 L 208.5,214.1 L 207.2,213.1 L 206.0,212.2 L 204.7,211.2 L 203.4,210.3 L 202.1,209.3 L 200.7,208.4 L 199.4,207.4 L 198.1,206.5 L 196.7,205.5 L 195.5,204.6 L 194.5,203.9 L 193.5,203.1 L 192.5,202.4 L 191.4,201.7 L 190.4,200.9 L 189.4,200.2 L 188.3,199.4 L 187.3,198.7 L 186.2,197.9 L 185.2,197.1 L 184.1,196.4 L 183.1,195.6 L 182.0,194.8 L 180.9,194.1 L 179.9,193.3 L 178.8,192.5 L 177.7,191.8 L 176.6,191.0 L 175.5,190.2 L 174.4,189.4 L 173.4,188.6 L 172.3,187.9 L 171.2,187.1 L 170.1,186.3 L 169.0,185.5 L 167.9,184.6 L 166.8,183.8 L 165.7,183.0 L 164.6,182.2 L 163.5,181.4 L 162.3,180.6 L 161.2,179.8 L 160.2,179.0 L 159.1,178.2 L 157.9,177.3 L 156.6,176.4 L 155.4,175.6 L 154.2,174.8 L 153.1,174.1 L 151.9,173.3 L 150.7,172.6 L 149.5,172.0 L 148.2,171.4 L 146.8,170.9 L 145.4,170.7 L 144.0,170.5 L 142.6,170.6 L 141.2,170.8 L 139.8,171.1 L 138.5,171.6 L 137.2,172.3 L 136.0,173.2 L 134.8,174.1 L 133.5,175.0 L 132.2,175.7 L 131.0,176.2 L 129.7,176.7 L 128.4,177.0 L 127.1,177.3 L 125.7,177.5 L 124.3,177.6 L 122.8,177.5 L 121.4,177.4 L 120.0,177.1 L 118.6,176.7 L 117.3,176.3 L 116.0,175.8 L 114.8,175.2 L 113.6,174.5 L 112.4,173.8 L 111.2,173.0 L 110.1,172.2 L 109.0,171.4 L 107.9,170.6 L 106.9,169.7 L 105.9,168.9 L 104.9,168.0 L 103.9,167.2 L 102.8,166.3 L 101.7,165.5 L 100.7,164.6 L 99.6,163.8 L 98.4,162.9 L 97.3,162.0 L 96.2,161.2 L 95.0,160.3 L 93.9,159.4 L 92.7,158.5 L 91.5,157.7 L 90.3,156.8 L 89.0,156.0 L 87.8,155.2 L 86.5,154.4 L 85.2,153.6 L 83.9,152.8 L 82.5,152.0 L 81.2,151.3 L 79.8,150.6 L 78.4,149.9 L 76.9,149.2 L 75.5,148.5 L 74.0,147.9 L 72.5,147.3 L 71.0,146.8 L 69.5,146.2 L 67.9,145.7 L 66.4,145.1 L 64.9,144.5 L 63.4,143.9 L 61.9,143.2 L 60.4,142.5 L 58.9,141.8 L 57.5,141.1 L 56.2,140.4 L 55.0,139.7 L 53.8,139.0 L 52.7,138.2 L 51.6,137.4 L 50.4,136.5 L 49.4,135.6 L 48.5,134.6 L 47.7,133.5 L 46.9,132.4 L 46.3,131.3 L 45.7,130.0 L 45.3,128.5 L 45.0,127.0 L 44.9,125.6 L 44.8,124.2 L 44.6,122.9 L 44.2,121.7 L 43.7,120.4 L 42.9,119.2 L 42.0,118.3 L 40.9,117.5 L 39.7,116.9 L 38.4,116.5 L 37.0,116.2 L 35.7,116.2 L 34.4,116.3 L 33.1,116.5 L 31.8,116.8 L 30.4,117.0 L 29.1,117.0 L 27.7,116.8 L 26.5,116.3 L 25.5,115.5 L 24.7,114.4 L 24.2,113.1 L 24.0,111.8 L 24.0,110.4 L 24.2,109.1 L 24.5,107.8 L 24.9,106.5 L 25.3,105.3 L 25.8,104.1 L 26.5,102.9 L 27.3,101.8 L 28.2,100.9 L 29.2,100.0 L 30.3,99.3 L 31.5,98.8 L 32.9,98.4 L 34.2,98.2 L 35.6,98.1 L 37.1,98.2 L 38.5,98.4 L 40.0,98.8 L 41.4,99.4 L 42.7,100.0 L 43.8,100.7 L 44.9,101.5 L 45.9,102.4 L 46.9,103.3 L 47.9,104.4 L 48.7,105.5 L 49.5,106.7 L 50.3,108.0 L 51.0,109.2 L 51.5,110.4 L 52.1,111.7 L 52.7,113.0 L 53.3,114.2 L 54.0,115.4 L 54.7,116.7 L 55.5,117.8 L 56.3,119.0 L 57.1,120.0 L 57.9,121.0 L 58.8,122.0 L 59.8,122.9 L 60.7,123.8 L 61.8,124.6 L 62.8,125.4 L 63.9,126.2 L 65.1,126.9 L 66.3,127.6 L 67.5,128.3 L 68.8,128.8 L 70.0,129.4 L 71.3,129.9 L 72.7,130.4 L 74.0,130.8 L 75.4,131.2 L 76.8,131.7 L 78.2,132.1 L 79.6,132.6 L 81.0,133.0 L 82.4,133.5 L 83.8,133.9 L 85.2,134.4 L 86.7,134.9 L 88.1,135.3 L 89.6,135.8 L 91.1,136.3 L 92.5,136.7 L 94.0,137.2 L 95.5,137.7 L 97.0,138.2 L 98.5,138.7 L 100.0,139.2 L 101.5,139.7 L 103.1,140.2 L 104.6,140.7 L 106.1,141.2 L 107.6,141.7 L 109.2,142.2 L 110.7,142.7 L 112.3,143.2 L 113.9,143.7 L 115.4,144.3 L 117.0,144.8 L 118.2,145.2 L 119.4,145.6 L 120.6,146.0 L 121.8,146.4 L 123.0,146.8 L 124.2,147.2 L 125.4,147.6 L 126.6,148.1 L 127.8,148.5 L 129.0,148.9 L 130.2,149.3 L 131.5,149.7 L 132.7,150.1 L 133.9,150.6 L 135.2,151.0 L 136.4,151.4 L 137.7,151.8 L 138.9,152.2 L 140.1,152.7 L 141.4,153.1 L 142.7,153.5 L 143.9,154.0 L 145.2,154.4 L 146.4,154.8 L 147.7,155.2 L 149.0,155.7 L 150.3,156.1 L 151.5,156.5 L 152.8,157.0 L 154.1,157.4 L 155.4,157.8 L 156.7,158.3 L 158.0,158.7 L 159.3,159.1 L 160.6,159.6 L 161.9,160.0 L 163.2,160.4 L 164.5,160.9 L 165.8,161.3 L 167.1,161.8 L 168.5,162.2 L 169.8,162.6 L 171.1,163.1 L 172.4,163.5 L 173.7,164.0 L 175.1,164.4 L 176.4,164.9 L 177.7,165.3 L 179.1,165.8 L 180.4,166.2 L 181.8,166.7 L 183.1,167.1 L 184.5,167.6 L 185.8,168.0 L 187.2,168.5 L 188.5,168.9 L 189.9,169.4 L 191.2,169.8 L 192.6,170.3 L 193.9,170.8 L 195.3,171.2 L 196.7,171.7 L 198.0,172.2 L 199.4,172.6 L 200.8,173.1 L 202.2,173.6 L 203.5,174.0 L 204.9,174.5 L 206.1,174.9 L 207.4,175.3 L 208.6,175.7 L 210.2,176.3 L 211.6,176.7 L 213.0,177.2 L 214.3,177.6 L 215.6,178.1 L 216.9,178.5 L 218.3,179.0 L 219.6,179.4 L 220.9,179.8 L 222.3,180.2 L 223.6,180.4 L 224.9,180.5 L 226.2,180.4 L 227.4,180.0 L 228.6,179.4 L 229.8,178.7 L 230.8,177.7 L 231.8,176.7 L 232.8,175.7 L 233.9,175.0 L 235.0,174.4 L 236.3,174.0 L 237.6,173.8 L 239.0,173.8 L 240.4,174.0 L 241.7,174.5 L 242.8,175.0 L 243.9,175.7 L 244.9,176.6 L 245.9,177.5 L 246.8,178.6 L 247.7,179.6 L 248.7,180.7 L 249.7,181.6 L 250.7,182.6 L 251.7,183.5 L 252.7,184.4 L 253.8,185.2 L 255.0,186.0 L 256.1,186.8 L 257.4,187.6 L 258.6,188.4 L 259.8,189.1 L 261.0,189.8 L 262.2,190.4 L 263.4,191.1 L 264.6,191.7 L 265.9,192.4 L 267.2,193.0 L 268.4,193.6 L 269.6,194.1 L 270.8,194.6 L 272.0,195.2 L 273.3,195.7 L 274.5,196.2 L 275.8,196.6 L 277.1,197.1 L 278.4,197.6 L 279.7,198.0 L 281.0,198.5 L 282.4,198.9 L 283.7,199.4 L 285.1,199.8 L 286.5,200.3 L 287.9,200.7 L 289.2,201.2 L 290.7,201.6 L 292.1,202.1 L 293.5,202.6 L 294.9,203.0 L 296.4,203.5 L 297.8,204.0 L 299.3,204.5 L 300.7,205.0 L 302.2,205.4 L 303.7,205.9 L 305.2,206.4 L 306.6,206.9 L 308.2,207.4 L 309.7,207.9 L 311.2,208.4 L 312.7,208.9 L 314.2,209.4 L 315.8,209.9 L 317.3,210.4 L 318.8,210.9 L 320.4,211.4 L 321.9,211.9 L 323.5,212.4 L 325.0,212.9 L 326.6,213.4 L 328.2,214.0 L 329.8,214.5 L 330.9,214.9 L 332.1,215.2 L 333.3,215.6 L 334.5,216.0 L 335.7,216.4 L 336.9,216.8 L 338.1,217.2 L 339.3,217.6 L 340.6,218.0 L 341.8,218.4 L 343.0,218.8 L 344.2,219.1 L 345.4,219.5 L 346.7,219.9 L 347.9,220.3 L 349.1,220.8 L 350.5,221.2 L 351.7,221.7 L 352.9,222.1 L 354.0,222.6 L 355.2,223.2 L 356.3,223.7 L 357.4,224.3 L 358.7,225.1 L 360.1,226.0 L 361.4,226.9 L 362.7,227.9 L 363.9,228.9 L 365.0,230.0 L 366.1,231.2 L 367.2,232.3 L 368.1,233.6 L 369.0,234.9 L 369.9,236.2 L 370.7,237.6 L 371.4,239.0 L 372.0,240.4 L 372.6,241.9 L 373.2,243.4 L 373.7,244.9 L 374.1,246.4 L 374.5,248.0 L 374.8,249.6 L 375.0,251.2 L 375.2,252.8 L 375.3,254.4 L 375.4,256.1 L 375.4,257.8 L 375.5,259.4 L 375.5,260.7 L 375.6,262.0 L 375.6,263.3 L 375.7,264.5 L 375.7,265.8 L 375.8,267.1 L 375.8,268.4 L 375.9,269.6 L 375.9,270.9 L 376.0,272.2 L 376.0,273.5 L 376.0,274.8 L 376.0,276.1 L 375.9,277.4 L 375.9,278.8 L 375.8,280.4 L 375.7,281.9 L 375.5,283.4 L 375.3,284.8 L 375.0,286.1 L 374.7,287.4 L 374.4,288.8 L 373.9,290.1 L 373.4,291.4 L 372.8,292.6 L 372.1,293.8 L 371.3,294.9 L 370.4,295.9 L 369.4,297.0 L 368.4,297.9 L 367.3,298.8 L 366.0,299.6 L 364.7,300.3 L 363.4,300.8 L 362.1,301.3 L 360.7,301.6 L 359.4,301.8 L 358.0,301.9 L 356.7,301.8 L 355.2,301.6 L 353.8,301.2 L 352.4,300.7 L 351.2,300.0 L 350.0,299.2 L 348.9,298.3 L 348.0,297.2 L 347.1,296.0 L 346.4,294.7 L 345.8,293.3 L 345.4,292.0 L 345.1,290.5 L 345.1,289.1 L 345.1,287.8 L 345.3,286.5 L 345.6,285.2 L 345.9,283.9 L 346.3,282.5 L 346.9,281.2 L 347.5,280.0 L 348.2,278.7 L 348.9,277.5 L 349.7,276.3 L 350.6,275.1 L 351.4,274.1 L 352.4,273.0 L 353.3,272.0 L 354.2,271.0 L 355.2,269.9 L 356.1,268.9 L 357.0,267.8 L 357.9,266.6 L 358.6,265.6 L 359.3,264.5 L 360.0,263.4 L 360.6,262.2 L 361.1,261.0 L 361.6,259.8 L 362.0,258.4 L 362.4,257.1 L 362.8,255.7 L 363.0,254.4 L 363.1,252.9 L 363.1,251.6 L 362.9,250.2 L 362.6,248.9 L 362.0,247.7 L 361.3,246.7 L 360.3,245.8 L 359.2,245.1 L 358.0,244.5 L 356.7,244.1 L 355.3,243.9 L 354.0,243.8 L 352.7,244.0 L 351.4,244.2 L 350.1,244.6 L 348.7,245.2 L 347.4,245.8 L 346.1,246.5 L 344.8,247.2 L 343.7,247.8 L 342.5,248.4 L 341.2,249.0 L 339.9,249.5 L 338.5,250.0 L 337.1,250.5 L 335.8,250.9 L 334.4,251.2 L 333.1,251.4 L 331.7,251.7 L 330.3,251.8 L 328.9,252.0 L 327.5,252.0 L 326.2,252.1 L 324.9,252.0 L 323.6,252.0 L 322.3,251.9 L 321.0,251.7 L 319.6,251.5 L 318.3,251.2 L 316.9,250.9 L 315.6,250.5 L 314.3,250.1 L 312.9,249.6 L 311.6,249.1 L 310.3,248.5 L 309.0,247.9 L 307.8,247.2 L 306.5,246.4 L 305.3,245.6 L 304.1,244.7 L 302.9,243.9 L 301.8,242.9 L 300.6,242.0 L 299.4,241.1 L 298.1,240.3 L 296.9,239.5 L 295.8,238.8 L 294.6,238.2 L 293.4,237.6 L 292.1,237.0 L 290.8,236.5 L 289.4,236.1 L 287.9,235.9 L 286.5,235.8 L 285.0,235.9 L 283.6,236.2 L 282.2,236.7 L 281.0,237.2 L 279.8,238.0 L 278.8,238.8 L 277.9,239.8 L 277.1,240.9 L 276.4,242.1 L 276.0,243.3 L 275.6,244.7 L 275.4,246.1 L 275.4,247.5 L 275.5,249.0 L 275.7,250.5 L 276.0,251.8 L 276.1,253.1 L 276.1,254.4 L 275.7,255.7 L 275.0,256.8 L 274.0,257.6 L 272.7,258.1 L 271.4,258.3 L 270.1,258.2 L 268.8,257.9 L 267.5,257.4 L 266.3,256.7 L 265.2,256.0 L 264.2,255.2 L 263.2,254.4 L 262.1,253.6 L 261.0,252.7 L 259.9,251.8 L 258.7,251.0 L 257.5,250.0 L 256.4,249.2 L 255.4,248.4 L 254.3,247.6 L 253.2,246.7 L 252.0,245.9 L 250.9,245.0 L 249.7,244.1 L 248.6,243.3 L 247.5,242.4 L 246.4,241.6 L 245.2,240.8 L 244.1,239.9 L 242.9,239.1 L 241.8,238.3 L 240.7,237.5 L 239.7,236.7 L 238.6,235.9 L 237.5,235.2 L 236.5,234.4 L 235.4,233.6 L 234.3,232.8 L 233.2,232.0 L 232.0,231.2 L 230.9,230.4 L 229.8,229.6 L 229.3,229.2 Z" fill="none" stroke="#4db8ff" stroke-width="2.5" stroke-linecap="round" stroke-linejoin="round"/></svg>