<svg xmlns="http://www.w3.org/2000/svg" viewBox="0 0 400 400"><path d="M 134.2,193.7 L 133.1,193.0 L 131.9,192.1 L 130.8,191.3 L 129.6,190.5 L 128.5,189.7 L 127.3,188.9 L 126.1,188.0 L 124.9,187.2 L 123.7,186.3 L 122.5,185.5 L 121.4,184.7 L 120.1,183.8 L 118.9,182.9 L 117.7,182.1 L 116.5,181.2 L 115.3,180.4 L 114.1,179.5 L 112.8,178.6 L 111.6,177.8 L 110.3,176.9 L 109.1,176.0 L 107.8,175.1 L 106.6,174.2 L 105.3,173.3 L 104.1,172.4 L 102.8,171.5 L 101.5,170.6 L 100.2,169.7 L 98.9,168.8 L 97.6,167.9 L 96.4,167.0 L 95.1,166.1 L 93.9,165.3 L 92.6,164.3 L 91.3,163.4 L 90.0,162.5 L 88.7,161.6 L 87.4,160.6 L 86.1,159.7 L 84.8,158.8 L 83.4,157.8 L 82.1,156.9 L 80.8,155.9 L 79.6,155.1 L 78.6,154.3 L 77.5,153.6 L 76.5,152.9 L 75.5,152.2 L 74.5,151.5 L 73.5,150.8 L 72.5,150.0 L 71.4,149.3 L 70.4,148.6 L 69.4,147.9 L 68.4,147.2 L 67.3,146.4 L 66.3,145.7 L 65.2,145.0 L 64.2,144.3 L 63.1,143.5 L 62.1,142.8 L 61.0,142.1 L 60.0,141.3 L 58.9,140.6 L 57.9,139.9 L 56.8,139.1 L 55.8,138.4 L 54.7,137.7 L 53.6,136.9 L 52.6,136.2 L 51.5,135.4 L 50.4,134.7 L 49.4,133.9 L 48.3,133.2 L 47.2,132.4 L 45.9,131.5 L 44.6,130.6 L 43.4,129.7 L 42.2,128.9 L 41.1,128.1 L 40.0,127.3 L 38.9,126.5 L 37.8,125.7 L 36.7,125.0 L 35.6,124.2 L 34.5,123.3 L 33.4,122.5 L 32.3,121.7 L 31.1,120.9 L 30.1,120.0 L 29.1,119.2 L 28.0,118.3 L 27.1,117.4 L 26.2,116.5 L 25.4,115.4 L 24.8,114.2 L 24.3,112.9 L 24.0,111.6 L 24.0,110.3 L 24.2,108.9 L 24.6,107.6 L 25.2,106.4 L 25.9,105.3 L 26.7,104.3 L 27.7,103.4 L 28.7,102.5 L 29.7,101.8 L 30.8,101.0 L 31.9,100.2 L 33.0,99.4 L 34.1,98.7 L 35.1,98.1 L 36.2,97.4 L 37.3,96.7 L 38.4,96.0 L 39.5,95.3 L 40.7,94.5 L 41.8,93.7 L 43.0,92.9 L 44.1,92.1 L 45.3,91.4 L 46.6,90.7 L 47.9,90.0 L 49.3,89.5 L 50.7,89.1 L 52.2,88.8 L 53.6,88.5 L 55.1,88.4 L 56.6,88.3 L 58.1,88.4 L 59.6,88.5 L 61.0,88.7 L 62.3,89.0 L 63.5,89.3 L 64.8,89.6 L 66.1,90.0 L 67.4,90.4 L 68.7,90.8 L 70.0,91.2 L 71.3,91.6 L 72.7,92.1 L 74.0,92.5 L 75.4,93.0 L 76.7,93.5 L 78.0,93.9 L 79.3,94.4 L 80.6,94.8 L 81.9,95.3 L 83.1,95.8 L 84.4,96.2 L 85.7,96.7 L 87.0,97.2 L 88.3,97.6 L 89.6,98.1 L 90.9,98.6 L 92.3,99.0 L 93.6,99.5 L 94.8,99.9 L 96.0,100.3 L 97.2,100.7 L 98.4,101.2 L 99.6,101.6 L 100.9,102.0 L 102.1,102.4 L 103.3,102.8 L 104.6,103.3 L 105.8,103.7 L 107.1,104.1 L 108.4,104.5 L 109.7,105.0 L 110.9,105.4 L 112.2,105.8 L 113.5,106.3 L 114.8,106.7 L 116.2,107.1 L 117.5,107.6 L 118.8,108.0 L 120.1,108.5 L 121.5,108.9 L 122.8,109.4 L 124.2,109.8 L 125.5,110.3 L 126.9,110.7 L 128.2,111.2 L 129.6,111.6 L 131.0,112.1 L 132.4,112.5 L 133.8,113.0 L 135.2,113.4 L 136.6,113.9 L 138.0,114.4 L 139.4,114.8 L 140.8,115.3 L 142.2,115.8 L 143.7,116.2 L 145.1,116.7 L 146.5,117.2 L 148.0,117.7 L 149.4,118.2 L 150.9,118.7 L 152.3,119.1 L 153.8,119.6 L 155.2,120.1 L 156.7,120.6 L 158.2,121.1 L 159.7,121.6 L 161.1,122.1 L 162.6,122.6 L 164.1,123.2 L 165.6,123.7 L 167.1,124.2 L 168.6,124.7 L 170.1,125.2 L 171.6,125.7 L 173.1,126.2 L 174.6,126.7 L 176.2,127.2 L 177.7,127.7 L 179.2,128.2 L 180.7,128.7 L 182.3,129.3 L 183.8,129.8 L 185.3,130.3 L 186.9,130.8 L 188.4,131.3 L 190.0,131.8 L 191.2,132.2 L 192.3,132.6 L 193.5,133.0 L 194.7,133.4 L 195.9,133.8 L 197.0,134.2 L 198.2,134.6 L 199.4,135.0 L 200.6,135.4 L 201.8,135.7 L 203.0,136.1 L 204.2,136.5 L 205.4,136.9 L 206.6,137.3 L 207.8,137.7 L 209.0,138.1 L 210.2,138.5 L 211.4,138.9 L 212.6,139.3 L 213.8,139.7 L 215.0,140.1 L 216.2,140.5 L 217.4,141.0 L 218.7,141.4 L 219.9,141.8 L 221.1,142.2 L 222.3,142.6 L 223.6,143.0 L 224.8,143.4 L 226.0,143.8 L 227.2,144.3 L 228.5,144.7 L 229.7,145.1 L 230.9,145.5 L 232.2,145.9 L 233.4,146.4 L 234.7,146.8 L 235.9,147.2 L 237.2,147.6 L 238.4,148.0 L 239.7,148.5 L 240.9,148.9 L 242.2,149.3 L 243.4,149.7 L 244.7,150.1 L 245.9,150.6 L 247.2,151.0 L 248.4,151.4 L 249.7,151.8 L 251.0,152.3 L 252.2,152.7 L 253.5,153.1 L 254.8,153.5 L 256.0,154.0 L 257.3,154.4 L 258.6,154.8 L 259.9,155.2 L 261.1,155.7 L 262.4,156.1 L 263.7,156.5 L 265.0,157.0 L 266.2,157.4 L 267.5,157.8 L 268.8,158.2 L 270.1,158.7 L 271.4,159.1 L 272.7,159.5 L 274.0,160.0 L 275.3,160.4 L 276.6,160.8 L 277.8,161.2 L 279.1,161.7 L 280.4,162.1 L 281.7,162.5 L 283.0,163.0 L 284.3,163.4 L 285.6,163.8 L 287.0,164.2 L 288.3,164.7 L 289.6,165.1 L 290.9,165.5 L 292.2,166.0 L 293.5,166.4 L 294.8,166.8 L 296.1,167.2 L 297.4,167.7 L 298.8,168.1 L 300.1,168.5 L 301.4,168.9 L 302.7,169.3 L 304.0,169.8 L 305.4,170.2 L 306.7,170.6 L 308.0,171.0 L 309.4,171.4 L 310.7,171.9 L 312.0,172.3 L 313.3,172.7 L 314.7,173.1 L 316.0,173.6 L 317.3,174.0 L 318.7,174.4 L 320.0,174.8 L 321.3,175.3 L 322.7,175.7 L 324.0,176.2 L 325.3,176.6 L 326.7,177.1 L 328.0,177.5 L 329.3,178.0 L 330.6,178.4 L 331.8,178.9 L 333.1,179.3 L 334.3,179.8 L 335.5,180.2 L 336.7,180.7 L 337.8,181.2 L 339.0,181.7 L 340.1,182.2 L 341.2,182.7 L 342.3,183.3 L 343.4,183.9 L 344.5,184.5 L 345.6,185.1 L 346.8,185.7 L 348.2,186.6 L 349.4,187.4 L 350.7,188.4 L 352.0,189.3 L 353.3,190.3 L 354.6,191.3 L 355.8,192.4 L 356.9,193.4 L 358.0,194.5 L 359.1,195.7 L 360.2,196.8 L 361.2,198.0 L 362.2,199.2 L 363.2,200.5 L 364.1,201.7 L 365.0,203.0 L 365.8,204.4 L 366.6,205.7 L 367.4,207.1 L 368.2,208.5 L 368.9,209.9 L 369.6,211.3 L 370.2,212.8 L 370.8,214.3 L 371.4,215.7 L 371.9,217.2 L 372.4,218.8 L 372.9,220.3 L 373.3,221.8 L 373.6,223.4 L 373.9,225.0 L 374.2,226.5 L 374.4,228.1 L 374.6,229.7 L 374.8,231.3 L 374.9,232.9 L 375.0,234.5 L 375.0,236.2 L 375.1,237.8 L 375.1,239.4 L 375.1,241.1 L 375.2,242.4 L 375.2,243.6 L 375.2,244.9 L 375.3,246.1 L 375.3,247.4 L 375.3,248.6 L 375.4,249.8 L 375.4,251.1 L 375.5,252.3 L 375.5,253.6 L 375.6,254.9 L 375.6,256.1 L 375.7,257.4 L 375.7,258.6 L 375.8,259.9 L 375.8,261.2 L 375.9,262.5 L 375.9,263.7 L 376.0,265.0 L 376.0,266.3 L 376.0,267.6 L 376.0,268.9 L 376.0,270.1 L 376.0,271.4 L 375.9,272.7 L 375.9,274.3 L 375.8,275.9 L 375.7,277.5 L 375.5,278.9 L 375.4,280.4 L 375.2,281.8 L 375.0,283.2 L 374.7,284.6 L 374.5,285.9 L 374.2,287.2 L 373.9,288.5 L 373.5,289.7 L 373.1,291.0 L 372.6,292.3 L 372.1,293.5 L 371.5,294.8 L 370.9,296.0 L 370.2,297.2 L 369.6,298.3 L 368.8,299.4 L 368.0,300.5 L 367.1,301.5 L 366.3,302.5 L 365.3,303.5 L 364.4,304.4 L 363.4,305.3 L 362.3,306.1 L 361.2,306.8 L 360.0,307.6 L 358.8,308.3 L 357.5,309.0 L 356.2,309.6 L 354.9,310.1 L 353.6,310.5 L 352.3,310.9 L 350.9,311.2 L 349.6,311.4 L 348.2,311.6 L 346.9,311.7 L 345.6,311.7 L 344.3,311.6 L 342.9,311.4 L 341.4,311.2 L 339.9,310.8 L 338.6,310.4 L 337.2,309.8 L 336.0,309.2 L 334.8,308.5 L 333.7,307.7 L 332.6,306.9 L 331.6,306.0 L 330.6,304.9 L 329.7,303.8 L 328.8,302.7 L 328.1,301.5 L 327.4,300.2 L 326.8,298.8 L 326.2,297.5 L 325.8,296.0 L 325.5,294.6 L 325.4,293.1 L 325.3,291.6 L 325.3,290.3 L 325.4,288.8 L 325.5,287.5 L 325.7,286.2 L 326.0,284.9 L 326.3,283.6 L 326.7,282.3 L 327.1,281.1 L 327.5,279.8 L 328.1,278.5 L 328.6,277.3 L 329.2,276.0 L 329.9,274.8 L 330.6,273.6 L 331.4,272.4 L 332.2,271.2 L 333.0,270.0 L 333.9,268.8 L 334.7,267.8 L 335.6,266.7 L 336.5,265.7 L 337.4,264.7 L 338.3,263.7 L 339.2,262.7 L 340.1,261.7 L 341.0,260.6 L 341.9,259.6 L 342.8,258.6 L 343.7,257.5 L 344.6,256.4 L 345.5,255.3 L 346.3,254.2 L 347.2,253.1 L 347.9,252.0 L 348.6,251.0 L 349.2,249.9 L 349.8,248.8 L 350.4,247.6 L 351.0,246.5 L 351.5,245.3 L 352.0,244.1 L 352.4,242.9 L 352.9,241.6 L 353.3,240.3 L 353.7,239.0 L 354.0,237.6 L 354.3,236.3 L 354.5,235.0 L 354.7,233.6 L 354.7,232.2 L 354.8,230.8 L 354.7,229.5 L 354.5,228.2 L 354.2,227.0 L 353.8,225.7 L 353.3,224.4 L 352.6,223.2 L 351.9,222.1 L 351.0,221.1 L 350.1,220.2 L 349.1,219.4 L 348.0,218.7 L 346.8,218.1 L 345.5,217.6 L 344.2,217.2 L 342.8,216.9 L 341.4,216.8 L 340.1,216.8 L 338.9,216.8 L 337.6,217.0 L 336.3,217.3 L 335.0,217.6 L 333.7,218.0 L 332.5,218.5 L 331.2,219.0 L 329.9,219.6 L 328.7,220.2 L 327.4,220.9 L 326.1,221.6 L 324.8,222.3 L 323.7,222.9 L 322.5,223.5 L 321.3,224.1 L 320.1,224.7 L 318.9,225.3 L 317.6,225.8 L 316.3,226.3 L 314.9,226.8 L 313.6,227.2 L 312.2,227.7 L 310.8,228.1 L 309.5,228.4 L 308.2,228.7 L 306.9,229.0 L 305.5,229.3 L 304.2,229.5 L 302.8,229.7 L 301.4,229.9 L 300.0,230.0 L 298.7,230.1 L 297.2,230.2 L 295.8,230.2 L 294.6,230.2 L 293.3,230.2 L 292.0,230.2 L 290.7,230.1 L 289.4,230.0 L 288.1,229.9 L 286.8,229.7 L 285.5,229.6 L 284.2,229.4 L 282.9,229.1 L 281.6,228.9 L 280.3,228.6 L 278.9,228.3 L 277.6,227.9 L 276.3,227.6 L 275.0,227.2 L 273.7,226.7 L 272.4,226.3 L 271.1,225.7 L 269.8,225.2 L 268.5,224.6 L 267.3,224.0 L 266.0,223.4 L 264.8,222.7 L 263.6,222.0 L 262.3,221.2 L 261.1,220.4 L 260.0,219.6 L 258.8,218.8 L 257.6,217.9 L 256.5,217.0 L 255.3,216.1 L 254.2,215.2 L 253.0,214.3 L 251.9,213.4 L 250.7,212.5 L 249.5,211.6 L 248.3,210.8 L 247.2,210.0 L 246.0,209.2 L 244.9,208.5 L 243.8,207.8 L 242.7,207.2 L 241.5,206.5 L 240.3,205.9 L 239.0,205.3 L 237.7,204.8 L 236.5,204.3 L 235.3,203.9 L 233.8,203.5 L 232.3,203.3 L 230.9,203.1 L 229.4,203.0 L 228.0,203.1 L 226.6,203.2 L 225.3,203.5 L 223.9,203.8 L 222.7,204.3 L 221.4,204.8 L 220.2,205.4 L 219.1,206.1 L 218.0,206.9 L 217.0,207.8 L 216.0,208.7 L 215.1,209.8 L 214.3,210.9 L 213.5,212.0 L 212.9,213.2 L 212.3,214.5 L 211.8,215.8 L 211.4,217.2 L 211.1,218.6 L 210.9,220.0 L 210.8,221.4 L 210.8,222.9 L 210.8,224.4 L 211.0,225.8 L 211.2,227.3 L 211.4,228.6 L 211.6,229.9 L 211.8,231.1 L 212.0,232.5 L 212.0,233.8 L 211.8,235.1 L 211.4,236.3 L 210.8,237.5 L 210.0,238.4 L 209.0,239.3 L 207.8,239.9 L 206.6,240.3 L 205.3,240.4 L 204.0,240.4 L 202.7,240.3 L 201.4,240.0 L 200.2,239.6 L 198.9,239.1 L 197.8,238.6 L 196.6,237.9 L 195.4,237.2 L 194.3,236.5 L 193.3,235.7 L 192.3,235.0 L 191.2,234.2 L 190.2,233.4 L 189.1,232.6 L 188.0,231.8 L 186.8,231.0 L 185.7,230.2 L 184.6,229.4 L 183.5,228.5 L 182.3,227.7 L 181.0,226.8 L 179.9,226.0 L 178.8,225.2 L 177.8,224.5 L 176.7,223.7 L 175.6,222.9 L 174.4,222.2 L 173.3,221.4 L 172.2,220.6 L 171.0,219.7 L 169.8,218.9 L 168.6,218.1 L 167.5,217.3 L 166.3,216.5 L 165.2,215.7 L 164.1,214.9 L 163.0,214.1 L 161.9,213.3 L 160.7,212.5 L 159.6,211.7 L 158.5,210.9 L 157.3,210.1 L 156.2,209.3 L 155.0,208.5 L 153.9,207.7 L 152.9,207.0 L 151.8,206.3 L 150.8,205.5 L 149.7,204.8 L 148.7,204.0 L 147.6,203.3 L 146.6,202.5 L 145.5,201.7 L 144.4,201.0 L 143.3,200.2 L 142.2,199.4 L 141.1,198.6 L 140.0,197.8 L 138.9,197.0 L 137.8,196.3 L 136.6,195.5 L 135.5,194.6 L 134.4,193.8 L 134.2,193.7 Z" fill="none" stroke="rgba(255,255,255,0.15)" stroke-width="5" stroke-linecap="round" stroke-linejoin="round"/><path d="M 134.2,193.7 L 133.1,193.0 L 131.9,192.1 L 130.8,191.3 L 129.6,190.5 L 128.5,189.7 L 127.3,188.9 L 126.1,188.0 L 124.9,187.2 L 123.7,186.3 L 122.5,185.5 L 121.4,184.7 L 120.1,183.8 L 118.9,182.9 L 117.7,182.1 L 116.5,181.2 L 115.3,180.4 L 114.1,179.5 L 112.8,178.6 L 111.6,177.8 L 110.3,176.9 L 109.1,176.0 L 107.8,175.1 L 106.6,174.2 L 105.3,173.3 L 104.1,172.4 L 102.8,171.5 L 101.5,170.6 L 100.2,169.7 L 98.9,168.8 L 97.6,167.9 L 96.4,167.0 L 95.1,166.1 L 93.9,165.3 L 92.6,164.3 L 91.3,163.4 L 90.0,162.5 L 88.7,161.6 L 87.4,160.6 L 86.1,159.7 L 84.8,158.8 L 83.4,157.8 L 82.1,156.9 L 80.8,155.9 L 79.6,155.1 L 78.6,154.3 L 77.5,153.6 L 76.5,152.9 L 75.5,152.2 L 74.5,151.5 L 73.5,150.8 L 72.5,150.0 L 71.4,149.3 L 70.4,148.6 L 69.4,147.9 L 68.4,147.2 L 67.3,146.4 L 66.3,145.7 L 65.2,145.0 L 64.2,144.3 L 63.1,143.5 L 62.1,142.8 L 61.0,142.1 L 60.0,141.3 L 58.9,140.6 L 57.9,139.9 L 56.8,139.1 L 55.8,138.4 L 54.7,137.7 L 53.6,136.9 L 52.6,136.2 L 51.5,135.4 L 50.4,134.7 L 49.4,133.9 L 48.3,133.2 L 47.2,132.4 L 45.9,131.5 L 44.6,130.6 L 43.4,129.7 L 42.2,128.9 L 41.1,128.1 L 40.0,127.3 L 38.9,126.5 L 37.8,125.7 L 36.7,125.0 L 35.6,124.2 L 34.5,123.3 L 33.4,122.5 L 32.3,121.7 L 31.1,120.9 L 30.1,120.0 L 29.1,119.2 L 28.0,118.3 L 27.1,117.4 L 26.2,116.5 L 25.4,115.4 L 24.8,114.2 L 24.3,112.9 L 24.0,111.6 L 24.0,110.3 L 24.2,108.9 L 24.6,107.6 L 25.2,106.4 L 25.9,105.3 L 26.7,104.3 L 27.7,103.4 L 28.7,102.5 L 29.7,101.8 L 30.8,101.0 L 31.9,100.2 L 33.0,99.4 L 34.1,98.7 L 35.1,98.1 L 36.2,97.4 L 37.3,96.7 L 38.4,96.0 L 39.5,95.3 L 40.7,94.5 L 41.8,93.7 L 43.0,92.9 L 44.1,92.1 L 45.3,91.4 L 46.6,90.7 L 47.9,90.0 L 49.3,89.5 L 50.7,89.1 L 52.2,88.8 L 53.6,88.5 L 55.1,88.4 L 56.6,88.3 L 58.1,88.4 L 59.6,88.5 L 61.0,88.7 L 62.3,89.0 L 63.5,89.3 L 64.8,89.6 L 66.1,90.0 L 67.4,90.4 L 68.7,90.8 L 70.0,91.2 L 71.3,91.6 L 72.7,92.1 L 74.0,92.5 L 75.4,93.0 L 76.7,93.5 L 78.0,93.9 L 79.3,94.4 L 80.6,94.8 L 81.9,95.3 L 83.1,95.8 L 84.4,96.2 L 85.7,96.7 L 87.0,97.2 L 88.3,97.6 L 89.6,98.1 L 90.9,98.6 L 92.3,99.0 L 93.6,99.5 L 94.8,99.9 L 96.0,100.3 L 97.2,100.7 L 98.4,101.2 L 99.6,101.6 L 100.9,102.0 L 102.1,102.4 L 103.3,102.8 L 104.6,103.3 L 105.8,103.7 L 107.1,104.1 L 108.4,104.5 L 109.7,105.0 L 110.9,105.4 L 112.2,105.8 L 113.5,106.3 L 114.8,106.7 L 116.2,107.1 L 117.5,107.6 L 118.8,108.0 L 120.1,108.5 L 121.5,108.9 L 122.8,109.4 L 124.2,109.8 L 125.5,110.3 L 126.9,110.7 L 128.2,111.2 L 129.6,111.6 L 131.0,112.1 L 132.4,112.5 L 133.8,113.0 L 135.2,113.4 L 136.6,113.9 L 138.0,114.4 L 139.4,114.8 L 140.8,115.3 L 142.2,115.8 L 143.7,116.2 L 145.1,116.7 L 146.5,117.2 L 148.0,117.7 L 149.4,118.2 L 150.9,118.7 L 152.3,119.1 L 153.8,119.6 L 155.2,120.1 L 156.7,120.6 L 158.2,121.1 L 159.7,121.6 L 161.1,122.1 L 162.6,122.6 L 164.1,123.2 L 165.6,123.7 L 167.1,124.2 L 168.6,124.7 L 170.1,125.2 L 171.6,125.7 L 173.1,126.2 L 174.6,126.7 L 176.2,127.2 L 177.7,127.7 L 179.2,128.2 L 180.7,128.7 L 182.3,129.3 L 183.8,129.8 L 185.3,130.3 L 186.9,130.8 L 188.4,131.3 L 190.0,131.8 L 191.2,132.2 L 192.3,132.6 L 193.5,133.0 L 194.7,133.4 L 195.9,133.8 L 197.0,134.2 L 198.2,134.6 L 199.4,135.0 L 200.6,135.4 L 201.8,135.7 L 203.0,136.1 L 204.2,136.5 L 205.4,136.9 L 206.6,137.3 L 207.8,137.7 L 209.0,138.1 L 210.2,138.5 L 211.4,138.9 L 212.6,139.3 L 213.8,139.7 L 215.0,140.1 L 216.2,140.5 L 217.4,141.0 L 218.7,141.4 L 219.9,141.8 L 221.1,142.2 L 222.3,142.6 L 223.6,143.0 L 224.8,143.4 L 226.0,143.8 L 227.2,144.3 L 228.5,144.7 L 229.7,145.1 L 230.9,145.5 L 232.2,145.9 L 233.4,146.4 L 234.7,146.8 L 235.9,147.2 L 237.2,147.6 L 238.4,148.0 L 239.7,148.5 L 240.9,148.9 L 242.2,149.3 L 243.4,149.7 L 244.7,150.1 L 245.9,150.6 L 247.2,151.0 L 248.4,151.4 L 249.7,151.8 L 251.0,152.3 L 252.2,152.7 L 253.5,153.1 L 254.8,153.5 L 256.0,154.0 L 257.3,154.4 L 258.6,154.8 L 259.9,155.2 L 261.1,155.7 L 262.4,156.1 L 263.7,156.5 L 265.0,157.0 L 266.2,157.4 L 267.5,157.8 L 268.8,158.2 L 270.1,158.7 L 271.4,159.1 L 272.7,159.5 L 274.0,160.0 L 275.3,160.4 L 276.6,160.8 L 277.8,161.2 L 279.1,161.7 L 280.4,162.1 L 281.7,162.5 L 283.0,163.0 L 284.3,163.4 L 285.6,163.8 L 287.0,164.2 L 288.3,164.7 L 289.6,165.1 L 290.9,165.5 L 292.2,166.0 L 293.5,166.4 L 294.8,166.8 L 296.1,167.2 L 297.4,167.7 L 298.8,168.1 L 300.1,168.5 L 301.4,168.9 L 302.7,169.3 L 304.0,169.8 L 305.4,170.2 L 306.7,170.6 L 308.0,171.0 L 309.4,171.4 L 310.7,171.9 L 312.0,172.3 L 313.3,172.7 L 314.7,173.1 L 316.0,173.6 L 317.3,174.0 L 318.7,174.4 L 320.0,174.8 L 321.3,175.3 L 322.7,175.7 L 324.0,176.2 L 325.3,176.6 L 326.7,177.1 L 328.0,177.5 L 329.3,178.0 L 330.6,178.4 L 331.8,178.9 L 333.1,179.3 L 334.3,179.8 L 335.5,180.2 L 336.7,180.7 L 337.8,181.2 L 339.0,181.7 L 340.1,182.2 L 341.2,182.7 L 342.3,183.3 L 343.4,183.9 L 344.5,184.5 L 345.6,185.1 L 346.8,185.7 L 348.2,186.6 L 349.4,187.4 L 350.7,188.4 L 352.0,189.3 L 353.3,190.3 L 354.6,191.3 L 355.8,192.4 L 356.9,193.4 L 358.0,194.5 L 359.1,195.7 L 360.2,196.8 L 361.2,198.0 L 362.2,199.2 L 363.2,200.5 L 364.1,201.7 L 365.0,203.0 L 365.8,204.4 L 366.6,205.7 L 367.4,207.1 L 368.2,208.5 L 368.9,209.9 L 369.6,211.3 L 370.2,212.8 L 370.8,214.3 L 371.4,215.7 L 371.9,217.2 L 372.4,218.8 L 372.9,220.3 L 373.3,221.8 L 373.6,223.4 L 373.9,225.0 L 374.2,226.5 L 374.4,228.1 L 374.6,229.7 L 374.8,231.3 L 374.9,232.9 L 375.0,234.5 L 375.0,236.2 L 375.1,237.8 L 375.1,239.4 L 375.1,241.1 L 375.2,242.4 L 375.2,243.6 L 375.2,244.9 L 375.3,246.1 L 375.3,247.4 L 375.3,248.6 L 375.4,249.8 L 375.4,251.1 L 375.5,252.3 L 375.5,253.6 L 375.6,254.9 L 375.6,256.1 L 375.7,257.4 L 375.7,258.6 L 375.8,259.9 L 375.8,261.2 L 375.9,262.5 L 375.9,263.7 L 376.0,265.0 L 376.0,266.3 L 376.0,267.6 L 376.0,268.9 L 376.0,270.1 L 376.0,271.4 L 375.9,272.7 L 375.9,274.3 L 375.8,275.9 L 375.7,277.5 L 375.5,278.9 L 375.4,280.4 L 375.2,281.8 L 375.0,283.2 L 374.7,284.6 L 374.5,285.9 L 374.2,287.2 L 373.9,288.5 L 373.5,289.7 L 373.1,291.0 L 372.6,292.3 L 372.1,293.5 L 371.5,294.8 L 370.9,296.0 L 370.2,297.2 L 369.6,298.3 L 368.8,299.4 L 368.0,300.5 L 367.1,301.5 L 366.3,302.5 L 365.3,303.5 L 364.4,304.4 L 363.4,305.3 L 362.3,306.1 L 361.2,306.8 L 360.0,307.6 L 358.8,308.3 L 357.5,309.0 L 356.2,309.6 L 354.9,310.1 L 353.6,310.5 L 352.3,310.9 L 350.9,311.2 L 349.6,311.4 L 348.2,311.6 L 346.9,311.7 L 345.6,311.7 L 344.3,311.6 L 342.9,311.4 L 341.4,311.2 L 339.9,310.8 L 338.6,310.4 L 337.2,309.8 L 336.0,309.2 L 334.8,308.5 L 333.7,307.7 L 332.6,306.9 L 331.6,306.0 L 330.6,304.9 L 329.7,303.8 L 328.8,302.7 L 328.1,301.5 L 327.4,300.2 L 326.8,298.8 L 326.2,297.5 L 325.8,296.0 L 325.5,294.6 L 325.4,293.1 L 325.3,291.6 L 325.3,290.3 L 325.4,288.8 L 325.5,287.5 L 325.7,286.2 L 326.0,284.9 L 326.3,283.6 L 326.7,282.3 L 327.1,281.1 L 327.5,279.8 L 328.1,278.5 L 328.6,277.3 L 329.2,276.0 L 329.9,274.8 L 330.6,273.6 L 331.4,272.4 L 332.2,271.2 L 333.0,270.0 L 333.9,268.8 L 334.7,267.8 L 335.6,266.7 L 336.5,265.7 L 337.4,264.7 L 338.3,263.7 L 339.2,262.7 L 340.1,261.7 L 341.0,260.6 L 341.9,259.6 L 342.8,258.6 L 343.7,257.5 L 344.6,256.4 L 345.5,255.3 L 346.3,254.2 L 347.2,253.1 L 347.9,252.0 L 348.6,251.0 L 349.2,249.9 L 349.8,248.8 L 350.4,247.6 L 351.0,246.5 L 351.5,245.3 L 352.0,244.1 L 352.4,242.9 L 352.9,241.6 L 353.3,240.3 L 353.7,239.0 L 354.0,237.6 L 354.3,236.3 L 354.5,235.0 L 354.7,233.6 L 354.7,232.2 L 354.8,230.8 L 354.7,229.5 L 354.5,228.2 L 354.2,227.0 L 353.8,225.7 L 353.3,224.4 L 352.6,223.2 L 351.9,222.1 L 351.0,221.1 L 350.1,220.2 L 349.1,219.4 L 348.0,218.7 L 346.8,218.1 L 345.5,217.6 L 344.2,217.2 L 342.8,216.9 L 341.4,216.8 L 340.1,216.8 L 338.9,216.8 L 337.6,217.0 L 336.3,217.3 L 335.0,217.6 L 333.7,218.0 L 332.5,218.5 L 331.2,219.0 L 329.9,219.6 L 328.7,220.2 L 327.4,220.9 L 326.1,221.6 L 324.8,222.3 L 323.7,222.9 L 322.5,223.5 L 321.3,224.1 L 320.1,224.7 L 318.9,225.3 L 317.6,225.8 L 316.3,226.3 L 314.9,226.8 L 313.6,227.2 L 312.2,227.7 L 310.8,228.1 L 309.5,228.4 L 308.2,228.7 L 306.9,229.0 L 305.5,229.3 L 304.2,229.5 L 302.8,229.7 L 301.4,229.9 L 300.0,230.0 L 298.7,230.1 L 297.2,230.2 L 295.8,230.2 L 294.6,230.2 L 293.3,230.2 L 292.0,230.2 L 290.7,230.1 L 289.4,230.0 L 288.1,229.9 L 286.8,229.7 L 285.5,229.6 L 284.2,229.4 L 282.9,229.1 L 281.6,228.9 L 280.3,228.6 L 278.9,228.3 L 277.6,227.9 L 276.3,227.6 L 275.0,227.2 L 273.7,226.7 L 272.4,226.3 L 271.1,225.7 L 269.8,225.2 L 268.5,224.6 L 267.3,224.0 L 266.0,223.4 L 264.8,222.7 L 263.6,222.0 L 262.3,221.2 L 261.1,220.4 L 260.0,219.6 L 258.8,218.8 L 257.6,217.9 L 256.5,217.0 L 255.3,216.1 L 254.2,215.2 L 253.0,214.3 L 251.9,213.4 L 250.7,212.5 L 249.5,211.6 L 248.3,210.8 L 247.2,210.0 L 246.0,209.2 L 244.9,208.5 L 243.8,207.8 L 242.7,207.2 L 241.5,206.5 L 240.3,205.9 L 239.0,205.3 L 237.7,204.8 L 236.5,204.3 L 235.3,203.9 L 233.8,203.5 L 232.3,203.3 L 230.9,203.1 L 229.4,203.0 L 228.0,203.1 L 226.6,203.2 L 225.3,203.5 L 223.9,203.8 L 222.7,204.3 L 221.4,204.8 L 220.2,205.4 L 219.1,206.1 L 218.0,206.9 L 217.0,207.8 L 216.0,208.7 L 215.1,209.8 L 214.3,210.9 L 213.5,212.0 L 212.9,213.2 L 212.3,214.5 L 211.8,215.8 L 211.4,217.2 L 211.1,218.6 L 210.9,220.0 L 210.8,221.4 L 210.8,222.9 L 210.8,224.4 L 211.0,225.8 L 211.2,227.3 L 211.4,228.6 L 211.6,229.9 L 211.8,231.1 L 212.0,232.5 L 212.0,233.8 L 211.8,235.1 L 211.4,236.3 L 210.8,237.5 L 210.0,238.4 L 209.0,239.3 L 207.8,239.9 L 206.6,240.3 L 205.3,240.4 L 204.0,240.4 L 202.7,240.3 L 201.4,240.0 L 200.2,239.6 L 198.9,239.1 L 197.8,238.6 L 196.6,237.9 L 195.4,237.2 L 194.3,236.5 L 193.3,235.7 L 192.3,235.0 L 191.2,234.2 L 190.2,233.4 L 189.1,232.6 L 188.0,231.8 L 186.8,231.0 L 185.7,230.2 L 184.6,229.4 L 183.5,228.5 L 182.3,227.7 L 181.0,226.8 L 179.9,226.0 L 178.8,225.2 L 177.8,224.5 L 176.7,223.7 L 175.6,222.9 L 174.4,222.2 L 173.3,221.4 L 172.2,220.6 L 171.0,219.7 L 169.8,218.9 L 168.6,218.1 L 167.5,217.3 L 166.3,216.5 L 165.2,215.7 L 164.1,214.9 L 163.0,214.1 L 161.9,213.3 L 160.7,212.5 L 159.6,211.7 L 158.5,210.9 L 157.3,210.1 L 156.2,209.3 L 155.0,208.5 L 153.9,207.7 L 152.9,207.0 L 151.8,206.3 L 150.8,205.5 L 149.7,204.8 L 148.7,204.0 L 147.6,203.3 L 146.6,202.5 L 145.5,201.7 L 144.4,201.0 L 143.3,200.2 L 142.2,199.4 L 141.1,198.6 L 140.0,197.8 L 138.9,197.0 L 137.8,196.3 L 136.6,195.5 L 135.5,194.6 L 134.4,193.8 L 134.2,193.7 Z" fill="none" stroke="#4db8ff" stroke-width="2.5" stroke-linecap="round" stroke-linejoin="round"/></svg>