<svg xmlns="http://www.w3.org/2000/svg" viewBox="0 0 400 400"><path d="M 229.1,229.0 L 227.9,228.2 L 226.8,227.4 L 225.6,226.5 L 224.4,225.6 L 223.2,224.8 L 222.1,223.9 L 220.9,223.0 L 219.6,222.1 L 218.4,221.2 L 217.2,220.3 L 215.9,219.4 L 214.8,218.5 L 213.5,217.6 L 212.3,216.7 L 211.0,215.8 L 209.7,214.8 L 208.4,213.9 L 207.1,213.0 L 205.8,212.0 L 204.5,211.1 L 203.2,210.2 L 201.9,209.2 L 200.6,208.3 L 199.2,207.3 L 197.9,206.3 L 196.5,205.4 L 195.4,204.6 L 194.4,203.8 L 193.4,203.1 L 192.4,202.4 L 191.3,201.6 L 190.3,200.9 L 189.2,200.2 L 188.2,199.4 L 187.1,198.7 L 186.1,197.9 L 185.0,197.1 L 184.0,196.4 L 182.9,195.6 L 181.8,194.9 L 180.8,194.1 L 179.7,193.3 L 178.6,192.5 L 177.6,191.8 L 176.5,191.0 L 175.4,190.2 L 174.3,189.4 L 173.2,188.6 L 172.1,187.8 L 171.1,187.0 L 170.0,186.2 L 168.9,185.4 L 167.8,184.5 L 166.7,183.7 L 165.6,182.9 L 164.5,182.1 L 163.3,181.3 L 162.2,180.5 L 161.1,179.7 L 160.0,178.9 L 159.0,178.1 L 157.8,177.3 L 156.5,176.4 L 155.3,175.5 L 154.1,174.7 L 152.9,174.0 L 151.7,173.3 L 150.5,172.7 L 149.3,172.0 L 148.0,171.5 L 146.6,171.0 L 145.2,170.7 L 143.8,170.6 L 142.5,170.6 L 141.1,170.7 L 139.8,171.1 L 138.5,171.5 L 137.2,172.2 L 136.0,173.0 L 134.9,173.9 L 133.6,174.8 L 132.3,175.6 L 130.9,176.2 L 129.7,176.6 L 128.4,176.9 L 127.1,177.2 L 125.7,177.4 L 124.3,177.5 L 122.9,177.5 L 121.4,177.4 L 120.0,177.1 L 118.6,176.7 L 117.3,176.3 L 116.0,175.8 L 114.7,175.2 L 113.5,174.5 L 112.2,173.8 L 111.0,173.0 L 109.8,172.1 L 108.7,171.3 L 107.7,170.5 L 106.7,169.6 L 105.7,168.8 L 104.7,167.9 L 103.7,167.1 L 102.6,166.2 L 101.6,165.4 L 100.5,164.5 L 99.4,163.6 L 98.3,162.8 L 97.2,161.9 L 96.0,161.0 L 94.9,160.1 L 93.8,159.3 L 92.6,158.4 L 91.4,157.5 L 90.2,156.7 L 88.9,155.8 L 87.7,155.0 L 86.4,154.2 L 85.1,153.4 L 83.8,152.7 L 82.4,151.9 L 81.0,151.2 L 79.7,150.5 L 78.2,149.8 L 76.8,149.1 L 75.4,148.5 L 73.9,147.9 L 72.4,147.3 L 70.9,146.7 L 69.3,146.2 L 67.8,145.6 L 66.3,145.0 L 64.8,144.4 L 63.3,143.8 L 61.8,143.2 L 60.3,142.5 L 58.9,141.8 L 57.5,141.0 L 56.2,140.3 L 55.0,139.7 L 53.8,139.0 L 52.6,138.2 L 51.5,137.4 L 50.4,136.5 L 49.4,135.6 L 48.5,134.6 L 47.6,133.5 L 46.8,132.3 L 46.2,130.9 L 45.7,129.6 L 45.4,128.2 L 45.2,126.8 L 45.2,125.3 L 45.0,124.0 L 44.8,122.7 L 44.4,121.5 L 43.7,120.2 L 42.9,119.1 L 41.9,118.2 L 40.8,117.5 L 39.5,116.9 L 38.2,116.5 L 36.9,116.3 L 35.6,116.3 L 34.2,116.4 L 32.9,116.6 L 31.6,116.9 L 30.2,117.0 L 28.9,117.0 L 27.6,116.7 L 26.4,116.1 L 25.4,115.3 L 24.7,114.2 L 24.2,112.9 L 24.0,111.6 L 24.0,110.2 L 24.2,108.9 L 24.5,107.6 L 24.9,106.3 L 25.3,105.2 L 25.8,104.0 L 26.5,102.8 L 27.3,101.8 L 28.3,100.8 L 29.4,100.0 L 30.5,99.3 L 31.8,98.7 L 33.1,98.3 L 34.5,98.1 L 35.9,98.0 L 37.3,98.1 L 38.7,98.3 L 40.2,98.7 L 41.6,99.3 L 42.8,99.9 L 44.0,100.6 L 45.0,101.4 L 46.1,102.3 L 47.1,103.3 L 48.0,104.3 L 48.9,105.5 L 49.7,106.7 L 50.4,107.9 L 51.1,109.2 L 51.7,110.5 L 52.2,111.7 L 52.8,113.0 L 53.4,114.3 L 54.1,115.5 L 54.8,116.7 L 55.6,118.0 L 56.4,119.1 L 57.2,120.1 L 58.1,121.1 L 59.0,122.0 L 59.9,122.9 L 60.9,123.8 L 62.0,124.6 L 63.0,125.4 L 64.2,126.2 L 65.3,126.9 L 66.5,127.6 L 67.7,128.2 L 69.0,128.8 L 70.3,129.4 L 71.6,129.9 L 72.9,130.4 L 74.3,130.8 L 75.6,131.3 L 77.0,131.7 L 78.4,132.1 L 79.8,132.5 L 81.2,133.0 L 82.7,133.4 L 84.1,133.8 L 85.6,134.2 L 87.0,134.6 L 88.5,135.1 L 90.0,135.5 L 91.4,135.9 L 92.9,136.4 L 94.4,136.8 L 95.9,137.2 L 97.4,137.7 L 99.0,138.1 L 100.5,138.6 L 102.0,139.1 L 103.6,139.5 L 105.1,140.0 L 106.7,140.5 L 108.2,140.9 L 109.8,141.4 L 111.3,141.9 L 112.9,142.4 L 114.5,142.9 L 116.1,143.4 L 117.5,143.8 L 118.7,144.2 L 119.9,144.6 L 121.1,145.0 L 122.3,145.3 L 123.5,145.7 L 124.7,146.1 L 125.9,146.5 L 127.1,146.9 L 128.4,147.3 L 129.6,147.7 L 130.8,148.1 L 132.1,148.5 L 133.3,148.9 L 134.5,149.3 L 135.8,149.7 L 137.0,150.1 L 138.3,150.5 L 139.5,150.9 L 140.8,151.3 L 142.0,151.7 L 143.3,152.2 L 144.6,152.6 L 145.8,153.0 L 147.1,153.4 L 148.4,153.9 L 149.7,154.3 L 150.9,154.7 L 152.2,155.1 L 153.5,155.6 L 154.8,156.0 L 156.1,156.4 L 157.4,156.9 L 158.7,157.3 L 160.0,157.7 L 161.3,158.2 L 162.6,158.6 L 163.9,159.0 L 165.2,159.5 L 166.5,159.9 L 167.8,160.4 L 169.1,160.8 L 170.5,161.3 L 171.8,161.7 L 173.1,162.2 L 174.4,162.6 L 175.8,163.1 L 177.1,163.5 L 178.4,164.0 L 179.8,164.4 L 181.1,164.9 L 182.5,165.3 L 183.8,165.8 L 185.1,166.2 L 186.5,166.7 L 187.8,167.1 L 189.2,167.6 L 190.6,168.0 L 191.9,168.5 L 193.3,169.0 L 194.6,169.4 L 196.0,169.9 L 197.4,170.3 L 198.8,170.8 L 200.1,171.3 L 201.5,171.7 L 202.9,172.2 L 204.3,172.7 L 205.6,173.1 L 207.0,173.6 L 208.4,174.1 L 209.8,174.5 L 211.2,175.0 L 212.6,175.5 L 214.0,175.9 L 215.3,176.4 L 216.7,176.9 L 218.1,177.4 L 219.5,177.8 L 221.0,178.3 L 222.4,178.8 L 223.8,179.3 L 225.2,179.7 L 226.6,180.2 L 228.0,180.7 L 229.4,181.1 L 230.8,181.6 L 232.2,182.1 L 233.6,182.5 L 235.0,183.0 L 236.4,183.5 L 237.8,184.0 L 239.3,184.4 L 240.7,184.9 L 242.1,185.4 L 243.5,185.9 L 244.9,186.3 L 246.3,186.8 L 247.8,187.3 L 249.2,187.8 L 250.6,188.2 L 252.0,188.7 L 253.5,189.2 L 254.9,189.7 L 256.3,190.1 L 257.7,190.6 L 259.2,191.1 L 260.6,191.6 L 262.0,192.1 L 263.5,192.5 L 264.9,193.0 L 266.4,193.5 L 267.8,194.0 L 269.2,194.4 L 270.7,194.9 L 272.1,195.4 L 273.6,195.9 L 275.0,196.4 L 276.5,196.8 L 277.9,197.3 L 279.4,197.8 L 280.8,198.3 L 282.3,198.8 L 283.7,199.2 L 285.2,199.7 L 286.6,200.2 L 288.1,200.7 L 289.6,201.2 L 291.0,201.6 L 292.5,202.1 L 293.9,202.6 L 295.4,203.1 L 296.8,203.6 L 298.3,204.0 L 299.8,204.5 L 301.2,205.0 L 302.7,205.5 L 304.2,206.0 L 305.6,206.5 L 307.1,207.0 L 308.5,207.5 L 310.0,207.9 L 311.5,208.4 L 312.9,208.9 L 314.4,209.4 L 315.9,209.9 L 317.3,210.4 L 318.8,210.9 L 320.3,211.4 L 321.7,211.8 L 323.2,212.3 L 324.7,212.8 L 326.2,213.3 L 327.6,213.8 L 329.1,214.2 L 330.6,214.7 L 332.1,215.2 L 333.5,215.7 L 335.0,216.1 L 336.5,216.6 L 338.0,217.1 L 339.4,217.6 L 340.9,218.0 L 342.4,218.5 L 343.9,219.0 L 345.3,219.5 L 346.7,220.0 L 348.0,220.5 L 349.3,220.9 L 350.6,221.4 L 351.8,221.9 L 353.0,222.4 L 354.2,222.9 L 355.3,223.4 L 356.7,224.1 L 358.2,225.0 L 359.6,225.8 L 360.9,226.7 L 362.2,227.7 L 363.3,228.7 L 364.5,229.7 L 365.6,230.8 L 366.7,232.0 L 367.7,233.2 L 368.6,234.5 L 369.5,235.8 L 370.3,237.1 L 371.1,238.5 L 371.8,240.0 L 372.4,241.4 L 373.1,242.8 L 373.6,244.3 L 374.1,245.9 L 374.5,247.4 L 374.8,249.0 L 375.1,250.6 L 375.3,252.2 L 375.4,253.9 L 375.5,255.5 L 375.5,257.2 L 375.6,258.8 L 375.6,260.2 L 375.6,261.5 L 375.7,262.8 L 375.7,264.0 L 375.8,265.3 L 375.8,266.6 L 375.8,267.8 L 375.9,269.1 L 375.9,270.4 L 376.0,271.7 L 376.0,273.0 L 376.0,274.3 L 376.0,275.6 L 376.0,276.9 L 376.0,278.3 L 375.9,279.9 L 375.8,281.5 L 375.7,283.0 L 375.5,284.4 L 375.3,285.8 L 375.0,287.1 L 374.6,288.4 L 374.2,289.6 L 373.7,291.0 L 373.1,292.3 L 372.4,293.5 L 371.6,294.7 L 370.8,295.8 L 369.9,296.8 L 368.9,297.7 L 367.8,298.6 L 366.6,299.4 L 365.3,300.2 L 364.0,300.8 L 362.6,301.3 L 361.3,301.6 L 359.9,301.9 L 358.6,302.0 L 357.3,302.0 L 355.7,301.8 L 354.3,301.4 L 352.9,300.9 L 351.7,300.3 L 350.5,299.5 L 349.4,298.6 L 348.4,297.5 L 347.5,296.3 L 346.7,295.0 L 346.1,293.7 L 345.6,292.3 L 345.3,290.8 L 345.2,289.4 L 345.2,288.1 L 345.3,286.7 L 345.5,285.4 L 345.9,284.1 L 346.3,282.8 L 346.8,281.5 L 347.4,280.2 L 348.1,279.0 L 348.9,277.8 L 349.8,276.6 L 350.6,275.5 L 351.5,274.5 L 352.4,273.4 L 353.4,272.4 L 354.3,271.4 L 355.3,270.3 L 356.2,269.2 L 357.0,268.1 L 357.9,267.0 L 358.7,265.9 L 359.3,264.8 L 360.0,263.6 L 360.5,262.5 L 361.0,261.2 L 361.5,260.0 L 361.9,258.7 L 362.3,257.3 L 362.6,255.9 L 362.8,254.6 L 362.9,253.1 L 362.9,251.7 L 362.8,250.4 L 362.5,249.1 L 362.0,247.9 L 361.3,246.8 L 360.3,245.8 L 359.2,245.1 L 358.0,244.6 L 356.7,244.2 L 355.4,244.1 L 353.9,244.1 L 352.7,244.2 L 351.4,244.5 L 350.1,244.9 L 348.8,245.4 L 347.5,246.0 L 346.2,246.6 L 344.8,247.3 L 343.6,247.9 L 342.4,248.5 L 341.1,249.0 L 339.8,249.6 L 338.5,250.1 L 337.1,250.5 L 335.7,250.9 L 334.4,251.2 L 333.0,251.5 L 331.7,251.7 L 330.3,251.9 L 328.9,252.0 L 327.5,252.1 L 326.1,252.1 L 324.8,252.1 L 323.5,252.0 L 322.2,251.9 L 320.9,251.7 L 319.6,251.5 L 318.2,251.2 L 316.9,250.9 L 315.6,250.5 L 314.3,250.1 L 313.0,249.6 L 311.6,249.1 L 310.3,248.5 L 309.1,247.8 L 307.8,247.1 L 306.6,246.4 L 305.4,245.6 L 304.2,244.8 L 303.0,243.9 L 301.8,243.0 L 300.6,242.1 L 299.4,241.2 L 298.2,240.3 L 297.1,239.6 L 296.0,238.9 L 294.7,238.1 L 293.5,237.5 L 292.2,236.9 L 291.0,236.5 L 289.5,236.1 L 288.0,235.9 L 286.5,235.8 L 285.1,236.0 L 283.7,236.3 L 282.3,236.8 L 281.1,237.4 L 279.9,238.1 L 278.9,239.0 L 278.0,240.0 L 277.2,241.1 L 276.5,242.3 L 276.1,243.6 L 275.7,245.0 L 275.5,246.4 L 275.4,247.8 L 275.5,249.3 L 275.6,250.7 L 275.8,252.0 L 275.9,253.4 L 275.8,254.7 L 275.4,256.0 L 274.6,257.0 L 273.6,257.8 L 272.3,258.2 L 271.0,258.3 L 269.7,258.1 L 268.4,257.7 L 267.2,257.2 L 266.0,256.5 L 264.9,255.7 L 263.8,254.9 L 262.8,254.1 L 261.7,253.3 L 260.6,252.5 L 259.5,251.6 L 258.3,250.7 L 257.1,249.8 L 256.0,248.9 L 254.9,248.1 L 253.8,247.3 L 252.7,246.4 L 251.6,245.6 L 250.5,244.7 L 249.3,243.8 L 248.2,243.0 L 247.1,242.2 L 246.0,241.3 L 244.9,240.5 L 243.7,239.7 L 242.6,238.8 L 241.4,238.0 L 240.4,237.2 L 239.3,236.5 L 238.3,235.7 L 237.2,234.9 L 236.1,234.1 L 235.0,233.3 L 233.9,232.5 L 232.8,231.7 L 231.7,230.9 L 230.5,230.1 L 229.4,229.3 L 229.1,229.0 Z" fill="none" stroke="rgba(255,255,255,0.15)" stroke-width="5" stroke-linecap="round" stroke-linejoin="round"/><path d="M 229.1,229.0 L 227.9,228.2 L 226.8,227.4 L 225.6,226.5 L 224.4,225.6 L 223.2,224.8 L 222.1,223.9 L 220.9,223.0 L 219.6,222.1 L 218.4,221.2 L 217.2,220.3 L 215.9,219.4 L 214.8,218.5 L 213.5,217.6 L 212.3,216.7 L 211.0,215.8 L 209.7,214.8 L 208.4,213.9 L 207.1,213.0 L 205.8,212.0 L 204.5,211.1 L 203.2,210.2 L 201.9,209.2 L 200.6,208.3 L 199.2,207.3 L 197.9,206.3 L 196.5,205.4 L 195.4,204.6 L 194.4,203.8 L 193.4,203.1 L 192.4,202.4 L 191.3,201.6 L 190.3,200.9 L 189.2,200.2 L 188.2,199.4 L 187.1,198.7 L 186.1,197.9 L 185.0,197.1 L 184.0,196.4 L 182.9,195.6 L 181.8,194.9 L 180.8,194.1 L 179.7,193.3 L 178.6,192.5 L 177.6,191.8 L 176.5,191.0 L 175.4,190.2 L 174.3,189.4 L 173.2,188.6 L 172.1,187.8 L 171.1,187.0 L 170.0,186.2 L 168.9,185.4 L 167.8,184.5 L 166.7,183.7 L 165.6,182.9 L 164.5,182.1 L 163.3,181.3 L 162.2,180.5 L 161.1,179.7 L 160.0,178.9 L 159.0,178.1 L 157.8,177.3 L 156.5,176.4 L 155.3,175.5 L 154.1,174.7 L 152.9,174.0 L 151.7,173.3 L 150.5,172.7 L 149.3,172.0 L 148.0,171.5 L 146.6,171.0 L 145.2,170.7 L 143.8,170.6 L 142.5,170.6 L 141.1,170.7 L 139.8,171.1 L 138.5,171.5 L 137.2,172.2 L 136.0,173.0 L 134.9,173.9 L 133.6,174.8 L 132.3,175.6 L 130.9,176.2 L 129.7,176.6 L 128.4,176.9 L 127.1,177.2 L 125.7,177.4 L 124.3,177.5 L 122.9,177.5 L 121.4,177.4 L 120.0,177.1 L 118.6,176.7 L 117.3,176.3 L 116.0,175.8 L 114.7,175.2 L 113.5,174.5 L 112.2,173.8 L 111.0,173.0 L 109.8,172.1 L 108.7,171.3 L 107.7,170.5 L 106.7,169.6 L 105.7,168.8 L 104.7,167.9 L 103.7,167.1 L 102.6,166.2 L 101.6,165.4 L 100.5,164.5 L 99.4,163.6 L 98.3,162.8 L 97.2,161.9 L 96.0,161.0 L 94.9,160.1 L 93.8,159.3 L 92.6,158.4 L 91.4,157.5 L 90.2,156.7 L 88.9,155.8 L 87.7,155.0 L 86.4,154.2 L 85.1,153.4 L 83.8,152.7 L 82.4,151.9 L 81.0,151.2 L 79.7,150.5 L 78.2,149.8 L 76.8,149.1 L 75.4,148.5 L 73.9,147.9 L 72.4,147.3 L 70.9,146.7 L 69.3,146.2 L 67.8,145.6 L 66.3,145.0 L 64.8,144.4 L 63.3,143.8 L 61.8,143.2 L 60.3,142.5 L 58.9,141.8 L 57.5,141.0 L 56.2,140.3 L 55.0,139.7 L 53.8,139.0 L 52.6,138.2 L 51.5,137.4 L 50.4,136.5 L 49.4,135.6 L 48.5,134.6 L 47.6,133.5 L 46.8,132.3 L 46.2,130.9 L 45.7,129.6 L 45.4,128.2 L 45.2,126.8 L 45.2,125.3 L 45.0,124.0 L 44.8,122.7 L 44.4,121.5 L 43.7,120.2 L 42.9,119.1 L 41.9,118.2 L 40.8,117.5 L 39.5,116.9 L 38.2,116.5 L 36.9,116.3 L 35.6,116.3 L 34.2,116.4 L 32.9,116.6 L 31.6,116.9 L 30.2,117.0 L 28.9,117.0 L 27.6,116.7 L 26.4,116.1 L 25.4,115.3 L 24.7,114.2 L 24.2,112.9 L 24.0,111.6 L 24.0,110.2 L 24.2,108.9 L 24.5,107.6 L 24.9,106.3 L 25.3,105.2 L 25.8,104.0 L 26.5,102.8 L 27.3,101.8 L 28.3,100.8 L 29.4,100.0 L 30.5,99.3 L 31.8,98.7 L 33.1,98.3 L 34.5,98.1 L 35.9,98.0 L 37.3,98.1 L 38.7,98.3 L 40.2,98.7 L 41.6,99.3 L 42.8,99.9 L 44.0,100.6 L 45.0,101.4 L 46.1,102.3 L 47.1,103.3 L 48.0,104.3 L 48.9,105.5 L 49.7,106.7 L 50.4,107.9 L 51.1,109.2 L 51.7,110.5 L 52.2,111.7 L 52.8,113.0 L 53.4,114.3 L 54.1,115.5 L 54.8,116.7 L 55.6,118.0 L 56.4,119.1 L 57.2,120.1 L 58.1,121.1 L 59.0,122.0 L 59.9,122.9 L 60.9,123.8 L 62.0,124.6 L 63.0,125.4 L 64.2,126.2 L 65.3,126.9 L 66.5,127.6 L 67.7,128.2 L 69.0,128.8 L 70.3,129.4 L 71.6,129.9 L 72.9,130.4 L 74.3,130.8 L 75.6,131.3 L 77.0,131.7 L 78.4,132.1 L 79.8,132.5 L 81.2,133.0 L 82.7,133.4 L 84.1,133.8 L 85.6,134.2 L 87.0,134.6 L 88.5,135.1 L 90.0,135.5 L 91.4,135.9 L 92.9,136.4 L 94.4,136.8 L 95.9,137.2 L 97.4,137.7 L 99.0,138.1 L 100.5,138.6 L 102.0,139.1 L 103.6,139.5 L 105.1,140.0 L 106.7,140.5 L 108.2,140.9 L 109.8,141.4 L 111.3,141.9 L 112.9,142.4 L 114.5,142.9 L 116.1,143.4 L 117.5,143.8 L 118.7,144.2 L 119.9,144.6 L 121.1,145.0 L 122.3,145.3 L 123.5,145.7 L 124.7,146.1 L 125.9,146.5 L 127.1,146.9 L 128.4,147.3 L 129.6,147.7 L 130.8,148.1 L 132.1,148.5 L 133.3,148.9 L 134.5,149.3 L 135.8,149.7 L 137.0,150.1 L 138.3,150.5 L 139.5,150.9 L 140.8,151.3 L 142.0,151.7 L 143.3,152.2 L 144.6,152.6 L 145.8,153.0 L 147.1,153.4 L 148.4,153.9 L 149.7,154.3 L 150.9,154.7 L 152.2,155.1 L 153.5,155.6 L 154.8,156.0 L 156.1,156.4 L 157.4,156.9 L 158.7,157.3 L 160.0,157.7 L 161.3,158.2 L 162.6,158.6 L 163.9,159.0 L 165.2,159.5 L 166.5,159.9 L 167.8,160.4 L 169.1,160.8 L 170.5,161.3 L 171.8,161.7 L 173.1,162.2 L 174.4,162.6 L 175.8,163.1 L 177.1,163.5 L 178.4,164.0 L 179.8,164.4 L 181.1,164.9 L 182.5,165.3 L 183.8,165.8 L 185.1,166.2 L 186.5,166.7 L 187.8,167.1 L 189.2,167.6 L 190.6,168.0 L 191.9,168.5 L 193.3,169.0 L 194.6,169.4 L 196.0,169.9 L 197.4,170.3 L 198.8,170.8 L 200.1,171.3 L 201.5,171.7 L 202.9,172.2 L 204.3,172.7 L 205.6,173.1 L 207.0,173.6 L 208.4,174.1 L 209.8,174.5 L 211.2,175.0 L 212.6,175.5 L 214.0,175.9 L 215.3,176.4 L 216.7,176.9 L 218.1,177.4 L 219.5,177.8 L 221.0,178.3 L 222.4,178.8 L 223.8,179.3 L 225.2,179.7 L 226.6,180.2 L 228.0,180.7 L 229.4,181.1 L 230.8,181.6 L 232.2,182.1 L 233.6,182.5 L 235.0,183.0 L 236.4,183.5 L 237.8,184.0 L 239.3,184.4 L 240.7,184.9 L 242.1,185.4 L 243.5,185.9 L 244.9,186.3 L 246.3,186.8 L 247.8,187.3 L 249.2,187.8 L 250.6,188.2 L 252.0,188.7 L 253.5,189.2 L 254.9,189.7 L 256.3,190.1 L 257.7,190.6 L 259.2,191.1 L 260.6,191.6 L 262.0,192.1 L 263.5,192.5 L 264.9,193.0 L 266.4,193.5 L 267.8,194.0 L 269.2,194.4 L 270.7,194.9 L 272.1,195.4 L 273.6,195.9 L 275.0,196.4 L 276.5,196.8 L 277.9,197.3 L 279.4,197.8 L 280.8,198.3 L 282.3,198.8 L 283.7,199.2 L 285.2,199.7 L 286.6,200.2 L 288.1,200.7 L 289.6,201.2 L 291.0,201.6 L 292.5,202.1 L 293.9,202.6 L 295.4,203.1 L 296.8,203.6 L 298.3,204.0 L 299.8,204.5 L 301.2,205.0 L 302.7,205.5 L 304.2,206.0 L 305.6,206.5 L 307.1,207.0 L 308.5,207.5 L 310.0,207.9 L 311.5,208.4 L 312.9,208.9 L 314.4,209.4 L 315.9,209.9 L 317.3,210.4 L 318.8,210.9 L 320.3,211.4 L 321.7,211.8 L 323.2,212.3 L 324.7,212.8 L 326.2,213.3 L 327.6,213.8 L 329.1,214.2 L 330.6,214.7 L 332.1,215.2 L 333.5,215.7 L 335.0,216.1 L 336.5,216.6 L 338.0,217.1 L 339.4,217.6 L 340.9,218.0 L 342.4,218.5 L 343.9,219.0 L 345.3,219.5 L 346.7,220.0 L 348.0,220.5 L 349.3,220.9 L 350.6,221.4 L 351.8,221.9 L 353.0,222.4 L 354.2,222.9 L 355.3,223.4 L 356.7,224.1 L 358.2,225.0 L 359.6,225.8 L 360.9,226.7 L 362.2,227.7 L 363.3,228.7 L 364.5,229.7 L 365.6,230.8 L 366.7,232.0 L 367.7,233.2 L 368.6,234.5 L 369.5,235.8 L 370.3,237.1 L 371.1,238.5 L 371.8,240.0 L 372.4,241.4 L 373.1,242.8 L 373.6,244.3 L 374.1,245.9 L 374.5,247.4 L 374.8,249.0 L 375.1,250.6 L 375.3,252.2 L 375.4,253.9 L 375.5,255.5 L 375.5,257.2 L 375.6,258.8 L 375.6,260.2 L 375.6,261.5 L 375.7,262.8 L 375.7,264.0 L 375.8,265.3 L 375.8,266.6 L 375.8,267.8 L 375.9,269.1 L 375.9,270.4 L 376.0,271.7 L 376.0,273.0 L 376.0,274.3 L 376.0,275.6 L 376.0,276.9 L 376.0,278.3 L 375.9,279.9 L 375.8,281.5 L 375.7,283.0 L 375.5,284.4 L 375.3,285.8 L 375.0,287.1 L 374.6,288.4 L 374.2,289.6 L 373.7,291.0 L 373.1,292.3 L 372.4,293.5 L 371.6,294.7 L 370.8,295.8 L 369.9,296.8 L 368.9,297.7 L 367.8,298.6 L 366.6,299.4 L 365.3,300.2 L 364.0,300.8 L 362.6,301.3 L 361.3,301.6 L 359.9,301.9 L 358.6,302.0 L 357.3,302.0 L 355.7,301.8 L 354.3,301.4 L 352.9,300.9 L 351.7,300.3 L 350.5,299.5 L 349.4,298.6 L 348.4,297.5 L 347.5,296.3 L 346.7,295.0 L 346.1,293.7 L 345.6,292.3 L 345.3,290.8 L 345.2,289.4 L 345.2,288.1 L 345.3,286.7 L 345.5,285.4 L 345.9,284.1 L 346.3,282.8 L 346.8,281.5 L 347.4,280.2 L 348.1,279.0 L 348.9,277.8 L 349.8,276.6 L 350.6,275.5 L 351.5,274.5 L 352.4,273.4 L 353.4,272.4 L 354.3,271.4 L 355.3,270.3 L 356.2,269.2 L 357.0,268.1 L 357.9,267.0 L 358.7,265.9 L 359.3,264.8 L 360.0,263.6 L 360.5,262.5 L 361.0,261.2 L 361.5,260.0 L 361.9,258.7 L 362.3,257.3 L 362.6,255.9 L 362.8,254.6 L 362.9,253.1 L 362.9,251.7 L 362.8,250.4 L 362.5,249.1 L 362.0,247.9 L 361.3,246.8 L 360.3,245.8 L 359.2,245.1 L 358.0,244.6 L 356.7,244.2 L 355.4,244.1 L 353.9,244.1 L 352.7,244.2 L 351.4,244.5 L 350.1,244.9 L 348.8,245.4 L 347.5,246.0 L 346.2,246.6 L 344.8,247.3 L 343.6,247.9 L 342.4,248.5 L 341.1,249.0 L 339.8,249.6 L 338.5,250.1 L 337.1,250.5 L 335.7,250.9 L 334.4,251.2 L 333.0,251.5 L 331.7,251.7 L 330.3,251.9 L 328.9,252.0 L 327.5,252.1 L 326.1,252.1 L 324.8,252.1 L 323.5,252.0 L 322.2,251.9 L 320.9,251.7 L 319.6,251.5 L 318.2,251.2 L 316.9,250.9 L 315.6,250.5 L 314.3,250.1 L 313.0,249.6 L 311.6,249.1 L 310.3,248.5 L 309.1,247.8 L 307.8,247.1 L 306.6,246.4 L 305.4,245.6 L 304.2,244.8 L 303.0,243.9 L 301.8,243.0 L 300.6,242.1 L 299.4,241.2 L 298.2,240.3 L 297.1,239.6 L 296.0,238.9 L 294.7,238.1 L 293.5,237.5 L 292.2,236.9 L 291.0,236.5 L 289.5,236.1 L 288.0,235.9 L 286.5,235.8 L 285.1,236.0 L 283.7,236.3 L 282.3,236.8 L 281.1,237.4 L 279.9,238.1 L 278.9,239.0 L 278.0,240.0 L 277.2,241.1 L 276.5,242.3 L 276.1,243.6 L 275.7,245.0 L 275.5,246.4 L 275.4,247.8 L 275.5,249.3 L 275.6,250.7 L 275.8,252.0 L 275.9,253.4 L 275.8,254.7 L 275.4,256.0 L 274.6,257.0 L 273.6,257.8 L 272.3,258.2 L 271.0,258.3 L 269.7,258.1 L 268.4,257.7 L 267.2,257.2 L 266.0,256.5 L 264.9,255.7 L 263.8,254.9 L 262.8,254.1 L 261.7,253.3 L 260.6,252.5 L 259.5,251.6 L 258.3,250.7 L 257.1,249.8 L 256.0,248.9 L 254.9,248.1 L 253.8,247.3 L 252.7,246.4 L 251.6,245.6 L 250.5,244.7 L 249.3,243.8 L 248.2,243.0 L 247.1,242.2 L 246.0,241.3 L 244.9,240.5 L 243.7,239.7 L 242.6,238.8 L 241.4,238.0 L 240.4,237.2 L 239.3,236.5 L 238.3,235.7 L 237.2,234.9 L 236.1,234.1 L 235.0,233.3 L 233.9,232.5 L 232.8,231.7 L 231.7,230.9 L 230.5,230.1 L 229.4,229.3 L 229.1,229.0 Z" fill="none" stroke="#4db8ff" stroke-width="2.5" stroke-linecap="round" stroke-linejoin="round"/></svg>