<svg xmlns="http://www.w3.org/2000/svg" viewBox="0 0 400 400" fill="none">
  <path d="M222.6,256.3 L144.6,279.7 L120.4,286.9 L100.3,286.6 L85.7,272.0 L37.8,206.1 L26.7,189.0 L20.0,167.9 L43.1,145.8 L92.6,166.3 L126.4,142.2 L191.6,118.7 L287.2,115.2 L324.1,113.1 L354.6,121.9 L373.4,150.8 L380.0,171.8 L380.0,195.6 L357.0,215.9 L314.3,229.5 L259.2,245.6 L222.6,256.3 Z"
    stroke="#ffffff" stroke-width="8" stroke-linecap="round" stroke-linejoin="round"
    stroke-opacity="0.15" fill="none"/>
  <path d="M222.6,256.3 L144.6,279.7 L120.4,286.9 L100.3,286.6 L85.7,272.0 L37.8,206.1 L26.7,189.0 L20.0,167.9 L43.1,145.8 L92.6,166.3 L126.4,142.2 L191.6,118.7 L287.2,115.2 L324.1,113.1 L354.6,121.9 L373.4,150.8 L380.0,171.8 L380.0,195.6 L357.0,215.9 L314.3,229.5 L259.2,245.6 L222.6,256.3 Z"
    stroke="#4db8ff" stroke-width="4.0" stroke-linecap="round" stroke-linejoin="round"
    fill="none" id="track-outline"/>
</svg>