<svg xmlns="http://www.w3.org/2000/svg" viewBox="0 0 400 400" fill="none">
  <path d="M263.3,289.0 L205.5,306.4 L187.5,311.6 L172.6,311.4 L161.9,300.6 L127.0,251.3 L84.0,172.1 L61.5,141.1 L36.2,116.7 L25.4,106.3 L20.0,94.4 L32.7,88.4 L100.5,90.2 L189.8,103.0 L230.7,103.6 L247.9,111.8 L240.8,132.2 L196.5,149.4 L173.4,146.4 L153.5,143.4 L121.7,159.3 L126.9,189.7 L139.5,210.2 L167.0,222.5 L192.1,204.5 L240.3,187.1 L311.2,184.5 L338.6,182.9 L361.1,189.4 L375.1,210.9 L380.0,226.4 L380.0,244.0 L363.0,259.1 L331.3,269.2 L290.5,281.1 L263.3,289.0 Z"
    stroke="#ffffff" stroke-width="8" stroke-linecap="round" stroke-linejoin="round"
    stroke-opacity="0.15" fill="none"/>
  <path d="M263.3,289.0 L205.5,306.4 L187.5,311.6 L172.6,311.4 L161.9,300.6 L127.0,251.3 L84.0,172.1 L61.5,141.1 L36.2,116.7 L25.4,106.3 L20.0,94.4 L32.7,88.4 L100.5,90.2 L189.8,103.0 L230.7,103.6 L247.9,111.8 L240.8,132.2 L196.5,149.4 L173.4,146.4 L153.5,143.4 L121.7,159.3 L126.9,189.7 L139.5,210.2 L167.0,222.5 L192.1,204.5 L240.3,187.1 L311.2,184.5 L338.6,182.9 L361.1,189.4 L375.1,210.9 L380.0,226.4 L380.0,244.0 L363.0,259.1 L331.3,269.2 L290.5,281.1 L263.3,289.0 Z"
    stroke="#4db8ff" stroke-width="4.0" stroke-linecap="round" stroke-linejoin="round"
    fill="none" id="track-outline"/>
</svg>