<svg xmlns="http://www.w3.org/2000/svg" viewBox="0 0 400 400"><path d="M 207.9,32.2 L 208.9,32.7 L 209.9,33.3 L 210.9,34.0 L 211.9,34.6 L 212.9,35.2 L 213.8,35.9 L 214.8,36.6 L 215.8,37.3 L 216.7,38.0 L 217.7,38.7 L 218.7,39.4 L 219.7,40.0 L 220.7,40.7 L 221.7,41.4 L 222.7,42.1 L 223.7,42.8 L 224.7,43.5 L 225.7,44.2 L 226.7,44.8 L 227.8,45.5 L 228.8,46.2 L 229.8,46.9 L 230.9,47.6 L 231.9,48.3 L 232.9,49.0 L 234.0,49.7 L 235.0,50.4 L 236.1,51.1 L 237.2,51.9 L 238.2,52.6 L 239.3,53.3 L 240.4,54.0 L 241.4,54.7 L 242.5,55.4 L 243.6,56.1 L 244.7,56.9 L 245.8,57.6 L 246.8,58.3 L 247.9,59.0 L 249.0,59.7 L 250.1,60.4 L 251.2,61.2 L 252.3,61.9 L 253.4,62.6 L 254.5,63.3 L 255.7,64.0 L 256.8,64.8 L 257.9,65.5 L 259.0,66.2 L 260.1,67.0 L 261.2,67.7 L 262.3,68.4 L 263.4,69.1 L 264.4,69.8 L 265.4,70.5 L 266.4,71.2 L 267.3,71.9 L 268.3,72.5 L 269.2,73.2 L 270.0,73.8 L 270.9,74.5 L 271.7,75.1 L 272.5,75.8 L 273.3,76.4 L 274.1,77.1 L 274.9,77.8 L 275.8,78.7 L 276.7,79.6 L 277.6,80.5 L 278.4,81.4 L 279.2,82.3 L 279.9,83.3 L 280.6,84.3 L 281.3,85.3 L 282.0,86.3 L 282.6,87.3 L 283.1,88.3 L 283.6,89.4 L 284.1,90.4 L 284.5,91.5 L 284.9,92.6 L 285.2,93.7 L 285.5,94.8 L 285.7,95.9 L 285.9,97.1 L 286.0,98.3 L 286.0,99.4 L 286.0,100.6 L 286.0,101.8 L 285.9,103.0 L 285.7,104.2 L 285.5,105.4 L 285.3,106.6 L 285.0,107.7 L 284.6,108.9 L 284.2,110.0 L 283.8,111.1 L 283.3,112.2 L 282.8,113.3 L 282.2,114.3 L 281.6,115.4 L 281.0,116.5 L 280.4,117.5 L 279.7,118.5 L 278.9,119.5 L 278.2,120.5 L 277.4,121.5 L 276.6,122.5 L 275.7,123.4 L 274.8,124.3 L 273.9,125.2 L 273.0,126.1 L 272.1,126.9 L 271.4,127.5 L 270.6,128.2 L 269.9,128.8 L 269.1,129.4 L 268.2,130.2 L 267.5,130.9 L 266.7,131.5 L 266.0,132.2 L 265.3,132.9 L 264.6,133.7 L 263.9,134.4 L 263.2,135.1 L 262.5,135.9 L 261.8,136.7 L 261.2,137.5 L 260.6,138.3 L 259.9,139.1 L 259.3,139.9 L 258.8,140.7 L 258.2,141.5 L 257.6,142.3 L 257.1,143.2 L 256.6,144.1 L 255.9,145.2 L 255.3,146.3 L 254.7,147.4 L 254.2,148.5 L 253.7,149.5 L 253.3,150.6 L 252.9,151.6 L 252.5,152.5 L 252.2,153.6 L 251.8,154.6 L 251.4,155.6 L 251.0,156.6 L 250.5,157.6 L 249.9,158.6 L 249.3,159.5 L 248.7,160.5 L 248.0,161.4 L 247.3,162.2 L 246.5,163.0 L 245.7,163.8 L 244.8,164.6 L 243.9,165.2 L 242.9,165.9 L 242.1,166.4 L 241.1,167.0 L 240.2,167.5 L 239.1,168.0 L 238.2,168.4 L 237.3,168.8 L 236.3,169.2 L 235.2,169.6 L 234.2,170.1 L 233.3,170.6 L 232.4,171.2 L 231.5,171.8 L 230.6,172.4 L 229.7,173.1 L 228.8,173.8 L 228.0,174.5 L 227.2,175.3 L 226.5,176.1 L 225.7,176.9 L 225.0,177.8 L 224.4,178.7 L 223.7,179.6 L 223.1,180.6 L 222.5,181.6 L 222.0,182.6 L 221.5,183.6 L 221.0,184.7 L 220.5,185.8 L 220.1,186.9 L 219.7,188.0 L 219.3,189.2 L 219.0,190.3 L 218.7,191.5 L 218.4,192.7 L 218.1,193.9 L 217.9,195.1 L 217.6,196.3 L 217.2,197.5 L 216.8,198.7 L 216.4,199.9 L 216.0,201.1 L 215.5,202.3 L 215.2,203.2 L 214.7,204.1 L 214.3,205.0 L 213.9,205.9 L 213.4,206.8 L 212.9,207.6 L 212.4,208.5 L 211.8,209.4 L 211.1,210.4 L 210.4,211.4 L 209.6,212.5 L 208.8,213.4 L 208.0,214.3 L 207.1,215.3 L 206.4,216.0 L 205.7,216.7 L 204.9,217.3 L 204.2,218.0 L 203.4,218.6 L 202.6,219.2 L 201.7,219.8 L 200.9,220.3 L 200.0,220.9 L 199.1,221.4 L 198.2,221.9 L 197.3,222.4 L 196.4,223.0 L 195.5,223.5 L 194.5,224.0 L 193.6,224.6 L 192.7,225.2 L 191.8,225.8 L 190.9,226.4 L 190.0,227.0 L 189.2,227.7 L 188.3,228.3 L 187.4,229.0 L 186.6,229.8 L 185.8,230.5 L 185.0,231.2 L 184.1,232.0 L 183.3,232.7 L 182.4,233.4 L 181.6,234.1 L 180.7,234.8 L 179.8,235.4 L 179.0,236.1 L 178.1,236.7 L 177.3,237.3 L 176.4,237.8 L 175.6,238.3 L 174.6,238.9 L 173.6,239.5 L 172.5,240.1 L 171.4,240.7 L 170.4,241.3 L 169.4,241.8 L 168.5,242.3 L 167.6,242.9 L 166.7,243.4 L 165.8,244.0 L 165.0,244.6 L 164.2,245.2 L 163.4,246.0 L 162.6,246.8 L 161.9,247.7 L 161.3,248.5 L 160.7,249.4 L 160.1,250.4 L 159.6,251.3 L 159.2,252.3 L 158.8,253.3 L 158.4,254.4 L 158.1,255.4 L 157.7,256.5 L 157.5,257.6 L 157.3,258.6 L 157.1,259.6 L 157.0,260.6 L 156.8,261.6 L 156.7,262.7 L 156.6,263.8 L 156.5,264.8 L 156.4,265.9 L 156.3,267.0 L 156.3,268.2 L 156.2,269.3 L 156.2,270.4 L 156.1,271.6 L 156.1,272.8 L 156.0,274.0 L 155.9,275.2 L 155.9,276.4 L 155.8,277.6 L 155.8,278.8 L 155.8,280.1 L 155.7,281.3 L 155.7,282.6 L 155.6,283.9 L 155.6,285.1 L 155.5,286.1 L 155.5,287.0 L 155.5,288.0 L 155.5,289.1 L 155.4,290.1 L 155.4,291.1 L 155.4,292.1 L 155.4,293.2 L 155.3,294.2 L 155.3,295.2 L 155.3,296.3 L 155.3,297.4 L 155.3,298.4 L 155.2,299.5 L 155.2,300.6 L 155.2,301.7 L 155.2,302.8 L 155.2,303.9 L 155.2,305.0 L 155.2,306.1 L 155.2,307.2 L 155.2,308.3 L 155.2,309.4 L 155.2,310.5 L 155.2,311.7 L 155.2,312.8 L 155.1,314.0 L 155.1,315.1 L 155.1,316.3 L 155.1,317.4 L 155.1,318.6 L 155.1,319.7 L 155.1,320.9 L 155.1,322.1 L 155.1,323.3 L 155.1,324.5 L 155.1,325.7 L 155.1,326.9 L 155.1,328.1 L 155.1,329.3 L 155.2,330.5 L 155.2,331.7 L 155.2,332.9 L 155.2,334.2 L 155.3,335.4 L 155.3,336.6 L 155.4,337.9 L 155.4,339.1 L 155.5,340.4 L 155.5,341.6 L 155.6,342.8 L 155.6,344.0 L 155.7,345.2 L 155.7,346.3 L 155.7,347.5 L 155.8,348.5 L 155.8,349.6 L 155.9,350.6 L 155.9,351.7 L 155.9,352.9 L 155.9,354.2 L 155.9,355.3 L 155.8,356.4 L 155.8,357.5 L 155.7,358.6 L 155.5,359.6 L 155.3,360.6 L 155.1,361.7 L 154.8,362.8 L 154.4,363.8 L 154.0,364.7 L 153.5,365.8 L 153.0,366.8 L 152.3,367.7 L 151.6,368.6 L 150.9,369.4 L 150.0,370.2 L 149.2,370.9 L 148.4,371.5 L 147.5,372.1 L 146.6,372.7 L 145.6,373.2 L 144.6,373.6 L 143.6,374.0 L 142.7,374.3 L 141.7,374.6 L 140.7,374.9 L 139.7,375.1 L 138.6,375.3 L 137.6,375.5 L 136.5,375.6 L 135.4,375.7 L 134.3,375.8 L 133.2,375.8 L 132.1,375.9 L 131.1,375.9 L 130.0,376.0 L 128.9,376.0 L 127.8,376.0 L 126.6,376.0 L 125.5,375.9 L 124.4,375.7 L 123.5,375.5 L 122.4,375.1 L 121.5,374.7 L 120.6,374.2 L 119.8,373.6 L 119.1,372.8 L 118.4,372.0 L 117.9,371.1 L 117.5,370.1 L 117.1,369.1 L 116.8,368.1 L 116.6,367.1 L 116.4,366.0 L 116.3,364.9 L 116.3,363.7 L 116.3,362.6 L 116.3,361.6 L 116.4,360.5 L 116.5,359.4 L 116.6,358.2 L 116.8,357.1 L 117.0,356.0 L 117.2,354.9 L 117.4,353.8 L 117.6,352.8 L 117.9,351.8 L 118.1,350.8 L 118.3,349.8 L 118.6,348.7 L 118.8,347.6 L 119.1,346.5 L 119.3,345.4 L 119.6,344.3 L 119.9,343.2 L 120.1,342.0 L 120.4,340.8 L 120.6,339.7 L 120.9,338.5 L 121.1,337.3 L 121.3,336.0 L 121.6,334.8 L 121.8,333.6 L 122.0,332.3 L 122.2,331.0 L 122.4,329.9 L 122.5,328.9 L 122.7,327.9 L 122.8,326.9 L 122.9,325.9 L 123.0,324.9 L 123.1,323.9 L 123.2,322.9 L 123.3,321.9 L 123.4,320.9 L 123.5,319.8 L 123.5,318.8 L 123.6,317.7 L 123.6,316.7 L 123.7,315.6 L 123.7,314.6 L 123.7,313.5 L 123.8,312.4 L 123.8,311.4 L 123.8,310.3 L 123.8,309.2 L 123.8,308.1 L 123.8,307.0 L 123.7,305.9 L 123.7,304.8 L 123.7,303.7 L 123.6,302.6 L 123.6,301.5 L 123.6,300.4 L 123.5,299.3 L 123.5,298.2 L 123.4,297.1 L 123.3,295.9 L 123.3,294.8 L 123.2,293.7 L 123.1,292.5 L 123.1,291.4 L 123.0,290.2 L 122.9,289.1 L 122.8,287.9 L 122.7,286.8 L 122.6,285.6 L 122.5,284.4 L 122.4,283.3 L 122.3,282.1 L 122.2,280.9 L 122.0,279.7 L 121.9,278.5 L 121.8,277.4 L 121.7,276.2 L 121.5,275.0 L 121.4,273.8 L 121.3,272.6 L 121.1,271.3 L 121.0,270.1 L 120.9,268.9 L 120.7,267.7 L 120.6,266.4 L 120.4,265.2 L 120.3,264.0 L 120.2,262.7 L 120.0,261.5 L 119.9,260.2 L 119.8,259.0 L 119.6,257.7 L 119.5,256.5 L 119.3,255.2 L 119.2,254.0 L 119.1,252.7 L 118.9,251.4 L 118.8,250.2 L 118.6,248.9 L 118.5,247.6 L 118.4,246.3 L 118.2,245.0 L 118.1,243.8 L 118.0,242.5 L 117.8,241.2 L 117.7,239.9 L 117.6,238.6 L 117.4,237.3 L 117.3,236.0 L 117.2,234.7 L 117.0,233.4 L 116.9,232.1 L 116.8,230.8 L 116.6,229.5 L 116.5,228.2 L 116.4,226.8 L 116.2,225.5 L 116.1,224.2 L 116.0,222.9 L 115.9,221.6 L 115.8,220.2 L 115.6,218.9 L 115.5,217.6 L 115.4,216.2 L 115.3,214.9 L 115.2,213.6 L 115.1,212.2 L 115.0,210.9 L 114.9,209.5 L 114.8,208.2 L 114.7,206.8 L 114.6,205.5 L 114.5,204.1 L 114.4,202.8 L 114.4,201.4 L 114.3,200.0 L 114.2,198.7 L 114.2,197.3 L 114.1,195.9 L 114.1,194.6 L 114.1,193.2 L 114.0,191.8 L 114.0,190.5 L 114.0,189.1 L 114.0,187.7 L 114.0,186.3 L 114.0,184.9 L 114.0,183.5 L 114.0,182.2 L 114.0,180.8 L 114.1,179.4 L 114.1,178.0 L 114.2,176.6 L 114.3,175.5 L 114.4,174.1 L 114.4,172.7 L 114.6,171.3 L 114.7,169.9 L 114.8,168.5 L 114.9,167.1 L 115.1,165.7 L 115.3,164.3 L 115.4,162.9 L 115.6,161.5 L 115.8,160.0 L 116.1,158.6 L 116.3,157.2 L 116.5,155.8 L 116.8,154.4 L 117.1,153.0 L 117.4,151.6 L 117.7,150.2 L 118.0,148.9 L 118.4,147.5 L 118.7,146.1 L 119.0,144.8 L 119.3,143.7 L 119.7,142.4 L 120.1,141.0 L 120.5,139.6 L 120.9,138.2 L 121.4,136.8 L 121.8,135.4 L 122.2,134.0 L 122.7,132.6 L 123.1,131.3 L 123.6,129.9 L 124.0,128.5 L 124.5,127.1 L 124.9,125.7 L 125.4,124.3 L 125.8,122.9 L 126.3,121.5 L 126.7,120.1 L 127.2,118.7 L 127.6,117.3 L 128.0,115.9 L 128.5,114.6 L 128.9,113.3 L 129.3,112.0 L 129.7,110.8 L 130.0,109.6 L 130.4,108.4 L 130.8,107.3 L 131.1,106.2 L 131.4,105.1 L 131.8,104.1 L 132.1,103.1 L 132.4,102.1 L 132.7,101.1 L 133.1,99.9 L 133.4,98.8 L 133.8,97.6 L 134.1,96.6 L 134.4,95.6 L 134.6,94.6 L 134.9,93.5 L 135.2,92.5 L 135.5,91.4 L 135.7,90.4 L 135.9,89.3 L 136.0,88.2 L 136.0,87.1 L 135.9,86.0 L 135.8,85.0 L 135.5,84.0 L 135.2,83.0 L 134.8,82.0 L 134.2,81.1 L 133.6,80.3 L 132.9,79.4 L 132.2,78.5 L 131.5,77.6 L 130.7,76.7 L 130.1,75.8 L 129.6,75.0 L 129.1,73.9 L 128.7,72.9 L 128.4,71.9 L 128.2,70.9 L 128.1,69.9 L 128.0,68.9 L 128.1,67.8 L 128.1,66.8 L 128.3,65.7 L 128.5,64.7 L 128.7,63.6 L 129.0,62.5 L 129.4,61.5 L 129.8,60.4 L 130.2,59.4 L 130.6,58.4 L 131.1,57.5 L 131.6,56.5 L 132.2,55.6 L 132.8,54.6 L 133.3,53.8 L 133.8,52.9 L 134.4,52.1 L 135.0,51.2 L 135.6,50.4 L 136.3,49.5 L 136.9,48.7 L 137.6,47.8 L 138.3,47.0 L 139.0,46.1 L 139.7,45.3 L 140.5,44.4 L 141.3,43.6 L 142.1,42.8 L 142.9,41.9 L 143.8,41.1 L 144.7,40.3 L 145.6,39.5 L 146.5,38.7 L 147.5,37.9 L 148.4,37.1 L 149.4,36.4 L 150.4,35.6 L 151.5,34.8 L 152.2,34.3 L 153.1,33.7 L 153.9,33.1 L 154.7,32.6 L 155.5,32.1 L 156.4,31.5 L 157.3,31.0 L 158.2,30.5 L 159.1,29.9 L 160.0,29.4 L 160.9,28.9 L 161.9,28.5 L 162.8,28.0 L 163.8,27.6 L 164.8,27.2 L 165.8,26.8 L 166.9,26.4 L 167.9,26.1 L 169.0,25.7 L 170.1,25.5 L 171.1,25.2 L 172.2,24.9 L 173.3,24.7 L 174.4,24.5 L 175.5,24.4 L 176.7,24.2 L 177.8,24.1 L 178.9,24.1 L 180.0,24.0 L 181.2,24.0 L 182.3,24.0 L 183.4,24.1 L 184.5,24.2 L 185.6,24.3 L 186.8,24.4 L 187.9,24.6 L 189.0,24.8 L 190.1,25.0 L 191.2,25.2 L 192.3,25.4 L 193.4,25.7 L 194.5,26.0 L 195.5,26.3 L 196.6,26.7 L 197.6,27.0 L 198.7,27.4 L 199.7,27.8 L 200.7,28.2 L 201.7,28.7 L 202.7,29.1 L 203.7,29.6 L 204.7,30.1 L 205.7,30.7 L 206.6,31.2 L 207.6,31.8 L 207.9,32.2 Z" fill="none" stroke="rgba(255,255,255,0.15)" stroke-width="5" stroke-linecap="round" stroke-linejoin="round"/><path d="M 207.9,32.2 L 208.9,32.7 L 209.9,33.3 L 210.9,34.0 L 211.9,34.6 L 212.9,35.2 L 213.8,35.9 L 214.8,36.6 L 215.8,37.3 L 216.7,38.0 L 217.7,38.7 L 218.7,39.4 L 219.7,40.0 L 220.7,40.7 L 221.7,41.4 L 222.7,42.1 L 223.7,42.8 L 224.7,43.5 L 225.7,44.2 L 226.7,44.8 L 227.8,45.5 L 228.8,46.2 L 229.8,46.9 L 230.9,47.6 L 231.9,48.3 L 232.9,49.0 L 234.0,49.7 L 235.0,50.4 L 236.1,51.1 L 237.2,51.9 L 238.2,52.6 L 239.3,53.3 L 240.4,54.0 L 241.4,54.7 L 242.5,55.4 L 243.6,56.1 L 244.7,56.9 L 245.8,57.6 L 246.8,58.3 L 247.9,59.0 L 249.0,59.7 L 250.1,60.4 L 251.2,61.2 L 252.3,61.9 L 253.4,62.6 L 254.5,63.3 L 255.7,64.0 L 256.8,64.8 L 257.9,65.5 L 259.0,66.2 L 260.1,67.0 L 261.2,67.7 L 262.3,68.4 L 263.4,69.1 L 264.4,69.8 L 265.4,70.5 L 266.4,71.2 L 267.3,71.9 L 268.3,72.5 L 269.2,73.2 L 270.0,73.8 L 270.9,74.5 L 271.7,75.1 L 272.5,75.8 L 273.3,76.4 L 274.1,77.1 L 274.9,77.8 L 275.8,78.7 L 276.7,79.6 L 277.6,80.5 L 278.4,81.4 L 279.2,82.3 L 279.9,83.3 L 280.6,84.3 L 281.3,85.3 L 282.0,86.3 L 282.6,87.3 L 283.1,88.3 L 283.6,89.4 L 284.1,90.4 L 284.5,91.5 L 284.9,92.6 L 285.2,93.7 L 285.5,94.8 L 285.7,95.9 L 285.9,97.1 L 286.0,98.3 L 286.0,99.4 L 286.0,100.6 L 286.0,101.8 L 285.9,103.0 L 285.7,104.2 L 285.5,105.4 L 285.3,106.6 L 285.0,107.7 L 284.6,108.9 L 284.2,110.0 L 283.8,111.1 L 283.3,112.2 L 282.8,113.3 L 282.2,114.3 L 281.6,115.4 L 281.0,116.5 L 280.4,117.5 L 279.7,118.5 L 278.9,119.5 L 278.2,120.5 L 277.4,121.5 L 276.6,122.5 L 275.7,123.4 L 274.8,124.3 L 273.9,125.2 L 273.0,126.1 L 272.1,126.9 L 271.4,127.5 L 270.6,128.2 L 269.9,128.8 L 269.1,129.4 L 268.2,130.2 L 267.5,130.9 L 266.7,131.5 L 266.0,132.2 L 265.3,132.9 L 264.6,133.7 L 263.9,134.4 L 263.2,135.1 L 262.5,135.9 L 261.8,136.7 L 261.2,137.5 L 260.6,138.3 L 259.9,139.1 L 259.3,139.9 L 258.8,140.7 L 258.2,141.5 L 257.6,142.3 L 257.1,143.2 L 256.6,144.1 L 255.9,145.2 L 255.3,146.3 L 254.7,147.4 L 254.2,148.5 L 253.7,149.5 L 253.3,150.6 L 252.9,151.6 L 252.5,152.5 L 252.2,153.6 L 251.8,154.6 L 251.4,155.6 L 251.0,156.6 L 250.5,157.6 L 249.9,158.6 L 249.3,159.5 L 248.7,160.5 L 248.0,161.4 L 247.3,162.2 L 246.5,163.0 L 245.7,163.8 L 244.8,164.6 L 243.9,165.2 L 242.9,165.9 L 242.1,166.4 L 241.1,167.0 L 240.2,167.5 L 239.1,168.0 L 238.2,168.4 L 237.3,168.8 L 236.3,169.2 L 235.2,169.6 L 234.2,170.1 L 233.3,170.6 L 232.4,171.2 L 231.5,171.8 L 230.6,172.4 L 229.7,173.1 L 228.8,173.8 L 228.0,174.5 L 227.2,175.3 L 226.5,176.1 L 225.7,176.9 L 225.0,177.8 L 224.4,178.7 L 223.7,179.6 L 223.1,180.6 L 222.5,181.6 L 222.0,182.6 L 221.5,183.6 L 221.0,184.7 L 220.5,185.8 L 220.1,186.9 L 219.7,188.0 L 219.3,189.2 L 219.0,190.3 L 218.7,191.5 L 218.4,192.7 L 218.1,193.9 L 217.9,195.1 L 217.6,196.3 L 217.2,197.5 L 216.8,198.7 L 216.4,199.9 L 216.0,201.1 L 215.5,202.3 L 215.2,203.2 L 214.7,204.1 L 214.3,205.0 L 213.9,205.9 L 213.4,206.8 L 212.9,207.6 L 212.4,208.5 L 211.8,209.4 L 211.1,210.4 L 210.4,211.4 L 209.6,212.5 L 208.8,213.4 L 208.0,214.3 L 207.1,215.3 L 206.4,216.0 L 205.7,216.7 L 204.9,217.3 L 204.2,218.0 L 203.4,218.6 L 202.6,219.2 L 201.7,219.8 L 200.9,220.3 L 200.0,220.9 L 199.1,221.4 L 198.2,221.9 L 197.3,222.4 L 196.4,223.0 L 195.5,223.5 L 194.5,224.0 L 193.6,224.6 L 192.7,225.2 L 191.8,225.8 L 190.9,226.4 L 190.0,227.0 L 189.2,227.7 L 188.3,228.3 L 187.4,229.0 L 186.6,229.8 L 185.8,230.5 L 185.0,231.2 L 184.1,232.0 L 183.3,232.7 L 182.4,233.4 L 181.6,234.1 L 180.7,234.8 L 179.8,235.4 L 179.0,236.1 L 178.1,236.7 L 177.3,237.3 L 176.4,237.8 L 175.6,238.3 L 174.6,238.9 L 173.6,239.5 L 172.5,240.1 L 171.4,240.7 L 170.4,241.3 L 169.4,241.8 L 168.5,242.3 L 167.6,242.9 L 166.7,243.4 L 165.8,244.0 L 165.0,244.6 L 164.2,245.2 L 163.4,246.0 L 162.6,246.8 L 161.9,247.7 L 161.3,248.5 L 160.7,249.4 L 160.1,250.4 L 159.6,251.3 L 159.2,252.3 L 158.8,253.3 L 158.4,254.4 L 158.1,255.4 L 157.7,256.5 L 157.5,257.6 L 157.3,258.6 L 157.1,259.6 L 157.0,260.6 L 156.8,261.6 L 156.7,262.7 L 156.6,263.8 L 156.5,264.8 L 156.4,265.9 L 156.3,267.0 L 156.3,268.2 L 156.2,269.3 L 156.2,270.4 L 156.1,271.6 L 156.1,272.8 L 156.0,274.0 L 155.9,275.2 L 155.9,276.4 L 155.8,277.6 L 155.8,278.8 L 155.8,280.1 L 155.7,281.3 L 155.7,282.6 L 155.6,283.9 L 155.6,285.1 L 155.5,286.1 L 155.5,287.0 L 155.5,288.0 L 155.5,289.1 L 155.4,290.1 L 155.4,291.1 L 155.4,292.1 L 155.4,293.2 L 155.3,294.2 L 155.3,295.2 L 155.3,296.3 L 155.3,297.4 L 155.3,298.4 L 155.2,299.5 L 155.2,300.6 L 155.2,301.7 L 155.2,302.8 L 155.2,303.9 L 155.2,305.0 L 155.2,306.1 L 155.2,307.2 L 155.2,308.3 L 155.2,309.4 L 155.2,310.5 L 155.2,311.7 L 155.2,312.8 L 155.1,314.0 L 155.1,315.1 L 155.1,316.3 L 155.1,317.4 L 155.1,318.6 L 155.1,319.7 L 155.1,320.9 L 155.1,322.1 L 155.1,323.3 L 155.1,324.5 L 155.1,325.7 L 155.1,326.9 L 155.1,328.1 L 155.1,329.3 L 155.2,330.5 L 155.2,331.7 L 155.2,332.9 L 155.2,334.2 L 155.3,335.4 L 155.3,336.6 L 155.4,337.9 L 155.4,339.1 L 155.5,340.4 L 155.5,341.6 L 155.6,342.8 L 155.6,344.0 L 155.7,345.2 L 155.7,346.3 L 155.7,347.5 L 155.8,348.5 L 155.8,349.6 L 155.9,350.6 L 155.9,351.7 L 155.9,352.9 L 155.9,354.2 L 155.9,355.3 L 155.8,356.4 L 155.8,357.5 L 155.7,358.6 L 155.5,359.6 L 155.3,360.6 L 155.1,361.7 L 154.8,362.8 L 154.4,363.8 L 154.0,364.7 L 153.5,365.8 L 153.0,366.8 L 152.3,367.7 L 151.6,368.6 L 150.9,369.4 L 150.0,370.2 L 149.2,370.9 L 148.4,371.5 L 147.5,372.1 L 146.6,372.7 L 145.6,373.2 L 144.6,373.6 L 143.6,374.0 L 142.7,374.3 L 141.7,374.6 L 140.7,374.9 L 139.7,375.1 L 138.6,375.3 L 137.6,375.5 L 136.5,375.6 L 135.4,375.7 L 134.3,375.8 L 133.2,375.8 L 132.1,375.9 L 131.1,375.9 L 130.0,376.0 L 128.9,376.0 L 127.8,376.0 L 126.6,376.0 L 125.5,375.9 L 124.4,375.7 L 123.5,375.5 L 122.4,375.1 L 121.5,374.7 L 120.6,374.2 L 119.8,373.6 L 119.1,372.8 L 118.4,372.0 L 117.9,371.1 L 117.5,370.1 L 117.1,369.1 L 116.8,368.1 L 116.6,367.1 L 116.4,366.0 L 116.3,364.9 L 116.3,363.7 L 116.3,362.6 L 116.3,361.6 L 116.4,360.5 L 116.5,359.4 L 116.6,358.2 L 116.8,357.1 L 117.0,356.0 L 117.2,354.9 L 117.4,353.8 L 117.6,352.8 L 117.9,351.8 L 118.1,350.8 L 118.3,349.8 L 118.6,348.7 L 118.8,347.6 L 119.1,346.5 L 119.3,345.4 L 119.6,344.3 L 119.9,343.2 L 120.1,342.0 L 120.4,340.8 L 120.6,339.7 L 120.9,338.5 L 121.1,337.3 L 121.3,336.0 L 121.6,334.8 L 121.8,333.6 L 122.0,332.3 L 122.2,331.0 L 122.4,329.9 L 122.5,328.9 L 122.7,327.9 L 122.8,326.9 L 122.9,325.9 L 123.0,324.9 L 123.1,323.9 L 123.2,322.9 L 123.3,321.9 L 123.4,320.9 L 123.5,319.8 L 123.5,318.8 L 123.6,317.7 L 123.6,316.7 L 123.7,315.6 L 123.7,314.6 L 123.7,313.5 L 123.8,312.4 L 123.8,311.4 L 123.8,310.3 L 123.8,309.2 L 123.8,308.1 L 123.8,307.0 L 123.7,305.9 L 123.7,304.8 L 123.7,303.7 L 123.6,302.6 L 123.6,301.5 L 123.6,300.4 L 123.5,299.3 L 123.5,298.2 L 123.4,297.1 L 123.3,295.9 L 123.3,294.8 L 123.2,293.7 L 123.1,292.5 L 123.1,291.4 L 123.0,290.2 L 122.9,289.1 L 122.8,287.9 L 122.7,286.8 L 122.6,285.6 L 122.5,284.4 L 122.4,283.3 L 122.3,282.1 L 122.2,280.9 L 122.0,279.7 L 121.9,278.5 L 121.8,277.4 L 121.7,276.2 L 121.5,275.0 L 121.4,273.8 L 121.3,272.6 L 121.1,271.3 L 121.0,270.1 L 120.9,268.9 L 120.7,267.7 L 120.6,266.4 L 120.4,265.2 L 120.3,264.0 L 120.2,262.7 L 120.0,261.5 L 119.9,260.2 L 119.8,259.0 L 119.6,257.7 L 119.5,256.5 L 119.3,255.2 L 119.2,254.0 L 119.1,252.7 L 118.9,251.4 L 118.8,250.2 L 118.6,248.9 L 118.5,247.6 L 118.4,246.3 L 118.2,245.0 L 118.1,243.8 L 118.0,242.5 L 117.8,241.2 L 117.7,239.9 L 117.6,238.6 L 117.4,237.3 L 117.3,236.0 L 117.2,234.7 L 117.0,233.4 L 116.9,232.1 L 116.8,230.8 L 116.6,229.5 L 116.5,228.2 L 116.4,226.8 L 116.2,225.5 L 116.1,224.2 L 116.0,222.9 L 115.9,221.6 L 115.8,220.2 L 115.6,218.9 L 115.5,217.6 L 115.4,216.2 L 115.3,214.9 L 115.2,213.6 L 115.1,212.2 L 115.0,210.9 L 114.9,209.5 L 114.8,208.2 L 114.7,206.8 L 114.6,205.5 L 114.5,204.1 L 114.4,202.8 L 114.4,201.4 L 114.3,200.0 L 114.2,198.7 L 114.2,197.3 L 114.1,195.9 L 114.1,194.6 L 114.1,193.2 L 114.0,191.8 L 114.0,190.5 L 114.0,189.1 L 114.0,187.7 L 114.0,186.3 L 114.0,184.9 L 114.0,183.5 L 114.0,182.2 L 114.0,180.8 L 114.1,179.4 L 114.1,178.0 L 114.2,176.6 L 114.3,175.5 L 114.4,174.1 L 114.4,172.7 L 114.6,171.3 L 114.7,169.9 L 114.8,168.5 L 114.9,167.1 L 115.1,165.7 L 115.3,164.3 L 115.4,162.9 L 115.6,161.5 L 115.8,160.0 L 116.1,158.6 L 116.3,157.2 L 116.5,155.8 L 116.8,154.4 L 117.1,153.0 L 117.4,151.6 L 117.7,150.2 L 118.0,148.9 L 118.4,147.5 L 118.7,146.1 L 119.0,144.8 L 119.3,143.7 L 119.7,142.4 L 120.1,141.0 L 120.5,139.6 L 120.9,138.2 L 121.4,136.8 L 121.8,135.4 L 122.2,134.0 L 122.7,132.6 L 123.1,131.3 L 123.6,129.9 L 124.0,128.5 L 124.5,127.1 L 124.9,125.7 L 125.4,124.3 L 125.8,122.9 L 126.3,121.5 L 126.7,120.1 L 127.2,118.7 L 127.6,117.3 L 128.0,115.9 L 128.5,114.6 L 128.9,113.3 L 129.3,112.0 L 129.7,110.8 L 130.0,109.6 L 130.4,108.4 L 130.8,107.3 L 131.1,106.2 L 131.4,105.1 L 131.8,104.1 L 132.1,103.1 L 132.4,102.1 L 132.7,101.1 L 133.1,99.9 L 133.4,98.8 L 133.8,97.6 L 134.1,96.6 L 134.4,95.6 L 134.6,94.6 L 134.9,93.5 L 135.2,92.5 L 135.5,91.4 L 135.7,90.4 L 135.9,89.3 L 136.0,88.2 L 136.0,87.1 L 135.9,86.0 L 135.8,85.0 L 135.5,84.0 L 135.2,83.0 L 134.8,82.0 L 134.2,81.1 L 133.6,80.3 L 132.9,79.4 L 132.2,78.5 L 131.5,77.6 L 130.7,76.7 L 130.1,75.8 L 129.6,75.0 L 129.1,73.9 L 128.7,72.9 L 128.4,71.9 L 128.2,70.9 L 128.1,69.9 L 128.0,68.9 L 128.1,67.8 L 128.1,66.8 L 128.3,65.7 L 128.5,64.7 L 128.7,63.6 L 129.0,62.5 L 129.4,61.5 L 129.8,60.4 L 130.2,59.4 L 130.6,58.4 L 131.1,57.5 L 131.6,56.5 L 132.2,55.6 L 132.8,54.6 L 133.3,53.8 L 133.8,52.9 L 134.4,52.1 L 135.0,51.2 L 135.6,50.4 L 136.3,49.5 L 136.9,48.7 L 137.6,47.8 L 138.3,47.0 L 139.0,46.1 L 139.7,45.3 L 140.5,44.4 L 141.3,43.6 L 142.1,42.8 L 142.9,41.9 L 143.8,41.1 L 144.7,40.3 L 145.6,39.5 L 146.5,38.7 L 147.5,37.9 L 148.4,37.1 L 149.4,36.4 L 150.4,35.6 L 151.5,34.8 L 152.2,34.3 L 153.1,33.7 L 153.9,33.1 L 154.7,32.6 L 155.5,32.1 L 156.4,31.5 L 157.3,31.0 L 158.2,30.5 L 159.1,29.9 L 160.0,29.4 L 160.9,28.9 L 161.9,28.5 L 162.8,28.0 L 163.8,27.6 L 164.8,27.2 L 165.8,26.8 L 166.9,26.4 L 167.9,26.1 L 169.0,25.7 L 170.1,25.5 L 171.1,25.2 L 172.2,24.9 L 173.3,24.7 L 174.4,24.5 L 175.5,24.4 L 176.7,24.2 L 177.8,24.1 L 178.9,24.1 L 180.0,24.0 L 181.2,24.0 L 182.3,24.0 L 183.4,24.1 L 184.5,24.2 L 185.6,24.3 L 186.8,24.4 L 187.9,24.6 L 189.0,24.8 L 190.1,25.0 L 191.2,25.2 L 192.3,25.4 L 193.4,25.7 L 194.5,26.0 L 195.5,26.3 L 196.6,26.7 L 197.6,27.0 L 198.7,27.4 L 199.7,27.8 L 200.7,28.2 L 201.7,28.7 L 202.7,29.1 L 203.7,29.6 L 204.7,30.1 L 205.7,30.7 L 206.6,31.2 L 207.6,31.8 L 207.9,32.2 Z" fill="none" stroke="#4db8ff" stroke-width="2.5" stroke-linecap="round" stroke-linejoin="round"/></svg>