<svg xmlns="http://www.w3.org/2000/svg" viewBox="0 0 400 400"><path d="M 153.6,282.4 L 156.3,282.4 L 158.9,282.5 L 161.5,282.5 L 164.2,282.6 L 166.9,282.6 L 169.5,282.7 L 172.2,282.7 L 174.9,282.7 L 177.6,282.8 L 180.4,282.8 L 183.1,282.8 L 185.9,282.9 L 188.6,282.9 L 191.4,283.0 L 194.2,283.0 L 197.0,283.0 L 199.8,283.0 L 202.7,283.1 L 205.5,283.1 L 208.4,283.1 L 211.2,283.1 L 214.1,283.2 L 217.0,283.2 L 219.9,283.2 L 222.8,283.2 L 225.8,283.3 L 228.7,283.3 L 231.7,283.3 L 234.6,283.3 L 237.6,283.3 L 240.6,283.3 L 243.5,283.3 L 246.3,283.3 L 249.1,283.3 L 251.7,283.3 L 254.3,283.3 L 256.7,283.2 L 259.1,283.2 L 261.4,283.1 L 263.9,283.0 L 266.7,282.8 L 269.4,282.6 L 271.9,282.4 L 274.4,282.0 L 276.7,281.6 L 279.2,281.1 L 281.5,280.5 L 283.9,279.6 L 286.3,278.6 L 288.4,277.5 L 290.5,276.2 L 292.3,274.7 L 294.1,273.1 L 295.7,271.3 L 297.2,269.4 L 298.6,267.3 L 299.9,265.1 L 301.0,262.8 L 301.9,260.6 L 302.8,258.2 L 303.5,255.9 L 304.1,253.7 L 304.7,251.4 L 305.2,248.9 L 305.6,246.4 L 305.9,243.8 L 306.1,241.2 L 306.2,238.4 L 306.2,235.7 L 306.1,232.9 L 306.0,230.4 L 305.7,227.6 L 305.3,224.9 L 304.8,222.1 L 304.3,219.3 L 303.7,216.6 L 303.1,213.7 L 302.6,211.5 L 302.1,209.2 L 301.6,207.0 L 301.1,204.8 L 300.5,202.5 L 300.0,200.1 L 299.6,197.7 L 299.1,195.3 L 298.7,192.9 L 298.4,190.5 L 298.2,188.0 L 298.0,185.6 L 297.8,183.1 L 297.8,180.7 L 297.7,178.3 L 297.7,176.0 L 297.7,173.5 L 297.7,170.7 L 297.7,168.0 L 297.7,165.5 L 297.7,163.0 L 297.7,160.6 L 297.6,158.1 L 297.4,155.6 L 297.0,153.0 L 296.3,150.7 L 295.4,148.6 L 294.3,146.6 L 292.7,144.7 L 290.9,143.2 L 288.7,141.9 L 286.5,141.0 L 284.2,140.3 L 281.7,139.8 L 279.2,139.4 L 276.9,138.9 L 274.6,138.2 L 272.4,137.3 L 270.2,136.3 L 268.0,135.1 L 265.9,133.7 L 263.9,132.1 L 261.8,130.6 L 259.8,129.3 L 257.6,128.1 L 255.3,127.1 L 252.9,126.3 L 250.4,125.9 L 247.9,125.8 L 245.5,126.1 L 243.2,126.8 L 241.0,127.8 L 239.1,129.0 L 237.2,130.5 L 235.5,132.2 L 233.9,134.1 L 232.5,135.9 L 231.1,137.9 L 229.8,140.0 L 228.6,142.3 L 227.4,144.6 L 226.4,146.8 L 225.2,149.0 L 224.1,151.1 L 223.0,153.2 L 221.8,155.3 L 220.5,157.3 L 219.2,159.4 L 217.7,161.5 L 216.2,163.5 L 214.6,165.6 L 212.8,167.6 L 211.1,169.6 L 209.2,171.6 L 207.2,173.5 L 205.2,175.3 L 203.2,177.1 L 201.0,178.9 L 198.5,180.8 L 196.4,182.3 L 194.4,183.7 L 192.5,185.0 L 190.4,186.3 L 188.4,187.5 L 186.3,188.7 L 184.1,189.9 L 181.8,191.0 L 179.5,192.1 L 177.1,193.2 L 174.7,194.2 L 172.3,195.2 L 169.7,196.1 L 167.2,196.9 L 164.6,197.7 L 161.9,198.4 L 159.2,199.1 L 156.6,199.7 L 153.9,200.2 L 151.2,200.7 L 148.5,201.2 L 145.7,201.5 L 142.9,201.9 L 140.3,202.1 L 137.4,202.4 L 134.7,202.6 L 131.9,202.8 L 129.1,202.9 L 126.3,203.1 L 123.5,203.2 L 120.8,203.3 L 118.0,203.4 L 115.2,203.4 L 112.3,203.5 L 109.6,203.5 L 106.8,203.6 L 104.0,203.6 L 101.1,203.6 L 98.3,203.6 L 95.5,203.6 L 92.6,203.6 L 89.7,203.7 L 86.8,203.7 L 83.9,203.7 L 81.0,203.7 L 78.1,203.7 L 75.2,203.7 L 72.4,203.7 L 69.8,203.8 L 67.2,203.8 L 64.6,203.8 L 62.2,203.8 L 59.9,203.8 L 57.4,203.9 L 54.6,203.9 L 51.9,203.9 L 49.4,204.0 L 47.1,204.0 L 44.7,204.0 L 42.1,204.0 L 39.6,204.0 L 37.1,204.0 L 34.8,203.9 L 32.4,203.8 L 30.1,203.3 L 28.0,202.4 L 26.0,200.9 L 24.7,198.9 L 24.0,196.6 L 24.0,194.3 L 24.5,191.9 L 25.3,189.6 L 26.2,187.4 L 27.1,185.2 L 28.0,182.9 L 29.0,180.6 L 29.9,178.4 L 30.9,176.1 L 32.1,173.7 L 33.2,171.5 L 34.2,169.5 L 35.4,167.5 L 36.7,165.4 L 38.0,163.4 L 39.5,161.3 L 41.1,159.2 L 42.7,157.2 L 44.6,155.1 L 46.5,153.0 L 48.5,151.0 L 50.7,149.1 L 52.7,147.4 L 54.7,145.9 L 56.7,144.4 L 58.7,143.1 L 60.9,141.7 L 62.9,140.5 L 65.1,139.3 L 67.5,138.2 L 69.8,137.1 L 72.0,136.1 L 74.3,135.2 L 76.6,134.3 L 79.0,133.5 L 81.4,132.7 L 83.8,131.9 L 86.2,131.1 L 88.7,130.4 L 91.1,129.6 L 93.6,128.7 L 96.1,127.8 L 98.6,126.9 L 101.0,125.9 L 103.6,124.8 L 105.9,123.7 L 108.4,122.5 L 110.8,121.2 L 113.1,119.9 L 115.5,118.4 L 117.8,117.0 L 120.0,115.4 L 122.2,113.8 L 124.4,112.2 L 126.5,110.5 L 128.5,108.8 L 130.6,107.0 L 132.5,105.2 L 134.4,103.4 L 136.3,101.5 L 138.2,99.6 L 140.0,97.6 L 141.9,95.7 L 143.7,93.7 L 145.6,91.7 L 147.5,89.7 L 149.4,87.7 L 151.3,85.7 L 153.2,83.7 L 155.1,81.8 L 156.9,79.9 L 158.7,78.1 L 160.4,76.3 L 162.0,74.6 L 163.7,73.0 L 165.7,70.9 L 167.6,69.0 L 169.4,67.2 L 171.1,65.5 L 172.9,63.7 L 174.6,62.0 L 176.4,60.3 L 178.2,58.5 L 180.0,56.9 L 181.9,55.5 L 184.0,54.4 L 186.3,53.7 L 188.6,53.4 L 191.0,53.6 L 193.2,54.3 L 195.3,55.5 L 197.2,56.9 L 198.9,58.5 L 200.5,60.3 L 201.9,62.2 L 203.4,64.2 L 205.0,66.0 L 206.7,67.8 L 208.5,69.5 L 210.5,71.0 L 212.7,72.5 L 214.9,73.8 L 217.1,74.9 L 219.4,75.9 L 221.9,76.7 L 224.3,77.4 L 226.5,77.9 L 228.8,78.3 L 231.1,78.5 L 233.5,78.7 L 235.9,78.7 L 238.4,78.6 L 240.8,78.3 L 243.3,78.0 L 245.8,77.5 L 248.3,77.0 L 250.8,76.3 L 253.3,75.5 L 255.8,74.6 L 258.3,73.6 L 260.9,72.5 L 263.4,71.3 L 266.0,70.2 L 268.7,69.1 L 271.4,68.1 L 273.9,67.3 L 276.0,66.6 L 278.4,66.0 L 280.6,65.4 L 282.8,65.0 L 285.0,64.5 L 287.8,64.0 L 290.5,63.6 L 293.1,63.3 L 295.6,63.0 L 298.0,62.7 L 300.4,62.6 L 302.9,62.4 L 305.3,62.4 L 307.9,62.5 L 310.4,62.8 L 312.8,63.3 L 315.0,64.2 L 317.1,65.2 L 319.0,66.5 L 320.7,68.1 L 322.1,69.9 L 323.3,72.0 L 324.4,74.3 L 325.2,76.7 L 325.8,79.0 L 326.2,81.3 L 326.6,83.8 L 326.8,86.3 L 326.9,88.9 L 326.9,91.4 L 326.9,94.1 L 326.7,96.7 L 326.6,99.0 L 326.5,101.4 L 326.3,103.9 L 326.2,106.4 L 326.0,109.0 L 325.9,111.6 L 325.8,114.3 L 325.7,117.1 L 325.6,119.6 L 325.5,122.3 L 325.4,125.0 L 325.3,128.0 L 325.2,130.8 L 325.1,133.5 L 325.0,136.2 L 324.9,138.4 L 324.9,140.7 L 324.8,142.9 L 324.7,145.2 L 324.6,147.6 L 324.5,149.9 L 324.4,152.2 L 324.3,154.6 L 324.3,157.0 L 324.2,159.4 L 324.1,161.9 L 324.0,164.3 L 323.9,166.8 L 323.8,169.3 L 323.8,171.8 L 323.7,174.4 L 323.8,176.9 L 323.9,179.5 L 324.0,182.0 L 324.3,184.6 L 324.6,187.1 L 324.9,189.6 L 325.3,192.1 L 325.9,194.5 L 326.4,197.0 L 327.1,199.4 L 327.8,201.8 L 328.5,204.2 L 329.3,206.6 L 330.2,209.0 L 331.2,211.4 L 332.2,213.8 L 333.2,216.1 L 334.3,218.4 L 335.5,220.7 L 336.7,222.9 L 338.0,225.1 L 339.4,227.2 L 340.8,229.3 L 342.2,231.3 L 343.7,233.3 L 345.2,235.2 L 346.8,237.1 L 348.5,239.0 L 350.2,240.8 L 351.9,242.5 L 353.6,244.2 L 355.2,245.7 L 357.2,247.6 L 359.2,249.5 L 361.1,251.2 L 362.9,252.9 L 364.6,254.5 L 366.3,256.2 L 368.1,257.9 L 369.8,259.8 L 371.3,261.7 L 372.6,263.7 L 373.7,265.7 L 374.6,267.9 L 375.3,270.3 L 375.8,272.6 L 376.0,275.0 L 376.0,277.4 L 375.7,279.7 L 375.3,282.0 L 374.5,284.5 L 373.7,286.7 L 372.7,288.9 L 371.6,291.2 L 370.3,293.5 L 369.2,295.6 L 368.2,297.9 L 367.2,300.2 L 366.5,302.4 L 365.8,304.7 L 365.2,307.0 L 364.7,309.4 L 364.3,311.9 L 364.0,314.4 L 363.8,316.9 L 363.7,319.3 L 363.5,321.8 L 363.3,324.4 L 362.9,326.7 L 362.4,329.0 L 361.6,331.3 L 360.6,333.5 L 359.4,335.7 L 358.0,337.7 L 356.3,339.5 L 354.5,341.0 L 352.4,342.4 L 350.2,343.5 L 348.0,344.5 L 345.6,345.2 L 343.3,345.8 L 340.9,346.2 L 338.5,346.4 L 335.9,346.6 L 333.4,346.6 L 330.8,346.6 L 328.3,346.5 L 326.0,346.4 L 323.6,346.3 L 321.2,346.1 L 318.7,345.9 L 316.2,345.8 L 313.6,345.7 L 311.0,345.6 L 308.3,345.6 L 305.7,345.5 L 303.1,345.5 L 300.3,345.5 L 297.6,345.5 L 294.9,345.5 L 292.0,345.6 L 289.2,345.6 L 287.0,345.6 L 284.7,345.6 L 282.5,345.7 L 280.2,345.7 L 277.9,345.7 L 275.5,345.7 L 273.2,345.8 L 270.8,345.8 L 268.4,345.8 L 266.0,345.9 L 263.5,345.9 L 261.1,345.9 L 258.6,345.9 L 256.1,345.9 L 253.6,345.9 L 251.1,345.9 L 248.5,345.9 L 245.9,345.9 L 243.3,345.9 L 240.8,345.9 L 238.1,345.9 L 235.5,345.9 L 232.9,345.9 L 230.2,345.9 L 227.6,345.9 L 224.9,345.9 L 222.2,345.9 L 219.5,345.9 L 216.8,345.9 L 214.1,345.9 L 211.3,345.9 L 208.6,345.9 L 205.8,345.9 L 203.0,345.9 L 200.2,345.9 L 197.4,345.9 L 194.6,345.9 L 191.8,345.9 L 188.9,345.9 L 186.1,345.9 L 183.2,345.9 L 180.3,345.9 L 177.4,345.9 L 174.5,345.9 L 171.6,345.9 L 168.7,345.9 L 165.7,345.9 L 162.8,345.9 L 159.8,346.0 L 156.8,346.0 L 153.8,346.0 L 150.8,346.0 L 147.8,346.0 L 144.8,346.0 L 141.7,346.0 L 138.7,346.0 L 135.6,346.0 L 132.6,346.0 L 129.5,346.0 L 126.4,346.0 L 123.3,346.0 L 120.2,346.0 L 117.1,346.0 L 113.9,346.0 L 110.8,346.0 L 107.7,346.0 L 104.7,346.0 L 101.8,345.9 L 98.9,345.9 L 96.2,345.8 L 93.5,345.7 L 90.9,345.5 L 88.3,345.3 L 85.8,345.1 L 83.4,344.8 L 81.1,344.4 L 78.8,344.1 L 76.6,343.6 L 73.9,343.1 L 71.3,342.4 L 68.7,341.6 L 66.2,340.8 L 63.8,339.9 L 61.5,338.9 L 59.4,337.8 L 57.3,336.7 L 55.2,335.4 L 53.2,334.0 L 51.2,332.4 L 49.4,330.7 L 47.7,328.9 L 46.3,327.0 L 45.1,325.0 L 44.0,322.8 L 43.1,320.5 L 42.5,318.1 L 42.2,315.6 L 42.2,313.1 L 42.5,310.5 L 43.1,308.1 L 43.9,305.7 L 44.9,303.5 L 46.1,301.2 L 47.5,299.0 L 49.0,296.9 L 50.7,294.8 L 52.3,293.2 L 54.0,291.5 L 56.0,289.8 L 57.9,288.3 L 59.8,287.0 L 61.9,285.8 L 64.0,284.8 L 66.1,283.8 L 68.4,282.9 L 70.7,282.1 L 73.0,281.4 L 75.4,280.8 L 77.9,280.3 L 80.5,279.9 L 83.0,279.6 L 85.6,279.4 L 88.3,279.3 L 91.0,279.3 L 93.7,279.4 L 96.5,279.5 L 99.3,279.7 L 102.2,279.9 L 105.1,280.1 L 107.8,280.4 L 110.0,280.6 L 112.3,280.7 L 114.6,280.9 L 116.8,281.1 L 119.2,281.2 L 121.5,281.4 L 123.8,281.5 L 126.2,281.7 L 128.6,281.8 L 131.0,281.9 L 133.4,282.0 L 135.9,282.0 L 138.4,282.1 L 140.9,282.1 L 143.4,282.2 L 145.9,282.2 L 148.5,282.3 L 151.0,282.3 L 153.6,282.4 Z" fill="none" stroke="rgba(255,255,255,0.15)" stroke-width="5" stroke-linecap="round" stroke-linejoin="round"/><path d="M 153.6,282.4 L 156.3,282.4 L 158.9,282.5 L 161.5,282.5 L 164.2,282.6 L 166.9,282.6 L 169.5,282.7 L 172.2,282.7 L 174.9,282.7 L 177.6,282.8 L 180.4,282.8 L 183.1,282.8 L 185.9,282.9 L 188.6,282.9 L 191.4,283.0 L 194.2,283.0 L 197.0,283.0 L 199.8,283.0 L 202.7,283.1 L 205.5,283.1 L 208.4,283.1 L 211.2,283.1 L 214.1,283.2 L 217.0,283.2 L 219.9,283.2 L 222.8,283.2 L 225.8,283.3 L 228.7,283.3 L 231.7,283.3 L 234.6,283.3 L 237.6,283.3 L 240.6,283.3 L 243.5,283.3 L 246.3,283.3 L 249.1,283.3 L 251.7,283.3 L 254.3,283.3 L 256.7,283.2 L 259.1,283.2 L 261.4,283.1 L 263.9,283.0 L 266.7,282.8 L 269.4,282.6 L 271.9,282.4 L 274.4,282.0 L 276.7,281.6 L 279.2,281.1 L 281.5,280.5 L 283.9,279.6 L 286.3,278.6 L 288.4,277.5 L 290.5,276.2 L 292.3,274.7 L 294.1,273.1 L 295.7,271.3 L 297.2,269.4 L 298.6,267.3 L 299.9,265.1 L 301.0,262.8 L 301.9,260.6 L 302.8,258.2 L 303.5,255.9 L 304.1,253.7 L 304.7,251.4 L 305.2,248.9 L 305.6,246.4 L 305.9,243.8 L 306.1,241.2 L 306.2,238.4 L 306.2,235.7 L 306.1,232.9 L 306.0,230.4 L 305.7,227.6 L 305.3,224.9 L 304.8,222.1 L 304.3,219.3 L 303.7,216.6 L 303.1,213.7 L 302.6,211.5 L 302.1,209.2 L 301.6,207.0 L 301.1,204.8 L 300.5,202.5 L 300.0,200.1 L 299.6,197.7 L 299.1,195.3 L 298.7,192.9 L 298.4,190.5 L 298.2,188.0 L 298.0,185.6 L 297.8,183.1 L 297.8,180.7 L 297.7,178.3 L 297.7,176.0 L 297.7,173.5 L 297.7,170.7 L 297.7,168.0 L 297.7,165.5 L 297.7,163.0 L 297.7,160.6 L 297.6,158.1 L 297.4,155.6 L 297.0,153.0 L 296.3,150.7 L 295.4,148.6 L 294.3,146.6 L 292.7,144.7 L 290.9,143.2 L 288.7,141.9 L 286.5,141.0 L 284.2,140.3 L 281.7,139.8 L 279.2,139.4 L 276.9,138.9 L 274.6,138.2 L 272.4,137.3 L 270.2,136.3 L 268.0,135.1 L 265.9,133.7 L 263.9,132.1 L 261.8,130.6 L 259.8,129.3 L 257.6,128.1 L 255.3,127.1 L 252.9,126.3 L 250.4,125.9 L 247.9,125.8 L 245.5,126.1 L 243.2,126.8 L 241.0,127.8 L 239.1,129.0 L 237.2,130.5 L 235.5,132.2 L 233.9,134.1 L 232.5,135.9 L 231.1,137.9 L 229.8,140.0 L 228.6,142.3 L 227.4,144.6 L 226.4,146.8 L 225.2,149.0 L 224.1,151.1 L 223.0,153.2 L 221.8,155.3 L 220.5,157.3 L 219.2,159.4 L 217.7,161.5 L 216.2,163.5 L 214.6,165.6 L 212.8,167.6 L 211.1,169.6 L 209.2,171.6 L 207.2,173.5 L 205.2,175.3 L 203.2,177.1 L 201.0,178.9 L 198.5,180.8 L 196.4,182.3 L 194.4,183.7 L 192.5,185.0 L 190.4,186.3 L 188.4,187.5 L 186.3,188.7 L 184.1,189.9 L 181.8,191.0 L 179.5,192.1 L 177.1,193.2 L 174.7,194.2 L 172.3,195.2 L 169.7,196.1 L 167.2,196.9 L 164.6,197.7 L 161.9,198.4 L 159.2,199.1 L 156.6,199.7 L 153.9,200.2 L 151.2,200.7 L 148.5,201.2 L 145.7,201.5 L 142.9,201.9 L 140.3,202.1 L 137.4,202.4 L 134.7,202.6 L 131.9,202.8 L 129.1,202.9 L 126.3,203.1 L 123.5,203.2 L 120.8,203.3 L 118.0,203.4 L 115.2,203.4 L 112.3,203.5 L 109.6,203.5 L 106.8,203.6 L 104.0,203.6 L 101.1,203.6 L 98.3,203.6 L 95.5,203.6 L 92.6,203.6 L 89.7,203.7 L 86.8,203.7 L 83.9,203.7 L 81.0,203.7 L 78.1,203.7 L 75.2,203.7 L 72.4,203.7 L 69.8,203.8 L 67.2,203.8 L 64.6,203.8 L 62.2,203.8 L 59.9,203.8 L 57.4,203.9 L 54.6,203.9 L 51.9,203.9 L 49.4,204.0 L 47.1,204.0 L 44.7,204.0 L 42.1,204.0 L 39.6,204.0 L 37.1,204.0 L 34.8,203.9 L 32.4,203.8 L 30.1,203.3 L 28.0,202.4 L 26.0,200.9 L 24.7,198.9 L 24.0,196.6 L 24.0,194.3 L 24.5,191.9 L 25.3,189.6 L 26.2,187.4 L 27.1,185.2 L 28.0,182.9 L 29.0,180.6 L 29.9,178.4 L 30.9,176.1 L 32.1,173.7 L 33.2,171.5 L 34.2,169.5 L 35.4,167.5 L 36.7,165.4 L 38.0,163.4 L 39.5,161.3 L 41.1,159.2 L 42.7,157.2 L 44.6,155.1 L 46.5,153.0 L 48.5,151.0 L 50.7,149.1 L 52.7,147.4 L 54.7,145.9 L 56.7,144.4 L 58.7,143.1 L 60.9,141.7 L 62.9,140.5 L 65.1,139.3 L 67.5,138.2 L 69.8,137.1 L 72.0,136.1 L 74.3,135.2 L 76.6,134.3 L 79.0,133.5 L 81.4,132.7 L 83.8,131.9 L 86.2,131.1 L 88.7,130.4 L 91.1,129.6 L 93.6,128.7 L 96.1,127.8 L 98.6,126.9 L 101.0,125.9 L 103.6,124.8 L 105.9,123.7 L 108.4,122.5 L 110.8,121.2 L 113.1,119.9 L 115.5,118.4 L 117.8,117.0 L 120.0,115.4 L 122.2,113.8 L 124.4,112.2 L 126.5,110.5 L 128.5,108.8 L 130.6,107.0 L 132.5,105.2 L 134.4,103.4 L 136.3,101.5 L 138.2,99.6 L 140.0,97.6 L 141.9,95.7 L 143.7,93.7 L 145.6,91.7 L 147.5,89.7 L 149.4,87.7 L 151.3,85.7 L 153.2,83.7 L 155.1,81.8 L 156.9,79.9 L 158.7,78.1 L 160.4,76.3 L 162.0,74.6 L 163.7,73.0 L 165.7,70.9 L 167.6,69.0 L 169.4,67.2 L 171.1,65.5 L 172.9,63.7 L 174.6,62.0 L 176.4,60.3 L 178.2,58.5 L 180.0,56.9 L 181.9,55.5 L 184.0,54.4 L 186.3,53.7 L 188.6,53.4 L 191.0,53.6 L 193.2,54.3 L 195.3,55.5 L 197.2,56.9 L 198.9,58.5 L 200.5,60.3 L 201.9,62.2 L 203.4,64.2 L 205.0,66.0 L 206.7,67.8 L 208.5,69.5 L 210.5,71.0 L 212.7,72.5 L 214.9,73.8 L 217.1,74.9 L 219.4,75.9 L 221.9,76.7 L 224.3,77.4 L 226.5,77.9 L 228.8,78.3 L 231.1,78.5 L 233.5,78.7 L 235.9,78.7 L 238.4,78.6 L 240.8,78.3 L 243.3,78.0 L 245.8,77.5 L 248.3,77.0 L 250.8,76.3 L 253.3,75.5 L 255.8,74.6 L 258.3,73.6 L 260.9,72.5 L 263.4,71.3 L 266.0,70.2 L 268.7,69.1 L 271.4,68.1 L 273.9,67.3 L 276.0,66.6 L 278.4,66.0 L 280.6,65.4 L 282.8,65.0 L 285.0,64.5 L 287.8,64.0 L 290.5,63.6 L 293.1,63.3 L 295.6,63.0 L 298.0,62.7 L 300.4,62.6 L 302.9,62.4 L 305.3,62.4 L 307.9,62.5 L 310.4,62.8 L 312.8,63.3 L 315.0,64.2 L 317.1,65.2 L 319.0,66.5 L 320.7,68.1 L 322.1,69.9 L 323.3,72.0 L 324.4,74.3 L 325.2,76.7 L 325.8,79.0 L 326.2,81.3 L 326.6,83.8 L 326.8,86.3 L 326.9,88.9 L 326.9,91.4 L 326.9,94.1 L 326.7,96.7 L 326.6,99.0 L 326.5,101.4 L 326.3,103.9 L 326.2,106.4 L 326.0,109.0 L 325.9,111.6 L 325.8,114.3 L 325.7,117.1 L 325.6,119.6 L 325.5,122.3 L 325.4,125.0 L 325.3,128.0 L 325.2,130.8 L 325.1,133.5 L 325.0,136.2 L 324.9,138.4 L 324.9,140.7 L 324.8,142.9 L 324.7,145.2 L 324.6,147.6 L 324.5,149.9 L 324.4,152.2 L 324.3,154.6 L 324.3,157.0 L 324.2,159.4 L 324.1,161.9 L 324.0,164.3 L 323.9,166.8 L 323.8,169.3 L 323.8,171.8 L 323.7,174.4 L 323.8,176.9 L 323.9,179.5 L 324.0,182.0 L 324.3,184.6 L 324.6,187.1 L 324.9,189.6 L 325.3,192.1 L 325.9,194.5 L 326.4,197.0 L 327.1,199.4 L 327.8,201.8 L 328.5,204.2 L 329.3,206.6 L 330.2,209.0 L 331.2,211.4 L 332.2,213.8 L 333.2,216.1 L 334.3,218.4 L 335.5,220.7 L 336.7,222.9 L 338.0,225.1 L 339.4,227.2 L 340.8,229.3 L 342.2,231.3 L 343.7,233.3 L 345.2,235.2 L 346.8,237.1 L 348.5,239.0 L 350.2,240.8 L 351.9,242.5 L 353.6,244.2 L 355.2,245.7 L 357.2,247.6 L 359.2,249.5 L 361.1,251.2 L 362.9,252.9 L 364.6,254.5 L 366.3,256.2 L 368.1,257.9 L 369.8,259.8 L 371.3,261.7 L 372.6,263.7 L 373.7,265.7 L 374.6,267.9 L 375.3,270.3 L 375.8,272.6 L 376.0,275.0 L 376.0,277.4 L 375.7,279.7 L 375.3,282.0 L 374.5,284.5 L 373.7,286.7 L 372.7,288.9 L 371.6,291.2 L 370.3,293.5 L 369.2,295.6 L 368.2,297.9 L 367.2,300.2 L 366.5,302.4 L 365.8,304.7 L 365.2,307.0 L 364.7,309.4 L 364.3,311.9 L 364.0,314.4 L 363.8,316.9 L 363.7,319.3 L 363.5,321.8 L 363.3,324.4 L 362.9,326.7 L 362.4,329.0 L 361.6,331.3 L 360.6,333.5 L 359.4,335.7 L 358.0,337.7 L 356.3,339.5 L 354.5,341.0 L 352.4,342.4 L 350.2,343.5 L 348.0,344.5 L 345.6,345.2 L 343.3,345.8 L 340.9,346.2 L 338.5,346.4 L 335.9,346.6 L 333.4,346.6 L 330.8,346.6 L 328.3,346.5 L 326.0,346.4 L 323.6,346.3 L 321.2,346.1 L 318.7,345.9 L 316.2,345.8 L 313.6,345.7 L 311.0,345.6 L 308.3,345.6 L 305.7,345.5 L 303.1,345.5 L 300.3,345.5 L 297.6,345.5 L 294.9,345.5 L 292.0,345.6 L 289.2,345.6 L 287.0,345.6 L 284.7,345.6 L 282.5,345.7 L 280.2,345.7 L 277.9,345.7 L 275.5,345.7 L 273.2,345.8 L 270.8,345.8 L 268.4,345.8 L 266.0,345.9 L 263.5,345.9 L 261.1,345.9 L 258.6,345.9 L 256.1,345.9 L 253.6,345.9 L 251.1,345.9 L 248.5,345.9 L 245.9,345.9 L 243.3,345.9 L 240.8,345.9 L 238.1,345.9 L 235.5,345.9 L 232.9,345.9 L 230.2,345.9 L 227.6,345.9 L 224.9,345.9 L 222.2,345.9 L 219.5,345.9 L 216.8,345.9 L 214.1,345.9 L 211.3,345.9 L 208.6,345.9 L 205.8,345.9 L 203.0,345.9 L 200.2,345.9 L 197.4,345.9 L 194.6,345.9 L 191.8,345.9 L 188.9,345.9 L 186.1,345.9 L 183.2,345.9 L 180.3,345.9 L 177.4,345.9 L 174.5,345.9 L 171.6,345.9 L 168.7,345.9 L 165.7,345.9 L 162.8,345.9 L 159.8,346.0 L 156.8,346.0 L 153.8,346.0 L 150.8,346.0 L 147.8,346.0 L 144.8,346.0 L 141.7,346.0 L 138.7,346.0 L 135.6,346.0 L 132.6,346.0 L 129.5,346.0 L 126.4,346.0 L 123.3,346.0 L 120.2,346.0 L 117.1,346.0 L 113.9,346.0 L 110.8,346.0 L 107.7,346.0 L 104.7,346.0 L 101.8,345.9 L 98.9,345.9 L 96.2,345.8 L 93.5,345.7 L 90.9,345.5 L 88.3,345.3 L 85.8,345.1 L 83.4,344.8 L 81.1,344.4 L 78.8,344.1 L 76.6,343.6 L 73.9,343.1 L 71.3,342.4 L 68.7,341.6 L 66.2,340.8 L 63.8,339.9 L 61.5,338.9 L 59.4,337.8 L 57.3,336.7 L 55.2,335.4 L 53.2,334.0 L 51.2,332.4 L 49.4,330.7 L 47.7,328.9 L 46.3,327.0 L 45.1,325.0 L 44.0,322.8 L 43.1,320.5 L 42.5,318.1 L 42.2,315.6 L 42.2,313.1 L 42.5,310.5 L 43.1,308.1 L 43.9,305.7 L 44.9,303.5 L 46.1,301.2 L 47.5,299.0 L 49.0,296.9 L 50.7,294.8 L 52.3,293.2 L 54.0,291.5 L 56.0,289.8 L 57.9,288.3 L 59.8,287.0 L 61.9,285.8 L 64.0,284.8 L 66.1,283.8 L 68.4,282.9 L 70.7,282.1 L 73.0,281.4 L 75.4,280.8 L 77.9,280.3 L 80.5,279.9 L 83.0,279.6 L 85.6,279.4 L 88.3,279.3 L 91.0,279.3 L 93.7,279.4 L 96.5,279.5 L 99.3,279.7 L 102.2,279.9 L 105.1,280.1 L 107.8,280.4 L 110.0,280.6 L 112.3,280.7 L 114.6,280.9 L 116.8,281.1 L 119.2,281.2 L 121.5,281.4 L 123.8,281.5 L 126.2,281.7 L 128.6,281.8 L 131.0,281.9 L 133.4,282.0 L 135.9,282.0 L 138.4,282.1 L 140.9,282.1 L 143.4,282.2 L 145.9,282.2 L 148.5,282.3 L 151.0,282.3 L 153.6,282.4 Z" fill="none" stroke="#4db8ff" stroke-width="2.5" stroke-linecap="round" stroke-linejoin="round"/></svg>