<svg xmlns="http://www.w3.org/2000/svg" viewBox="0 0 400 400" fill="none">
  <path d="M132.3,38.8 L125.3,27.6 L124.9,20.0 L135.6,20.9 L149.2,27.9 L173.8,45.0 L203.8,77.0 L215.3,87.0 L228.7,98.2 L237.9,119.2 L244.2,132.4 L263.0,158.9 L267.9,167.6 L278.5,194.0 L288.5,223.2 L304.7,272.4 L310.8,290.7 L311.7,307.1 L304.5,316.6 L304.5,324.4 L307.4,332.0 L307.2,342.7 L300.1,352.0 L278.5,368.0 L270.3,374.2 L255.8,380.0 L249.6,369.6 L255.0,362.7 L267.5,355.1 L273.4,347.0 L272.8,336.5 L263.5,311.0 L258.6,289.7 L255.0,273.0 L246.4,256.9 L230.6,251.6 L211.3,257.7 L199.1,274.3 L189.4,305.0 L185.4,316.9 L172.8,329.5 L152.2,325.6 L138.0,336.0 L130.3,351.7 L127.5,356.8 L117.7,364.0 L107.1,361.0 L97.9,354.9 L88.3,340.0 L90.6,322.5 L110.4,293.5 L127.8,279.5 L148.4,267.6 L167.6,252.5 L182.3,229.5 L185.6,221.5 L188.9,203.2 L184.1,184.3 L174.6,162.3 L166.5,130.1 L164.9,119.1 L166.6,110.4 L174.7,106.9 L171.9,97.7 L163.5,86.4 L159.1,80.0 L132.3,38.8 Z"
    stroke="#ffffff" stroke-width="8" stroke-linecap="round" stroke-linejoin="round"
    stroke-opacity="0.15" fill="none"/>
  <path d="M132.3,38.8 L125.3,27.6 L124.9,20.0 L135.6,20.9 L149.2,27.9 L173.8,45.0 L203.8,77.0 L215.3,87.0 L228.7,98.2 L237.9,119.2 L244.2,132.4 L263.0,158.9 L267.9,167.6 L278.5,194.0 L288.5,223.2 L304.7,272.4 L310.8,290.7 L311.7,307.1 L304.5,316.6 L304.5,324.4 L307.4,332.0 L307.2,342.7 L300.1,352.0 L278.5,368.0 L270.3,374.2 L255.8,380.0 L249.6,369.6 L255.0,362.7 L267.5,355.1 L273.4,347.0 L272.8,336.5 L263.5,311.0 L258.6,289.7 L255.0,273.0 L246.4,256.9 L230.6,251.6 L211.3,257.7 L199.1,274.3 L189.4,305.0 L185.4,316.9 L172.8,329.5 L152.2,325.6 L138.0,336.0 L130.3,351.7 L127.5,356.8 L117.7,364.0 L107.1,361.0 L97.9,354.9 L88.3,340.0 L90.6,322.5 L110.4,293.5 L127.8,279.5 L148.4,267.6 L167.6,252.5 L182.3,229.5 L185.6,221.5 L188.9,203.2 L184.1,184.3 L174.6,162.3 L166.5,130.1 L164.9,119.1 L166.6,110.4 L174.7,106.9 L171.9,97.7 L163.5,86.4 L159.1,80.0 L132.3,38.8 Z"
    stroke="#4db8ff" stroke-width="4.0" stroke-linecap="round" stroke-linejoin="round"
    fill="none" id="track-outline"/>
</svg>