<svg xmlns="http://www.w3.org/2000/svg" viewBox="0 0 400 400" fill="none">
  <path d="M326.1,190.6 L332.6,194.5 L344.2,201.5 L357.6,209.7 L365.0,214.4 L375.6,223.7 L379.6,231.9 L380.0,238.2 L375.8,245.9 L372.5,247.6 L363.2,246.8 L224.9,181.4 L358.7,244.0 L213.0,194.9 L353.6,239.4 L207.5,209.3 L204.8,216.8 L346.6,232.9 L201.4,222.6 L195.3,227.8 L188.7,230.8 L338.8,229.3 L183.2,233.1 L176.9,233.2 L334.8,228.6 L171.5,228.5 L329.9,229.3 L161.8,211.9 L319.2,229.5 L153.4,197.9 L149.5,185.5 L149.6,178.6 L312.0,224.7 L150.1,172.4 L310.1,222.1 L144.8,166.9 L308.0,218.7 L140.6,174.5 L138.6,187.4 L299.2,211.8 L128.8,204.7 L294.5,211.2 L289.2,212.0 L285.3,213.1 L96.0,215.8 L277.6,213.4 L272.2,211.3 L66.9,206.2 L53.5,193.2 L266.9,204.7 L47.9,187.1 L40.6,182.6 L265.8,197.9 L26.8,184.4 L265.8,188.6 L20.0,198.7 L29.8,209.6 L259.3,179.0 L69.4,219.0 L246.7,174.6 L118.3,221.9 L157.8,222.0 L164.5,222.0 L176.7,219.9 L261.9,153.9 L193.4,207.7 L205.7,185.7 L275.7,160.4 L208.6,179.6 L214.4,169.0 L218.5,166.4 L226.0,166.9 L233.0,160.8 L235.7,157.8 L250.7,152.4 L300.3,175.2 L326.1,190.6 Z"
    stroke="#ffffff" stroke-width="8" stroke-linecap="round" stroke-linejoin="round"
    stroke-opacity="0.15" fill="none"/>
  <path d="M326.1,190.6 L332.6,194.5 L344.2,201.5 L357.6,209.7 L365.0,214.4 L375.6,223.7 L379.6,231.9 L380.0,238.2 L375.8,245.9 L372.5,247.6 L363.2,246.8 L224.9,181.4 L358.7,244.0 L213.0,194.9 L353.6,239.4 L207.5,209.3 L204.8,216.8 L346.6,232.9 L201.4,222.6 L195.3,227.8 L188.7,230.8 L338.8,229.3 L183.2,233.1 L176.9,233.2 L334.8,228.6 L171.5,228.5 L329.9,229.3 L161.8,211.9 L319.2,229.5 L153.4,197.9 L149.5,185.5 L149.6,178.6 L312.0,224.7 L150.1,172.4 L310.1,222.1 L144.8,166.9 L308.0,218.7 L140.6,174.5 L138.6,187.4 L299.2,211.8 L128.8,204.7 L294.5,211.2 L289.2,212.0 L285.3,213.1 L96.0,215.8 L277.6,213.4 L272.2,211.3 L66.9,206.2 L53.5,193.2 L266.9,204.7 L47.9,187.1 L40.6,182.6 L265.8,197.9 L26.8,184.4 L265.8,188.6 L20.0,198.7 L29.8,209.6 L259.3,179.0 L69.4,219.0 L246.7,174.6 L118.3,221.9 L157.8,222.0 L164.5,222.0 L176.7,219.9 L261.9,153.9 L193.4,207.7 L205.7,185.7 L275.7,160.4 L208.6,179.6 L214.4,169.0 L218.5,166.4 L226.0,166.9 L233.0,160.8 L235.7,157.8 L250.7,152.4 L300.3,175.2 L326.1,190.6 Z"
    stroke="#4db8ff" stroke-width="4.0" stroke-linecap="round" stroke-linejoin="round"
    fill="none" id="track-outline"/>
</svg>