<svg xmlns="http://www.w3.org/2000/svg" viewBox="0 0 400 400" fill="none">
  <path d="M242.7,176.3 L259.2,186.1 L288.7,204.1 L322.8,224.9 L341.9,236.8 L368.8,260.5 L379.1,281.5 L380.0,297.5 L369.4,317.2 L360.8,321.5 L337.1,319.3 L325.8,312.2 L312.7,300.5 L294.8,284.0 L275.0,274.7 L264.9,273.1 L252.3,274.8 L225.1,275.3 L206.7,263.1 L201.8,256.6 L196.5,247.8 L174.2,230.3 L162.0,228.8 L148.6,230.9 L138.7,233.7 L119.0,234.3 L105.4,229.0 L91.9,212.2 L89.1,194.8 L89.1,171.2 L72.4,146.6 L55.6,139.9 L40.4,135.5 L27.4,125.7 L20.0,107.1 L30.6,85.9 L53.2,78.5 L78.9,82.6 L114.1,99.2 L176.8,136.9 L242.7,176.3 Z"
    stroke="#ffffff" stroke-width="8" stroke-linecap="round" stroke-linejoin="round"
    stroke-opacity="0.15" fill="none"/>
  <path d="M242.7,176.3 L259.2,186.1 L288.7,204.1 L322.8,224.9 L341.9,236.8 L368.8,260.5 L379.1,281.5 L380.0,297.5 L369.4,317.2 L360.8,321.5 L337.1,319.3 L325.8,312.2 L312.7,300.5 L294.8,284.0 L275.0,274.7 L264.9,273.1 L252.3,274.8 L225.1,275.3 L206.7,263.1 L201.8,256.6 L196.5,247.8 L174.2,230.3 L162.0,228.8 L148.6,230.9 L138.7,233.7 L119.0,234.3 L105.4,229.0 L91.9,212.2 L89.1,194.8 L89.1,171.2 L72.4,146.6 L55.6,139.9 L40.4,135.5 L27.4,125.7 L20.0,107.1 L30.6,85.9 L53.2,78.5 L78.9,82.6 L114.1,99.2 L176.8,136.9 L242.7,176.3 Z"
    stroke="#4db8ff" stroke-width="4.0" stroke-linecap="round" stroke-linejoin="round"
    fill="none" id="track-outline"/>
</svg>