<svg xmlns="http://www.w3.org/2000/svg" viewBox="0 0 400 400" fill="none">
  <path d="M140.7,236.9 L110.9,234.0 L74.5,227.8 L47.0,220.5 L20.0,197.4 L28.0,175.4 L34.2,171.7 L55.2,169.4 L70.8,179.1 L102.6,211.4 L153.8,228.2 L163.8,227.9 L210.6,210.0 L227.9,183.4 L229.5,176.2 L232.4,154.2 L243.3,141.3 L248.1,156.7 L248.2,179.0 L253.8,194.8 L275.8,232.1 L288.0,252.8 L296.5,258.7 L310.0,257.1 L329.2,248.2 L339.2,239.4 L345.6,227.9 L362.9,185.8 L373.8,173.4 L380.0,161.6 L376.8,153.8 L373.6,150.5 L364.7,146.6 L357.6,152.1 L341.9,184.3 L333.7,201.0 L320.1,219.4 L293.9,235.7 L271.2,238.6 L206.3,238.6 L140.7,236.9 Z"
    stroke="#ffffff" stroke-width="8" stroke-linecap="round" stroke-linejoin="round"
    stroke-opacity="0.15" fill="none"/>
  <path d="M140.7,236.9 L110.9,234.0 L74.5,227.8 L47.0,220.5 L20.0,197.4 L28.0,175.4 L34.2,171.7 L55.2,169.4 L70.8,179.1 L102.6,211.4 L153.8,228.2 L163.8,227.9 L210.6,210.0 L227.9,183.4 L229.5,176.2 L232.4,154.2 L243.3,141.3 L248.1,156.7 L248.2,179.0 L253.8,194.8 L275.8,232.1 L288.0,252.8 L296.5,258.7 L310.0,257.1 L329.2,248.2 L339.2,239.4 L345.6,227.9 L362.9,185.8 L373.8,173.4 L380.0,161.6 L376.8,153.8 L373.6,150.5 L364.7,146.6 L357.6,152.1 L341.9,184.3 L333.7,201.0 L320.1,219.4 L293.9,235.7 L271.2,238.6 L206.3,238.6 L140.7,236.9 Z"
    stroke="#4db8ff" stroke-width="4.0" stroke-linecap="round" stroke-linejoin="round"
    fill="none" id="track-outline"/>
</svg>