<svg xmlns="http://www.w3.org/2000/svg" viewBox="0 0 400 400" fill="none">
  <path d="M135.6,50.6 L137.3,33.0 L143.3,22.2 L161.3,20.0 L188.0,26.0 L194.7,27.9 L214.1,41.0 L221.5,56.6 L225.7,76.6 L229.2,85.1 L245.5,105.7 L256.3,117.4 L266.8,136.0 L271.8,165.2 L271.9,192.8 L272.5,250.6 L273.1,296.5 L273.2,315.7 L270.2,329.4 L248.0,342.8 L229.7,336.4 L223.5,330.1 L211.8,312.5 L203.0,300.4 L183.6,289.5 L172.9,296.8 L168.9,315.5 L170.7,340.1 L171.6,354.0 L171.9,363.1 L167.2,378.3 L153.3,380.0 L142.4,358.2 L141.6,340.2 L139.8,310.6 L137.7,277.2 L136.8,262.3 L140.9,249.8 L160.1,249.4 L168.8,254.5 L180.6,262.0 L186.1,264.8 L202.4,266.2 L207.6,260.7 L208.7,243.2 L204.5,223.3 L202.1,210.3 L200.5,203.3 L192.0,188.5 L175.1,181.4 L163.1,181.3 L145.7,180.9 L131.7,173.8 L126.8,147.9 L128.8,126.9 L131.2,101.0 L135.6,50.6 Z"
    stroke="#ffffff" stroke-width="8" stroke-linecap="round" stroke-linejoin="round"
    stroke-opacity="0.15" fill="none"/>
  <path d="M135.6,50.6 L137.3,33.0 L143.3,22.2 L161.3,20.0 L188.0,26.0 L194.7,27.9 L214.1,41.0 L221.5,56.6 L225.7,76.6 L229.2,85.1 L245.5,105.7 L256.3,117.4 L266.8,136.0 L271.8,165.2 L271.9,192.8 L272.5,250.6 L273.1,296.5 L273.2,315.7 L270.2,329.4 L248.0,342.8 L229.7,336.4 L223.5,330.1 L211.8,312.5 L203.0,300.4 L183.6,289.5 L172.9,296.8 L168.9,315.5 L170.7,340.1 L171.6,354.0 L171.9,363.1 L167.2,378.3 L153.3,380.0 L142.4,358.2 L141.6,340.2 L139.8,310.6 L137.7,277.2 L136.8,262.3 L140.9,249.8 L160.1,249.4 L168.8,254.5 L180.6,262.0 L186.1,264.8 L202.4,266.2 L207.6,260.7 L208.7,243.2 L204.5,223.3 L202.1,210.3 L200.5,203.3 L192.0,188.5 L175.1,181.4 L163.1,181.3 L145.7,180.9 L131.7,173.8 L126.8,147.9 L128.8,126.9 L131.2,101.0 L135.6,50.6 Z"
    stroke="#4db8ff" stroke-width="4.0" stroke-linecap="round" stroke-linejoin="round"
    fill="none" id="track-outline"/>
</svg>