<svg xmlns="http://www.w3.org/2000/svg" viewBox="0 0 400 400" fill="none">
  <path d="M128.4,54.0 L130.4,34.4 L137.0,22.4 L157.0,20.0 L186.8,26.5 L194.1,28.7 L215.7,43.3 L224.2,60.6 L228.6,82.9 L232.5,92.3 L250.6,115.3 L262.7,128.4 L274.0,149.1 L279.3,181.4 L279.9,212.2 L280.6,262.9 L280.7,280.0 L278.5,294.5 L274.0,305.3 L273.5,322.1 L278.1,333.7 L281.3,348.9 L278.5,364.2 L253.4,380.0 L234.9,371.3 L224.2,353.1 L218.0,316.0 L209.5,268.3 L202.2,231.6 L200.5,223.9 L191.1,207.4 L172.3,199.5 L159.0,199.1 L139.6,198.8 L124.4,190.8 L118.7,162.2 L121.0,138.8 L123.5,110.0 L128.4,54.0 Z"
    stroke="#ffffff" stroke-width="8" stroke-linecap="round" stroke-linejoin="round"
    stroke-opacity="0.15" fill="none"/>
  <path d="M128.4,54.0 L130.4,34.4 L137.0,22.4 L157.0,20.0 L186.8,26.5 L194.1,28.7 L215.7,43.3 L224.2,60.6 L228.6,82.9 L232.5,92.3 L250.6,115.3 L262.7,128.4 L274.0,149.1 L279.3,181.4 L279.9,212.2 L280.6,262.9 L280.7,280.0 L278.5,294.5 L274.0,305.3 L273.5,322.1 L278.1,333.7 L281.3,348.9 L278.5,364.2 L253.4,380.0 L234.9,371.3 L224.2,353.1 L218.0,316.0 L209.5,268.3 L202.2,231.6 L200.5,223.9 L191.1,207.4 L172.3,199.5 L159.0,199.1 L139.6,198.8 L124.4,190.8 L118.7,162.2 L121.0,138.8 L123.5,110.0 L128.4,54.0 Z"
    stroke="#4db8ff" stroke-width="4.0" stroke-linecap="round" stroke-linejoin="round"
    fill="none" id="track-outline"/>
</svg>