<svg xmlns="http://www.w3.org/2000/svg" viewBox="0 0 400 400" fill="none">
  <path d="M128.3,54.2 L130.3,34.5 L136.9,22.5 L157.1,20.0 L186.8,26.7 L194.1,28.9 L215.8,43.5 L224.1,60.8 L228.7,83.1 L232.6,92.5 L250.7,115.5 L262.8,128.6 L274.2,149.3 L279.7,181.7 L280.0,212.5 L280.7,263.3 L281.2,313.7 L281.5,349.3 L278.2,364.5 L253.5,380.0 L234.9,371.9 L224.2,353.6 L218.1,316.5 L209.4,268.7 L202.3,232.0 L200.5,224.2 L191.1,207.7 L172.3,199.7 L159.0,199.4 L139.6,199.2 L124.2,191.1 L118.5,162.4 L121.0,139.1 L123.6,110.2 L128.3,54.2 Z"
    stroke="#ffffff" stroke-width="8" stroke-linecap="round" stroke-linejoin="round"
    stroke-opacity="0.15" fill="none"/>
  <path d="M128.3,54.2 L130.3,34.5 L136.9,22.5 L157.1,20.0 L186.8,26.7 L194.1,28.9 L215.8,43.5 L224.1,60.8 L228.7,83.1 L232.6,92.5 L250.7,115.5 L262.8,128.6 L274.2,149.3 L279.7,181.7 L280.0,212.5 L280.7,263.3 L281.2,313.7 L281.5,349.3 L278.2,364.5 L253.5,380.0 L234.9,371.9 L224.2,353.6 L218.1,316.5 L209.4,268.7 L202.3,232.0 L200.5,224.2 L191.1,207.7 L172.3,199.7 L159.0,199.4 L139.6,199.2 L124.2,191.1 L118.5,162.4 L121.0,139.1 L123.6,110.2 L128.3,54.2 Z"
    stroke="#4db8ff" stroke-width="4.0" stroke-linecap="round" stroke-linejoin="round"
    fill="none" id="track-outline"/>
</svg>