<svg xmlns="http://www.w3.org/2000/svg" viewBox="0 0 400 400"><path d="M 134.0,96.0 L 134.1,94.4 L 134.3,92.9 L 134.4,91.4 L 134.5,89.8 L 134.7,88.3 L 134.8,86.8 L 134.9,85.3 L 135.1,83.7 L 135.2,82.2 L 135.3,80.6 L 135.5,79.0 L 135.6,77.5 L 135.8,75.9 L 135.9,74.3 L 136.1,72.8 L 136.2,71.2 L 136.3,69.6 L 136.5,68.0 L 136.6,66.4 L 136.7,64.8 L 136.9,63.1 L 137.0,61.5 L 137.2,59.9 L 137.3,58.3 L 137.4,56.6 L 137.6,55.0 L 137.7,53.3 L 137.9,51.7 L 138.0,50.1 L 138.1,48.5 L 138.3,46.6 L 138.5,44.7 L 138.7,43.0 L 138.8,41.4 L 139.0,39.7 L 139.3,38.0 L 139.6,36.4 L 139.9,34.8 L 140.5,33.1 L 141.2,31.5 L 142.1,30.1 L 143.1,28.7 L 144.4,27.5 L 145.9,26.5 L 147.5,25.6 L 149.1,25.0 L 150.6,24.5 L 152.2,24.2 L 153.8,24.0 L 155.5,24.0 L 157.2,24.1 L 158.9,24.3 L 160.7,24.6 L 162.4,24.9 L 163.9,25.3 L 165.6,25.6 L 167.2,26.0 L 168.9,26.4 L 170.6,26.7 L 172.1,27.0 L 173.6,27.4 L 175.2,27.7 L 176.7,28.1 L 178.3,28.4 L 179.9,28.8 L 181.6,29.1 L 183.2,29.5 L 184.9,29.9 L 186.5,30.2 L 188.2,30.6 L 189.9,31.0 L 191.6,31.4 L 193.4,31.9 L 195.1,32.5 L 196.8,33.1 L 198.5,33.7 L 200.1,34.4 L 201.8,35.2 L 203.4,36.1 L 205.0,37.0 L 206.6,38.1 L 208.1,39.2 L 209.6,40.4 L 210.9,41.7 L 212.3,43.1 L 213.5,44.5 L 214.7,46.0 L 215.7,47.5 L 216.7,49.2 L 217.6,50.8 L 218.4,52.5 L 219.2,54.3 L 219.9,56.0 L 220.5,57.9 L 221.0,59.7 L 221.5,61.5 L 221.8,63.4 L 222.2,65.3 L 222.5,67.1 L 222.8,69.0 L 223.2,70.9 L 223.6,72.8 L 224.0,74.6 L 224.5,76.5 L 225.0,78.3 L 225.6,80.2 L 226.2,82.0 L 226.9,83.8 L 227.7,85.6 L 228.5,87.3 L 229.4,89.1 L 230.3,90.8 L 231.3,92.4 L 232.4,94.1 L 233.5,95.7 L 234.7,97.2 L 235.9,98.7 L 237.2,100.2 L 238.6,101.7 L 239.9,103.1 L 241.3,104.6 L 242.7,106.0 L 244.1,107.3 L 245.1,108.4 L 246.2,109.5 L 247.3,110.5 L 248.3,111.6 L 249.4,112.7 L 250.4,113.9 L 251.5,115.0 L 252.5,116.2 L 253.5,117.4 L 254.5,118.6 L 255.4,119.8 L 256.3,121.1 L 257.2,122.4 L 258.1,123.7 L 258.9,125.0 L 259.7,126.4 L 260.4,127.8 L 261.2,129.2 L 261.8,130.6 L 262.5,132.1 L 263.1,133.5 L 263.7,135.0 L 264.3,136.5 L 264.8,138.0 L 265.3,139.6 L 265.7,141.1 L 266.1,142.7 L 266.5,144.2 L 266.9,145.8 L 267.2,147.4 L 267.5,149.0 L 267.8,150.6 L 268.0,152.2 L 268.3,153.8 L 268.5,155.4 L 268.7,157.0 L 268.8,158.7 L 269.0,160.3 L 269.1,161.9 L 269.2,163.6 L 269.4,165.2 L 269.5,166.8 L 269.5,168.5 L 269.6,170.2 L 269.7,171.8 L 269.8,173.5 L 269.8,175.1 L 269.9,176.8 L 269.9,178.5 L 270.0,180.1 L 270.0,181.8 L 270.0,183.5 L 270.1,185.2 L 270.1,186.9 L 270.1,188.5 L 270.2,190.2 L 270.2,191.9 L 270.2,193.6 L 270.2,195.3 L 270.3,197.0 L 270.3,198.7 L 270.3,200.4 L 270.3,202.1 L 270.4,203.8 L 270.4,205.5 L 270.4,207.2 L 270.4,209.0 L 270.5,210.7 L 270.5,212.4 L 270.5,214.1 L 270.5,215.9 L 270.5,217.6 L 270.6,219.3 L 270.6,221.0 L 270.6,222.8 L 270.6,224.5 L 270.7,226.3 L 270.7,228.0 L 270.7,229.7 L 270.7,231.5 L 270.8,233.2 L 270.8,235.0 L 270.8,236.7 L 270.8,238.5 L 270.9,240.3 L 270.9,242.0 L 270.9,243.7 L 270.9,245.4 L 270.9,247.0 L 270.9,248.6 L 270.9,250.4 L 270.9,252.3 L 270.8,254.1 L 270.7,255.9 L 270.5,257.6 L 270.2,259.3 L 269.9,261.0 L 269.5,262.6 L 269.0,264.2 L 268.4,265.7 L 267.8,267.3 L 267.1,268.8 L 266.4,270.3 L 265.8,271.8 L 265.3,273.3 L 264.8,274.8 L 264.4,276.4 L 264.1,277.9 L 263.9,279.5 L 263.8,281.1 L 263.8,282.8 L 263.9,284.6 L 264.1,286.2 L 264.4,287.9 L 264.8,289.4 L 265.2,290.9 L 265.7,292.4 L 266.3,293.8 L 267.0,295.3 L 267.6,296.7 L 268.3,298.2 L 268.9,299.7 L 269.5,301.3 L 270.0,302.8 L 270.4,304.4 L 270.8,306.0 L 271.0,307.7 L 271.3,309.3 L 271.4,311.0 L 271.4,312.7 L 271.4,314.4 L 271.2,316.1 L 271.0,317.8 L 270.7,319.4 L 270.2,321.0 L 269.7,322.5 L 269.1,324.0 L 268.4,325.4 L 267.6,326.8 L 266.8,328.2 L 265.8,329.4 L 264.8,330.6 L 263.6,331.8 L 262.3,332.9 L 260.9,334.0 L 259.7,334.8 L 258.3,335.6 L 256.9,336.3 L 255.5,336.9 L 254.0,337.5 L 252.4,337.9 L 250.9,338.3 L 249.3,338.5 L 247.6,338.7 L 246.0,338.7 L 244.4,338.7 L 242.7,338.5 L 241.1,338.3 L 239.4,337.9 L 237.7,337.4 L 236.1,336.8 L 234.5,336.1 L 232.9,335.3 L 231.3,334.3 L 229.8,333.1 L 228.3,331.9 L 227.0,330.6 L 225.7,329.2 L 224.4,327.7 L 223.2,326.1 L 222.1,324.5 L 221.0,322.9 L 219.9,321.3 L 219.1,320.1 L 218.2,318.8 L 217.1,317.2 L 216.1,315.7 L 215.1,314.1 L 214.0,312.4 L 212.9,310.9 L 212.0,309.6 L 211.1,308.1 L 210.1,306.7 L 209.2,305.3 L 208.3,303.9 L 207.3,302.6 L 206.4,301.2 L 205.3,299.9 L 204.2,298.4 L 203.1,297.0 L 201.8,295.6 L 200.7,294.3 L 199.5,293.1 L 198.3,291.9 L 196.9,290.7 L 195.5,289.7 L 194.0,288.8 L 192.6,288.1 L 191.1,287.5 L 189.5,287.1 L 187.7,286.8 L 185.9,286.8 L 184.1,287.0 L 182.3,287.4 L 180.7,288.0 L 179.2,288.7 L 177.8,289.6 L 176.5,290.6 L 175.3,291.7 L 174.2,293.0 L 173.2,294.3 L 172.3,295.9 L 171.5,297.5 L 170.9,299.0 L 170.4,300.6 L 170.1,302.2 L 169.8,303.9 L 169.7,305.6 L 169.7,307.2 L 169.7,308.9 L 169.8,310.6 L 169.9,312.2 L 170.1,313.8 L 170.2,315.3 L 170.3,316.9 L 170.5,318.6 L 170.6,320.2 L 170.7,321.9 L 170.8,323.5 L 171.0,325.3 L 171.1,326.9 L 171.2,328.7 L 171.4,330.4 L 171.5,332.2 L 171.6,334.0 L 171.7,335.8 L 171.9,337.6 L 172.0,339.4 L 172.1,341.3 L 172.3,343.1 L 172.4,345.0 L 172.5,346.9 L 172.6,348.7 L 172.7,350.6 L 172.8,352.6 L 172.9,354.5 L 173.0,356.5 L 173.0,358.3 L 173.0,360.0 L 172.9,361.7 L 172.7,363.3 L 172.5,365.0 L 172.1,366.7 L 171.6,368.2 L 170.9,369.8 L 170.1,371.2 L 169.1,372.5 L 167.9,373.6 L 166.6,374.5 L 165.2,375.2 L 163.7,375.7 L 162.2,375.9 L 160.5,376.0 L 158.9,375.9 L 157.3,375.5 L 155.7,374.9 L 154.2,374.2 L 152.7,373.2 L 151.4,372.1 L 150.1,370.9 L 149.0,369.5 L 147.9,367.9 L 147.1,366.4 L 146.4,364.9 L 145.9,363.4 L 145.4,361.9 L 145.1,360.3 L 144.8,358.6 L 144.6,357.0 L 144.4,355.2 L 144.3,353.5 L 144.3,351.8 L 144.2,350.0 L 144.1,348.3 L 144.1,346.7 L 144.0,345.0 L 143.9,343.4 L 143.8,341.7 L 143.7,340.0 L 143.7,338.3 L 143.6,336.6 L 143.5,334.9 L 143.4,333.3 L 143.3,331.8 L 143.2,330.2 L 143.1,328.6 L 143.0,327.0 L 142.9,325.4 L 142.8,323.7 L 142.7,322.1 L 142.6,320.4 L 142.5,318.8 L 142.4,317.1 L 142.3,315.4 L 142.2,313.7 L 142.1,312.0 L 142.0,310.3 L 141.9,308.5 L 141.7,306.8 L 141.6,305.0 L 141.5,303.2 L 141.4,301.4 L 141.3,299.6 L 141.2,297.8 L 141.1,296.0 L 141.0,294.2 L 140.9,292.4 L 140.8,290.5 L 140.7,288.7 L 140.6,286.8 L 140.4,284.9 L 140.3,283.0 L 140.2,281.1 L 140.1,279.2 L 139.9,277.2 L 139.8,275.3 L 139.7,273.3 L 139.5,271.4 L 139.4,269.4 L 139.2,267.5 L 139.1,265.7 L 139.0,264.0 L 138.9,262.4 L 138.9,260.7 L 138.9,259.0 L 139.0,257.4 L 139.2,255.7 L 139.5,254.0 L 140.1,252.4 L 140.8,251.0 L 141.7,249.6 L 142.8,248.4 L 144.1,247.4 L 145.5,246.5 L 147.1,245.8 L 148.8,245.4 L 150.4,245.1 L 152.0,245.1 L 153.8,245.2 L 155.4,245.5 L 157.0,245.9 L 158.6,246.4 L 160.1,247.0 L 161.7,247.7 L 163.2,248.5 L 164.8,249.4 L 166.4,250.4 L 167.8,251.2 L 169.1,252.1 L 170.4,253.0 L 171.7,253.9 L 173.0,254.8 L 174.5,255.8 L 176.0,256.8 L 177.3,257.6 L 178.7,258.5 L 180.0,259.3 L 181.4,260.0 L 182.8,260.8 L 184.2,261.5 L 185.6,262.3 L 187.1,262.9 L 188.6,263.6 L 190.2,264.2 L 191.8,264.7 L 193.5,265.2 L 195.2,265.4 L 196.9,265.5 L 198.5,265.3 L 200.0,265.0 L 201.5,264.5 L 203.0,263.7 L 204.2,262.8 L 205.4,261.8 L 206.4,260.6 L 207.4,259.3 L 208.2,257.8 L 208.8,256.3 L 209.4,254.6 L 209.8,252.9 L 210.0,251.1 L 210.0,249.3 L 210.0,247.6 L 209.8,246.0 L 209.5,244.4 L 209.2,242.8 L 208.8,241.1 L 208.4,239.4 L 208.0,237.7 L 207.6,236.1 L 207.2,234.4 L 206.8,232.8 L 206.5,231.2 L 206.1,229.5 L 205.8,227.8 L 205.5,226.2 L 205.2,224.6 L 204.9,223.0 L 204.6,221.5 L 204.3,219.9 L 204.0,218.4 L 203.7,216.8 L 203.4,215.1 L 203.1,213.5 L 202.8,211.9 L 202.5,210.2 L 202.2,208.6 L 201.9,206.9 L 201.6,205.2 L 201.2,203.6 L 200.7,201.9 L 200.1,200.3 L 199.5,198.7 L 198.8,197.1 L 198.0,195.6 L 197.1,194.1 L 196.1,192.7 L 195.1,191.4 L 194.0,190.1 L 192.8,188.9 L 191.6,187.8 L 190.3,186.8 L 189.0,185.9 L 187.6,185.0 L 186.2,184.3 L 184.7,183.6 L 183.2,183.0 L 181.7,182.5 L 180.1,182.1 L 178.5,181.8 L 176.9,181.5 L 175.3,181.3 L 173.6,181.2 L 172.0,181.1 L 170.3,181.1 L 168.6,181.1 L 166.9,181.1 L 165.1,181.2 L 163.4,181.4 L 161.7,181.5 L 159.9,181.6 L 158.1,181.6 L 156.3,181.7 L 154.5,181.6 L 152.7,181.5 L 151.0,181.4 L 149.4,181.2 L 147.8,181.0 L 146.2,180.7 L 144.6,180.3 L 143.0,179.8 L 141.4,179.2 L 139.9,178.5 L 138.5,177.6 L 137.1,176.7 L 135.8,175.6 L 134.6,174.5 L 133.5,173.2 L 132.5,171.9 L 131.6,170.4 L 130.8,168.9 L 130.2,167.3 L 129.6,165.7 L 129.2,164.0 L 128.9,162.3 L 128.7,160.8 L 128.6,159.2 L 128.6,157.6 L 128.6,156.1 L 128.7,154.4 L 128.8,152.8 L 129.0,151.2 L 129.2,149.5 L 129.3,147.9 L 129.5,146.2 L 129.7,144.5 L 129.9,142.8 L 130.0,141.1 L 130.2,139.3 L 130.4,137.6 L 130.6,135.8 L 130.7,134.0 L 130.9,132.2 L 131.1,130.4 L 131.2,128.6 L 131.4,126.8 L 131.5,124.9 L 131.7,123.0 L 131.8,121.2 L 132.0,119.3 L 132.2,117.4 L 132.3,115.5 L 132.5,113.6 L 132.7,111.6 L 132.8,109.7 L 133.0,107.8 L 133.2,105.9 L 133.3,103.9 L 133.5,101.9 L 133.7,99.9 L 133.8,98.0 L 134.0,96.3 L 134.0,96.0 Z" fill="none" stroke="rgba(255,255,255,0.15)" stroke-width="5" stroke-linecap="round" stroke-linejoin="round"/><path d="M 134.0,96.0 L 134.1,94.4 L 134.3,92.9 L 134.4,91.4 L 134.5,89.8 L 134.7,88.3 L 134.8,86.8 L 134.9,85.3 L 135.1,83.7 L 135.2,82.2 L 135.3,80.6 L 135.5,79.0 L 135.6,77.5 L 135.8,75.9 L 135.9,74.3 L 136.1,72.8 L 136.2,71.2 L 136.3,69.6 L 136.5,68.0 L 136.6,66.4 L 136.7,64.8 L 136.9,63.1 L 137.0,61.5 L 137.2,59.9 L 137.3,58.3 L 137.4,56.6 L 137.6,55.0 L 137.7,53.3 L 137.9,51.7 L 138.0,50.1 L 138.1,48.5 L 138.3,46.6 L 138.5,44.7 L 138.7,43.0 L 138.8,41.4 L 139.0,39.7 L 139.3,38.0 L 139.6,36.4 L 139.9,34.8 L 140.5,33.1 L 141.2,31.5 L 142.1,30.1 L 143.1,28.7 L 144.4,27.5 L 145.9,26.5 L 147.5,25.6 L 149.1,25.0 L 150.6,24.5 L 152.2,24.2 L 153.8,24.0 L 155.5,24.0 L 157.2,24.1 L 158.9,24.3 L 160.7,24.6 L 162.4,24.9 L 163.9,25.3 L 165.6,25.6 L 167.2,26.0 L 168.9,26.4 L 170.6,26.7 L 172.1,27.0 L 173.6,27.4 L 175.2,27.7 L 176.7,28.1 L 178.3,28.4 L 179.9,28.8 L 181.6,29.1 L 183.2,29.5 L 184.9,29.9 L 186.5,30.2 L 188.2,30.6 L 189.9,31.0 L 191.6,31.4 L 193.4,31.9 L 195.1,32.5 L 196.8,33.1 L 198.5,33.7 L 200.1,34.4 L 201.8,35.2 L 203.4,36.1 L 205.0,37.0 L 206.6,38.1 L 208.1,39.2 L 209.6,40.4 L 210.9,41.7 L 212.3,43.1 L 213.5,44.5 L 214.7,46.0 L 215.7,47.5 L 216.7,49.2 L 217.6,50.8 L 218.4,52.5 L 219.2,54.3 L 219.9,56.0 L 220.5,57.9 L 221.0,59.7 L 221.5,61.5 L 221.8,63.4 L 222.2,65.3 L 222.5,67.1 L 222.8,69.0 L 223.2,70.9 L 223.6,72.8 L 224.0,74.6 L 224.5,76.5 L 225.0,78.3 L 225.6,80.2 L 226.2,82.0 L 226.9,83.8 L 227.7,85.6 L 228.5,87.3 L 229.4,89.1 L 230.3,90.8 L 231.3,92.4 L 232.4,94.1 L 233.5,95.7 L 234.7,97.2 L 235.9,98.7 L 237.2,100.2 L 238.6,101.7 L 239.9,103.1 L 241.3,104.6 L 242.7,106.0 L 244.1,107.3 L 245.1,108.4 L 246.2,109.5 L 247.3,110.5 L 248.3,111.6 L 249.4,112.7 L 250.4,113.9 L 251.5,115.0 L 252.5,116.2 L 253.5,117.4 L 254.5,118.6 L 255.4,119.8 L 256.3,121.1 L 257.2,122.4 L 258.1,123.7 L 258.9,125.0 L 259.7,126.4 L 260.4,127.8 L 261.2,129.2 L 261.8,130.6 L 262.5,132.1 L 263.1,133.5 L 263.7,135.0 L 264.3,136.5 L 264.8,138.0 L 265.3,139.6 L 265.7,141.1 L 266.1,142.7 L 266.5,144.2 L 266.9,145.8 L 267.2,147.4 L 267.5,149.0 L 267.8,150.6 L 268.0,152.2 L 268.3,153.8 L 268.5,155.4 L 268.7,157.0 L 268.8,158.7 L 269.0,160.3 L 269.1,161.9 L 269.2,163.6 L 269.4,165.2 L 269.5,166.8 L 269.5,168.5 L 269.6,170.2 L 269.7,171.8 L 269.8,173.5 L 269.8,175.1 L 269.9,176.8 L 269.9,178.5 L 270.0,180.1 L 270.0,181.8 L 270.0,183.5 L 270.1,185.2 L 270.1,186.9 L 270.1,188.5 L 270.2,190.2 L 270.2,191.9 L 270.2,193.6 L 270.2,195.3 L 270.3,197.0 L 270.3,198.7 L 270.3,200.4 L 270.3,202.1 L 270.4,203.8 L 270.4,205.5 L 270.4,207.2 L 270.4,209.0 L 270.5,210.7 L 270.5,212.4 L 270.5,214.1 L 270.5,215.9 L 270.5,217.6 L 270.6,219.3 L 270.6,221.0 L 270.6,222.8 L 270.6,224.5 L 270.7,226.3 L 270.7,228.0 L 270.7,229.7 L 270.7,231.5 L 270.8,233.2 L 270.8,235.0 L 270.8,236.7 L 270.8,238.5 L 270.9,240.3 L 270.9,242.0 L 270.9,243.7 L 270.9,245.4 L 270.9,247.0 L 270.9,248.6 L 270.9,250.4 L 270.9,252.3 L 270.8,254.1 L 270.7,255.9 L 270.5,257.6 L 270.2,259.3 L 269.9,261.0 L 269.5,262.6 L 269.0,264.2 L 268.4,265.7 L 267.8,267.3 L 267.1,268.8 L 266.4,270.3 L 265.8,271.8 L 265.3,273.3 L 264.8,274.8 L 264.4,276.4 L 264.1,277.9 L 263.9,279.5 L 263.8,281.1 L 263.8,282.8 L 263.9,284.6 L 264.1,286.2 L 264.4,287.9 L 264.8,289.4 L 265.2,290.9 L 265.7,292.4 L 266.3,293.8 L 267.0,295.3 L 267.6,296.7 L 268.3,298.2 L 268.9,299.7 L 269.5,301.3 L 270.0,302.8 L 270.4,304.4 L 270.8,306.0 L 271.0,307.7 L 271.3,309.3 L 271.4,311.0 L 271.4,312.7 L 271.4,314.4 L 271.2,316.1 L 271.0,317.8 L 270.7,319.4 L 270.2,321.0 L 269.7,322.5 L 269.1,324.0 L 268.4,325.4 L 267.6,326.8 L 266.8,328.2 L 265.8,329.4 L 264.8,330.6 L 263.6,331.8 L 262.3,332.9 L 260.9,334.0 L 259.7,334.8 L 258.3,335.6 L 256.9,336.3 L 255.5,336.9 L 254.0,337.5 L 252.4,337.9 L 250.9,338.3 L 249.3,338.5 L 247.6,338.7 L 246.0,338.7 L 244.4,338.7 L 242.7,338.5 L 241.1,338.3 L 239.4,337.9 L 237.7,337.4 L 236.1,336.8 L 234.5,336.1 L 232.9,335.3 L 231.3,334.3 L 229.8,333.1 L 228.3,331.9 L 227.0,330.6 L 225.7,329.2 L 224.4,327.7 L 223.2,326.1 L 222.1,324.5 L 221.0,322.9 L 219.9,321.3 L 219.1,320.1 L 218.2,318.8 L 217.1,317.2 L 216.1,315.7 L 215.1,314.1 L 214.0,312.4 L 212.9,310.9 L 212.0,309.6 L 211.1,308.1 L 210.1,306.7 L 209.2,305.3 L 208.3,303.9 L 207.3,302.6 L 206.4,301.2 L 205.3,299.9 L 204.2,298.4 L 203.1,297.0 L 201.8,295.6 L 200.7,294.3 L 199.5,293.1 L 198.3,291.9 L 196.9,290.7 L 195.5,289.7 L 194.0,288.8 L 192.6,288.1 L 191.1,287.5 L 189.5,287.1 L 187.7,286.8 L 185.9,286.8 L 184.1,287.0 L 182.3,287.4 L 180.7,288.0 L 179.2,288.7 L 177.8,289.6 L 176.5,290.6 L 175.3,291.7 L 174.2,293.0 L 173.2,294.3 L 172.3,295.9 L 171.5,297.5 L 170.9,299.0 L 170.4,300.6 L 170.1,302.2 L 169.8,303.9 L 169.7,305.6 L 169.7,307.2 L 169.7,308.9 L 169.8,310.6 L 169.9,312.2 L 170.1,313.8 L 170.2,315.3 L 170.3,316.9 L 170.5,318.6 L 170.6,320.2 L 170.7,321.9 L 170.8,323.5 L 171.0,325.3 L 171.1,326.9 L 171.2,328.7 L 171.4,330.4 L 171.5,332.2 L 171.6,334.0 L 171.7,335.8 L 171.9,337.6 L 172.0,339.4 L 172.1,341.3 L 172.3,343.1 L 172.4,345.0 L 172.5,346.9 L 172.6,348.7 L 172.7,350.6 L 172.8,352.6 L 172.9,354.5 L 173.0,356.5 L 173.0,358.3 L 173.0,360.0 L 172.9,361.7 L 172.7,363.3 L 172.5,365.0 L 172.1,366.7 L 171.6,368.2 L 170.9,369.8 L 170.1,371.2 L 169.1,372.5 L 167.9,373.6 L 166.6,374.5 L 165.2,375.2 L 163.7,375.7 L 162.2,375.9 L 160.5,376.0 L 158.9,375.9 L 157.3,375.5 L 155.7,374.9 L 154.2,374.2 L 152.7,373.2 L 151.4,372.1 L 150.1,370.9 L 149.0,369.5 L 147.9,367.9 L 147.1,366.4 L 146.4,364.9 L 145.9,363.4 L 145.4,361.9 L 145.1,360.3 L 144.8,358.6 L 144.6,357.0 L 144.4,355.2 L 144.3,353.5 L 144.3,351.8 L 144.2,350.0 L 144.1,348.3 L 144.1,346.7 L 144.0,345.0 L 143.9,343.4 L 143.8,341.7 L 143.7,340.0 L 143.7,338.3 L 143.6,336.6 L 143.5,334.9 L 143.4,333.3 L 143.3,331.8 L 143.2,330.2 L 143.1,328.6 L 143.0,327.0 L 142.9,325.4 L 142.8,323.7 L 142.7,322.1 L 142.6,320.4 L 142.5,318.8 L 142.4,317.1 L 142.3,315.4 L 142.2,313.7 L 142.1,312.0 L 142.0,310.3 L 141.9,308.5 L 141.7,306.8 L 141.6,305.0 L 141.5,303.2 L 141.4,301.4 L 141.3,299.6 L 141.2,297.8 L 141.1,296.0 L 141.0,294.2 L 140.9,292.4 L 140.8,290.5 L 140.7,288.7 L 140.6,286.8 L 140.4,284.9 L 140.3,283.0 L 140.2,281.1 L 140.1,279.2 L 139.9,277.2 L 139.8,275.3 L 139.7,273.3 L 139.5,271.4 L 139.4,269.4 L 139.2,267.5 L 139.1,265.7 L 139.0,264.0 L 138.9,262.4 L 138.9,260.7 L 138.9,259.0 L 139.0,257.4 L 139.2,255.7 L 139.5,254.0 L 140.1,252.4 L 140.8,251.0 L 141.7,249.6 L 142.8,248.4 L 144.1,247.4 L 145.5,246.5 L 147.1,245.8 L 148.8,245.4 L 150.4,245.1 L 152.0,245.1 L 153.8,245.2 L 155.4,245.5 L 157.0,245.9 L 158.6,246.4 L 160.1,247.0 L 161.7,247.7 L 163.2,248.5 L 164.8,249.4 L 166.4,250.4 L 167.8,251.2 L 169.1,252.1 L 170.4,253.0 L 171.7,253.9 L 173.0,254.8 L 174.5,255.8 L 176.0,256.8 L 177.3,257.6 L 178.7,258.5 L 180.0,259.3 L 181.4,260.0 L 182.8,260.8 L 184.2,261.5 L 185.6,262.3 L 187.1,262.9 L 188.6,263.6 L 190.2,264.2 L 191.8,264.7 L 193.5,265.2 L 195.2,265.4 L 196.9,265.5 L 198.5,265.3 L 200.0,265.0 L 201.5,264.5 L 203.0,263.7 L 204.2,262.8 L 205.4,261.8 L 206.4,260.6 L 207.4,259.3 L 208.2,257.8 L 208.8,256.3 L 209.4,254.6 L 209.8,252.9 L 210.0,251.1 L 210.0,249.3 L 210.0,247.6 L 209.8,246.0 L 209.5,244.4 L 209.2,242.8 L 208.8,241.1 L 208.4,239.4 L 208.0,237.7 L 207.6,236.1 L 207.2,234.4 L 206.8,232.8 L 206.5,231.2 L 206.1,229.5 L 205.8,227.8 L 205.5,226.2 L 205.2,224.6 L 204.9,223.0 L 204.6,221.5 L 204.3,219.9 L 204.0,218.4 L 203.7,216.8 L 203.4,215.1 L 203.1,213.5 L 202.8,211.9 L 202.5,210.2 L 202.2,208.6 L 201.9,206.9 L 201.6,205.2 L 201.2,203.6 L 200.7,201.9 L 200.1,200.3 L 199.5,198.7 L 198.8,197.1 L 198.0,195.6 L 197.1,194.1 L 196.1,192.7 L 195.1,191.4 L 194.0,190.1 L 192.8,188.9 L 191.6,187.8 L 190.3,186.8 L 189.0,185.9 L 187.6,185.0 L 186.2,184.3 L 184.7,183.6 L 183.2,183.0 L 181.7,182.5 L 180.1,182.1 L 178.5,181.8 L 176.9,181.5 L 175.3,181.3 L 173.6,181.2 L 172.0,181.1 L 170.3,181.1 L 168.6,181.1 L 166.9,181.1 L 165.1,181.2 L 163.4,181.4 L 161.7,181.5 L 159.9,181.6 L 158.1,181.6 L 156.3,181.7 L 154.5,181.6 L 152.7,181.5 L 151.0,181.4 L 149.4,181.2 L 147.8,181.0 L 146.2,180.7 L 144.6,180.3 L 143.0,179.8 L 141.4,179.2 L 139.9,178.5 L 138.5,177.6 L 137.1,176.7 L 135.8,175.6 L 134.6,174.5 L 133.5,173.2 L 132.5,171.9 L 131.6,170.4 L 130.8,168.9 L 130.2,167.3 L 129.6,165.7 L 129.2,164.0 L 128.9,162.3 L 128.7,160.8 L 128.6,159.2 L 128.6,157.6 L 128.6,156.1 L 128.7,154.4 L 128.8,152.8 L 129.0,151.2 L 129.2,149.5 L 129.3,147.9 L 129.5,146.2 L 129.7,144.5 L 129.9,142.8 L 130.0,141.1 L 130.2,139.3 L 130.4,137.6 L 130.6,135.8 L 130.7,134.0 L 130.9,132.2 L 131.1,130.4 L 131.2,128.6 L 131.4,126.8 L 131.5,124.9 L 131.7,123.0 L 131.8,121.2 L 132.0,119.3 L 132.2,117.4 L 132.3,115.5 L 132.5,113.6 L 132.7,111.6 L 132.8,109.7 L 133.0,107.8 L 133.2,105.9 L 133.3,103.9 L 133.5,101.9 L 133.7,99.9 L 133.8,98.0 L 134.0,96.3 L 134.0,96.0 Z" fill="none" stroke="#4db8ff" stroke-width="2.5" stroke-linecap="round" stroke-linejoin="round"/></svg>